<?xml version="1.0" encoding="UTF-8" standalone="no"?>
<!-- Created with Inkscape (http://www.inkscape.org/) -->

<svg
   version="1.1"
   id="svg2"
   width="175"
   height="175"
   viewBox="0 0 175 175"
   sodipodi:docname="template.svg"
   inkscape:version="1.1 (c68e22c387, 2021-05-23)"
   xmlns:inkscape="http://www.inkscape.org/namespaces/inkscape"
   xmlns:sodipodi="http://sodipodi.sourceforge.net/DTD/sodipodi-0.dtd"
   xmlns="http://www.w3.org/2000/svg"
   xmlns:svg="http://www.w3.org/2000/svg">
  <defs
     id="defs6">
    <inkscape:path-effect
       effect="bspline"
       id="path-effect365029"
       is_visible="true"
       lpeversion="1"
       weight="33.333333"
       steps="2"
       helper_size="0"
       apply_no_weight="true"
       apply_with_weight="true"
       only_selected="false" />
    <inkscape:path-effect
       effect="bspline"
       id="path-effect357801"
       is_visible="true"
       lpeversion="1"
       weight="33.333333"
       steps="2"
       helper_size="0"
       apply_no_weight="true"
       apply_with_weight="true"
       only_selected="false" />
    <inkscape:path-effect
       effect="bspline"
       id="path-effect340785"
       is_visible="true"
       lpeversion="1"
       weight="33.333333"
       steps="2"
       helper_size="0"
       apply_no_weight="true"
       apply_with_weight="true"
       only_selected="false" />
    <inkscape:path-effect
       effect="bspline"
       id="path-effect325081"
       is_visible="true"
       lpeversion="1"
       weight="33.333333"
       steps="2"
       helper_size="0"
       apply_no_weight="true"
       apply_with_weight="true"
       only_selected="false" />
    <inkscape:path-effect
       effect="bspline"
       id="path-effect324480"
       is_visible="true"
       lpeversion="1"
       weight="33.333333"
       steps="2"
       helper_size="0"
       apply_no_weight="true"
       apply_with_weight="true"
       only_selected="false" />
    <inkscape:path-effect
       effect="bspline"
       id="path-effect318905"
       is_visible="true"
       lpeversion="1"
       weight="33.333333"
       steps="2"
       helper_size="0"
       apply_no_weight="true"
       apply_with_weight="true"
       only_selected="false" />
    <inkscape:path-effect
       effect="bspline"
       id="path-effect304319"
       is_visible="true"
       lpeversion="1"
       weight="33.333333"
       steps="2"
       helper_size="0"
       apply_no_weight="true"
       apply_with_weight="true"
       only_selected="false" />
    <inkscape:path-effect
       effect="bspline"
       id="path-effect282325"
       is_visible="true"
       lpeversion="1"
       weight="33.333333"
       steps="2"
       helper_size="0"
       apply_no_weight="true"
       apply_with_weight="true"
       only_selected="false" />
    <inkscape:path-effect
       effect="bspline"
       id="path-effect278362"
       is_visible="true"
       lpeversion="1"
       weight="33.333333"
       steps="2"
       helper_size="0"
       apply_no_weight="true"
       apply_with_weight="true"
       only_selected="false" />
    <inkscape:path-effect
       effect="bspline"
       id="path-effect271846"
       is_visible="true"
       lpeversion="1"
       weight="33.333333"
       steps="2"
       helper_size="0"
       apply_no_weight="true"
       apply_with_weight="true"
       only_selected="false" />
    <inkscape:path-effect
       effect="bspline"
       id="path-effect264494"
       is_visible="true"
       lpeversion="1"
       weight="33.333333"
       steps="2"
       helper_size="0"
       apply_no_weight="true"
       apply_with_weight="true"
       only_selected="false" />
    <inkscape:path-effect
       effect="bspline"
       id="path-effect259894"
       is_visible="true"
       lpeversion="1"
       weight="33.333333"
       steps="2"
       helper_size="0"
       apply_no_weight="true"
       apply_with_weight="true"
       only_selected="false" />
    <inkscape:path-effect
       effect="bspline"
       id="path-effect249808"
       is_visible="true"
       lpeversion="1"
       weight="33.333333"
       steps="2"
       helper_size="0"
       apply_no_weight="true"
       apply_with_weight="true"
       only_selected="false" />
    <inkscape:path-effect
       effect="bspline"
       id="path-effect245289"
       is_visible="true"
       lpeversion="1"
       weight="33.333333"
       steps="2"
       helper_size="0"
       apply_no_weight="true"
       apply_with_weight="true"
       only_selected="false" />
    <inkscape:path-effect
       effect="bspline"
       id="path-effect226433"
       is_visible="true"
       lpeversion="1"
       weight="33.333333"
       steps="2"
       helper_size="0"
       apply_no_weight="true"
       apply_with_weight="true"
       only_selected="false" />
    <inkscape:path-effect
       effect="bspline"
       id="path-effect220068"
       is_visible="true"
       lpeversion="1"
       weight="33.333333"
       steps="2"
       helper_size="0"
       apply_no_weight="true"
       apply_with_weight="true"
       only_selected="false" />
    <inkscape:path-effect
       effect="bspline"
       id="path-effect216183"
       is_visible="true"
       lpeversion="1"
       weight="33.333333"
       steps="2"
       helper_size="0"
       apply_no_weight="true"
       apply_with_weight="true"
       only_selected="false" />
    <inkscape:path-effect
       effect="bspline"
       id="path-effect204552"
       is_visible="true"
       lpeversion="1"
       weight="33.333333"
       steps="2"
       helper_size="0"
       apply_no_weight="true"
       apply_with_weight="true"
       only_selected="false" />
    <inkscape:path-effect
       effect="bspline"
       id="path-effect193451"
       is_visible="true"
       lpeversion="1"
       weight="33.333333"
       steps="2"
       helper_size="0"
       apply_no_weight="true"
       apply_with_weight="true"
       only_selected="false" />
    <inkscape:path-effect
       effect="bspline"
       id="path-effect193447"
       is_visible="true"
       lpeversion="1"
       weight="33.333333"
       steps="2"
       helper_size="0"
       apply_no_weight="true"
       apply_with_weight="true"
       only_selected="false" />
    <inkscape:path-effect
       effect="bspline"
       id="path-effect176305"
       is_visible="true"
       lpeversion="1"
       weight="33.333333"
       steps="2"
       helper_size="0"
       apply_no_weight="true"
       apply_with_weight="true"
       only_selected="false" />
    <inkscape:path-effect
       effect="bspline"
       id="path-effect169270"
       is_visible="true"
       lpeversion="1"
       weight="33.333333"
       steps="2"
       helper_size="0"
       apply_no_weight="true"
       apply_with_weight="true"
       only_selected="false" />
    <inkscape:path-effect
       effect="bspline"
       id="path-effect159142"
       is_visible="true"
       lpeversion="1"
       weight="33.333333"
       steps="2"
       helper_size="0"
       apply_no_weight="true"
       apply_with_weight="true"
       only_selected="false" />
    <inkscape:path-effect
       effect="bspline"
       id="path-effect148103"
       is_visible="true"
       lpeversion="1"
       weight="33.333333"
       steps="2"
       helper_size="0"
       apply_no_weight="true"
       apply_with_weight="true"
       only_selected="false" />
    <inkscape:path-effect
       effect="bspline"
       id="path-effect143609"
       is_visible="true"
       lpeversion="1"
       weight="33.333333"
       steps="2"
       helper_size="0"
       apply_no_weight="true"
       apply_with_weight="true"
       only_selected="false" />
    <inkscape:path-effect
       effect="bspline"
       id="path-effect133610"
       is_visible="true"
       lpeversion="1"
       weight="33.333333"
       steps="2"
       helper_size="0"
       apply_no_weight="true"
       apply_with_weight="true"
       only_selected="false" />
    <inkscape:path-effect
       effect="bspline"
       id="path-effect125498"
       is_visible="true"
       lpeversion="1"
       weight="33.333333"
       steps="2"
       helper_size="0"
       apply_no_weight="true"
       apply_with_weight="true"
       only_selected="false" />
    <inkscape:path-effect
       effect="bspline"
       id="path-effect122378"
       is_visible="true"
       lpeversion="1"
       weight="33.333333"
       steps="2"
       helper_size="0"
       apply_no_weight="true"
       apply_with_weight="true"
       only_selected="false" />
    <inkscape:path-effect
       effect="bspline"
       id="path-effect111011"
       is_visible="true"
       lpeversion="1"
       weight="33.333333"
       steps="2"
       helper_size="0"
       apply_no_weight="true"
       apply_with_weight="true"
       only_selected="false" />
    <inkscape:path-effect
       effect="bspline"
       id="path-effect110536"
       is_visible="true"
       lpeversion="1"
       weight="33.333333"
       steps="2"
       helper_size="0"
       apply_no_weight="true"
       apply_with_weight="true"
       only_selected="false" />
    <inkscape:path-effect
       effect="bspline"
       id="path-effect110405"
       is_visible="true"
       lpeversion="1"
       weight="33.333333"
       steps="2"
       helper_size="0"
       apply_no_weight="true"
       apply_with_weight="true"
       only_selected="false" />
    <inkscape:path-effect
       effect="bspline"
       id="path-effect110300"
       is_visible="true"
       lpeversion="1"
       weight="33.333333"
       steps="2"
       helper_size="0"
       apply_no_weight="true"
       apply_with_weight="true"
       only_selected="false" />
    <inkscape:path-effect
       effect="bspline"
       id="path-effect105534"
       is_visible="true"
       lpeversion="1"
       weight="33.333333"
       steps="2"
       helper_size="0"
       apply_no_weight="true"
       apply_with_weight="true"
       only_selected="false" />
    <inkscape:path-effect
       effect="bspline"
       id="path-effect105367"
       is_visible="true"
       lpeversion="1"
       weight="33.333333"
       steps="2"
       helper_size="0"
       apply_no_weight="true"
       apply_with_weight="true"
       only_selected="false" />
    <inkscape:path-effect
       effect="bspline"
       id="path-effect105348"
       is_visible="true"
       lpeversion="1"
       weight="33.333333"
       steps="2"
       helper_size="0"
       apply_no_weight="true"
       apply_with_weight="true"
       only_selected="false" />
    <inkscape:path-effect
       effect="bspline"
       id="path-effect104868"
       is_visible="true"
       lpeversion="1"
       weight="33.333333"
       steps="2"
       helper_size="0"
       apply_no_weight="true"
       apply_with_weight="true"
       only_selected="false" />
    <inkscape:path-effect
       effect="bspline"
       id="path-effect97918"
       is_visible="true"
       lpeversion="1"
       weight="33.333333"
       steps="2"
       helper_size="0"
       apply_no_weight="true"
       apply_with_weight="true"
       only_selected="false" />
    <inkscape:path-effect
       effect="bspline"
       id="path-effect79874"
       is_visible="true"
       lpeversion="1"
       weight="33.333333"
       steps="2"
       helper_size="0"
       apply_no_weight="true"
       apply_with_weight="true"
       only_selected="false" />
    <inkscape:path-effect
       effect="bspline"
       id="path-effect76325"
       is_visible="true"
       lpeversion="1"
       weight="33.333333"
       steps="2"
       helper_size="0"
       apply_no_weight="true"
       apply_with_weight="true"
       only_selected="false" />
    <inkscape:path-effect
       effect="bspline"
       id="path-effect64821"
       is_visible="true"
       lpeversion="1"
       weight="33.333333"
       steps="2"
       helper_size="0"
       apply_no_weight="true"
       apply_with_weight="true"
       only_selected="false" />
    <inkscape:path-effect
       effect="bspline"
       id="path-effect49170"
       is_visible="true"
       lpeversion="1"
       weight="33.333333"
       steps="2"
       helper_size="0"
       apply_no_weight="true"
       apply_with_weight="true"
       only_selected="false" />
    <inkscape:path-effect
       effect="bspline"
       id="path-effect44907"
       is_visible="true"
       lpeversion="1"
       weight="33.333333"
       steps="2"
       helper_size="0"
       apply_no_weight="true"
       apply_with_weight="true"
       only_selected="false" />
    <inkscape:path-effect
       effect="bspline"
       id="path-effect40344"
       is_visible="true"
       lpeversion="1"
       weight="33.333333"
       steps="2"
       helper_size="0"
       apply_no_weight="true"
       apply_with_weight="true"
       only_selected="false" />
    <inkscape:path-effect
       effect="bspline"
       id="path-effect37620"
       is_visible="true"
       lpeversion="1"
       weight="33.333333"
       steps="2"
       helper_size="0"
       apply_no_weight="true"
       apply_with_weight="true"
       only_selected="false" />
    <inkscape:path-effect
       effect="bspline"
       id="path-effect29841"
       is_visible="true"
       lpeversion="1"
       weight="33.333333"
       steps="2"
       helper_size="0"
       apply_no_weight="true"
       apply_with_weight="true"
       only_selected="false" />
    <inkscape:path-effect
       effect="bspline"
       id="path-effect24957"
       is_visible="true"
       lpeversion="1"
       weight="33.333333"
       steps="2"
       helper_size="0"
       apply_no_weight="true"
       apply_with_weight="true"
       only_selected="false" />
    <inkscape:path-effect
       effect="bspline"
       id="path-effect15655"
       is_visible="true"
       lpeversion="1"
       weight="33.333333"
       steps="2"
       helper_size="0"
       apply_no_weight="true"
       apply_with_weight="true"
       only_selected="false" />
    <inkscape:path-effect
       effect="bspline"
       id="path-effect10632"
       is_visible="true"
       lpeversion="1"
       weight="33.333333"
       steps="2"
       helper_size="0"
       apply_no_weight="true"
       apply_with_weight="true"
       only_selected="false" />
    <inkscape:path-effect
       effect="bspline"
       id="path-effect5600"
       is_visible="true"
       lpeversion="1"
       weight="33.333333"
       steps="2"
       helper_size="0"
       apply_no_weight="true"
       apply_with_weight="true"
       only_selected="false" />
    <inkscape:path-effect
       effect="bspline"
       id="path-effect857"
       is_visible="true"
       lpeversion="1"
       weight="33.333333"
       steps="2"
       helper_size="0"
       apply_no_weight="true"
       apply_with_weight="true"
       only_selected="false" />
    <clipPath
       clipPathUnits="userSpaceOnUse"
       id="clipPath345937">
      <path
         style="fill:#c28b7a;fill-opacity:1;stroke:none;stroke-width:1.1625px;stroke-linecap:butt;stroke-linejoin:miter;stroke-opacity:1"
         d="m 121.82536,57.101942 c -0.203,-0.201868 0.60415,-0.55784 1.30134,-0.806988 0.69719,-0.249147 1.28419,-0.391531 1.98528,-0.450745 0.70108,-0.05922 1.51592,-0.03549 2.37915,0.107065 0.86323,0.14255 1.77463,0.40359 2.35007,0.615045 0.57544,0.211455 0.81487,0.372824 0.93798,0.472776 0.1231,0.09995 0.13084,0.138021 -0.42108,0.187081 -0.55193,0.04906 -1.66413,0.11076 -2.7416,0.141639 -1.07746,0.03088 -2.12016,0.03088 -3.24785,0.0072 -1.12768,-0.02371 -2.3403,-0.07117 -2.54329,-0.27304 z"
         id="path345939" />
    </clipPath>
    <clipPath
       clipPathUnits="userSpaceOnUse"
       id="clipPath346516">
      <path
         style="opacity:1;fill:#c28b7a;fill-opacity:1;stroke:none;stroke-width:1px;stroke-linecap:butt;stroke-linejoin:miter;stroke-opacity:1"
         d="m 140.18541,57.968769 c -0.43541,-0.01564 -0.43541,-0.01564 -0.12536,-0.203237 0.31005,-0.187593 0.92982,-0.562582 1.65671,-0.778673 0.72689,-0.216091 1.56021,-0.273381 2.35973,-0.301995 0.79952,-0.02861 1.56513,-0.02861 2.27351,-0.0051 0.70838,0.02348 1.3594,0.07035 1.95582,0.179878 0.59643,0.109529 1.13808,0.281399 1.51305,0.44308 0.37497,0.161681 0.58217,0.311898 0.7905,0.46294 -0.41667,0.02083 -0.83238,0.04162 -1.67355,0.08849 -0.84116,0.04687 -2.10676,0.119787 -3.27341,0.156273 -1.16664,0.03648 -2.23433,0.03648 -3.20307,0.02088 -0.96875,-0.01561 -1.83852,-0.04686 -2.27393,-0.0625 z"
         id="path346518"
         inkscape:path-effect="#path-effect324480"
         inkscape:original-d="m 139.75,57.953125 c 0.001,10e-4 0.001,10e-4 0,0 0.62081,-0.374008 1.24058,-0.749 1.85937,-1.125 0.83435,-0.05629 1.66767,-0.113583 2.5,-0.171875 0.76664,10e-4 1.53225,10e-4 2.29688,0 0.65206,0.04788 1.30308,0.09475 1.95312,0.140625 0.54268,0.172878 1.08433,0.34475 1.625,0.515625 0.20934,0.152045 0.625,0.453125 0.625,0.453125 0,0 -0.83233,0.04267 -1.25,0.0625 -1.26465,0.07392 -2.53025,0.146833 -3.79687,0.21875 -1.06673,10e-4 -2.13442,10e-4 -3.20313,0 -0.86881,-0.03025 -1.73858,-0.0615 -2.60937,-0.09375 z" />
    </clipPath>
    <clipPath
       clipPathUnits="userSpaceOnUse"
       id="clipPath1115">
      <rect
         style="opacity:0.535232;fill:none;stroke:#000000;stroke-width:0.751496;stroke-linecap:round;stroke-linejoin:round"
         id="rect1117"
         width="155.20271"
         height="177.22983"
         x="61.667126"
         y="4.6978464"
         ry="0" />
    </clipPath>
  </defs>
  <sodipodi:namedview
     id="namedview4"
     pagecolor="#ffffff"
     bordercolor="#666666"
     borderopacity="1.0"
     inkscape:pageshadow="2"
     inkscape:pageopacity="0.0"
     inkscape:pagecheckerboard="0"
     showgrid="false"
     inkscape:zoom="8.9123687"
     inkscape:cx="96.102397"
     inkscape:cy="162.58304"
     inkscape:window-width="1920"
     inkscape:window-height="1047"
     inkscape:window-x="-9"
     inkscape:window-y="-9"
     inkscape:window-maximized="1"
     inkscape:current-layer="g8"
     fit-margin-top="5"
     fit-margin-right="5"
     fit-margin-left="5"
     fit-margin-bottom="0" />
  <g
     inkscape:groupmode="layer"
     inkscape:label="Image"
     id="g8"
     transform="translate(-68.063268,-7.3157532)">
    <g
       id="g971"
       clip-path="url(#clipPath1115)"
       transform="translate(18.244419,0.44881447)">
      <path
         style="fill:#d5dfe8;fill-opacity:1;stroke:none;stroke-width:1px;stroke-linecap:butt;stroke-linejoin:miter;stroke-opacity:1"
         d="m 82.375514,155.00118 c -0.12519,-0.70833 -0.625192,-2.54167 -1.146164,-8.56267 -0.520972,-6.021 -1.062628,-16.22913 -1.041906,-22.47932 0.02072,-6.2502 0.604044,-8.54182 3.687938,-10.10474 3.083895,-1.56292 8.667117,-2.39624 16.896488,-2.667 8.22938,-0.27075 19.10416,0.0209 29.0209,0.2084 9.91675,0.18749 18.87491,0.27083 26.39569,-0.2501 7.52078,-0.52092 13.604,-1.6459 18.02083,-1.02034 4.41683,0.62556 7.16678,3.00051 9.37472,8.10488 2.20794,5.10436 3.87457,12.93754 3.31182,21.4582 -0.56275,8.52067 -3.35436,17.72882 -5.72872,22.18691 -2.37436,4.4581 -4.33266,4.16643 -6.97849,3.04168 -2.64584,-1.12476 -5.97911,-3.08306 -11.08343,-4.10423 -5.10432,-1.02117 -11.97918,-1.1045 -16.25064,0.89578 -4.27146,2.00029 -5.93809,6.08355 -8.95849,8.60405 -3.0204,2.52051 -7.39532,3.47882 -11.89521,3.8331 -4.49989,0.35427 -9.1248,0.10428 -15.479,-0.85398 -6.35419,-0.95826 -14.437359,-2.62489 -19.583488,-5.62446 -5.146129,-2.99956 -7.354419,-7.33281 -8.354816,-9.68741 -1.000396,-2.3546 -0.792068,-2.72959 -0.562453,-2.70834 0.229616,0.0213 0.479611,0.43792 0.354421,-0.27041 z"
         id="path365027"
         inkscape:path-effect="#path-effect365029"
         inkscape:original-d="m 82.75,156.125 c -0.499,-1.83233 -0.999,-3.66567 -1.5,-5.5 -0.540678,-10.20754 -1.082334,-20.41567 -1.625,-30.625 0.584345,-2.29071 1.167666,-4.58233 1.75,-6.875 5.584445,-0.83235 11.167666,-1.66567 16.75,-2.5 10.87622,0.29267 21.751,0.58433 32.625,0.875 8.95951,0.0843 17.91767,0.16767 26.875,0.25 6.08445,-1.12402 12.16767,-2.249 18.25,-3.375 2.75105,2.37605 5.501,4.751 8.25,7.125 1.6677,7.83449 3.33433,15.66767 5,23.5 -2.79072,9.20952 -5.58233,18.41767 -8.375,27.625 -1.95737,-0.29067 -3.91567,-0.58233 -5.875,-0.875 -3.3324,-1.95737 -6.66567,-3.91567 -10,-5.875 -6.87414,-0.0823 -13.749,-0.16567 -20.625,-0.25 -1.6657,4.08441 -3.33233,8.16767 -5,12.25 -4.37409,0.95935 -8.749,1.91767 -13.125,2.875 -4.62409,-0.24901 -9.249,-0.499 -13.875,-0.75 -8.0825,-1.6657 -16.165667,-3.33233 -24.25,-5 -2.207378,-4.33242 -4.415667,-8.66567 -6.625,-13 0.209337,-0.37401 0.417666,-0.749 0.625,-1.125 0.251005,0.41767 0.501,0.83433 0.75,1.25 z" />
      <path
         style="fill:#221610;fill-opacity:1;stroke:none;stroke-width:1px;stroke-linecap:butt;stroke-linejoin:miter;stroke-opacity:1"
         d="m 116.20871,92.837144 c 0.37579,-0.235786 1.12709,-0.707191 1.81189,-1.39938 0.68481,-0.69219 1.30352,-1.605519 1.72394,-2.062302 0.42042,-0.456784 0.64139,-0.456784 1.08323,0.02257 0.44185,0.479353 1.10475,1.436874 1.87803,2.917429 0.77327,1.480555 1.65714,3.483982 3.66098,5.111454 2.00384,1.627472 5.12683,2.879615 8.63265,2.901355 3.50582,0.0217 7.39483,-1.186201 10.23028,-2.872816 2.83545,-1.686614 4.61792,-3.852085 5.49437,-4.890396 0.87646,-1.038311 0.847,-0.949944 1.81997,-0.272208 0.97297,0.677736 2.94693,1.944607 4.08124,2.681204 1.13431,0.736598 1.42894,0.942838 1.19993,2.467508 -0.22901,1.524669 -0.98029,4.367768 -2.43127,6.908618 -1.45098,2.54086 -3.60172,4.77999 -6.26804,7.07804 -2.66632,2.29804 -5.84824,4.65502 -9.30967,5.52432 -3.46144,0.8693 -7.20314,0.2506 -10.14941,-0.67725 -2.94627,-0.92784 -5.09701,-2.16525 -7.15963,-4.24217 -2.06261,-2.07692 -4.03658,-4.99368 -5.13443,-8.2936 -1.09785,-3.29991 -1.31882,-6.982684 -1.42933,-8.824636 -0.11052,-1.841952 -0.11051,-1.841952 0.26527,-2.077738 z"
         id="path357799"
         inkscape:path-effect="#path-effect357801"
         inkscape:original-d="m 115.83293,93.07293 c 0.7523,-0.470405 1.5036,-0.941809 2.2539,-1.414214 0.61973,-0.912364 1.23844,-1.825692 1.85616,-2.740038 0.22197,0.001 0.44294,0.001 0.66291,0 0.66393,0.958559 1.32683,1.91608 1.98874,2.872621 0.8849,2.004509 1.76876,4.007938 2.65165,6.010407 3.12412,1.253194 6.24711,2.505334 9.36916,3.756504 3.89017,-1.207 7.77918,-2.414947 11.66727,-3.623921 1.78353,-2.164558 3.56599,-4.330029 5.34749,-6.496544 -0.0285,0.08939 -0.0579,0.177777 -0.0884,0.265166 1.97505,1.267925 3.94901,2.534799 5.92202,3.800698 0.29563,0.207244 0.59026,0.413479 0.88388,0.618719 -0.75031,2.844215 -1.5016,5.687312 -2.2539,8.529472 -2.14982,2.24022 -4.30056,4.47935 -6.45235,6.71752 -3.18104,2.35807 -6.36296,4.71504 -9.54594,7.07107 -3.74085,-0.61774 -7.48255,-1.23644 -11.22532,-1.85616 -2.14983,-1.23646 -4.30057,-2.47387 -6.45235,-3.71231 -1.97304,-2.91587 -3.94701,-5.83263 -5.92202,-8.75045 -0.21997,-3.68192 -0.44094,-7.364692 -0.66291,-11.04854 z" />
      <path
         style="fill:#d8e1ea;fill-opacity:1;stroke:none;stroke-width:1px;stroke-linecap:butt;stroke-linejoin:miter;stroke-opacity:1"
         d="m 95.339234,184.22896 c 0,0 34.665926,-0.52311 34.665926,-0.52311 0,0 0.31312,-62.03649 0.31312,-62.03649 -1.39604,-2.78517 -2.79147,-5.56913 -4.24071,-8.05189 -1.44924,-2.48275 -2.95181,-4.66296 -4.61651,-7.2557 -1.66471,-2.59274 -3.49136,-5.59788 -4.81706,-7.52778 -1.32571,-1.9299 -2.15163,-2.785319 -2.97659,-3.63974 -0.76603,0.795495 -1.53208,1.59101 -3.85202,2.67367 -2.31993,1.08266 -6.19421,2.45265 -10.009683,3.82268 -3.815477,1.37003 -7.571905,2.74003 -10.275248,3.88909 -2.703342,1.14907 -4.353226,2.07713 -5.851203,3.69545 -1.497978,1.61832 -2.843269,3.92598 -4.188769,6.234 4.770451,5.95985 9.54178,11.9208 12.182819,23.37423 2.641039,11.45344 3.153463,28.39883 3.665928,45.34559 z"
         id="path79872"
         inkscape:path-effect="#path-effect79874"
         inkscape:original-d="m 95.339234,184.22896 34.665926,-0.52311 0.31312,-62.03649 c 0,0 -2.79107,-5.56933 -4.18811,-8.3555 -1.50163,-2.17929 -3.0042,-4.35949 -4.5078,-6.54074 -1.82573,-3.00426 -3.65239,-6.0094 -5.48008,-9.015608 -0.82398,-0.853438 -2.47488,-2.563262 -2.47488,-2.563262 0,0 -1.53106,1.59199 -2.29809,2.386486 -3.87344,1.371046 -7.74771,2.741034 -11.62307,4.110054 -3.75558,1.37105 -7.512009,2.74104 -11.269514,4.11006 -1.648949,0.9291 -3.298832,1.85716 -4.949748,2.78423 -1.344527,2.30907 -4.036501,6.92406 -4.036501,6.92406 0,0 9.541901,11.9207 14.311352,17.87955 0.513475,16.94809 1.537395,50.84027 1.537395,50.84027 z"
         sodipodi:nodetypes="cccccccccccccc" />
      <path
         id="path193445"
         style="opacity:1;mix-blend-mode:normal;fill:#211715;fill-opacity:1;stroke:none;stroke-width:1px;stroke-linecap:butt;stroke-linejoin:miter;stroke-opacity:1"
         d="m 128.82812,12.324219 c -0.518,0.106517 -1.30538,1.255484 -1.7246,2.541015 -0.47912,1.469179 -0.47776,3.114619 -0.7793,3.6875 -0.30154,0.572881 -0.90716,0.07278 -1.35547,-0.71875 -0.44831,-0.791529 -0.73975,-1.873651 -1.3125,-2.291015 -0.57275,-0.417364 -1.42732,-0.167792 -1.95898,0.447265 -0.53167,0.615057 -0.73906,1.593503 -1.19727,2.384766 -0.45821,0.791263 -1.16657,1.394926 -2.13477,1.478516 -0.9682,0.08359 -2.19789,-0.352173 -3.40625,-0.748047 -1.20835,-0.395874 -2.39597,-0.751037 -2.74023,0.603515 -0.34426,1.354553 0.15723,4.416639 -0.14453,5.1875 -0.30176,0.770862 -1.40592,-0.749983 -1.875,-0.96875 -0.46909,-0.218767 -0.30386,0.86564 -0.3457,1.615235 -0.0418,0.749594 -0.29039,1.164701 -1.12305,1.185547 -0.83266,0.02085 -2.2493,-0.352358 -3.125,-0.0293 -0.8757,0.323061 -1.21017,1.343492 -1.13672,2.15625 0.0734,0.812757 0.55214,1.415989 0.40625,1.800781 -0.14589,0.384792 -0.91558,0.551568 -1.35352,1.0625 -0.43793,0.510932 -0.54241,1.366344 -0.74023,1.917969 -0.19782,0.551625 -0.48953,0.800079 -1.03125,1.341797 -0.54172,0.541717 -1.3324,1.376374 -1.30078,2.470703 0.0316,1.094328 0.88545,2.447931 0.84375,3.259765 -0.0417,0.811835 -0.98075,1.08189 -1.626954,1.425782 -0.646209,0.343891 -1.000221,0.76116 -0.96875,1.636718 0.03147,0.875559 0.448941,2.208879 0.865234,3.541016 l 6.74023,11.582031 c -0.16411,0.169702 -0.35566,0.363831 -0.57421,0.595703 -0.85428,0.906349 -2.10346,2.363169 -3.00977,3.550782 -0.90631,1.187612 -1.46977,2.104398 -1.20898,2.375 0.26078,0.270601 1.34426,-0.104175 2.11523,0.02148 0.77097,0.125659 1.22943,0.751946 0.875,1.417969 -0.35443,0.666022 -1.51987,1.373743 -1.86328,1.978515 -0.34342,0.604773 0.13496,1.104121 0.82226,1.197266 0.68731,0.09315 1.58247,-0.218848 2.63477,-0.375 1.0523,-0.156152 2.26231,-0.156457 2.66797,0.25 0.40566,0.406457 0.01,1.218443 -0.17774,2.4375 -0.18739,1.219057 -0.16785,2.844836 0.35352,3.708984 0.52137,0.864149 1.54178,0.967559 2.53125,0.957032 0.98947,-0.01053 1.94845,-0.13528 2.64648,-0.0098 0.69804,0.125514 1.13635,0.501154 1.55274,1.167969 0.41638,0.666815 0.81084,1.625332 1.48828,2.3125 0.67744,0.687167 1.63663,1.10339 2.59375,1.519531 10.7717,-1.229266 21.5416,-2.457641 27.15625,-2.738281 5.61465,-0.280641 6.07401,0.385661 6.82422,1 0.75021,0.614339 1.79098,1.175638 2.33203,1.175781 0.54105,1.43e-4 0.58311,-0.561979 0.4375,-1.384766 -0.14561,-0.822786 -0.47833,-1.906293 -0.57227,-2.521484 -0.0939,-0.615191 0.0522,-0.760405 0.64649,-0.84375 0.59424,-0.08334 1.63416,-0.103472 2.58203,-0.166016 0.94787,-0.06254 1.80279,-0.166647 2.02148,-0.541015 0.2187,-0.374368 -0.19753,-1.020748 -0.40625,-1.6875 -0.20871,-0.666753 -0.20893,-1.355275 0.75,-1.199219 0.95894,0.156056 2.87503,1.157644 3.97852,1.355469 1.10349,0.197824 1.3965,-0.406495 1.16797,-1.03125 -0.22853,-0.624755 -0.97844,-1.270991 -1.00977,-1.615235 -0.0313,-0.344243 0.65572,-0.386035 0.72852,-0.875 0.0728,-0.488964 -0.47029,-1.426608 -1.07422,-1.96875 -0.60393,-0.542141 -1.26942,-0.688543 -1.95703,-1.146484 -0.68761,-0.457941 -1.39643,-1.227933 -1.08399,-1.697266 0.31245,-0.469332 1.64563,-0.63615 2.91602,-1.396484 1.27039,-0.760334 2.47946,-2.113791 2.05273,-2.478516 -0.42672,-0.364724 -2.48949,0.260361 -3.65625,0.240235 -1.16676,-0.02013 -1.43749,-0.686787 -1.25,-1.15625 0.1875,-0.469464 0.83407,-0.740244 1.61524,-1.146485 0.78116,-0.40624 1.69684,-0.949437 2.39453,-1.605468 0.69769,-0.656031 1.17705,-1.425301 1.24023,-1.904297 0.0632,-0.478996 -0.291,-0.666758 -0.375,-1.34375 -0.084,-0.676992 0.10424,-1.844648 0.52149,-2.417969 0.41725,-0.573321 1.06157,-0.55135 1.55078,0.167969 0.48921,0.719318 0.82378,2.134312 1.11523,2.269531 0.29146,0.135219 0.54163,-1.010473 0.6875,-1.78125 0.14588,-0.770777 0.18662,-1.164865 0.13477,-1.591797 -0.0519,-0.426932 -0.19803,-0.886063 -0.59375,-1.740234 -0.39572,-0.854171 -1.04016,-2.103478 -0.86328,-3.0625 0.17688,-0.959022 1.17593,-1.62728 1.13476,-2.189453 -0.0412,-0.562174 -1.12493,-1.020123 -1.52148,-1.541016 -0.39655,-0.520893 -0.10423,-1.104417 0.0937,-2.03125 0.19798,-0.926833 0.30233,-2.196077 0.0527,-3.310547 -0.24959,-1.114469 -0.85438,-2.073769 -1.625,-2.667969 -0.77062,-0.594199 -1.70857,-0.824019 -2.30273,-1.333984 -0.59416,-0.509965 -0.84256,-1.301426 -1.26953,-2.291016 -0.42697,-0.98959 -1.03105,-2.175746 -0.9375,-3.041015 0.0935,-0.865269 0.88492,-1.407927 0.75,-1.949219 -0.13492,-0.541292 -1.19856,-1.082026 -2.30274,-1.644531 -1.10417,-0.562505 -2.24993,-1.147116 -2.92773,-1.136719 -0.6778,0.0104 -0.88521,0.614308 -1.22852,0.978516 -0.3433,0.364207 -0.82204,0.49021 -1.19726,-0.05078 -0.37522,-0.540991 -0.6462,-1.748754 -0.96875,-2.353515 -0.32255,-0.604762 -0.69752,-0.605398 -1.15625,-0.417969 -0.45874,0.187429 -1.00156,0.563142 -1.48047,0.417969 -0.47891,-0.145174 -0.89495,-0.812494 -1.29102,-1.96875 -0.39606,-1.156256 -0.77126,-2.801618 -1.27148,-3.125 -0.50022,-0.323382 -1.12508,0.675406 -1.4375,1.144531 -0.31242,0.469125 -0.31282,0.407455 -0.65625,-0.269531 -0.34343,-0.676987 -1.03095,-1.968775 -1.8125,-2.208985 -0.78155,-0.24021 -1.65645,0.571637 -2.1875,0.728516 -0.53105,0.156879 -0.71908,-0.342914 -1.28125,-0.947266 -0.56217,-0.604351 -1.4987,-1.311786 -2.10352,-1.072265 -0.60481,0.23952 -0.87509,1.427448 -1.25,2.25 -0.3749,0.822552 -0.85568,1.279978 -1.38671,0.759765 -0.53104,-0.520213 -1.11437,-2.019543 -2,-2.228515 -0.88564,-0.208973 -2.07149,0.87336 -2.45704,0.769531 -0.38555,-0.103829 0.0303,-1.396076 -0.36523,-1.677734 -0.39558,-0.281659 -1.6044,0.447895 -2.375,0.84375 -0.7706,0.395855 -1.10378,0.459055 -1.28125,-0.394532 -0.17747,-0.853586 -0.19785,-2.62521 -0.6875,-2.865234 -0.0612,-0.03 -0.12912,-0.03475 -0.20313,-0.01953 z" />
      <path
         style="fill:#dae4ee;fill-opacity:1;stroke:none;stroke-width:1px;stroke-linecap:butt;stroke-linejoin:miter;stroke-opacity:1"
         d="m 79.490487,115.50914 c 0.324191,-0.95784 0.324191,-0.95784 0.560117,-0.30904 0.235926,0.64879 0.707319,1.94513 1.724036,3.52134 1.016717,1.57622 2.578215,3.43234 4.13979,5.18536 1.561574,1.75303 3.123069,3.40291 4.437732,4.96628 1.314663,1.56338 2.382566,3.04004 2.94199,4.13014 0.559424,1.0901 0.611081,1.79364 1.027809,10.44488 0.416728,8.65124 1.198523,25.24954 1.531083,33.51917 0.332559,8.26963 0.214699,8.2107 -0.713472,8.13677 -0.928171,-0.0739 -2.666406,-0.16231 -6.423025,-0.11816 -3.75662,0.0442 -9.531102,0.22092 -12.418993,0.22144 -2.887891,5.1e-4 -2.887891,-0.17626 -2.975781,-0.26515 -0.08789,-0.0889 -0.26466,-0.0889 -0.25834,-2.05327 0.0063,-1.96438 0.196777,-5.89394 0.439327,-11.37962 0.24255,-5.48568 0.537172,-12.52715 1.067476,-19.11219 0.530304,-6.58504 1.296321,-12.71318 1.885592,-17.98704 0.589272,-5.27386 1.001743,-9.69319 1.532021,-12.86061 0.530279,-3.16743 1.178447,-5.08247 1.502638,-6.0403 z"
         id="path76323"
         inkscape:path-effect="#path-effect76325"
         inkscape:original-d="m 79.814678,114.5513 c 0.001,0.001 0.001,0.001 0,0 0.472414,1.29739 0.943809,2.59372 1.414213,3.88909 1.562559,1.85719 3.124055,3.71331 4.684583,5.56846 1.562558,1.65095 3.124055,3.30083 4.684582,4.94975 1.068949,1.47773 2.136855,2.95439 3.203783,4.43009 0.05266,0.70456 0.104316,1.4081 0.154974,2.11065 0.782826,16.59996 1.564622,33.19826 2.345432,49.79588 -0.116851,-0.0579 -0.2347,-0.11685 -0.353553,-0.17677 -1.737339,-0.0874 -3.475574,-0.17578 -5.214913,-0.26517 -5.77382,0.17778 -11.548302,0.35455 -17.324116,0.53033 0.001,-0.17578 0.001,-0.35255 0,-0.53033 -0.17578,10e-4 -0.35255,10e-4 -0.53033,0 0.191465,-3.92871 0.381923,-7.85827 0.571384,-11.7889 0.295633,-7.04074 0.590255,-14.08221 0.883883,-21.12481 0.767048,-6.12738 1.533065,-12.25552 2.298097,-18.38478 0.413487,-4.4185 0.825958,-8.83783 1.237437,-13.25825 0.649194,-1.91412 1.297363,-3.82916 1.944544,-5.74524 z"
         sodipodi:nodetypes="cccccccccccccccccc" />
      <path
         style="fill:#90a1b1;fill-opacity:1;stroke:none;stroke-width:1px;stroke-linecap:butt;stroke-linejoin:miter;stroke-opacity:1"
         d="m 94.78756,167.29099 c 0,2.06434 0,2.06434 -0.973695,0.13642 -0.973695,-1.92791 -2.921614,-5.78479 -4.577418,-9.21322 -1.655804,-3.42842 -3.019349,-6.42822 -3.97397,-8.9606 -0.954621,-2.53237 -1.50004,-4.59717 -1.948139,-6.73996 -0.4481,-2.1428 -0.798726,-4.36343 -0.954657,-7.11015 -0.155931,-2.74672 -0.116973,-6.01922 0.09743,-6.68143 0.2144,-0.66221 0.603984,1.28571 1.441751,3.81812 0.837768,2.5324 2.123395,5.64907 3.155781,8.31779 1.032386,2.66871 1.811554,4.88934 2.863609,7.09054 1.052054,2.2012 2.376639,4.38286 3.233674,5.88281 0.857035,1.49995 1.24662,2.31808 1.441128,4.79193 0.194509,2.47384 0.194509,6.60342 0.194509,8.66775 z"
         id="path855"
         inkscape:path-effect="#path-effect857"
         inkscape:original-d="m 94.78756,169.35533 c 0.001,0.001 0.001,0.001 0,0 -1.946996,-3.85603 -3.894913,-7.71291 -5.84387,-11.57086 -1.362596,-2.99891 -2.726139,-5.99871 -4.090708,-8.99956 -0.544439,-2.06387 -1.089856,-4.12867 -1.636284,-6.1945 -0.349639,-2.21971 -0.700264,-4.44034 -1.051896,-6.66201 0.03996,-3.27163 0.07892,-6.54413 0.116877,-9.8177 0.390599,1.94899 0.780183,3.89691 1.168774,5.84387 1.286677,3.11779 2.572303,6.23446 3.856954,9.35019 0.780198,2.22171 1.559365,4.44234 2.337548,6.66201 1.325637,2.18275 2.65022,4.36442 3.973831,6.54513 0.390599,0.81916 0.780182,1.63729 1.168774,2.45443 0.001,4.13075 0.001,8.26033 0,12.389 z" />
      <path
         style="fill:#8b97a5;fill-opacity:1;stroke:none;stroke-width:1px;stroke-linecap:butt;stroke-linejoin:miter;stroke-opacity:1"
         d="m 92.83027,146.2439 c 0.437884,0.49666 0.437884,0.2629 0.418415,-0.73056 -0.01947,-0.99347 -0.05843,-2.74659 -0.272169,-3.77908 -0.213742,-1.03249 -0.603326,-1.34416 -1.022283,-1.81155 -0.418956,-0.46739 -0.86698,-1.09072 -1.354104,-1.97702 -0.487125,-0.88629 -1.013063,-2.03556 -1.461105,-3.02903 -0.448042,-0.99346 -0.818148,-1.83107 -1.198042,-2.7661 -0.379894,-0.93503 -0.769476,-1.96742 -0.94499,-2.13307 -0.175515,-0.16565 -0.136556,0.5356 -0.08785,1.35376 0.0487,0.81815 0.10714,1.75315 0.380002,3.04862 0.272861,1.29548 0.759841,2.95121 1.354096,4.49012 0.594255,1.5389 1.295506,2.96088 2.084545,4.28547 0.78904,1.32458 1.665604,2.55177 2.103488,3.04844 z"
         id="path5598"
         inkscape:path-effect="#path-effect5600"
         inkscape:original-d="m 93.268154,146.97331 c 0.001,-0.23275 0.001,-0.46651 0,-0.70126 -0.03796,-1.7522 -0.07692,-3.50532 -0.116878,-5.25948 -0.388599,-0.31068 -0.778182,-0.62235 -1.168774,-0.93502 -0.447039,-0.62236 -0.89506,-1.2457 -1.34409,-1.87004 -0.524958,-1.14832 -1.050896,-2.29759 -1.577844,-3.44788 -0.369119,-0.83664 -0.739224,-1.67425 -1.110335,-2.51287 -0.388599,-1.03144 -0.778183,-2.06383 -1.168774,-3.09725 0.03996,0.70228 0.07892,1.40353 0.116877,2.10379 0.05944,0.93604 0.117878,1.87104 0.175316,2.80506 0.487999,1.6568 0.974978,3.31253 1.460968,4.96729 0.702278,1.42304 1.403528,2.84502 2.103792,4.26602 0.877598,1.22824 1.754161,2.45543 2.629742,3.68164 z" />
      <path
         style="fill:#57636f;fill-opacity:1;stroke:none;stroke-width:1px;stroke-linecap:butt;stroke-linejoin:miter;stroke-opacity:1"
         d="m 179.76634,120.48334 c -0.62011,1.99705 -1.47411,7.12103 -2.05262,10.78499 -0.5785,3.66396 -0.88153,5.86778 -1.25344,8.34713 -0.37191,2.47936 -0.81268,5.23413 -1.30858,7.54812 -0.49591,2.31399 -1.04686,4.18723 -1.65292,6.4738 -0.60607,2.28656 -1.26721,4.98623 -1.63906,6.8734 -0.37185,1.88717 -0.45449,2.96154 -0.19257,4.51817 0.26193,1.55663 1.24363,4.87679 1.72547,5.02808 0.48185,0.15128 1.19352,-2.24714 1.60676,-4.40969 0.41323,-2.16255 0.15234,-5.37075 0.74461,-8.04301 0.59228,-2.67226 1.30852,-5.42703 1.81822,-8.36085 0.50969,-2.93382 0.81271,-6.04671 1.11575,-9.44895 0.30304,-3.40224 0.60606,-7.09363 1.01926,-10.31687 0.41319,-3.22324 0.93659,-5.97801 1.00574,-7.91996 0.0692,-1.94196 -0.31652,-3.07142 -0.93662,-1.07436 z"
         id="path10630"
         sodipodi:nodetypes="sssssssssssssss" />
      <path
         style="fill:#9ca7b0;fill-opacity:1;stroke:none;stroke-width:1px;stroke-linecap:butt;stroke-linejoin:miter;stroke-opacity:1"
         d="m 196.27602,150.04174 c -0.13643,0.73088 -0.40915,2.19184 -0.65262,3.95481 -0.24347,1.76298 -0.45774,3.82777 -0.70127,5.54192 -0.24352,1.71416 -0.51623,3.0777 -0.83766,4.5484 -0.32142,1.47071 -0.69153,3.04852 -0.90574,4.54857 -0.21421,1.50006 -0.27264,2.92204 -0.40902,4.92843 -0.13638,2.0064 -0.35065,4.59713 -0.37947,5.8725 -0.0288,1.27537 0.12699,1.23642 0.60443,1.24628 0.47744,0.01 1.27609,0.0683 2.74679,0.10723 1.4707,0.0389 3.61341,0.0584 4.60657,-0.1553 0.99316,-0.21369 0.83733,-0.66172 0.68136,-1.42147 -0.15597,-0.75975 -0.3118,-1.83111 -0.59427,-3.99338 -0.28247,-2.16227 -0.69153,-5.41529 -1.17848,-8.46385 -0.48695,-3.04856 -1.05184,-5.89252 -1.41228,-8.1522 -0.36044,-2.25968 -0.51627,-3.93489 -0.72074,-5.38609 -0.20447,-1.4512 -0.4577,-2.67839 -0.58443,-3.29258 -0.12674,-0.61418 -0.12674,-0.61415 -0.26317,0.11673 z"
         id="path24955"
         inkscape:path-effect="#path-effect24957"
         inkscape:original-d="m 196.41245,149.31086 c -0.27172,1.46197 -0.54443,2.92293 -0.81815,4.3829 -0.21327,2.06588 -0.42755,4.13067 -0.64282,6.1945 -0.27172,1.3646 -0.54443,2.72814 -0.81814,4.09071 -0.36912,1.57888 -0.73923,3.15669 -1.11034,4.73354 -0.0574,1.42303 -0.11588,2.84501 -0.17531,4.26602 -0.21328,2.59183 -0.42755,5.18256 -0.64283,7.77235 0.15684,-0.038 0.31267,-0.0769 0.46751,-0.11688 0.79968,0.0594 1.59832,0.11788 2.39599,0.17532 2.14379,0.0205 4.2865,0.0399 6.42825,0.0584 -0.15484,-0.44703 -0.31067,-0.89506 -0.46751,-1.34409 -0.15484,-1.07039 -0.31067,-2.14175 -0.46751,-3.21412 -0.40808,-3.25216 -0.81714,-6.50518 -1.22721,-9.75927 -0.56392,-2.84307 -1.12881,-5.68703 -1.69472,-8.53204 -0.15484,-1.67428 -0.31067,-3.34949 -0.46751,-5.02573 -0.25224,-1.22624 -0.50547,-2.45343 -0.7597,-3.68164 z" />
      <path
         style="fill:#97a6b3;fill-opacity:1;stroke:none;stroke-width:1px;stroke-linecap:butt;stroke-linejoin:miter;stroke-opacity:1"
         d="m 130.52309,184.23064 c 0,0 0,0 0,0 -0.0365,-4.35776 -0.0731,-8.71451 -0.0776,-14.37832 -0.004,-5.66381 0.0231,-12.63338 0.0369,-18.03288 0.0138,-5.39949 0.0138,-9.22863 -0.2618,-10.45475 -0.27559,-1.22612 -0.82655,0.15126 -1.15705,2.011 -0.3305,1.85975 -0.44069,4.20131 -0.82642,7.17648 -0.38574,2.97517 -1.04688,6.58392 -1.40494,9.83474 -0.35807,3.25082 -0.41316,6.14333 -0.42243,10.16801 -0.009,4.02468 0.0273,9.18112 0.72089,11.64873 0.69362,2.46762 2.04346,2.24724 2.71798,2.13711 0.67452,-0.11012 0.67449,-0.11012 0.67447,-0.11012 z"
         id="path29839"
         inkscape:path-effect="#path-effect29841"
         inkscape:original-d="m 130.52309,184.23064 v 0 c 0,0 -0.0721,-8.71452 -0.10961,-13.07328 0.0285,-6.96885 0.0561,-13.93842 0.0827,-20.90913 10e-4,-3.82828 10e-4,-7.65742 0,-11.48762 -0.54998,1.37844 -1.10093,2.75582 -1.6529,4.13224 -0.10919,2.34264 -0.21939,4.6842 -0.33058,7.0248 -0.66017,3.6099 -1.32132,7.21865 -1.98347,10.82647 -0.0541,2.89363 -0.1092,5.78614 -0.16529,8.6777 0.0375,5.15777 0.0741,10.31421 0.10961,15.46997 1.35089,-0.21939 2.70073,-0.43977 4.04959,-0.66115 9.8e-4,0.001 -5e-5,0 -5e-5,0 z"
         sodipodi:nodetypes="cccccccccccc" />
      <path
         style="opacity:1;fill:#c5d0dc;fill-opacity:1;stroke:none;stroke-width:1px;stroke-linecap:butt;stroke-linejoin:miter;stroke-opacity:1"
         d="m 130.31828,121.66936 c 0,0 -0.31312,62.03649 -0.31312,62.03649 0,0 7.40501,0.54684 7.40501,0.54684 0,0 1.55704,-62.2327 1.55704,-62.2327 0,0 -8.64893,-0.35063 -8.64893,-0.35063 z"
         id="path37618"
         inkscape:path-effect="#path-effect37620"
         inkscape:original-d="m 130.31828,121.66936 -0.31312,62.03649 7.40501,0.54684 1.55704,-62.2327 z"
         sodipodi:nodetypes="ccccc" />
      <path
         style="fill:#9ba8b6;fill-opacity:1;stroke:none;stroke-width:1px;stroke-linecap:butt;stroke-linejoin:miter;stroke-opacity:1"
         d="m 134.36491,150.67011 c -0.14797,0.35724 -0.31002,1.1601 -0.28026,1.86375 0.0298,0.70365 0.20961,1.88985 0.47126,1.91041 0.26165,0.0206 0.39754,-1.11902 0.43457,-1.77797 0.037,-0.65895 -0.0884,-1.41874 -0.2136,-2.17741 -0.13258,-0.0884 -0.26401,-0.17601 -0.41197,0.18122 z"
         id="path110296"
         sodipodi:nodetypes="sszscs" />
      <path
         style="fill:#393b43;fill-opacity:1;stroke:none;stroke-width:1px;stroke-linecap:butt;stroke-linejoin:miter;stroke-opacity:1"
         d="m 134.04768,153.73716 c -0.50513,-0.18689 -0.93221,-0.68689 -1.05256,-1.18716 -0.12035,-0.50026 0.0671,-1.00025 0.36952,-1.36 0.30237,-0.35975 0.71903,-0.57849 1.15175,-0.60421 0.43271,-0.0257 0.88061,0.14094 1.17184,0.47986 0.29122,0.33891 0.42664,0.84931 0.40554,1.31251 -0.0211,0.4632 -0.19817,0.87986 -0.57791,1.15037 -0.37974,0.27051 -0.96306,0.39551 -1.46818,0.20863 z"
         id="path104864-8"
         inkscape:path-effect="#path-effect105348"
         inkscape:original-d="m 133.96872,154.0492 c -0.42608,-0.499 -0.85317,-0.999 -1.28125,-1.5 0.1885,-0.49901 0.376,-0.999 0.5625,-1.5 0.41767,-0.21775 0.83433,-0.4365 1.25,-0.65625 0.44893,0.16767 0.89683,0.33433 1.34375,0.5 0.13642,0.51143 0.27183,1.02183 0.40625,1.53125 -0.17609,0.41767 -0.35317,0.83433 -0.53125,1.25 -0.58235,0.126 -1.16567,0.251 -1.75,0.375 z" />
      <path
         style="fill:#9ba8b6;fill-opacity:1;stroke:none;stroke-width:1px;stroke-linecap:butt;stroke-linejoin:miter;stroke-opacity:1"
         d="m 134.95478,124.89718 c -0.14797,0.35724 -0.31002,1.1601 -0.28026,1.86375 0.0298,0.70365 0.25449,1.90811 0.47126,1.91041 0.21677,0.002 0.39754,-1.11902 0.43457,-1.77797 0.037,-0.65895 -0.0884,-1.41874 -0.2136,-2.17741 -0.13258,-0.0884 -0.26401,-0.17601 -0.41197,0.18122 z"
         id="path105532"
         sodipodi:nodetypes="sszscs" />
      <path
         style="fill:#393b43;fill-opacity:1;stroke:none;stroke-width:1px;stroke-linecap:butt;stroke-linejoin:miter;stroke-opacity:1"
         d="m 134.6664,128.10453 c -0.50513,-0.18689 -0.93221,-0.68689 -1.05256,-1.18716 -0.12035,-0.50026 0.0671,-1.00025 0.36952,-1.36 0.30237,-0.35975 0.71903,-0.57849 1.15175,-0.60421 0.43271,-0.0257 0.88061,0.14094 1.17184,0.47986 0.29122,0.33891 0.42664,0.84931 0.40554,1.31251 -0.0211,0.4632 -0.19817,0.87986 -0.57791,1.15037 -0.37974,0.27051 -0.96306,0.39551 -1.46818,0.20863 z"
         id="path104864"
         inkscape:path-effect="#path-effect104868"
         inkscape:original-d="m 134.58744,128.41657 c -0.42608,-0.499 -0.85317,-0.999 -1.28125,-1.5 0.1885,-0.49901 0.376,-0.999 0.5625,-1.5 0.41767,-0.21775 0.83433,-0.4365 1.25,-0.65625 0.44893,0.16767 0.89683,0.33433 1.34375,0.5 0.13642,0.51143 0.27183,1.02183 0.40625,1.53125 -0.17609,0.41767 -0.35317,0.83433 -0.53125,1.25 -0.58235,0.126 -1.16567,0.251 -1.75,0.375 z" />
      <path
         style="fill:#cbd5de;fill-opacity:1;stroke:none;stroke-width:1.02363px;stroke-linecap:butt;stroke-linejoin:miter;stroke-opacity:1"
         d="m 137.41017,184.25269 c 10.92706,-0.0399 21.79264,-0.99255 27.23587,-1.09162 5.44323,-0.0991 6.53232,-0.0253 6.53232,-0.0253 0.425,-1.05444 0.0424,-4.54715 0.28164,-7.95698 0.23924,-3.40982 -0.0777,-9.04362 0.40617,-14.03201 0.44634,-4.60134 2.03381,-8.93314 2.93114,-12.84133 0.89733,-3.90819 1.49551,-7.33778 2.01396,-10.52818 0.51845,-3.1904 0.95712,-6.14145 1.47707,-9.05568 0.51994,-2.91424 1.12118,-5.79142 1.61965,-7.76558 0.49848,-1.97416 0.89422,-3.045 1.0523,-2.54334 0.15808,0.50167 0.0783,2.57537 -0.11115,4.5394 -0.18948,1.96402 -0.48857,3.8184 -0.7378,5.6928 -0.24923,1.8744 -0.44862,3.76865 -0.64802,5.79258 -0.1994,2.02394 -0.3988,4.17741 -0.65803,6.69982 -0.25923,2.52242 -0.57826,5.41365 -1.11668,8.50429 -0.53843,3.09064 -1.29613,6.38065 -1.89432,9.0626 -0.5982,2.68195 -1.03687,4.75566 -1.38581,6.47052 -0.34895,1.71486 -0.60816,3.07074 -0.79746,3.7981 -0.1893,0.72737 -0.30894,0.82707 -0.30894,1.63524 -1e-5,0.80817 0.11963,2.32357 -0.0699,4.33738 -0.18956,2.0138 -0.38309,4.51088 -0.50858,5.72246 -0.22343,2.15703 -0.28252,2.40431 0.0574,2.40714 l 4.2702,0.0356 19.02433,-0.0462 5.4989,-0.041 c 0,0 -0.14189,-2.47984 -0.18694,-2.84367 -0.12963,-1.04688 -0.34898,-2.88132 -0.71786,-5.90226 -0.36889,-3.02093 -0.88732,-7.22816 -1.43561,-10.71764 -0.5483,-3.48948 -1.12655,-6.26108 -1.5354,-9.24217 -0.40885,-2.98109 -0.64813,-6.17141 -0.93724,-9.29202 -0.28911,-3.12061 -0.62809,-6.17136 -1.08666,-9.23213 -0.45858,-3.06078 -1.03682,-6.13147 -1.52539,-9.17235 -0.48856,-3.04087 -0.88735,-6.05174 -1.39536,-7.8265 -0.508,-1.77475 -1.12613,-2.31312 -2.11321,-3.3001 -0.98708,-0.98699 -2.34297,-2.42263 -4.43661,-4.17747 -2.09364,-1.75484 -4.92505,-3.82854 -8.2251,-5.83263 -3.30006,-2.00409 -7.06862,-3.93822 -10.60798,-5.613231 -3.53936,-1.675016 -6.84933,-3.090724 -8.55425,-3.83829 -1.70492,-0.747566 -1.80461,-0.827314 -1.97473,-0.209207 -0.17013,0.618107 -0.4094,1.934115 -0.66864,3.160388 -0.25923,1.22627 -0.53839,2.36283 -1.14651,3.4592 -0.60811,1.09637 -1.54526,2.15316 -2.41258,3.02048 -0.86733,0.86733 -1.66491,1.54528 -2.85112,2.18329 -1.1862,0.63802 -2.76142,1.2362 -4.17721,1.82443 -1.41579,0.58823 -2.67199,1.16648 -4.04797,1.95414 -1.37598,0.78767 -2.87143,1.78463 -3.43975,3.52008 -0.56833,1.73545 -0.20941,4.20795 -0.16963,15.514 0.0398,11.30606 -0.23935,33.65365 -0.51851,53.79295 z"
         id="path40342"
         sodipodi:nodetypes="cssssssssssssssssssssscccsssssssssssssssssssssscc" />
      <path
         style="fill:#a7b2bb;fill-opacity:1;stroke:none;stroke-width:1px;stroke-linecap:butt;stroke-linejoin:miter;stroke-opacity:1"
         d="m 180.41358,161.32263 c 0,0 0,0 0.99165,-2.3965 0.99166,-2.39649 2.97509,-7.18979 4.77953,-11.04666 1.80444,-3.85686 3.42975,-6.77692 4.75209,-9.06347 1.32233,-2.28656 2.3416,-3.93942 3.08557,-4.94513 0.74397,-1.00572 1.21228,-1.36384 1.52906,-0.67451 0.31679,0.68933 0.48207,2.42483 0.57844,3.98128 0.0964,1.55646 0.12391,2.93385 -0.45469,4.37971 -0.5786,1.44585 -1.76315,2.96098 -3.41609,5.33021 -1.65294,2.36924 -3.77411,5.59232 -5.82639,8.14042 -2.05227,2.5481 -4.0357,4.42134 -5.02746,5.358 -0.99175,0.93665 -0.99171,0.93665 -0.99171,0.93665 z"
         id="path15653"
         inkscape:path-effect="#path-effect15655"
         inkscape:original-d="m 180.41358,161.32263 c 0.001,0.001 0.001,0.001 0,0 1.98452,-4.79249 3.96795,-9.58579 5.95043,-14.38019 1.62638,-2.91917 3.25169,-5.83923 4.87604,-8.76035 1.0203,-1.65193 2.03957,-3.30479 3.05786,-4.95869 0.46933,-0.35713 0.93764,-0.71525 1.40496,-1.07438 0.16629,1.73658 0.33158,3.47208 0.49587,5.20662 0.0285,1.37844 0.0561,2.75583 0.0826,4.13224 -1.1836,1.51619 -2.36815,3.03131 -3.55373,4.54547 -2.12025,3.22421 -4.24143,6.44729 -6.36364,9.66944 -1.98252,1.87432 -3.96595,3.74756 -5.95043,5.61984 z" />
      <path
         style="fill:#b5c5d2;fill-opacity:1;stroke:none;stroke-width:1px;stroke-linecap:butt;stroke-linejoin:miter;stroke-opacity:1"
         d="m 95.728517,175.72425 c -0.385305,-8.46651 -1.156015,-25.40156 -1.926678,-42.33556 0,0 -0.971569,12.85521 -0.971569,12.85521 0,0 0.393055,4.41756 0.393055,4.41756 0,0 0.991738,5.86778 0.991738,5.86778 0.190832,3.58725 0.381721,7.17555 0.436766,9.8477 0.05505,2.67215 -0.02559,4.42923 -0.09379,7.23213 -0.0682,2.8029 -0.123984,6.65134 0.137914,8.58897 0.261898,1.93763 0.840398,1.96519 1.129133,1.97895 0.288736,0.0138 0.288736,0.0138 -0.09657,-8.45274 z"
         id="path44905"
         inkscape:path-effect="#path-effect44907"
         inkscape:original-d="m 96.113827,184.1907 c -0.769663,-16.933 -2.311988,-50.80201 -2.311988,-50.80201 l -0.971569,12.85521 0.393055,4.41756 0.991738,5.86778 c 0,0 0.382665,7.1755 0.572497,10.76175 -0.07964,1.75815 -0.160279,3.51523 -0.241918,5.27134 -0.05479,3.84965 -0.110573,7.69809 -0.16736,11.54572 0.579522,0.0286 1.158025,0.0561 1.73554,0.0827 0.001,9.8e-4 0.001,9.7e-4 5e-6,-5e-5 z"
         sodipodi:nodetypes="sccccccccs" />
      <path
         style="fill:#acb4ba;fill-opacity:1;stroke:none;stroke-width:1px;stroke-linecap:butt;stroke-linejoin:miter;stroke-opacity:1"
         d="m 154.49249,93.600114 c 0,0 3.08847,1.80293 3.15045,2.092186 0.062,0.289256 -0.53539,1.539897 -0.65935,1.980732 -0.12395,0.440835 -0.24792,0.950467 -0.39254,1.604769 -0.14462,0.654303 -0.30991,1.453189 -0.50966,2.183129 -0.19975,0.72994 -0.4339,1.39108 -0.84017,2.0451 -0.40627,0.65403 -0.98477,1.3014 -1.76299,2.10027 -0.77821,0.79887 -1.75615,1.74927 -2.70638,2.45166 -0.95022,0.70239 -1.87307,1.15693 -2.90613,1.64592 -1.03305,0.48898 -2.17628,1.01239 -3.42287,1.60468 -1.24659,0.5923 -2.59643,1.25344 -3.53334,1.94235 -0.93692,0.6889 -1.46032,1.40514 -1.83193,1.81129 -0.3716,0.40615 -0.59199,0.50257 -1.03248,0.53712 -0.44049,0.0345 -1.10164,0.007 -1.72844,0.0207 -0.6268,0.0137 -1.21907,0.0688 -1.52942,-0.17169 -0.31035,-0.24048 -0.33792,-0.77766 -0.17957,-1.23959 0.15834,-0.46194 0.50268,-0.8476 0.90896,-1.48107 0.40627,-0.63346 0.87458,-1.51499 1.43279,-2.08691 0.55821,-0.57191 1.20558,-0.83361 2.08036,-1.09531 0.87477,-0.26169 1.97668,-0.5234 3.21611,-1.12945 1.23943,-0.60606 2.61682,-1.55646 4.2008,-2.78922 1.58398,-1.23277 3.37458,-2.74789 4.63478,-4.58643 1.26019,-1.838529 3.00181,-6.999782 3.41102,-7.440236 0.40921,-0.440454 0,0 0,0 z"
         id="path49168"
         sodipodi:nodetypes="czsssssssssscssssssssszc" />
      <path
         style="opacity:1;fill:#c9d2dd;fill-opacity:1;stroke:none;stroke-width:1px;stroke-linecap:butt;stroke-linejoin:miter;stroke-opacity:1"
         d="m 133.46457,110.72394 c 0.1172,0.55843 0.35136,1.67414 0.42005,2.56241 0.0687,0.88827 -0.0277,1.54943 0.0761,1.87959 0.10387,0.33016 0.4069,0.33016 0.97169,0.37843 0.5648,0.0483 1.39123,0.14469 2.1279,0.0825 0.73667,-0.0621 1.38404,-0.28253 1.60403,-0.12375 0.21998,0.15877 0.0134,0.69596 -0.0898,1.3849 -0.1032,0.68895 -0.1032,1.52915 -0.0204,2.40994 0.0828,0.88078 0.43553,2.36444 0.2706,2.8253 -0.1649,0.46085 -0.66075,0.46252 -1.21854,0.40836 -0.55779,-0.0542 -1.17761,-0.16435 -2.37125,-0.22373 -1.19364,-0.0594 -2.96089,-0.0678 -4.00079,-0.19817 -1.03991,-0.13042 -1.35252,-0.38375 -1.67446,-0.99237 -0.32194,-0.60862 -0.84002,-2.13529 -1.84527,-3.50592 -1.00524,-1.37063 -2.68565,-3.14745 -4.07007,-4.86917 -1.38442,-1.72172 -2.47256,-3.38836 -3.82936,-5.63356 -1.35681,-2.2452 -2.98212,-5.06884 -4.22855,-6.9422 -1.24642,-1.873374 -2.11417,-2.796221 -2.27316,-3.953517 -0.15898,-1.157296 0.62276,-1.70809 1.26422,-2.241083 0.75537,-0.627647 1.27543,-1.00292 1.65286,-0.642572 0.56528,0.539702 1.16755,0.900438 1.86979,2.140221 0.70224,1.239782 1.4047,2.989063 2.53442,4.745211 1.12972,1.75614 2.68617,3.5192 4.09808,4.97232 1.41192,1.45313 2.67912,2.59636 3.62962,3.30552 0.9505,0.70916 1.5841,0.98463 2.36231,1.19107 0.7782,0.20643 1.70104,0.34417 2.16192,0.41296 0.46087,0.0688 0.46087,0.0688 0.57807,0.62727 z"
         id="path64819"
         sodipodi:nodetypes="ssssssssssssssssssssssssssss" />
      <path
         style="fill:#393b43;fill-opacity:1;stroke:none;stroke-width:1px;stroke-linecap:butt;stroke-linejoin:miter;stroke-opacity:1"
         d="m 130.51646,114.12546 c -0.50513,-0.18689 -0.93221,-0.68689 -1.05256,-1.18716 -0.12035,-0.50026 0.0671,-1.00025 0.36952,-1.36 0.30237,-0.35975 0.71903,-0.57849 1.15175,-0.60421 0.43271,-0.0257 0.88061,0.14094 1.17184,0.47986 0.29122,0.33891 0.42664,0.84931 0.40554,1.31251 -0.0211,0.4632 -0.19817,0.87986 -0.57791,1.15037 -0.37974,0.27051 -0.96306,0.39551 -1.46818,0.20863 z"
         id="path97916"
         inkscape:path-effect="#path-effect97918"
         inkscape:original-d="m 130.4375,114.4375 c -0.42608,-0.499 -0.85317,-0.999 -1.28125,-1.5 0.1885,-0.49901 0.376,-0.999 0.5625,-1.5 0.41767,-0.21775 0.83433,-0.4365 1.25,-0.65625 0.44893,0.16767 0.89683,0.33433 1.34375,0.5 0.13642,0.51143 0.27183,1.02183 0.40625,1.53125 -0.17609,0.41767 -0.35317,0.83433 -0.53125,1.25 -0.58235,0.126 -1.16567,0.251 -1.75,0.375 z" />
      <path
         style="fill:#9ba8b6;fill-opacity:1;stroke:none;stroke-width:1px;stroke-linecap:butt;stroke-linejoin:miter;stroke-opacity:1"
         d="m 133.90087,175.63982 c -0.14797,0.35724 -0.31002,1.1601 -0.28026,1.86375 0.0298,0.70365 0.22066,1.8788 0.47126,1.91041 0.2506,0.0316 0.39754,-1.11902 0.43457,-1.77797 0.037,-0.65895 -0.0884,-1.41874 -0.2136,-2.17741 -0.13258,-0.0884 -0.26401,-0.17601 -0.41197,0.18122 z"
         id="path110401"
         sodipodi:nodetypes="sszscs" />
      <path
         style="fill:#393b43;fill-opacity:1;stroke:none;stroke-width:1px;stroke-linecap:butt;stroke-linejoin:miter;stroke-opacity:1"
         d="m 133.69412,178.83946 c -0.50513,-0.18689 -0.93221,-0.68689 -1.05256,-1.18716 -0.12035,-0.50026 0.0671,-1.00025 0.36952,-1.36 0.30237,-0.35975 0.71903,-0.57849 1.15175,-0.60421 0.43271,-0.0257 0.88061,0.14094 1.17184,0.47986 0.29122,0.33891 0.42664,0.84931 0.40554,1.31251 -0.0211,0.4632 -0.19817,0.87986 -0.57791,1.15037 -0.37974,0.27051 -0.96306,0.39551 -1.46818,0.20863 z"
         id="path104864-1"
         inkscape:path-effect="#path-effect105367"
         inkscape:original-d="m 133.61516,179.1515 c -0.42608,-0.499 -0.85317,-0.999 -1.28125,-1.5 0.1885,-0.49901 0.376,-0.999 0.5625,-1.5 0.41767,-0.21775 0.83433,-0.4365 1.25,-0.65625 0.44893,0.16767 0.89683,0.33433 1.34375,0.5 0.13642,0.51143 0.27183,1.02183 0.40625,1.53125 -0.17609,0.41767 -0.35317,0.83433 -0.53125,1.25 -0.58235,0.126 -1.16567,0.251 -1.75,0.375 z" />
      <path
         style="fill:#9ba8b6;fill-opacity:1;stroke:none;stroke-width:1px;stroke-linecap:butt;stroke-linejoin:miter;stroke-opacity:1"
         d="m 137.85337,111.03572 c -0.20686,0.32669 -0.50377,1.09003 -0.59473,1.78841 -0.0909,0.69839 -0.0375,1.92642 0.13772,1.96285 0.17522,0.0364 0.583,-1.03459 0.73212,-1.67751 0.1491,-0.64293 0.15544,-1.41297 0.16177,-2.18187 -0.11551,-0.10977 -0.23002,-0.21855 -0.43688,0.10812 z"
         id="path110532"
         sodipodi:nodetypes="sczscs" />
      <path
         style="opacity:1;fill:#977058;fill-opacity:1;stroke:none;stroke-width:1px;stroke-linecap:butt;stroke-linejoin:miter;stroke-opacity:1"
         d="m 153.03392,72.172824 c 0.25466,0.02584 0.76289,0.07739 1.33728,0.04781 0.57439,-0.02959 1.21519,-0.140072 1.84478,-0.342665 0.62959,-0.202593 1.24829,-0.497212 1.74517,-0.979403 0.49688,-0.482192 0.87252,-1.152455 1.10458,-1.840892 0.23206,-0.688436 0.32045,-1.395528 0.41255,-2.463533 0.0921,-1.068004 0.18784,-2.496925 0.17324,-3.579585 -0.0146,-1.082661 -0.13982,-1.819217 -0.29066,-2.397392 -0.15084,-0.578176 -0.32762,-0.998015 -0.61095,-1.20854 -0.28334,-0.210524 -0.67372,-0.210524 -1.01636,-0.177461 -0.34263,0.03306 -0.63725,0.09935 -0.79601,0.39823 -0.15875,0.298878 -0.18085,0.829198 -0.16237,1.400109 0.0185,0.570911 0.0774,1.182254 0.11421,1.679417 0.0368,0.497163 0.0515,0.880173 0.0219,1.181956 -0.0296,0.301784 -0.10323,0.522739 -0.16516,0.618522 -0.0619,0.09578 -0.11346,0.06634 -0.27185,-0.04041 -0.15839,-0.106746 -0.42355,-0.290884 -0.62284,-0.629517 -0.19929,-0.338632 -0.33187,-0.832124 -0.40568,-1.443566 -0.0738,-0.611443 -0.0885,-1.340633 -0.0959,-1.870976 -0.007,-0.530343 -0.007,-0.861792 -0.0147,-1.108502 -0.007,-0.24671 -0.0221,-0.408758 -0.20564,-0.574739 -0.1836,-0.165982 -0.53715,-0.335391 -0.77288,-0.431325 -0.23573,-0.09593 -0.35358,-0.118031 -0.47575,0.357388 -0.12216,0.475418 -0.24737,1.447671 -0.43149,3.760572 -0.18412,2.312901 -0.42719,5.966213 -0.54869,7.792441 -0.1215,1.826228 -0.12147,1.826229 0.13319,1.852064 z"
         id="path226431"
         inkscape:path-effect="#path-effect226433"
         inkscape:original-d="m 152.77926,72.146989 c 0.50923,0.05256 1.01746,0.104119 1.5247,0.154679 0.64183,-0.109487 1.28263,-0.219971 1.92244,-0.331456 0.61974,-0.293634 1.23844,-0.588256 1.85616,-0.883883 0.37666,-0.669292 0.7523,-1.339557 1.12695,-2.010835 0.0894,-0.706121 0.17778,-1.413214 0.26517,-2.121321 0.0967,-1.427973 0.1925,-2.85689 0.28726,-4.286835 -0.12422,-0.735584 -0.24944,-1.472139 -0.37565,-2.209708 -0.17578,-0.418853 -0.35256,-0.83869 -0.53033,-1.259534 -0.38939,10e-4 -0.77977,10e-4 -1.17115,0 -0.29363,0.06729 -0.58825,0.133582 -0.88388,0.198874 -0.0211,0.53134 -0.0432,1.06166 -0.0663,1.59099 0.0599,0.612365 0.11885,1.223705 0.17677,1.834058 0.0157,0.384024 0.0305,0.767032 0.0442,1.149049 -0.0727,0.221975 -0.14632,0.442941 -0.22097,0.662912 -0.0506,-0.02846 -0.10212,-0.05792 -0.15468,-0.08839 -0.26417,-0.183146 -0.52933,-0.367285 -0.7955,-0.552427 -0.13158,-0.492512 -0.26416,-0.986004 -0.39775,-1.480505 -0.0137,-0.728219 -0.0285,-1.457408 -0.0442,-2.187612 0.001,-0.330463 0.001,-0.661912 0,-0.994369 -0.0137,-0.161048 -0.0285,-0.32309 -0.0442,-0.486136 -0.35256,-0.168414 -0.70611,-0.337822 -1.06066,-0.508233 -0.11686,-0.0211 -0.23471,-0.04319 -0.35356,-0.06629 -0.12422,0.973291 -0.24943,1.945544 -0.37565,2.916816 -0.24207,3.654458 -0.48513,7.30777 -0.7292,10.960155 z" />
      <path
         style="opacity:1;fill:#cd9b7d;fill-opacity:1;stroke:none;stroke-width:1px;stroke-linecap:butt;stroke-linejoin:miter;stroke-opacity:1"
         d="m 118.89659,79.303205 c -0.70854,-1.1145 -1.33354,-2.4895 -1.7192,-4.322929 -0.38566,-1.83343 -0.53149,-4.12505 -0.64609,-6.948017 -0.11461,-2.822968 -0.19794,-6.177068 -0.39582,-9.572907 -0.19789,-3.395839 -0.51038,-6.83327 -0.58339,-9.458379 -0.073,-2.625109 0.0937,-4.437572 0.8749,-6.323364 0.78124,-1.885791 2.17704,-3.844087 3.3648,-5.083868 1.18776,-1.23978 2.16691,-1.7606 3.30242,-2.271028 1.13551,-0.510428 2.42715,-1.010418 4.07332,-1.051857 1.64617,-0.04144 3.64613,0.375219 5.91696,0.750174 2.27084,0.374956 4.81245,0.708282 7.10402,0.74982 2.29156,0.04154 4.33318,-0.208455 5.8542,-0.07267 1.52101,0.135786 2.52099,0.656609 3.55208,1.594363 1.0311,0.937754 2.09358,2.291894 2.92666,3.958625 0.83309,1.666731 1.43725,3.645857 1.6349,5.166492 0.19766,1.520635 -0.0107,2.583114 -0.13561,3.822809 -0.12494,1.239696 -0.1666,2.656332 -0.18742,3.750105 -0.0208,1.093774 -0.0208,1.864592 0.073,2.916747 0.0938,1.052156 0.28133,2.385463 0.24993,3.854083 -0.0314,1.468619 -0.28139,3.072752 -0.47929,4.624886 -0.19789,1.552134 -0.34372,3.052104 -0.44787,4.458394 -0.10415,1.406291 -0.16665,2.718765 -0.5834,4.16643 -0.41675,1.447665 -1.18757,3.030968 -2.25005,4.770456 -1.06248,1.739488 -2.41662,3.635283 -4.52044,5.051765 -2.10382,1.416483 -4.95793,2.353964 -7.30141,2.552151 -2.34348,0.198187 -4.17678,-0.343469 -6.98931,-1.176812 -2.81254,-0.833343 -6.60413,-1.95832 -8.89592,-2.947571 -2.29179,-0.98925 -3.08344,-1.8434 -3.79198,-2.957899 z"
         id="path176303"
         inkscape:path-effect="#path-effect176305"
         inkscape:original-d="m 118.8125,79.5625 c -0.624,-1.374 -1.249,-2.749 -1.875,-4.125 -0.14484,-2.290713 -0.29067,-4.582333 -0.4375,-6.875 -0.0823,-3.353234 -0.16567,-6.707333 -0.25,-10.0625 -0.31151,-3.436569 -0.624,-6.874 -0.9375,-10.3125 0.16767,-1.811536 0.33433,-3.624 0.5,-5.4375 1.39686,-1.957373 2.79267,-3.915667 4.1875,-5.875 0.98019,-0.519844 1.95933,-1.040667 2.9375,-1.5625 1.29269,-0.49901 2.58433,-0.999 3.875,-1.5 2.00104,0.417675 4.001,0.834333 6,1.25 2.54272,0.33434 5.08433,0.667667 7.625,1 2.04271,-0.249005 4.08433,-0.499 6.125,-0.75 1.00102,0.521844 2.001,1.042667 3,1.5625 1.06352,1.355194 2.126,2.709333 3.1875,4.0625 0.60518,1.980206 1.20933,3.959333 1.8125,5.9375 -0.20734,1.063521 -0.41567,2.126 -0.625,3.1875 -0.0407,1.417695 -0.0823,2.834333 -0.125,4.25 0.001,0.771849 0.001,1.542667 0,2.3125 0.1885,1.33436 0.376,2.667667 0.5625,4 -0.24901,1.605199 -0.499,3.209333 -0.75,4.8125 -0.14484,1.50103 -0.29067,3.001 -0.4375,4.5 -0.0615,1.313526 -0.124,2.626 -0.1875,3.9375 -0.76985,1.584365 -1.54067,3.167667 -2.3125,4.75 -1.35319,1.896871 -2.70733,3.792666 -4.0625,5.6875 -2.85322,0.938519 -5.70733,1.876 -8.5625,2.8125 -1.83237,-0.540678 -3.66567,-1.082334 -5.5,-1.625 -3.79074,-1.124023 -7.58233,-2.249 -11.375,-3.375 -0.79068,-0.853184 -1.58233,-1.707334 -2.375,-2.5625 z" />
      <path
         style="opacity:0.0164918;fill:#945c46;fill-opacity:1;stroke:none;stroke-width:1px;stroke-linecap:butt;stroke-linejoin:miter;stroke-opacity:1"
         d="m 120.19851,57.940446 c -0.27664,-0.159196 -0.27664,-0.159196 -0.006,-0.448248 0.27083,-0.289052 0.81248,-0.867168 1.67223,-1.309985 0.85975,-0.442817 2.03681,-0.750103 3.19838,-0.958389 1.16158,-0.208287 2.30739,-0.31766 3.17467,-0.348824 0.86728,-0.03116 1.45581,0.01571 1.97406,0.0626 0.51824,0.04689 0.96614,0.09376 1.36973,0.310372 0.40358,0.21661 0.76295,0.602021 0.79107,0.976555 0.0281,0.374535 -0.27396,0.739112 -0.67995,1.038441 -0.40598,0.299328 -0.91639,0.5337 -1.55186,0.856627 -0.63548,0.322928 -1.39588,0.734377 -2.13775,0.940203 -0.74187,0.205826 -1.46581,0.205826 -2.23402,0.179818 -0.76821,-0.02601 -1.58069,-0.07809 -2.28638,-0.166547 -0.70568,-0.08846 -1.30463,-0.213453 -1.88014,-0.43459 -0.57552,-0.221137 -1.12759,-0.538838 -1.40422,-0.698034 z"
         id="path271844"
         inkscape:path-effect="#path-effect271846"
         inkscape:original-d="m 119.92187,57.78125 c 0.001,10e-4 0.001,10e-4 0,0 0.54268,-0.577137 1.08434,-1.15525 1.625,-1.734375 1.17811,-0.306298 2.35517,-0.613583 3.53125,-0.921875 1.14686,-0.108377 2.29267,-0.21775 3.4375,-0.328125 0.58956,0.04788 1.17809,0.09475 1.76563,0.140625 0.44893,0.04788 0.89683,0.09475 1.34375,0.140625 0.36038,0.386424 0.71975,0.771833 1.07812,1.15625 -0.30108,0.365591 -0.60316,0.730167 -0.90625,1.09375 -0.50942,0.23538 -1.01983,0.46975 -1.53125,0.703125 -0.75943,0.412467 -1.51983,0.823917 -2.28125,1.234375 -0.72297,10e-4 -1.44691,10e-4 -2.17187,0 -0.81152,-0.05108 -1.624,-0.103167 -2.4375,-0.15625 -0.59797,-0.124003 -1.19692,-0.249 -1.79688,-0.375 -0.55109,-0.316715 -1.10316,-0.634417 -1.65625,-0.953125 z" />
      <path
         style="fill:#5d4230;fill-opacity:1;stroke:none;stroke-width:1px;stroke-linecap:butt;stroke-linejoin:miter;stroke-opacity:1"
         d="m 136.12608,83.60428 c 1.10409,0.14572 1.83325,0.14572 3.22876,-0.458549 1.39551,-0.604269 3.45797,-1.812578 5.32243,-3.197936 1.86446,-1.385357 3.53109,-2.947825 4.79142,-4.385199 1.26033,-1.437375 2.11448,-2.749849 2.71932,-3.301708 0.60484,-0.551858 0.959,-0.343529 1.22955,-0.05161 0.27054,0.291924 0.45804,0.666918 0.46809,1.416746 0.0101,0.749828 -0.15661,1.874805 -0.60453,2.926563 -0.44792,1.051759 -1.17707,2.030905 -1.84377,3.020562 -0.6667,0.989658 -1.27086,1.989636 -2.22918,3.406271 -0.95833,1.416636 -2.2708,3.24993 -3.73944,4.822718 -1.46864,1.572789 -3.09361,2.885264 -4.80157,3.624854 -1.70796,0.73959 -3.49959,0.906253 -5.24946,0.739798 -1.74988,-0.166456 -3.45818,-0.666446 -5.10405,-1.468318 -1.64588,-0.801871 -3.22918,-1.906015 -4.65631,-3.010127 -1.42713,-1.104113 -2.69794,-2.208259 -3.7293,-3.260263 -1.03135,-1.052003 -1.823,-2.051983 -2.48987,-3.239446 -0.66687,-1.187462 -1.20853,-2.562432 -1.53164,-3.968767 -0.32312,-1.406335 -0.42729,-2.843806 -0.45861,-3.864717 -0.0313,-1.020911 0.0104,-1.62506 0.15611,-2.229446 0.14577,-0.604387 0.39576,-1.208543 0.77127,-1.156133 0.37551,0.05241 0.8755,0.760728 1.60459,2.031608 0.72909,1.27088 1.6874,3.104179 2.96889,4.697799 1.2815,1.593619 2.88563,2.947757 4.45863,3.937138 1.573,0.989381 3.11463,1.614366 4.62503,2.072572 1.51041,0.458206 2.98954,0.749866 4.09364,0.895586 z"
         id="path122376"
         inkscape:path-effect="#path-effect122378"
         inkscape:original-d="m 136.5,83.75 c 0.73017,0.001 1.45933,0.001 2.1875,0 2.06354,-1.207358 4.126,-2.415667 6.1875,-3.625 1.6677,-1.561531 3.33433,-3.124 5,-4.6875 0.85518,-1.311526 1.70933,-2.624 2.5625,-3.9375 0.35517,0.209337 0.70933,0.417667 1.0625,0.625 0.1885,0.376007 0.376,0.751 0.5625,1.125 -0.16567,1.126022 -0.33233,2.251 -0.5,3.375 -0.72818,0.980186 -1.45733,1.959333 -2.1875,2.9375 -0.60318,1.00102 -1.20733,2.001 -1.8125,3 -1.31153,1.83437 -2.624,3.667666 -3.9375,5.5 -1.62403,1.313526 -3.249,2.626 -4.875,3.9375 -1.7907,0.16767 -3.58233,0.334333 -5.375,0.5 -1.70737,-0.49901 -3.41567,-0.999 -5.125,-1.5 -1.58237,-1.103189 -3.16567,-2.207334 -4.75,-3.3125 -1.26986,-1.103189 -2.54067,-2.207334 -3.8125,-3.3125 -0.79068,-0.99902 -1.58233,-1.999 -2.375,-3 -0.54068,-1.374028 -1.08233,-2.749 -1.625,-4.125 -0.10317,-1.436529 -0.20733,-2.874 -0.3125,-4.3125 0.0427,-0.603179 0.0843,-1.207333 0.125,-1.8125 0.251,-0.603179 0.501,-1.207333 0.75,-1.8125 0.50101,0.709347 1.001,1.417667 1.5,2.125 0.95935,1.83437 1.91767,3.667667 2.875,5.5 1.6052,1.355194 3.20933,2.709333 4.8125,4.0625 1.5427,0.626012 3.08433,1.251 4.625,1.875 1.4802,0.292672 2.95933,0.584333 4.4375,0.875 z" />
      <path
         style="fill:#a8775d;fill-opacity:1;stroke:none;stroke-width:1px;stroke-linecap:butt;stroke-linejoin:miter;stroke-opacity:1"
         d="m 120,84.25 c -0.125,3.8125 -0.25003,7.625966 -0.23932,9.688589 0.0107,2.062623 0.15655,2.375117 0.53166,2.989685 0.3751,0.614568 0.97925,1.531214 1.73977,2.510343 0.76051,0.979133 1.67715,2.020773 2.70845,3.114503 1.0313,1.09374 2.17711,2.23955 3.44804,3.22899 1.27094,0.98944 2.66675,1.82276 3.84385,2.45811 1.17711,0.63534 2.13542,1.07283 3.44754,0.87453 1.31211,-0.1983 2.97874,-1.03162 4.94747,-2.10454 1.96874,-1.07292 4.23953,-2.38539 6.06227,-3.80196 1.82275,-1.41656 3.19772,-2.93737 4.13516,-4.551666 0.93743,-1.6143 1.43742,-3.322599 1.57311,-4.56192 0.13568,-1.239321 -0.0935,-2.010138 -0.37434,-2.510343 -0.28085,-0.500204 -0.61418,-0.729368 -0.78142,-1.323021 -0.16724,-0.593653 -0.16724,-1.551967 -0.136,-3.395756 0.0312,-1.843788 0.0937,-4.572901 0.0624,-5.802332 -0.0314,-1.22943 -0.15634,-0.958602 -0.71883,-0.06285 -0.56249,0.895746 -1.56247,2.416548 -2.77077,3.989399 -1.2083,1.572852 -2.62494,3.197815 -3.83295,4.17685 -1.20801,0.979034 -2.20799,1.312361 -3.69742,1.520775 -1.48942,0.208414 -3.46854,0.291745 -4.9476,0.135755 -1.47905,-0.155991 -2.45819,-0.551814 -3.80196,-1.103899 -1.34377,-0.552085 -3.05207,-1.260404 -4.95843,-2.583112 -1.90635,-1.322707 -4.01047,-3.260166 -5.15647,-4.38506 -1.14601,-1.124893 -1.3335,-1.437389 -1.35461,-1.051992 -0.0211,0.385397 0.12457,1.467594 0.2704,2.550927 z"
         id="path111009"
         inkscape:path-effect="#path-effect111011"
         inkscape:original-d="m 120,84.25 c 0,0 -0.249,7.626 -0.375,11.4375 0.14684,0.313506 0.29267,0.626 0.4375,0.9375 0.60518,0.917685 1.20933,1.834333 1.8125,2.75 0.91768,1.04269 1.83433,2.08433 2.75,3.125 1.14686,1.14686 2.29267,2.29267 3.4375,3.4375 1.39686,0.83435 2.79267,1.66767 4.1875,2.5 0.95935,0.43851 1.91767,0.876 2.875,1.3125 1.6677,-0.83235 3.33433,-1.66567 5,-2.5 2.27188,-1.31153 4.54267,-2.624 6.8125,-3.9375 1.37603,-1.51986 2.751,-3.04067 4.125,-4.5625 0.50101,-1.707368 1.001,-3.415667 1.5,-5.125 -0.22817,-0.769849 -0.45733,-1.540667 -0.6875,-2.3125 -0.33234,-0.228171 -0.66567,-0.457334 -1,-0.6875 0.001,-0.957353 0.001,-1.915667 0,-2.875 0.0635,-2.728221 0.126,-5.457334 0.1875,-8.1875 -0.124,0.271839 -0.249,0.542666 -0.375,0.8125 -0.99902,1.521864 -1.999,3.042666 -3,4.5625 -1.4157,1.626032 -2.83233,3.251 -4.25,4.875 -0.99902,0.33434 -1.999,0.667666 -3,1 -1.97821,0.08433 -3.95733,0.167666 -5.9375,0.25 -0.97819,-0.394841 -1.95733,-0.790667 -2.9375,-1.1875 -1.70737,-0.707348 -3.41567,-1.415667 -5.125,-2.125 -2.10321,-1.936539 -4.20733,-3.874 -6.3125,-5.8125 -0.1865,-0.311506 -0.374,-0.624 -0.5625,-0.9375 0.14684,1.084355 0.4375,3.25 0.4375,3.25 z" />
      <path
         style="opacity:0.535232;fill:#653624;fill-opacity:1;stroke:none;stroke-width:1px;stroke-linecap:butt;stroke-linejoin:miter;stroke-opacity:1"
         d="m 124.93693,76.500115 c 0.12473,0 0.0431,-0.67421 0.0431,-0.67421 -0.0662,-0.596085 -0.30818,-1.711179 -0.24203,-3.000348 0.0662,-1.289169 0.33132,-2.673891 0.75854,-3.808491 0.42721,-1.1346 1.01645,-2.01847 1.86369,-2.850985 0.84725,-0.832515 1.95208,-1.613261 2.52643,-2.121036 0.57436,-0.507775 0.61855,-0.743474 0.30973,-0.847006 -0.30882,-0.103531 -0.97172,-0.07407 -1.67922,0.220524 -0.70751,0.294593 -1.4588,0.854377 -2.27655,1.775268 -0.81776,0.920891 -1.70162,2.202498 -2.16561,3.300365 -0.46399,1.097867 -0.50818,2.011195 -0.29438,3.315058 0.21379,1.303863 0.59144,2.966688 0.82697,3.81315 0,0 0.0879,0.926958 0.32929,0.877711 z"
         id="path125496"
         sodipodi:nodetypes="ssssssssssssss" />
      <path
         style="opacity:0.041979;fill:#72382b;fill-opacity:1;stroke:none;stroke-width:1px;stroke-linecap:butt;stroke-linejoin:miter;stroke-opacity:1"
         d="m 136.51888,54.761596 c -0.21107,-0.192681 0.065,0.453153 0.34349,1.388042 0.27852,0.934889 0.55977,2.158822 0.84632,3.161454 0.28655,1.002632 0.57821,1.783866 1.20617,2.515444 0.62797,0.731578 1.59149,1.413854 2.1641,1.718033 0.57261,0.304179 0.75489,0.231266 0.98133,0.11149 0.22645,-0.119776 0.49728,-0.28644 0.42473,-0.56712 -0.0725,-0.280679 -0.48921,-0.676505 -0.94229,-1.056786 -0.45308,-0.380282 -0.94265,-0.744856 -1.36203,-1.13016 -0.41937,-0.385305 -0.76832,-0.791547 -1.09931,-1.442532 -0.33098,-0.650986 -0.64347,-1.5468 -1.14851,-2.510379 -0.50503,-0.963578 -1.20293,-1.994805 -1.414,-2.187486 z"
         id="path278360"
         inkscape:path-effect="#path-effect278362"
         inkscape:original-d="m 136.03125,53.921875 c 0.27704,0.646833 0.55308,1.292667 0.82812,1.9375 0.28226,1.224983 0.5635,2.448917 0.84375,3.671875 0.29268,0.782266 0.58434,1.5635 0.875,2.34375 0.96457,0.683305 1.92809,1.365583 2.89063,2.046875 0.1833,-0.07192 0.36558,-0.144833 0.54687,-0.21875 0.27184,-0.16567 0.54267,-0.332333 0.8125,-0.5 -0.41567,-0.394841 -0.83233,-0.790667 -1.25,-1.1875 -0.48859,-0.363591 -0.97816,-0.728167 -1.46875,-1.09375 -0.34796,-0.405258 -0.69691,-0.8115 -1.04687,-1.21875 -0.31151,-0.894851 -0.624,-1.790667 -0.9375,-2.6875 -0.69693,-1.030271 -1.39483,-2.0615 -2.09375,-3.09375 z" />
      <path
         style="opacity:0.535232;fill:#50291a;fill-opacity:1;stroke:none;stroke-width:1px;stroke-linecap:butt;stroke-linejoin:miter;stroke-opacity:1"
         d="m 141.81954,64.096833 c 0.39819,0.501417 1.19368,1.503154 1.75324,2.497582 0.55955,0.994428 0.88363,1.98141 1.08975,2.835792 0.20611,0.854382 0.2945,1.576205 0.20594,2.319887 -0.0886,0.743681 -0.35373,1.509698 -0.56733,2.172653 -0.2136,0.662955 -0.37564,1.222736 -0.11031,1.222355 0.26532,-3.81e-4 0.95768,-0.560163 1.41422,-1.355246 0.45654,-0.795082 0.67751,-1.826259 0.80279,-2.732143 0.12528,-0.905883 0.15475,-1.68663 0.0299,-2.342066 -0.12488,-0.655435 -0.40477,-1.185756 -0.74353,-1.760303 -0.33877,-0.574546 -0.73651,-1.193251 -1.45814,-1.7607 -0.72162,-0.56745 -1.76753,-1.08304 -2.29109,-1.341134 -0.52356,-0.258094 -0.52358,-0.258094 -0.1254,0.243323 z"
         id="path133608"
         inkscape:path-effect="#path-effect133610"
         inkscape:original-d="m 141.42136,63.595416 c 0.79649,1.002735 1.59199,2.004469 2.38648,3.005204 0.3251,0.988023 0.64918,1.975006 0.97227,2.961009 0.0894,0.722853 0.17778,1.444677 0.26517,2.165515 -0.26417,0.767048 -0.52933,1.533065 -0.7955,2.298097 -0.16105,0.560804 -0.32309,1.120586 -0.48613,1.679379 0.69339,-0.558804 1.38575,-1.118586 2.07712,-1.679379 0.22198,-1.030218 0.44295,-2.061395 0.66292,-3.093592 0.0305,-0.779779 0.0599,-1.560528 0.0884,-2.342291 -0.2789,-0.529341 -0.55879,-1.059661 -0.83968,-1.590991 -0.39676,-0.61773 -0.7945,-1.236436 -1.19325,-1.856155 -1.04495,-0.514609 -2.09086,-1.030197 -3.13778,-1.546796 z" />
      <path
         style="fill:#341606;fill-opacity:1;stroke:none;stroke-width:1px;stroke-linecap:butt;stroke-linejoin:miter;stroke-opacity:1"
         d="m 125.80202,73.92933 c 0.19101,0.226121 0.57282,0.678125 1.16747,1.232184 0.59466,0.554058 1.40368,1.212058 2.23533,1.623641 0.83165,0.411583 1.68006,0.575979 2.70312,0.684125 1.02305,0.108146 2.2008,0.158057 3.3123,0.125833 1.11151,-0.03222 2.15064,-0.14667 3.47938,-0.51027 1.32873,-0.363599 2.95046,-0.977384 4.00999,-1.542659 1.05954,-0.565274 1.72445,-1.250965 1.92431,-1.774722 0.19986,-0.523757 0.13395,-1.632006 -1.05462,-1.814596 -1.18857,-0.182589 -3.55392,-0.253204 -5.66768,-0.278483 -2.11375,-0.02528 -3.98092,-0.0053 -5.69484,0.110483 -1.71393,0.115763 -3.21259,0.318196 -4.30833,0.532483 -1.09573,0.214287 -1.60824,0.405619 -1.90076,0.635314 -0.29251,0.229696 -0.34459,0.49012 -0.37063,0.620333 -0.026,0.130213 -0.026,0.130213 0.16496,0.356334 z"
         id="path159140"
         inkscape:path-effect="#path-effect159142"
         inkscape:original-d="m 125.61102,73.703207 c 0.3821,0.452167 0.76391,0.90417 1.14385,1.354152 0.80919,0.658325 1.61821,1.316326 2.42673,1.973732 0.85472,0.166423 1.70313,0.330819 2.55922,0.495897 1.19013,0.05139 2.36788,0.101305 3.55066,0.150472 1.04039,-0.113475 2.07952,-0.227921 3.1176,-0.343361 1.61973,-0.61165 3.24146,-1.225434 4.85677,-1.838168 0.76156,-0.268582 1.66194,-0.725942 1.60353,-1.653634 0.0674,-0.604718 0.46447,-1.740502 -0.11904,-2.001577 -2.35466,-0.236288 -4.72489,-0.143481 -7.08755,-0.21159 -1.86517,-0.0031 -3.73397,-0.135943 -5.59349,0.05991 -1.5663,0.212704 -3.06496,0.415137 -4.70018,0.63488 -0.55595,0.208924 -1.06846,0.400255 -1.60186,0.598009 -0.0509,0.260666 -0.103,0.521086 -0.15624,0.78128 0.001,9.99e-4 0.001,9.99e-4 0,-2e-6 z"
         sodipodi:nodetypes="ccccccccccccccc" />
      <path
         style="fill:#fbe3d3;fill-opacity:1;stroke:none;stroke-width:1px;stroke-linecap:butt;stroke-linejoin:miter;stroke-opacity:1"
         d="m 127.97433,72.69315 c -0.44299,0.526673 -0.38049,1.307923 0.0732,1.771028 0.45366,0.463106 1.29739,0.608936 2.67754,0.681754 1.38016,0.07282 3.29679,0.07282 5.01033,0.04155 1.71354,-0.03127 3.22392,-0.09377 4.48429,-0.192767 1.26038,-0.099 2.27077,-0.23441 2.74956,-0.624448 0.47878,-0.390039 0.4267,-1.035859 0.37986,-1.51501 -0.0468,-0.479152 -0.0885,-0.791637 -0.50471,-0.995257 -0.4162,-0.203619 -1.20785,-0.297367 -2.48397,-0.31828 -1.27613,-0.02091 -3.03651,0.03117 -4.79173,0.05723 -1.75521,0.02606 -3.50517,0.02606 -4.85431,0.161382 -1.34914,0.135325 -2.29703,0.406151 -2.74003,0.932824 z"
         id="path143607"
         inkscape:path-effect="#path-effect143609"
         inkscape:original-d="m 127.46875,72.4375 c 0.0635,0.78225 0.126,1.5635 0.1875,2.34375 0.84477,0.146836 1.6885,0.292667 2.53125,0.4375 1.9177,0.001 3.83433,0.001 5.75,0 1.51145,-0.0615 3.02183,-0.124 4.53125,-0.1875 1.01144,-0.134419 2.02183,-0.269833 3.03125,-0.40625 -0.0511,-0.644846 -0.10317,-1.290667 -0.15625,-1.9375 -0.0407,-0.311506 -0.0823,-0.624 -0.125,-0.9375 -0.79068,-0.09275 -1.58233,-0.1865 -2.375,-0.28125 -1.75945,0.05308 -3.51983,0.105167 -5.28125,0.15625 -1.74904,0.001 -3.499,0.001 -5.25,0 -0.94694,0.271839 -1.89483,0.542667 -2.84375,0.8125 z" />
      <path
         style="fill:#f4d0c3;fill-opacity:1;stroke:none;stroke-width:1px;stroke-linecap:butt;stroke-linejoin:miter;stroke-opacity:1"
         d="m 129.31215,75.54994 c -0.0368,0.360919 -0.0737,0.722731 0.11105,1.006171 0.18479,0.283439 0.58989,0.489673 1.20125,0.703137 0.61135,0.213464 1.42892,0.434429 2.41951,0.518953 0.99058,0.08452 2.15433,0.03297 3.38066,-0.103351 1.22633,-0.136316 2.5153,-0.357282 3.35472,-0.592999 0.83941,-0.235716 1.22979,-0.486147 1.41751,-0.817007 0.18771,-0.33086 0.17298,-0.743334 -0.0292,-0.917013 -0.20217,-0.173679 -0.59255,-0.107387 -1.45796,-0.04473 -0.86541,0.06266 -2.20594,0.121581 -3.40654,0.158423 -1.2006,0.03684 -2.26124,0.05157 -3.40294,0.06262 -1.14169,0.01105 -2.36536,0.01843 -3.58807,0.02579 z"
         id="path148101"
         inkscape:path-effect="#path-effect148103"
         inkscape:original-d="m 129.31215,75.54994 c 0,0 -0.0727,0.722838 -0.11048,1.082757 0.40612,0.207244 0.81122,0.413479 1.21534,0.618719 0.81861,0.221975 1.63618,0.442941 2.45277,0.662912 1.16481,-0.05056 2.32856,-0.102119 3.49134,-0.154679 1.29003,-0.219976 2.579,-0.440942 3.86699,-0.662913 0.39139,-0.249439 0.78177,-0.499867 1.17115,-0.751301 -0.0137,-0.411487 -0.0285,-0.823958 -0.0442,-1.237437 -0.38938,0.06729 -0.77976,0.133583 -1.17114,0.198874 -1.33958,0.05993 -2.68011,0.118851 -4.02167,0.176777 -1.05968,0.01573 -2.12032,0.03046 -3.18198,0.04419 -1.22173,0.0084 -3.66812,0.0221 -3.66812,0.0221 z" />
      <path
         style="opacity:0.689655;fill:#b97f66;fill-opacity:1;stroke:none;stroke-width:1px;stroke-linecap:butt;stroke-linejoin:miter;stroke-opacity:1"
         d="m 135.10575,55.376256 c -0.26933,0.956583 -0.4903,2.40026 -0.97643,3.770279 -0.48614,1.370018 -1.23744,2.666385 -2.00347,3.535535 -0.76603,0.869151 -1.5468,1.311095 -2.11836,1.866875 -0.57157,0.55578 -1.03137,1.405457 -0.82557,1.912738 0.20579,0.507281 0.91931,0.963926 1.75484,1.133321 0.83553,0.169396 1.79307,0.05154 2.4174,0.233272 0.62433,0.181727 1.06422,0.909005 1.62044,1.056099 0.55621,0.147094 1.49065,0.147009 2.34122,-0.236386 0.85057,-0.383396 1.6214,-1.154222 2.30953,-1.596578 0.68813,-0.442356 1.34342,-0.574486 1.83213,-0.871281 0.48872,-0.296795 0.91495,-0.818671 0.61937,-1.494531 -0.29557,-0.67586 -1.29641,-1.529546 -2.02363,-2.130124 -0.72721,-0.600578 -1.25876,-1.008217 -1.67159,-2.17812 -0.41282,-1.169904 -0.82997,-3.196478 -1.21174,-4.467644 -0.38176,-1.271166 -0.95777,-2.128855 -1.21743,-2.044204 -0.25966,0.08465 -0.57737,0.554165 -0.84671,1.510749 z"
         id="path169268"
         inkscape:path-effect="#path-effect169270"
         inkscape:original-d="m 135.05739,54.889164 c -0.21984,1.443848 -0.44081,2.887525 -0.66291,4.331029 -0.75011,1.297049 -1.50142,2.593411 -2.2539,3.889087 -0.78009,0.443128 -1.56086,0.885068 -2.34229,1.325825 -0.33559,0.68411 -0.97102,1.438746 -1.12409,2.077218 0.71336,0.456882 1.42688,0.913527 2.14055,1.369928 0.95768,-0.116747 1.91522,-0.234594 2.87263,-0.353554 0.33416,0.45527 0.28789,1.476596 0.90899,1.502857 0.93444,7.36e-4 1.86888,6.52e-4 2.80332,-2.55e-4 0.79284,-0.740569 1.69212,-1.38294 2.29809,-2.298097 0.61593,-0.122992 1.27122,-0.255123 1.86074,-0.375193 0.38877,-0.473783 0.815,-0.995657 1.22187,-1.49606 -0.99918,-0.852127 -2.00002,-1.70581 -2.99625,-2.555713 -0.4404,-0.374463 -1.11895,-0.590415 -1.3982,-1.072269 -0.39717,-2.030625 -0.82689,-4.054611 -1.25142,-6.079634 -0.37595,-0.495938 -0.73919,-1.496519 -1.12401,-1.673677 -0.3167,0.470184 -0.6344,0.939707 -0.95312,1.408508 z"
         sodipodi:nodetypes="ccccccccccccccccc" />
      <path
         style="opacity:1;fill:#b1846c;fill-opacity:1;stroke:none;stroke-width:1px;stroke-linecap:butt;stroke-linejoin:miter;stroke-opacity:1"
         d="m 116.71005,71.616866 c -0.44871,-0.154472 -1.34733,-0.463833 -2.02499,-0.765661 -0.67767,-0.301827 -1.13434,-0.596452 -1.40002,-1.060323 -0.26568,-0.46387 -0.33934,-1.097303 -0.55281,-1.951686 -0.21348,-0.854383 -0.56702,-1.929754 -0.83947,-2.67369 -0.27245,-0.743935 -0.46396,-1.156409 -0.78071,-1.878256 -0.31675,-0.721848 -0.75868,-1.753023 -0.81059,-2.836073 -0.0519,-1.083049 0.2869,-2.217341 0.60367,-2.983616 0.31676,-0.766275 0.61138,-1.164015 0.95077,-1.170962 0.33938,-0.0069 0.72239,0.376061 1.03169,0.714937 0.3093,0.338876 0.545,0.633496 0.73665,0.795108 0.19164,0.161613 0.33895,0.191075 0.45628,0.729205 0.11732,0.538131 0.2057,1.584038 0.28674,2.467937 0.081,0.8839 0.15468,1.60572 0.2724,1.620262 0.11771,0.01454 0.27975,-0.677819 0.53019,-1.74586 0.25044,-1.068041 0.58925,-2.511689 0.8694,-2.828175 0.28014,-0.316487 0.50111,0.493723 0.67774,2.968561 0.17664,2.474838 0.30921,6.614276 0.37549,8.683521 0.0663,2.069245 0.0663,2.069243 -0.38243,1.914771 z"
         id="path204550"
         inkscape:path-effect="#path-effect204552"
         inkscape:original-d="m 117.15875,71.771338 c -0.89761,-0.308359 -1.79623,-0.617718 -2.69584,-0.928077 -0.45568,-0.293634 -0.91235,-0.588256 -1.37002,-0.883884 -0.0727,-0.632462 -0.14631,-1.2659 -0.22097,-1.900349 -0.35256,-1.074414 -0.70611,-2.149784 -1.06066,-3.226175 -0.19051,-0.411487 -0.38202,-0.823958 -0.57452,-1.237437 -0.44096,-1.030218 -0.88289,-2.061395 -1.32583,-3.093592 0.33983,-1.13334 0.67864,-2.267634 1.01647,-3.402952 0.29563,-0.396755 0.59025,-0.794495 0.88388,-1.193242 0.38402,0.384024 0.76703,0.767032 1.14905,1.149048 0.23671,0.295634 0.4724,0.590256 0.7071,0.883884 0.14832,0.03046 0.29563,0.05992 0.44195,0.08839 0.0894,1.04695 0.17777,2.092858 0.26516,3.137786 0.0747,0.722853 0.14832,1.444677 0.22097,2.165515 0.16305,-0.691389 0.32509,-1.383751 0.48614,-2.077126 0.33983,-1.442705 0.67864,-2.886353 1.01646,-4.331029 0.22198,0.811243 0.44295,1.621453 0.66292,2.430679 0.13358,4.140604 0.26616,8.280042 0.39774,12.418563 z" />
      <path
         style="opacity:0.121439;fill:#7f5443;fill-opacity:1;stroke:none;stroke-width:1px;stroke-linecap:butt;stroke-linejoin:miter;stroke-opacity:1"
         d="m 113.92517,61.5038 c -0.2285,0.42755 -0.4642,1.105193 -0.50082,1.900978 -0.0366,0.795785 0.12542,1.709112 0.43471,1.958948 0.30928,0.249836 0.76595,-0.162638 1.16359,-0.633895 0.39764,-0.471258 0.73646,-1.001576 0.86918,-1.59778 0.13272,-0.596204 0.0591,-1.25911 -0.19083,-1.671911 -0.24989,-0.412801 -0.67709,-0.574842 -1.00173,-0.567753 -0.32463,0.0071 -0.5456,0.183864 -0.7741,0.611413 z"
         id="path216181"
         inkscape:path-effect="#path-effect216183"
         inkscape:original-d="m 113.93258,61.253125 c -0.2347,0.678644 -0.4704,1.356288 -0.70711,2.032932 0.16305,0.914364 0.32509,1.827692 0.48614,2.740039 0.45768,-0.411488 0.91435,-0.823958 1.37002,-1.237437 0.33983,-0.529341 0.67864,-1.05966 1.01646,-1.590991 -0.0726,-0.661925 -0.14631,-1.324825 -0.22097,-1.988737 -0.42622,-0.161049 -0.85342,-0.323091 -1.28163,-0.486136 -0.21997,0.17778 -0.44094,0.354553 -0.66291,0.53033 z" />
      <path
         style="fill:#211715;fill-opacity:1;stroke:none;stroke-width:1px;stroke-linecap:butt;stroke-linejoin:miter;stroke-opacity:1"
         d="m 114.28434,60.154332 c 0.0203,0.249129 0.0608,0.746312 0.10134,1.173538 0.0405,0.427227 0.081,0.784455 0.12552,1.003629 0.0445,0.219175 0.0924,0.300208 0.14715,0.274045 0.0548,-0.02616 0.1174,-0.158743 0.18739,-0.377736 0.07,-0.218993 0.14732,-0.524674 0.23571,-0.885588 0.0884,-0.360914 0.18783,-0.777067 0.23945,-1.03108 0.0516,-0.254014 0.0553,-0.346038 -0.12836,-0.38705 -0.18365,-0.04101 -0.55562,-0.02996 -0.74209,-0.02442 -0.18646,0.0055 -0.18641,0.0055 -0.16611,0.254664 z"
         id="path220066"
         inkscape:original-d="m 114.26404,59.905203 c 0.0415,0.498184 0.082,0.995368 0.12153,1.491553 0.0415,0.358243 0.082,0.715472 0.12153,1.071709 0.0489,0.08202 0.0968,0.163045 0.14364,0.243068 0.0636,-0.131586 0.12621,-0.264165 0.18782,-0.397748 0.0783,-0.304682 0.15568,-0.610353 0.23202,-0.917029 0.10044,-0.41517 0.19987,-0.831324 0.29831,-1.248485 0.005,-0.09109 0.008,-0.183141 0.011,-0.276214 -0.37097,0.01205 -0.74294,0.0231 -1.1159,0.03315 z"
         inkscape:path-effect="#path-effect220068"
         sodipodi:nodetypes="cccccccccc" />
      <path
         style="fill:#211715;fill-opacity:1;stroke:none;stroke-width:1px;stroke-linecap:butt;stroke-linejoin:miter;stroke-opacity:1"
         d="m 155.07035,58.492727 c 0.0235,0.273978 0.0704,0.820846 0.11723,1.443245 0.0469,0.622398 0.0937,1.320302 0.14325,1.893242 0.0495,0.57294 0.10158,1.020846 0.2425,1.437556 0.14091,0.416711 0.37008,0.802119 0.57344,1.049288 0.20336,0.247169 0.38044,0.356542 0.49442,0.382242 0.11397,0.0257 0.16605,-0.03159 0.2337,-0.236976 0.0676,-0.205391 0.15098,-0.559558 0.17715,-0.936995 0.0262,-0.377438 -0.005,-0.778468 -0.0623,-1.309703 -0.0573,-0.531235 -0.14059,-1.192684 -0.16152,-1.817783 -0.0209,-0.6251 0.0207,-1.213624 -0.26512,-1.570742 -0.28585,-0.357117 -0.90042,-0.482115 -1.2083,-0.544733 -0.30787,-0.06262 -0.30792,-0.06262 -0.28444,0.211359 z"
         id="path245287"
         inkscape:path-effect="#path-effect245289"
         inkscape:original-d="m 155.04687,58.21875 c 0.0479,0.547875 0.0947,1.09475 0.14063,1.640625 0.0479,0.698931 0.0948,1.396833 0.14062,2.09375 0.0531,0.448926 0.10517,0.896833 0.15625,1.34375 0.23018,0.386424 0.45934,0.771833 0.6875,1.15625 0.17809,0.110377 0.35517,0.21975 0.53125,0.328125 0.0531,-0.05629 0.10517,-0.113583 0.15625,-0.171875 0.0843,-0.353174 0.16767,-0.707333 0.25,-1.0625 -0.0303,-0.40005 -0.0615,-0.801083 -0.0937,-1.203125 -0.0823,-0.660472 -0.16566,-1.321917 -0.25,-1.984375 0.0427,-0.587554 0.0843,-1.176083 0.125,-1.765625 -0.61359,-0.124003 -1.22816,-0.249 -1.84375,-0.375 z" />
      <path
         style="opacity:0.10045;fill:#3d1f17;fill-opacity:1;stroke:none;stroke-width:1px;stroke-linecap:butt;stroke-linejoin:miter;stroke-opacity:1"
         d="m 156.1903,64.482852 c 0.0445,0.273545 0.13826,0.52877 0.22935,0.820423 0.0911,0.291653 0.17963,0.619784 0.2971,0.872342 0.11748,0.252558 0.26331,0.429638 0.45075,0.49412 0.18743,0.06448 0.41659,0.01761 0.56458,-0.195461 0.14799,-0.213069 0.21569,-0.593272 0.24182,-0.952526 0.0261,-0.359253 0.0105,-0.697791 -0.0544,-1.033653 -0.0649,-0.335862 -0.1795,-0.669188 -0.33016,-0.890798 -0.15066,-0.22161 -0.33816,-0.330985 -0.54652,-0.404156 -0.20836,-0.07317 -0.43752,-0.109629 -0.58923,-0.03132 -0.15171,0.07831 -0.22463,0.271016 -0.26359,0.513423 -0.039,0.242408 -0.0442,0.534066 3.3e-4,0.80761 z"
         id="path249806"
         inkscape:path-effect="#path-effect249808"
         inkscape:original-d="m 156.14062,64.5 c 0.0947,0.256208 0.1885,0.511417 0.28125,0.765625 0.0895,0.329131 0.17809,0.65725 0.26563,0.984375 0.14684,0.178087 0.29267,0.355167 0.4375,0.53125 0.23017,-0.04588 0.45933,-0.09275 0.6875,-0.140625 0.0687,-0.379216 0.13642,-0.759417 0.20312,-1.140625 -0.0146,-0.337549 -0.0303,-0.676083 -0.0469,-1.015625 -0.11359,-0.33234 -0.22817,-0.665667 -0.34375,-1 -0.1865,-0.108377 -0.374,-0.21775 -0.5625,-0.328125 -0.22817,-0.03546 -0.45733,-0.07192 -0.6875,-0.109375 -0.0719,0.193712 -0.14483,0.386417 -0.21875,0.578125 -0.004,0.292672 -0.009,0.584333 -0.0156,0.875 z" />
      <path
         style="fill:#593926;fill-opacity:1;stroke:none;stroke-width:1px;stroke-linecap:butt;stroke-linejoin:miter;stroke-opacity:1"
         d="m 120.65765,53.747385 c 0.40529,-0.213702 1.21552,-0.640913 2.77001,-0.86916 1.5545,-0.228247 3.85255,-0.257709 5.68661,-0.287177 1.83407,-0.02947 3.20407,-0.05893 3.56509,-0.228048 0.36102,-0.169117 -0.28715,-0.47847 -0.95007,-0.758433 -0.66291,-0.279963 -1.34054,-0.530392 -2.0845,-0.766157 -0.74395,-0.235765 -1.55416,-0.456731 -2.55602,-0.545299 -1.00186,-0.08857 -2.19508,-0.04437 -3.27075,0.205981 -1.07566,0.250354 -2.03318,0.707018 -2.60801,1.318833 -0.57483,0.611815 -0.76633,1.377833 -0.862,1.760496 -0.0957,0.382662 -0.0957,0.382665 0.30964,0.168964 z"
         id="path259892"
         inkscape:path-effect="#path-effect259894"
         inkscape:original-d="m 120.25235,53.961086 c 0.81122,-0.42621 1.62145,-0.853421 2.43068,-1.281631 2.29914,-0.02846 4.59719,-0.05792 6.89429,-0.08839 1.37104,-0.02846 2.74104,-0.05793 4.11006,-0.08839 -0.6472,-0.308365 -1.29537,-0.617718 -1.94455,-0.928077 -0.67666,-0.249439 -1.35429,-0.499868 -2.03293,-0.751301 -0.80924,-0.219975 -1.61945,-0.440942 -2.43068,-0.662913 -1.19227,0.04519 -2.38549,0.08939 -3.57973,0.132583 -0.95656,0.457682 -1.91408,0.914346 -2.87262,1.370019 -0.19051,0.767048 -0.38202,1.533065 -0.57452,2.298097 z" />
      <path
         style="fill:#482314;fill-opacity:1;stroke:none;stroke-width:1px;stroke-linecap:butt;stroke-linejoin:miter;stroke-opacity:1"
         d="m 138.69817,52.702892 c 0.0187,0.136097 3.26924,-0.0529 4.86762,-0.06026 1.59837,-0.0074 3.1746,-0.0074 4.49317,0.154871 1.31856,0.162231 2.3792,0.486315 2.94568,0.508566 0.56647,0.02225 0.64012,-0.257628 0.50079,-0.552139 -0.13933,-0.294512 -0.49288,-0.603866 -0.99368,-0.928112 -0.50081,-0.324246 -1.14898,-0.663057 -2.2834,-0.840143 -1.13443,-0.177085 -2.75485,-0.191815 -4.18393,-0.07404 -1.42908,0.117773 -2.66649,0.3682 -3.52125,0.68496 -0.85475,0.316759 -1.28747,0.600329 -1.52323,0.791885 -0.23576,0.191555 -0.28248,0.172804 -0.30177,0.314409 -0.0193,0.141605 0,3e-6 0,3e-6 z"
         id="path264492"
         sodipodi:nodetypes="sssssssssszs" />
      <path
         style="opacity:0.0164918;fill:#71463a;fill-opacity:1;stroke:none;stroke-width:1px;stroke-linecap:butt;stroke-linejoin:miter;stroke-opacity:1"
         d="m 138.72192,57.341875 c 0.30576,-0.221035 0.91712,-0.66298 1.55446,-1.00184 0.63733,-0.338861 1.30023,-0.574558 2.47157,-0.754951 1.17133,-0.180393 2.85068,-0.305607 4.07353,-0.242766 1.22285,0.06284 1.98887,0.313271 2.74382,0.718614 0.75495,0.405343 1.49887,0.965124 1.82231,1.43647 0.32344,0.471346 0.22769,0.854344 -0.34646,1.225861 -0.57415,0.371517 -1.62742,0.732428 -3.41343,0.920352 -1.78601,0.187923 -4.30502,0.202653 -5.84068,0.04464 -1.53566,-0.158011 -2.08808,-0.489463 -2.48609,-0.872242 -0.398,-0.382779 -0.64107,-0.817344 -0.76293,-1.035226 -0.12187,-0.217882 -0.12187,-0.217878 0.1839,-0.438914 z"
         id="path282323"
         inkscape:path-effect="#path-effect282325"
         inkscape:original-d="m 138.41615,57.562911 c 0.61235,-0.440941 1.22371,-0.882883 1.83406,-1.325825 0.66393,-0.234707 1.32683,-0.470404 1.98874,-0.707107 1.68041,-0.124219 3.35976,-0.249433 5.03813,-0.37565 0.76705,0.251439 1.53307,0.501867 2.2981,0.751301 0.74495,0.560804 1.48887,1.120586 2.23181,1.679378 -0.0948,0.384024 -0.19051,0.767033 -0.28727,1.149049 -1.05231,0.361926 -2.10558,0.722838 -3.15988,1.082757 -2.51812,0.01573 -5.03713,0.03046 -7.5572,0.04419 -0.55144,-0.330463 -1.10386,-0.661912 -1.65728,-0.994369 -0.24208,-0.433584 -0.48514,-0.868152 -0.72921,-1.303728 z" />
      <path
         style="opacity:1;fill:#c28b7a;fill-opacity:1;stroke:none;stroke-width:1px;stroke-linecap:butt;stroke-linejoin:miter;stroke-opacity:1"
         d="m 140.18542,57.968769 c -0.43542,-0.01564 -0.43542,-0.01564 -0.12537,-0.203236 0.31005,-0.187592 0.92983,-0.562584 1.65672,-0.778674 0.72689,-0.216091 1.56021,-0.273381 2.35973,-0.301995 0.79952,-0.02861 1.56513,-0.02861 2.2735,-0.0051 0.70838,0.02348 1.35941,0.07035 1.95583,0.179878 0.59643,0.109529 1.13808,0.281399 1.51305,0.44308 0.37497,0.161681 0.58217,0.311898 0.7905,0.46294 -0.41667,0.02083 -0.83238,0.04162 -1.67355,0.08849 -0.84116,0.04687 -2.10676,0.119787 -3.27341,0.156273 -1.16664,0.03648 -2.23433,0.03648 -3.20307,0.02088 -0.96875,-0.01561 -1.83852,-0.04686 -2.27393,-0.0625 z"
         id="path304317"
         inkscape:path-effect="#path-effect304319"
         inkscape:original-d="m 139.75,57.953125 c 0.001,10e-4 0.001,10e-4 0,0 0.62081,-0.374008 1.24059,-0.749 1.85938,-1.125 0.83435,-0.05629 1.66767,-0.113583 2.5,-0.171875 0.76664,10e-4 1.53225,10e-4 2.29687,0 0.65206,0.04788 1.30309,0.09475 1.95313,0.140625 0.54268,0.172878 1.08433,0.34475 1.625,0.515625 0.20934,0.152045 0.625,0.453125 0.625,0.453125 0,0 -0.83233,0.04267 -1.25,0.0625 -1.26465,0.07392 -2.53025,0.146833 -3.79688,0.21875 -1.06672,10e-4 -2.13441,10e-4 -3.20312,0 -0.86881,-0.03025 -1.73858,-0.0615 -2.60938,-0.09375 z" />
      <path
         style="fill:#4d2814;fill-opacity:1;stroke:none;stroke-width:0.852287px;stroke-linecap:butt;stroke-linejoin:miter;stroke-opacity:1"
         d="m 144.01006,56.578409 c -0.27766,0.255938 -0.38419,0.606621 -0.36866,0.908472 0.0155,0.301852 0.15315,0.554875 0.50849,0.72064 0.35534,0.165766 0.92842,0.244275 1.39917,0.252457 0.47076,0.0082 0.8392,-0.05396 1.01454,-0.304767 0.17534,-0.250802 0.15758,-0.690264 0.10654,-1.065358 -0.0511,-0.375093 -0.13539,-0.685827 -0.38841,-0.856728 -0.25303,-0.170902 -0.67473,-0.201974 -1.10998,-0.136913 -0.43524,0.06506 -0.88403,0.22626 -1.16169,0.482197 z"
         id="path318903"
         clip-path="url(#clipPath346516)"
         sodipodi:nodetypes="ccccccccc" />
      <path
         style="fill:#c28b7a;fill-opacity:1;stroke:none;stroke-width:1.1625px;stroke-linecap:butt;stroke-linejoin:miter;stroke-opacity:1"
         d="m 121.82536,57.101942 c -0.203,-0.201868 0.60415,-0.55784 1.30134,-0.806988 0.69719,-0.249147 1.28419,-0.391531 1.98528,-0.450745 0.70108,-0.05922 1.51592,-0.03549 2.37915,0.107065 0.86323,0.14255 1.77463,0.40359 2.35007,0.615045 0.57544,0.211455 0.81487,0.372824 0.93798,0.472776 0.1231,0.09995 0.13084,0.138021 -0.42108,0.187081 -0.55193,0.04906 -1.66413,0.11076 -2.7416,0.141639 -1.07746,0.03088 -2.12016,0.03088 -3.24785,0.0072 -1.12768,-0.02371 -2.3403,-0.07117 -2.54329,-0.27304 z"
         id="path325079" />
      <path
         style="fill:#4d2814;fill-opacity:1;stroke:none;stroke-width:1px;stroke-linecap:butt;stroke-linejoin:miter;stroke-opacity:1"
         d="m 125.72609,57.799179 c -0.33151,-0.213154 -0.71452,-0.610898 -0.86975,-1.052943 -0.15524,-0.442045 -0.0816,-0.928165 0.16188,-1.230669 0.24347,-0.302504 0.65594,-0.420352 1.09808,-0.464419 0.44215,-0.04407 0.91355,-0.0146 1.21525,0.170113 0.3017,0.184715 0.43428,0.523524 0.43394,0.913633 -3.3e-4,0.390109 -0.1329,0.832027 -0.34633,1.163113 -0.21344,0.331085 -0.50806,0.552048 -0.79486,0.647919 -0.2868,0.09587 -0.5667,0.06641 -0.89821,-0.146747 z"
         id="path340783"
         inkscape:path-effect="#path-effect340785"
         inkscape:original-d="m 125.77662,57.982756 c -0.38202,-0.396748 -0.76503,-0.794495 -1.14905,-1.193243 0.0747,-0.485145 0.14831,-0.971272 0.22097,-1.458407 0.41349,-0.116854 0.82596,-0.234703 1.23744,-0.353554 0.47241,0.03046 0.94381,0.05993 1.41421,0.08839 0.13358,0.33983 0.26616,0.678638 0.39775,1.016467 -0.13159,0.44295 -0.26416,0.884869 -0.39774,1.325825 -0.29364,0.221978 -0.58826,0.442941 -0.88389,0.662912 -0.2789,-0.02846 -0.5588,-0.05792 -0.83969,-0.08839 z"
         sodipodi:nodetypes="ccccccccc"
         clip-path="url(#clipPath345937)" />
    </g>
  </g>
</svg>
