<?xml version="1.0" encoding="UTF-8" standalone="no"?>
<!-- Created with Inkscape (http://www.inkscape.org/) -->

<svg
   version="1.1"
   id="svg2"
   width="260"
   height="260"
   viewBox="0 0 259.99999 260"
   sodipodi:docname="3.svg"
   inkscape:version="1.1 (c68e22c387, 2021-05-23)"
   xmlns:inkscape="http://www.inkscape.org/namespaces/inkscape"
   xmlns:sodipodi="http://sodipodi.sourceforge.net/DTD/sodipodi-0.dtd"
   xmlns="http://www.w3.org/2000/svg"
   xmlns:svg="http://www.w3.org/2000/svg">
  <defs
     id="defs6">
    <inkscape:path-effect
       effect="bspline"
       id="path-effect147616"
       is_visible="true"
       lpeversion="1"
       weight="33.333333"
       steps="2"
       helper_size="0"
       apply_no_weight="true"
       apply_with_weight="true"
       only_selected="false" />
    <inkscape:path-effect
       effect="bspline"
       id="path-effect136808"
       is_visible="true"
       lpeversion="1"
       weight="33.333333"
       steps="2"
       helper_size="0"
       apply_no_weight="true"
       apply_with_weight="true"
       only_selected="false" />
    <inkscape:path-effect
       effect="bspline"
       id="path-effect131522"
       is_visible="true"
       lpeversion="1"
       weight="33.333333"
       steps="2"
       helper_size="0"
       apply_no_weight="true"
       apply_with_weight="true"
       only_selected="false" />
    <inkscape:path-effect
       effect="bspline"
       id="path-effect125381"
       is_visible="true"
       lpeversion="1"
       weight="33.333333"
       steps="2"
       helper_size="0"
       apply_no_weight="true"
       apply_with_weight="true"
       only_selected="false" />
    <inkscape:path-effect
       effect="bspline"
       id="path-effect116547"
       is_visible="true"
       lpeversion="1"
       weight="33.333333"
       steps="2"
       helper_size="0"
       apply_no_weight="true"
       apply_with_weight="true"
       only_selected="false" />
    <inkscape:path-effect
       effect="bspline"
       id="path-effect112205"
       is_visible="true"
       lpeversion="1"
       weight="33.333333"
       steps="2"
       helper_size="0"
       apply_no_weight="true"
       apply_with_weight="true"
       only_selected="false" />
    <inkscape:path-effect
       effect="bspline"
       id="path-effect109555"
       is_visible="true"
       lpeversion="1"
       weight="33.333333"
       steps="2"
       helper_size="0"
       apply_no_weight="true"
       apply_with_weight="true"
       only_selected="false" />
    <inkscape:path-effect
       effect="bspline"
       id="path-effect103521"
       is_visible="true"
       lpeversion="1"
       weight="33.333333"
       steps="2"
       helper_size="0"
       apply_no_weight="true"
       apply_with_weight="true"
       only_selected="false" />
    <inkscape:path-effect
       effect="bspline"
       id="path-effect98960"
       is_visible="true"
       lpeversion="1"
       weight="33.333333"
       steps="2"
       helper_size="0"
       apply_no_weight="true"
       apply_with_weight="true"
       only_selected="false" />
    <inkscape:path-effect
       effect="bspline"
       id="path-effect89645"
       is_visible="true"
       lpeversion="1"
       weight="33.333333"
       steps="2"
       helper_size="0"
       apply_no_weight="true"
       apply_with_weight="true"
       only_selected="false" />
    <inkscape:path-effect
       effect="bspline"
       id="path-effect85825"
       is_visible="true"
       lpeversion="1"
       weight="33.333333"
       steps="2"
       helper_size="0"
       apply_no_weight="true"
       apply_with_weight="true"
       only_selected="false" />
    <inkscape:path-effect
       effect="bspline"
       id="path-effect82473"
       is_visible="true"
       lpeversion="1"
       weight="33.333333"
       steps="2"
       helper_size="0"
       apply_no_weight="true"
       apply_with_weight="true"
       only_selected="false" />
    <inkscape:path-effect
       effect="bspline"
       id="path-effect79199"
       is_visible="true"
       lpeversion="1"
       weight="33.333333"
       steps="2"
       helper_size="0"
       apply_no_weight="true"
       apply_with_weight="true"
       only_selected="false" />
    <inkscape:path-effect
       effect="bspline"
       id="path-effect76001"
       is_visible="true"
       lpeversion="1"
       weight="33.333333"
       steps="2"
       helper_size="0"
       apply_no_weight="true"
       apply_with_weight="true"
       only_selected="false" />
    <inkscape:path-effect
       effect="bspline"
       id="path-effect72532"
       is_visible="true"
       lpeversion="1"
       weight="33.333333"
       steps="2"
       helper_size="0"
       apply_no_weight="true"
       apply_with_weight="true"
       only_selected="false" />
    <inkscape:path-effect
       effect="bspline"
       id="path-effect69375"
       is_visible="true"
       lpeversion="1"
       weight="33.333333"
       steps="2"
       helper_size="0"
       apply_no_weight="true"
       apply_with_weight="true"
       only_selected="false" />
    <inkscape:path-effect
       effect="bspline"
       id="path-effect62880"
       is_visible="true"
       lpeversion="1"
       weight="33.333333"
       steps="2"
       helper_size="0"
       apply_no_weight="true"
       apply_with_weight="true"
       only_selected="false" />
    <inkscape:path-effect
       effect="bspline"
       id="path-effect62876"
       is_visible="true"
       lpeversion="1"
       weight="33.333333"
       steps="2"
       helper_size="0"
       apply_no_weight="true"
       apply_with_weight="true"
       only_selected="false" />
    <inkscape:path-effect
       effect="bspline"
       id="path-effect59057"
       is_visible="true"
       lpeversion="1"
       weight="33.333333"
       steps="2"
       helper_size="0"
       apply_no_weight="true"
       apply_with_weight="true"
       only_selected="false" />
    <inkscape:path-effect
       effect="bspline"
       id="path-effect41107"
       is_visible="true"
       lpeversion="1"
       weight="33.333333"
       steps="2"
       helper_size="0"
       apply_no_weight="true"
       apply_with_weight="true"
       only_selected="false" />
    <inkscape:path-effect
       effect="bspline"
       id="path-effect41103"
       is_visible="true"
       lpeversion="1"
       weight="33.333333"
       steps="2"
       helper_size="0"
       apply_no_weight="true"
       apply_with_weight="true"
       only_selected="false" />
    <inkscape:path-effect
       effect="bspline"
       id="path-effect41099"
       is_visible="true"
       lpeversion="1"
       weight="33.333333"
       steps="2"
       helper_size="0"
       apply_no_weight="true"
       apply_with_weight="true"
       only_selected="false" />
    <inkscape:path-effect
       effect="bspline"
       id="path-effect30418"
       is_visible="true"
       lpeversion="1"
       weight="33.333333"
       steps="2"
       helper_size="0"
       apply_no_weight="true"
       apply_with_weight="true"
       only_selected="false" />
    <inkscape:path-effect
       effect="bspline"
       id="path-effect21007"
       is_visible="true"
       lpeversion="1"
       weight="33.333333"
       steps="2"
       helper_size="0"
       apply_no_weight="true"
       apply_with_weight="true"
       only_selected="false" />
    <inkscape:path-effect
       effect="bspline"
       id="path-effect13498"
       is_visible="true"
       lpeversion="1"
       weight="33.333333"
       steps="2"
       helper_size="0"
       apply_no_weight="true"
       apply_with_weight="true"
       only_selected="false" />
    <inkscape:path-effect
       effect="bspline"
       id="path-effect11257"
       is_visible="true"
       lpeversion="1"
       weight="33.333333"
       steps="2"
       helper_size="0"
       apply_no_weight="true"
       apply_with_weight="true"
       only_selected="false" />
    <inkscape:path-effect
       effect="bspline"
       id="path-effect11187"
       is_visible="true"
       lpeversion="1"
       weight="33.333333"
       steps="2"
       helper_size="0"
       apply_no_weight="true"
       apply_with_weight="true"
       only_selected="false" />
    <inkscape:path-effect
       effect="bspline"
       id="path-effect862"
       is_visible="true"
       lpeversion="1"
       weight="33.333333"
       steps="2"
       helper_size="0"
       apply_no_weight="true"
       apply_with_weight="true"
       only_selected="false" />
  </defs>
  <sodipodi:namedview
     id="namedview4"
     pagecolor="#ffffff"
     bordercolor="#666666"
     borderopacity="1.0"
     inkscape:pageshadow="2"
     inkscape:pageopacity="0.0"
     inkscape:pagecheckerboard="true"
     showgrid="false"
     inkscape:zoom="1.3707232"
     inkscape:cx="144.08452"
     inkscape:cy="183.84456"
     inkscape:window-width="1920"
     inkscape:window-height="1047"
     inkscape:window-x="-9"
     inkscape:window-y="-9"
     inkscape:window-maximized="1"
     inkscape:current-layer="g907"
     fit-margin-top="8"
     lock-margins="true"
     fit-margin-left="8"
     fit-margin-right="8"
     fit-margin-bottom="0" />
  <g
     inkscape:groupmode="layer"
     inkscape:label="Image"
     id="g8"
     transform="translate(2.9935827,-21.461659)">
    <g
       id="g907"
       transform="translate(4.7936316,10.356328)">
      <g
         id="g1803"
         transform="translate(9.3939778,-4.7826307)">
        <path
           style="fill:#fcfafc;fill-opacity:1;stroke:none;stroke-width:1px;stroke-linecap:butt;stroke-linejoin:miter;stroke-opacity:1"
           d="m 0.2173622,275.87807 c 0.0604716,0.0569 0.1803794,0.16978 1.2162066,-9.16476 1.0358271,-9.33455 2.9925525,-28.15365 4.8169951,-40.07593 1.8244426,-11.92228 3.5244456,-17.02229 4.6295181,-21.5273 1.105073,-4.505 1.615075,-8.41501 3.570132,-12.87798 1.955057,-4.46296 5.355059,-9.47796 11.432999,-14.62082 6.07794,-5.14287 14.832953,-10.41287 23.418272,-15.17303 8.585319,-4.76015 16.999936,-9.00996 25.415116,-13.26005 0,0 10.710229,81.60174 10.710229,81.60174 0,0 51.76611,-105.06225 51.76611,-105.06225 -2.72006,0.34001 -5.43926,0.67991 -6.84215,0.51051 -1.40289,-0.1694 -1.48789,-0.8494 -0.29755,-1.48756 1.19034,-0.63817 3.65534,-1.23317 5.3131,-1.23268 1.65775,4.9e-4 2.50775,0.59549 3.82506,2.50827 1.31731,1.91277 3.10231,5.14277 5.39758,8.03273 2.29527,2.88997 5.10028,5.43998 8.88298,7.60729 3.78271,2.16732 8.54272,3.95232 14.53541,6.62999 5.9927,2.67766 13.21771,6.24766 18.95536,9.35032 5.73765,3.10266 9.98766,5.73767 14.11015,9.43547 4.1225,3.6978 8.11751,8.45781 10.49739,11.68796 2.37987,3.23015 3.14488,4.93015 4.71735,9.64782 1.57246,4.71767 3.95247,12.45268 5.60985,27.52695 1.65738,15.07426 2.59234,37.48584 3.52736,59.8989 -75.08931,-0.004 -150.177445,-0.008 -187.722692,-0.0104 -37.54524737,-0.002 -37.54524737,-0.002 -37.4847758,0.0548 z"
           id="path860"
           sodipodi:nodetypes="cccccccccccccccccccccccc" />
        <path
           style="fill:#f2f2f2;fill-opacity:1;stroke:none;stroke-width:1px;stroke-linecap:butt;stroke-linejoin:miter;stroke-opacity:1"
           d="m 85.42683,230.77994 c 0,0 69.10406,-69.21672 69.10406,-69.21672 0,0 -23.62141,-23.80173 -23.62141,-23.80173 0,0 -45.48265,93.01845 -45.48265,93.01845 z"
           id="path11185"
           inkscape:path-effect="#path-effect11187"
           inkscape:original-d="m 85.42683,230.77994 c 0,0 69.10406,-69.21672 69.10406,-69.21672 0,0 -23.62141,-23.80173 -23.62141,-23.80173 0,0 -45.48265,93.01845 -45.48265,93.01845 z" />
        <path
           style="fill:#f2f2f2;stroke:none;stroke-width:1px;stroke-linecap:butt;stroke-linejoin:miter;stroke-opacity:1"
           d="m 85.42683,230.77994 c 0,0 -10.710229,-81.60174 -10.710229,-81.60174 0,0 -21.818247,12.80244 -21.818247,12.80244 0,0 32.528476,68.7993 32.528476,68.7993 z"
           id="path11255"
           inkscape:path-effect="#path-effect11257"
           inkscape:original-d="M 85.42683,230.77994 74.716601,149.1782 52.898354,161.98064 Z"
           sodipodi:nodetypes="cccc" />
        <path
           style="fill:#f0d864;fill-opacity:1;stroke:none;stroke-width:1px;stroke-linecap:butt;stroke-linejoin:miter;stroke-opacity:1"
           d="m 85.42683,230.77994 c 0,0 29.32563,-60.30879 29.32563,-60.30879 -1.40253,1.57253 -2.80512,3.14513 -5.63105,4.31381 -2.82593,1.16868 -7.07593,1.93368 -11.389693,2.23128 -4.313765,0.29759 -8.691273,0.12759 -11.645038,-0.44583 -2.953765,-0.57342 -4.483767,-1.55092 -5.440542,-3.35704 -0.956775,-1.80613 -1.339275,-4.44113 -2.082922,-7.33118 -0.743647,-2.89006 -1.849071,-6.03626 -2.954095,-9.18133 0,0 9.81771,74.07908 9.81771,74.07908 z"
           id="path13496"
           inkscape:path-effect="#path-effect13498"
           inkscape:original-d="m 85.42683,230.77994 c 0,0 29.32563,-60.30879 29.32563,-60.30879 0,0 -2.80406,3.14607 -4.20759,4.7176 -4.24918,0.76603 -8.49918,1.53104 -12.750275,2.29505 -4.376681,-0.169 -8.754188,-0.33901 -13.132781,-0.51001 -1.529064,-0.97654 -3.059066,-1.95404 -4.590099,-2.93256 -0.381515,-2.63411 -0.764016,-5.26911 -1.147524,-7.90517 -1.104046,-3.14413 -3.315071,-9.4352 -3.315071,-9.4352 0,0 9.81771,74.07908 9.81771,74.07908 z" />
        <g
           id="g40540"
           style="opacity:1"
           transform="translate(0.25500546,-0.12750273)">
          <path
             style="opacity:1;fill:#f3b8b0;fill-opacity:1;stroke:none;stroke-width:1px;stroke-linecap:butt;stroke-linejoin:miter;stroke-opacity:1"
             d="m 98.688002,177.14372 c 3.824958,-0.42509 8.160048,-1.31761 10.879678,-2.48625 2.71963,-1.16863 3.82461,-2.61361 6.24717,-6.94868 2.42256,-4.33506 6.16256,-11.56007 9.94518,-19.04029 3.78262,-7.48022 7.60763,-15.21524 8.11814,-18.91307 0.51052,-3.69783 -2.29448,-3.35782 -3.90988,-4.67477 -1.61539,-1.31695 -2.04039,-4.29195 -2.16799,-8.49967 -0.12759,-4.20772 0.0424,-9.64773 0.46787,-12.41083 0.42546,-2.7631 1.10546,-2.8481 1.99812,-2.80545 0.89267,0.0426 1.99767,0.21264 3.6972,-0.72251 1.69952,-0.935159 3.99453,-2.975166 5.65196,-6.374883 1.65743,-3.399716 2.67744,-8.159721 2.84762,-12.324648 0.17019,-4.164926 -0.50981,-7.734931 -1.657,-10.455049 -1.14719,-2.720117 -2.76219,-4.590118 -4.59008,-4.888231 -1.82788,-0.298114 -3.86788,0.976887 -4.71813,1.274671 -0.85026,0.297784 -0.51026,-0.382217 -0.46762,-2.676974 0.0426,-2.294756 -0.21237,-6.204762 -0.9348,-10.922367 -0.72244,-4.717606 -1.91244,-10.242614 -4.37712,-14.620359 -2.46468,-4.377745 -6.20469,-7.607752 -10.7523,-11.007936 -4.54761,-3.400185 -9.90262,-6.970191 -16.362936,-8.543131 -6.46032,-1.57294 -14.025331,-1.14794 -21.463509,2.379705 -7.438177,3.527646 -14.748187,10.157655 -19.083416,15.683156 -4.33523,5.525502 -5.695232,9.945509 -6.120094,15.258406 -0.424863,5.312897 0.08514,11.517906 0.425702,14.662736 0.340564,3.144831 0.510566,3.229832 -0.892025,3.01712 -1.402591,-0.212712 -4.377595,-0.722713 -5.780669,0.935284 -1.403075,1.657997 -1.233074,5.483003 -0.722993,10.200702 0.510082,4.717699 1.360083,10.327707 2.635468,14.237804 1.275385,3.910094 2.97539,6.120104 4.463038,7.267114 1.487649,1.147 2.762651,1.232 3.442068,1.01986 0.679416,-0.21214 0.764416,-0.72214 0.679439,0.46796 -0.08498,1.1901 -0.339976,4.0801 1.65803,8.7554 1.998006,4.67529 6.248011,11.1353 9.435438,17.29801 3.187426,6.16271 5.31243,12.02772 6.704202,17.30847 1.391772,5.28074 2.05051,9.9769 2.921862,14.53524 0.871352,4.55834 1.955082,8.97826 3.878691,11.34721 1.92361,2.36895 4.686113,2.6877 7.724919,2.86827 3.038805,0.18057 6.35381,0.22307 10.178767,-0.20202 z"
             id="path21005"
             inkscape:path-effect="#path-effect21007"
             inkscape:original-d="m 98.177103,177.6113 c 4.336097,-0.89151 8.671187,-1.78403 13.005277,-2.67755 1.10605,-1.44406 2.21103,-2.88904 3.31507,-4.3351 3.74116,-7.2243 7.48116,-14.44931 11.22024,-21.67546 3.82616,-7.73432 7.65117,-15.46933 11.47525,-23.2055 -2.80412,0.34102 -5.60912,0.68102 -8.41518,1.02003 -0.42402,-2.97413 -0.84902,-5.94913 -1.27503,-8.9252 0.17101,-5.43922 0.34101,-10.87923 0.51001,-16.32035 0.68103,-0.084 1.36103,-0.169 2.04005,-0.255 1.10604,0.17101 2.21104,0.34101 3.31507,0.51001 2.29609,-2.039085 4.5911,-4.079088 6.88514,-6.120131 1.02105,-4.759198 2.04105,-9.519204 3.06007,-14.280306 -0.67903,-3.569148 -1.35903,-7.139153 -2.04004,-10.71023 -1.61407,-1.869077 -3.22907,-3.73908 -4.84511,-5.61012 -2.03908,1.276053 -4.07908,2.551055 -6.12013,3.825082 0.34102,-0.679028 0.68102,-1.359029 1.02002,-2.040044 -0.25401,-3.909162 -0.50901,-7.819167 -0.76501,-11.730251 -1.18905,-5.524229 -2.37905,-11.049237 -3.57008,-16.575355 -3.73915,-3.229134 -7.47916,-6.459139 -11.22024,-9.690208 -5.35422,-3.569148 -10.70923,-7.139153 -16.065344,-10.710229 -7.564313,0.426017 -15.129324,0.851018 -22.695486,1.275027 -7.309303,6.631275 -14.619313,13.261284 -21.93047,19.890426 -1.359056,4.421183 -2.719058,8.84119 -4.080087,13.260284 0.511021,6.206257 1.021021,12.411266 1.530032,18.615399 0.171007,0.086 0.341008,0.171004 0.510011,0.255006 -2.974123,-0.509022 -5.949127,-1.019022 -8.925191,-1.530033 0.171007,3.826158 0.341007,7.651164 0.510011,11.475246 0.851035,5.611232 1.701036,11.22124 2.550055,16.83036 1.70107,2.211087 3.401072,4.421097 5.100109,6.630147 1.276053,0.086 2.551055,0.171 3.825082,0.255 0.086,-0.50902 0.171003,-1.01902 0.255005,-1.53003 -0.25401,2.89112 -0.509011,5.78112 -0.765016,8.67018 4.251176,6.46127 8.501182,12.92128 12.750273,19.38042 2.126088,5.86624 4.251091,11.73125 6.375137,17.59538 0.659777,4.69744 1.318514,9.3936 1.976292,14.08904 1.084796,4.42119 2.168526,8.84111 3.25132,13.26029 2.763611,0.31977 5.526116,0.63851 8.287677,0.95627 3.316137,0.0435 6.631142,0.086 9.945213,0.1275 z"
             sodipodi:nodetypes="cccccccccccccccccccccccccccccccccccccc" />
          <path
             style="opacity:0.661169;fill:#e6e6e6;stroke:none;stroke-width:1px;stroke-linecap:butt;stroke-linejoin:miter;stroke-opacity:1"
             d="m 126.33383,109.14303 c -1.29636,4.58986 -3.63391,9.68997 -8.30895,15.44866 -4.67505,5.75869 -11.68755,12.1762 -17.36104,15.55501 -5.673476,3.37881 -10.008482,3.71881 -12.855921,3.69776 -2.847439,-0.0211 -4.207441,-0.40356 -6.162601,-1.86953 -1.95516,-1.46597 -4.505162,-4.01597 -7.586513,-7.07608 -3.081352,-3.06011 -6.693854,-6.63011 -9.690357,-10.49764 -2.996502,-3.86753 -5.376507,-8.03254 -6.566871,-11.77274 -1.190364,-3.7402 -1.190364,-7.05621 -1.190364,-10.37128 2.252548,3.44257 4.505856,6.88631 7.544924,9.66989 3.039068,2.78358 6.864071,4.90858 11.071605,5.92826 4.207533,1.01969 8.797539,0.93469 12.750072,0.61586 3.952533,-0.31882 7.267537,-0.87132 11.644995,-2.44391 4.377461,-1.57259 9.817461,-4.16509 13.897341,-6.92756 4.07989,-2.76247 6.79989,-5.69497 9.01004,-7.84135 2.21014,-2.146382 3.91002,-3.506287 5.61006,-4.866315 -0.25501,4.080085 -0.51007,8.161105 -1.80642,12.750965 z"
             id="path30416"
             inkscape:path-effect="#path-effect30418"
             inkscape:original-d="m 127.37523,108.63233 c -2.33655,5.10111 -4.6741,10.20122 -7.01265,15.30032 -7.01179,6.41877 -14.0243,12.83628 -21.037952,19.25292 -4.33418,0.34101 -8.669186,0.68101 -13.005279,1.02002 -1.359056,-0.38152 -2.719058,-0.76402 -4.080087,-1.14753 -2.549106,-2.5491 -5.099109,-5.0991 -7.650164,-7.65016 -3.61165,-3.56915 -7.224155,-7.13915 -10.837732,-10.71023 -2.379099,-4.16417 -4.759102,-8.32918 -7.140153,-12.49527 10e-4,-3.31413 0,-9.94521 0,-9.94521 0,0 4.506096,6.88615 6.757645,10.32772 3.826158,2.12609 7.651163,4.25109 11.475245,6.37514 4.591191,-0.084 9.181197,-0.16901 13.770295,-0.25501 3.316138,-0.55152 6.631142,-1.10402 9.945213,-1.65753 5.441229,-2.59161 10.881229,-5.18411 16.320349,-7.77767 2.72111,-2.93162 5.44112,-5.86412 8.16018,-8.79769 1.70107,-1.359054 5.10011,-4.080085 5.10011,-4.080085 0,0 -0.50902,8.161175 -0.76502,12.240265 z" />
        </g>
        <path
           style="opacity:0.421289;fill:#eb9f98;fill-opacity:1;stroke:none;stroke-width:1px;stroke-linecap:butt;stroke-linejoin:miter;stroke-opacity:1"
           d="m 128.85086,72.217081 c -0.0751,2.705227 -0.2254,8.11471 -0.35637,12.594779 -0.13096,4.480069 -0.24261,8.030584 -0.21249,10.645247 0.0301,2.614662 0.20188,4.293207 1.08454,5.011673 0.88265,0.71847 2.47541,0.47805 4.21811,-0.45357 1.7427,-0.931621 3.63598,-2.554432 5.13849,-5.153676 1.5025,-2.599244 2.61443,-6.17544 3.11042,-9.15047 0.49599,-2.97503 0.37578,-5.349144 0.24056,-7.558027 -0.13523,-2.208883 -0.28549,-4.252424 -0.96133,-6.145722 -0.67584,-1.893297 -1.87792,-3.636317 -3.44058,-4.493398 -1.56267,-0.857082 -3.486,-0.82703 -5.00412,-0.346209 -1.51811,0.480821 -2.63004,1.412433 -3.18606,1.87829 -0.55602,0.465858 -0.55602,0.465856 -0.63117,3.171083 z"
           id="path41097"
           inkscape:original-d="m 128.92601,69.511854 c -0.14927,5.410482 -0.29953,10.819965 -0.45079,16.228448 -0.11066,3.551659 -0.22231,7.102175 -0.33497,10.651763 0.17276,1.679613 0.34452,3.358158 0.51528,5.035735 1.59383,-0.23942 3.18659,-0.47984 4.77838,-0.72126 1.89436,-1.62188 3.78764,-3.244692 5.67996,-4.868537 1.11297,-3.575341 2.22489,-7.151538 3.33584,-10.728808 -0.11921,-2.373209 -0.23942,-4.747323 -0.36063,-7.122485 -0.14927,-2.042623 -0.29953,-4.086165 -0.45079,-6.130747 -1.20113,-1.742091 -2.40321,-3.485111 -3.60632,-5.229167 -1.92241,0.03105 -3.84574,0.0611 -5.77012,0.09016 -1.11097,0.932652 -2.22289,1.864266 -3.33584,2.7949 z"
           inkscape:path-effect="#path-effect41099" />
        <path
           style="opacity:0.73913;fill:#bc6f75;fill-opacity:1;stroke:none;stroke-width:1px;stroke-linecap:butt;stroke-linejoin:miter;stroke-opacity:1"
           d="m 132.21738,74.275615 c 0.255,-1.277767 2.08822,-2.660194 3.39604,-3.170749 1.30782,-0.510555 2.08917,-0.149928 2.58453,0.75195 0.49535,0.901877 0.70571,2.344378 1.0213,4.117522 0.3156,1.773145 0.73632,3.876791 0.66166,4.763109 -0.0747,0.886317 -0.64565,0.555745 -1.60738,-0.12037 -0.96173,-0.676115 -2.31408,-1.69789 -3.65147,-2.794777 -1.33738,-1.096888 -2.65967,-2.268919 -2.40468,-3.546685 z"
           id="path41101"
           inkscape:path-effect="#path-effect41103"
           inkscape:original-d="m 130.63901,74.380388 c 1.83421,-1.381423 3.66743,-2.763847 5.49964,-4.14727 0.78238,0.361639 1.56374,0.722264 2.34411,1.081896 0.21137,1.443558 0.42174,2.886058 0.63111,4.327587 0.42174,2.104729 0.84247,4.208375 1.26221,6.311063 -0.57001,-0.329586 -1.141,-0.660159 -1.71301,-0.991739 -1.35139,-1.020811 -2.70374,-2.042582 -4.05711,-3.065373 -1.32134,-1.171078 -2.64363,-2.343109 -3.96695,-3.516164 z" />
        <path
           style="opacity:0.683658;fill:#b66d69;fill-opacity:1;stroke:none;stroke-width:1px;stroke-linecap:butt;stroke-linejoin:miter;stroke-opacity:1"
           d="m 130.08305,81.142816 c 0.37558,-0.841975 1.187,-1.773611 2.26955,-1.938662 1.08255,-0.165051 2.43489,0.435989 3.45658,1.082363 1.0217,0.646373 1.71289,1.337567 1.74233,2.404187 0.0294,1.06662 -0.60164,2.509123 -1.3379,3.786215 -0.73625,1.277093 -1.57771,2.389015 -2.34348,2.629828 -0.76577,0.240814 -1.45697,-0.390277 -2.1184,-1.472062 -0.66144,-1.081784 -1.29254,-2.614443 -1.63835,-3.756518 -0.34581,-1.142074 -0.40592,-1.893377 -0.0303,-2.735351 z"
           id="path41105"
           inkscape:path-effect="#path-effect41107"
           inkscape:original-d="m 129.64727,81.2324 c 0.81242,-0.930634 1.62385,-1.862267 2.43427,-2.7949 1.3534,0.602066 2.70574,1.203107 4.05711,1.803161 0.69223,0.692226 1.38342,1.383423 2.07363,2.073635 -0.63011,1.443558 -1.26121,2.886058 -1.89331,4.327586 -0.8405,1.112972 -1.68195,2.224899 -2.52443,3.335848 -0.69023,-0.630119 -1.38142,-1.261213 -2.07363,-1.893319 -0.63012,-1.531717 -1.26122,-3.064374 -1.89332,-4.59806 -0.0591,-0.750332 -0.11921,-1.501634 -0.18032,-2.253951 z" />
        <path
           style="opacity:0.421;fill:#eda79d;fill-opacity:1;stroke:none;stroke-width:1px;stroke-linecap:butt;stroke-linejoin:miter;stroke-opacity:1"
           d="m 55.703009,102.31477 c 0.405342,-2.2684 0.435396,-6.626037 0.285163,-11.689942 -0.150234,-5.063904 -0.480807,-10.833903 -0.901213,-14.124624 -0.420406,-3.29072 -0.931292,-4.102126 -2.043072,-4.613539 -1.111781,-0.511413 -2.824749,-0.721778 -4.162343,-0.676862 -1.337594,0.04492 -2.299261,0.345437 -3.005908,1.337632 -0.706647,0.992195 -1.157428,2.675111 -1.292528,4.628753 -0.1351,1.953642 0.04521,4.177496 0.481051,7.062628 0.43584,2.885131 1.127038,6.431277 1.773226,9.301347 0.646189,2.87007 1.24723,5.063872 2.389631,6.851877 1.1424,1.788 2.825313,3.1704 4.057304,3.77092 1.231991,0.60052 2.013347,0.42021 2.418689,-1.84819 z"
           id="path59055"
           inkscape:path-effect="#path-effect59057"
           inkscape:original-d="m 56.078305,104.40302 c 0.03105,-4.35664 0.0611,-8.71428 0.09016,-13.072919 C 55.838877,85.56087 55.508304,79.790871 55.176724,74.019756 54.666818,73.209317 54.155933,72.397911 53.644037,71.585489 51.932,71.376116 50.219032,71.165751 48.505029,70.954382 c -0.960705,0.301533 -1.922372,0.602054 -2.885058,0.901581 -0.449799,1.683984 -0.90058,3.3669 -1.35237,5.04885 0.181319,2.224943 0.361632,4.448797 0.540948,6.671696 0.692225,3.547287 1.383423,7.093433 2.073635,10.638649 0.602066,2.19489 1.203107,4.388692 1.803161,6.581542 1.683984,1.38345 3.3669,2.76584 5.04885,4.14727 0.782386,-0.17932 1.56374,-0.35964 2.34411,-0.54095 z" />
        <path
           style="fill:#ca7f81;fill-opacity:1;stroke:none;stroke-width:1px;stroke-linecap:butt;stroke-linejoin:miter;stroke-opacity:1"
           d="m 48.129948,76.905551 c -0.586656,1.17226 -0.736919,3.967159 -0.616779,4.973645 0.12014,1.006485 0.510817,0.225131 1.096852,-0.946939 0.586035,-1.17207 1.367389,-2.734778 1.247871,-3.741482 -0.119517,-1.006703 -1.141287,-1.457484 -1.727944,-0.285224 z"
           id="path62874"
           inkscape:path-effect="#path-effect62876"
           inkscape:original-d="m 47.693606,75.281968 c -0.149263,2.7959 -0.299526,5.590799 -0.45079,8.384699 0.391693,-0.780386 0.78237,-1.56174 1.172055,-2.344109 0.782385,-1.561771 1.563739,-3.124479 2.344109,-4.688219 -1.020812,-0.449799 -2.042582,-0.90058 -3.065374,-1.352371 z" />
        <path
           style="fill:#c37a75;fill-opacity:1;stroke:none;stroke-width:1px;stroke-linecap:butt;stroke-linejoin:miter;stroke-opacity:1"
           d="m 49.211343,86.522229 c -0.255372,1.382982 0.0151,3.366459 0.872138,4.748655 0.857036,1.382196 2.299536,2.16355 2.960161,2.028529 0.660624,-0.13502 0.540416,-1.186843 0.179946,-2.494097 -0.360469,-1.307254 -0.96151,-2.869962 -1.367324,-4.117178 -0.405814,-1.247216 -0.616178,-2.17883 -1.112186,-2.254537 -0.496009,-0.07571 -1.277363,0.705647 -1.532735,2.088628 z"
           id="path62878"
           inkscape:path-effect="#path-effect62880"
           inkscape:original-d="m 48.685345,85.920618 c 0.271474,1.984477 0.541948,3.967954 0.811422,5.950431 1.443558,0.782385 2.886058,1.563739 4.327587,2.344109 -0.119214,-1.050865 -0.239422,-2.102688 -0.360633,-3.155531 -0.600065,-1.561771 -1.201107,-3.124479 -1.803161,-4.688219 -0.209373,-0.930652 -0.419737,-1.862266 -0.631106,-2.794899 -0.780385,0.782385 -1.561739,1.563739 -2.344109,2.344109 z" />
        <path
           style="fill:#ab635c;fill-opacity:0.707921;stroke:none;stroke-width:1px;stroke-linecap:butt;stroke-linejoin:miter;stroke-opacity:1"
           d="m 102.51086,88.550884 c 0.30049,0.64632 3.2156,2.840165 5.43943,4.778679 2.22383,1.938514 3.75648,3.621432 4.70281,5.22933 0.94632,1.607897 1.30695,3.140557 1.56285,3.951747 0.25591,0.8112 0.40616,0.90135 0.51073,0.2403 0.10458,-0.66105 0.16468,-2.0735 -0.3759,-3.711284 -0.54058,-1.63778 -1.68256,-3.501009 -3.03477,-5.093944 -1.3522,-1.592936 -2.91491,-2.915228 -4.85327,-4.027406 -1.93835,-1.112178 -4.25236,-2.013741 -3.95188,-1.367422 z"
           id="path69373"
           inkscape:path-effect="#path-effect69375"
           inkscape:original-d="m 99.895115,87.002514 c 2.916115,2.194846 5.831225,4.388692 8.745335,6.581538 1.53371,1.683984 3.06637,3.3669 4.59806,5.04885 0.36164,1.533718 0.72226,3.066378 1.08189,4.598058 0.15127,0.0912 0.30153,0.18132 0.45079,0.27048 0.0611,-1.41151 0.12121,-2.82396 0.18032,-4.237431 -1.14103,-1.862304 -2.28301,-3.725533 -3.42601,-5.589799 -1.56177,-1.321345 -3.12448,-2.643636 -4.68822,-3.966954 -2.3131,-0.900599 -4.62711,-1.802161 -6.942165,-2.704742 z" />
        <path
           style="fill:#ab635c;fill-opacity:0.707921;stroke:none;stroke-width:1px;stroke-linecap:butt;stroke-linejoin:miter;stroke-opacity:1"
           d="m 68.610359,108.55134 c 0.270356,-0.0902 0.360514,-2.79498 0.826251,-5.19944 0.465738,-2.40446 1.307197,-4.508111 2.644651,-6.521907 1.337455,-2.013796 3.170631,-3.937129 4.372657,-5.45462 1.202026,-1.517491 1.773015,-2.629418 1.788735,-3.275545 0.01572,-0.646127 -0.525217,-0.826439 -1.397171,-0.601335 -0.871953,0.225103 -2.074037,0.856197 -3.351556,2.223839 -1.27752,1.367642 -2.629864,3.471288 -3.651669,5.905809 -1.021806,2.434522 -1.713005,5.199319 -1.83302,7.844189 -0.120015,2.64488 0.330767,5.16926 0.601122,5.07901 z"
           id="path72530"
           inkscape:path-effect="#path-effect72532"
           inkscape:original-d="m 68.790589,111.16487 c 0.09116,-2.70374 0.181316,-5.40848 0.270474,-8.11422 0.842492,-2.10273 1.68395,-4.206379 2.524426,-6.311067 1.83425,-1.92241 3.667427,-3.845743 5.49964,-5.770115 0.572013,-1.110971 1.143002,-2.222898 1.713003,-3.335847 -0.539959,-0.17932 -1.080896,-0.359632 -1.622845,-0.540948 -1.201131,0.632118 -2.403214,1.263212 -3.606321,1.893318 -1.351398,2.10473 -2.703742,4.208376 -4.057112,6.311064 -0.690226,2.765902 -1.381424,5.530695 -2.073636,8.294535 0.4518,2.52548 0.902581,5.04986 1.352371,7.57328 z" />
        <path
           style="fill:#e39b98;fill-opacity:1;stroke:none;stroke-width:1px;stroke-linecap:butt;stroke-linejoin:miter;stroke-opacity:1"
           d="m 86.972378,68.941315 c -0.751342,2.885455 -1.352396,7.633779 -2.208954,11.119682 -0.856558,3.485904 -1.968485,5.709757 -3.125425,7.422572 -1.15694,1.712816 -2.359024,2.914899 -2.538805,3.892089 -0.179781,0.977189 0.661677,1.728491 1.457863,1.983368 0.796185,0.254876 1.547487,0.01446 2.404221,0.315558 0.856733,0.301099 1.8184,1.142557 3.065666,1.788405 1.247266,0.645848 2.779922,1.096629 4.041565,0.856008 1.261644,-0.240621 2.253363,-1.172236 3.305338,-1.983735 1.051975,-0.811499 2.163902,-1.502697 3.32128,-1.878295 1.157378,-0.375598 2.359461,-0.435702 3.185784,-0.525929 0.826319,-0.09023 1.277099,-0.210435 1.111889,-0.780799 -0.16522,-0.570364 -0.94657,-1.592133 -1.921853,-2.747674 -0.975285,-1.155541 -2.150098,-2.450848 -3.127177,-5.05039 -0.97708,-2.599543 -1.758434,-6.506313 -2.344477,-9.541661 -0.586043,-3.035348 -0.976721,-5.199098 -1.622441,-6.686813 -0.64572,-1.487715 -1.547282,-2.299121 -2.449426,-2.194366 -0.902143,0.104755 -1.803706,1.126526 -2.555048,4.01198 z"
           id="path75999"
           inkscape:path-effect="#path-effect76001"
           inkscape:original-d="m 86.822198,67.077586 c -0.600053,4.749324 -1.201107,9.497648 -1.803161,14.244972 -1.110971,2.224943 -2.222898,4.448796 -3.335847,6.671695 -1.201132,1.203131 -2.403215,2.405215 -3.606322,3.606322 0.842492,0.752332 1.68395,1.503634 2.524425,2.253951 0.752332,-0.239426 1.503634,-0.479843 2.253951,-0.721264 0.962705,0.842492 1.924372,1.68395 2.885058,2.524425 1.533717,0.451799 3.066373,0.90258 4.59806,1.352371 0.992759,-0.930652 1.984477,-1.862267 2.975216,-2.7949 1.112971,-0.690225 2.224898,-1.381423 3.335847,-2.073635 1.203132,-0.05911 2.405215,-0.119211 3.606325,-0.180316 0.4518,-0.119213 0.90258,-0.239421 1.35237,-0.360632 -0.78039,-1.020812 -1.56174,-2.042583 -2.344111,-3.065374 -1.231185,-1.231184 -2.343109,-2.58353 -3.516164,-3.876796 -0.780385,-3.905927 -1.56174,-7.812697 -2.344109,-11.720546 -0.389693,-2.162836 -0.78037,-4.326586 -1.172055,-6.491379 -0.900598,-0.810439 -1.802161,-1.621845 -2.704741,-2.434267 -0.900599,1.022811 -1.802161,2.044582 -2.704742,3.065373 z" />
        <path
           style="fill:#ae6864;fill-opacity:1;stroke:none;stroke-width:1px;stroke-linecap:butt;stroke-linejoin:miter;stroke-opacity:1"
           d="m 75.147132,108.74556 c 0.94706,-0.16536 2.840379,-0.49594 5.425013,-0.75135 2.584634,-0.2554 5.860311,-0.43572 9.075989,-0.58597 3.215677,-0.15026 6.371146,-0.27047 9.226189,-0.34559 2.855047,-0.0751 5.409477,-0.1052 6.821407,-0.28546 1.41194,-0.18026 1.68241,-0.51084 1.36747,-0.97633 -0.31493,-0.4655 -1.21649,-1.06654 -3.17003,-1.36745 -1.95353,-0.30091 -4.958741,-0.30091 -7.543234,-0.4511 -2.584493,-0.15019 -4.748243,-0.45071 -7.242743,-0.4959 -2.4945,-0.0452 -5.319396,0.16518 -7.859248,1.11183 -2.539852,0.94665 -4.793759,2.62957 -5.920816,3.4711 -1.127057,0.84154 -1.127057,0.84158 -0.179997,0.67622 z"
           id="path79197"
           inkscape:path-effect="#path-effect79199"
           inkscape:original-d="m 74.200072,108.91092 c 1.894319,-0.32958 3.787638,-0.66016 5.679957,-0.99174 3.276808,-0.17932 6.552485,-0.35963 9.827227,-0.54095 3.156595,-0.11921 6.312063,-0.23942 9.466595,-0.36063 2.555529,-0.029 5.109959,-0.0591 7.663429,-0.0902 0.27148,-0.32958 0.54195,-0.66016 0.81143,-0.99174 -0.9006,-0.60006 -1.80216,-1.2011 -2.70474,-1.80316 -3.00433,0.001 -6.009541,0.001 -9.015809,0 -2.162836,-0.29953 -4.326586,-0.60005 -6.491379,-0.90158 -2.824009,0.21138 -5.648905,0.42174 -8.474857,0.63111 -2.252996,1.68398 -4.506902,3.3669 -6.761853,5.04885 z" />
        <path
           style="fill:#ec9e9a;fill-opacity:1;stroke:none;stroke-width:1px;stroke-linecap:butt;stroke-linejoin:miter;stroke-opacity:1"
           d="m 76.725562,108.96648 c 1.021822,-0.61672 3.621246,-1.01239 6.288467,-1.21016 2.667222,-0.19777 5.401962,-0.19777 8.166777,-0.34808 2.764816,-0.15032 5.559659,-0.45084 8.249461,-0.60105 2.689803,-0.15022 5.274273,-0.15022 6.566043,-0.0896 1.29176,0.0606 1.29176,0.18081 0.90112,0.57096 -0.39065,0.39015 -1.172,1.0513 -2.73447,1.69739 -1.56247,0.64609 -3.90653,1.27718 -6.055243,1.74303 -2.148715,0.46585 -4.102101,0.76637 -6.461177,0.91669 -2.359077,0.15033 -5.123868,0.15033 -7.663307,0.0602 -2.53944,-0.0901 -4.85345,-0.27043 -6.288557,-0.77831 -1.435107,-0.50787 -1.990936,-1.34435 -0.969114,-1.96107 z"
           id="path82471"
           inkscape:path-effect="#path-effect82473"
           inkscape:original-d="m 75.147132,108.74556 c 2.600423,-0.39467 5.199847,-0.79034 7.79827,-1.18701 2.735849,0.001 5.470589,0.001 8.204383,0 2.795955,-0.29953 5.590798,-0.60005 8.384698,-0.90158 2.585587,0.001 5.170057,0.001 7.753587,0 10e-4,0.12121 10e-4,0.24142 0,0.36063 -0.78038,0.66217 -1.56173,1.32332 -2.3441,1.98348 -2.34316,0.63212 -4.68722,1.26321 -7.032332,1.89332 -1.952463,0.30153 -3.905849,0.60205 -5.860273,0.90158 -2.763902,0.001 -5.528693,0.001 -8.29454,0 -2.313103,-0.17932 -4.627113,-0.35964 -6.94217,-0.54095 -0.554852,-0.83551 -1.110682,-1.67198 -1.667523,-2.50947 z" />
        <path
           style="fill:#bb8075;fill-opacity:1;stroke:none;stroke-width:1px;stroke-linecap:butt;stroke-linejoin:miter;stroke-opacity:1"
           d="m 96.018337,68.024229 c 0.676203,-0.631123 2.028574,-1.893335 4.793193,-2.832691 2.76461,-0.939356 6.94043,-1.555728 9.85501,-1.878907 2.91457,-0.323179 4.5674,-0.353231 4.6426,-0.946346 0.0752,-0.593114 -1.42737,-1.750094 -4.33446,-2.141098 -2.90709,-0.391003 -7.21823,-0.01503 -10.05811,1.518071 -2.839868,1.533107 -4.207238,4.222768 -4.890837,5.56743 -0.683599,1.344662 -0.683599,1.344664 -0.0074,0.713541 z"
           id="path85823"
           inkscape:path-effect="#path-effect85825"
           inkscape:original-d="m 95.342134,68.655352 c 1.35337,-1.261213 2.705741,-2.523425 4.057112,-3.786638 4.177064,-0.615409 8.352884,-1.231781 12.527954,-1.84919 1.65393,-0.02905 3.30676,-0.05911 4.95869,-0.09016 -1.50166,-1.15605 -3.00423,-2.313031 -4.5079,-3.471084 -4.31031,0.376983 -8.62145,0.75295 -12.933665,1.127925 -1.366425,2.690769 -2.733794,5.38043 -4.102191,8.069145 z"
           sodipodi:nodetypes="scccccss" />
        <path
           style="fill:#af756a;fill-opacity:1;stroke:none;stroke-width:1px;stroke-linecap:butt;stroke-linejoin:miter;stroke-opacity:1"
           d="m 64.830899,65.885434 c 1.531731,0.17513 5.450816,-0.736432 8.334736,-0.801181 2.883921,-0.06475 4.732124,0.716605 6.099296,1.806356 1.367172,1.089751 2.253708,2.487172 2.636555,2.479601 0.382847,-0.0076 0.262638,-1.420019 -0.255464,-2.870028 -0.518103,-1.45001 -1.434692,-2.937588 -2.982209,-3.907257 -1.547517,-0.96967 -3.726293,-1.420451 -6.106868,-1.235354 -2.380576,0.185097 -4.962216,1.00647 -6.681755,2.048508 -1.719538,1.042037 -2.576023,2.304225 -1.044291,2.479355 z"
           id="path89643"
           inkscape:path-effect="#path-effect89645"
           inkscape:original-d="m 62.442815,66.972297 c 3.920087,-0.910563 7.839172,-1.822126 11.757257,-2.734689 1.849277,0.782385 3.69748,1.563739 5.54472,2.344109 0.887572,1.398478 1.774108,2.795899 2.659662,4.192349 -0.119213,-1.411504 -0.239421,-2.823952 -0.360632,-4.237428 -0.915625,-1.486637 -1.832214,-2.974215 -2.74982,-4.462823 -2.177863,-0.449799 -4.356639,-0.900581 -6.536459,-1.352371 -2.580793,0.822422 -5.162433,1.643794 -7.745224,2.464215 -0.855518,1.263237 -1.712002,2.525425 -2.569504,3.786638 z"
           sodipodi:nodetypes="ccccccccc" />
        <path
           style="opacity:0.6;fill:#b07167;fill-opacity:1;stroke:none;stroke-width:1px;stroke-linecap:butt;stroke-linejoin:miter;stroke-opacity:1"
           d="m 97.258779,70.173169 c 0.638199,-0.646483 2.56157,-1.668273 4.620471,-2.276785 2.05889,-0.608512 4.2527,-0.803852 6.06349,-0.811253 1.81079,-0.0074 3.23827,0.172911 4.59821,0.61645 1.35993,0.443539 2.65217,1.149763 3.35047,1.690983 0.6983,0.541221 0.80348,0.916871 0.34526,1.306864 -0.45822,0.389992 -1.47999,0.795696 -3.47076,0.968612 -1.99077,0.172916 -4.9509,0.112812 -7.58804,0.02267 -2.63713,-0.09014 -4.95114,-0.210351 -6.431161,-0.405471 -1.48002,-0.19512 -2.126139,-0.465588 -1.48794,-1.11207 z"
           id="path98958"
           inkscape:path-effect="#path-effect98960"
           inkscape:original-d="m 95.97324,70.548671 c 1.924372,-1.020791 3.847743,-2.042582 5.77012,-3.065373 2.19488,-0.194347 4.38869,-0.389685 6.58153,-0.586028 1.42853,0.18132 2.85601,0.361632 4.28251,0.540948 1.29329,0.707253 2.58553,1.413477 3.8768,2.118715 0.10618,0.376666 0.21136,0.752317 0.31555,1.126975 -1.02081,0.406719 -2.04258,0.812423 -3.06537,1.217134 -2.95925,-0.05911 -5.91938,-0.119211 -8.88057,-0.180316 -2.31311,-0.119213 -4.62712,-0.239422 -6.942172,-0.360632 -0.645146,-0.26948 -1.291265,-0.539949 -1.938398,-0.811423 z" />
        <path
           style="opacity:0.6;fill:#97615c;fill-opacity:1;stroke:none;stroke-width:1px;stroke-linecap:butt;stroke-linejoin:miter;stroke-opacity:1"
           d="m 65.169947,72.37436 c 0.04467,-0.668838 1.877883,-1.765761 3.433336,-2.464485 1.555454,-0.698725 2.832667,-0.999245 4.335419,-1.209562 1.502752,-0.210317 3.230747,-0.330526 4.523006,0.128363 1.292259,0.458888 2.148743,1.495686 2.336176,2.208852 0.187433,0.713166 -0.293401,1.103843 -1.352365,1.351795 -1.058964,0.247952 -2.696802,0.353134 -4.432397,0.518403 -1.735594,0.165269 -3.568771,0.390659 -5.356797,0.383274 -1.788025,-0.0074 -3.531046,-0.247802 -3.486378,-0.91664 z"
           id="path103519"
           inkscape:path-effect="#path-effect103521"
           inkscape:original-d="m 63.381106,72.802622 c 1.834214,-1.095923 3.667428,-2.192846 5.499641,-3.290768 1.278265,-0.299533 2.555478,-0.600054 3.831717,-0.901581 1.729064,-0.119213 3.457059,-0.239421 5.184088,-0.360632 0.857518,1.037838 1.714003,2.074635 2.569504,3.110453 -0.479852,0.391692 -0.960686,0.782369 -1.442529,1.172054 -1.636904,0.106187 -3.274742,0.211369 -4.913613,0.315553 -1.83225,0.2264 -3.665427,0.45179 -5.499641,0.676186 -1.74209,-0.239427 -3.485111,-0.479843 -5.229167,-0.721265 z" />
        <path
           style="fill:#e3a195;fill-opacity:1;stroke:none;stroke-width:1px;stroke-linecap:butt;stroke-linejoin:miter;stroke-opacity:1"
           d="m 97.763068,73.633416 c -0.414732,-0.701854 -0.414732,-0.701854 0.605913,-0.255322 1.020646,0.446532 3.060649,1.339033 5.376879,1.806289 2.31623,0.467255 4.90874,0.509756 6.93824,0.690505 2.0295,0.18075 3.49576,0.499502 4.06924,0.711782 0.57347,0.212279 0.25472,0.31853 -1.03083,0.520455 -1.28555,0.201925 -3.53805,0.499425 -6.01364,0.520781 -2.47559,0.02135 -5.17434,-0.233645 -6.93833,-1.061889 -1.763989,-0.828244 -2.59274,-2.230746 -3.007472,-2.932601 z"
           id="path109553"
           inkscape:path-effect="#path-effect109555"
           inkscape:original-d="m 97.348336,72.931562 c 10e-4,0.001 10e-4,0.001 0,0 2.041084,0.893537 4.081084,1.786039 6.120134,2.677558 2.5936,0.0435 5.18611,0.086 7.77766,0.127503 1.46731,0.319763 2.93357,0.638513 4.39885,0.95627 -0.31777,0.107254 -0.63652,0.213505 -0.95627,0.318757 -2.2516,0.298512 -4.5041,0.596013 -6.75765,0.892519 -2.69786,-0.254011 -5.39661,-0.509011 -8.096421,-0.765016 -0.827785,-1.401559 -1.656536,-2.804061 -2.486303,-4.207591 z" />
        <path
           style="fill:#cc928c;fill-opacity:1;stroke:none;stroke-width:1px;stroke-linecap:butt;stroke-linejoin:miter;stroke-opacity:1"
           d="m 66.759312,77.394467 c 0.860483,-0.404184 3.325535,-0.744191 5.662935,-1.371134 2.3374,-0.626943 4.54736,-1.540677 5.875427,-2.135683 1.328066,-0.595006 1.774308,-0.87125 2.061165,-0.668708 0.286856,0.202542 0.414354,0.882529 -0.903006,1.678764 -1.317361,0.796234 -4.079865,1.709986 -6.332368,2.368769 -2.252503,0.658784 -3.995005,1.062534 -5.237945,1.031105 -1.24294,-0.03143 -1.986691,-0.498929 -1.126208,-0.903113 z"
           id="path112203"
           inkscape:path-effect="#path-effect112205"
           inkscape:original-d="m 65.153896,77.330407 c 2.466053,-0.339008 4.931105,-0.679015 7.395158,-1.020022 2.211092,-0.912788 4.421052,-1.826522 6.630143,-2.741309 0.447268,-0.275261 0.893509,-0.551506 1.338778,-0.828767 0.128505,0.681028 0.256003,1.361015 0.382508,2.040043 -2.761614,0.914788 -5.524118,1.828539 -8.287677,2.741309 -1.741573,0.404767 -3.484075,0.808517 -5.227612,1.211276 -0.742781,-0.46652 -1.486532,-0.93402 -2.231298,-1.40253 z"
           sodipodi:nodetypes="cccccccc" />
        <path
           style="opacity:1;fill:#e5cbc5;fill-opacity:1;stroke:none;stroke-width:1px;stroke-linecap:butt;stroke-linejoin:miter;stroke-opacity:1"
           d="m 104.82048,68.693338 c -0.28243,0.240526 -0.50783,0.811525 -0.28928,1.352647 0.21855,0.541123 0.87969,1.052005 1.55951,1.261889 0.67983,0.209884 1.37854,0.119728 1.9867,-0.169494 0.60816,-0.289222 1.12655,-0.777565 1.32203,-1.272836 0.19547,-0.495272 0.0678,-0.998646 -0.22114,-1.26217 -0.28888,-0.263523 -0.73966,-0.286063 -1.33332,-0.241072 -0.59366,0.04499 -1.32993,0.157686 -1.86695,0.169176 -0.53702,0.01149 -0.87511,-0.07867 -1.15755,0.16186 z"
           id="path116545"
           inkscape:path-effect="#path-effect116547"
           inkscape:original-d="m 104.76365,68.362339 c -0.2244,0.572 -0.44979,1.143001 -0.67619,1.713002 0.66218,0.511906 1.32332,1.022792 1.98348,1.532687 0.69974,-0.08916 1.39845,-0.179316 2.09618,-0.270474 0.51942,-0.487366 1.03781,-0.975712 1.55522,-1.465068 -0.12672,-0.502393 -0.25445,-1.005765 -0.38317,-1.510147 -0.4498,-0.02154 -0.90058,-0.04408 -1.35237,-0.06762 -0.73531,0.1137 -1.47158,0.226395 -2.20887,0.338093 -0.3371,-0.08916 -0.67519,-0.179316 -1.01428,-0.270473 z" />
        <path
           style="opacity:1;fill:#e5cbc5;fill-opacity:1;stroke:none;stroke-width:1px;stroke-linecap:butt;stroke-linejoin:miter;stroke-opacity:1"
           d="m 69.738601,70.326101 c -0.05321,0.247411 -0.159459,0.741484 -0.07383,1.100154 0.08563,0.35867 0.361883,0.581796 0.890449,0.692919 0.528566,0.111123 1.309504,0.111123 2.021312,0.06059 0.711808,-0.05054 1.354622,-0.151473 1.691532,-0.45111 0.336911,-0.299637 0.368787,-0.799012 0.321314,-1.170766 -0.04747,-0.371754 -0.174972,-0.616129 -0.389902,-0.754798 -0.214929,-0.138669 -0.517741,-0.170545 -1.266953,-0.106907 -0.749211,0.06364 -1.944525,0.223013 -2.54262,0.302759 -0.598095,0.07975 -0.598098,0.07975 -0.651305,0.327161 z"
           id="path125379"
           inkscape:path-effect="#path-effect125381"
           inkscape:original-d="m 69.791808,70.078689 c -0.105253,0.495073 -0.211505,0.989146 -0.318757,1.482219 0.277261,0.224134 0.553512,0.44726 0.828768,0.669389 0.78197,0.001 1.562908,0.001 2.342862,0 0.64384,-0.09994 1.286653,-0.200879 1.928479,-0.302818 0.03288,-0.498396 0.06475,-0.997772 0.09563,-1.498158 -0.126505,-0.243385 -0.254005,-0.48776 -0.382508,-0.73314 -0.301825,-0.03088 -0.604638,-0.06275 -0.908457,-0.09563 -1.194362,0.160381 -2.389676,0.319756 -3.586014,0.478135 z" />
        <path
           style="fill:#613029;fill-opacity:1;stroke:none;stroke-width:1px;stroke-linecap:butt;stroke-linejoin:miter;stroke-opacity:1"
           d="m 107.08818,68.74042 c -0.19593,0.191386 -0.33406,0.653585 -0.28972,1.042983 0.0443,0.389398 0.27011,0.705491 0.46023,0.88305 0.19011,0.177559 0.34417,0.217402 0.48559,0.06478 0.14142,-0.152621 0.27158,-0.497932 0.27717,-0.866839 0.006,-0.368906 -0.11393,-0.762031 -0.29946,-0.998851 -0.18552,-0.236821 -0.43787,-0.31651 -0.63381,-0.125123 z"
           id="path131520"
           inkscape:path-effect="#path-effect131522"
           inkscape:original-d="m 107.03057,68.468967 c -0.13712,0.463197 -0.27525,0.925395 -0.41438,1.386592 0.22679,0.317107 0.45257,0.633201 0.67736,0.948302 0.15507,0.04085 0.30913,0.08069 0.4622,0.119534 0.13116,-0.344327 0.26131,-0.68964 0.39047,-1.03596 -0.11853,-0.392141 -0.23806,-0.785267 -0.3586,-1.1794 -0.25135,-0.07869 -0.5037,-0.158379 -0.75705,-0.239068 z" />
        <path
           style="fill:#341312;fill-opacity:1;stroke:none;stroke-width:1px;stroke-linecap:butt;stroke-linejoin:miter;stroke-opacity:1"
           d="m 72.222144,69.825668 c -0.09588,0.156039 -0.287465,0.467835 -0.396361,0.770555 -0.108896,0.302719 -0.135192,0.595727 -0.01061,0.83986 0.124578,0.244133 0.398803,0.439472 0.560373,0.548287 0.161569,0.108816 0.2104,0.131354 0.299872,0.03542 0.08947,-0.09593 0.220949,-0.310054 0.316732,-0.516488 0.09578,-0.206435 0.155887,-0.405529 0.133743,-0.609985 -0.02214,-0.204456 -0.127326,-0.414821 -0.275523,-0.619647 -0.148197,-0.204827 -0.339779,-0.403922 -0.436062,-0.503981 -0.09628,-0.100059 -0.09628,-0.10006 -0.19216,0.05598 z"
           id="path136806"
           inkscape:path-effect="#path-effect136808"
           inkscape:original-d="m 72.318023,69.66963 c -0.190586,0.312797 -0.382172,0.624593 -0.574758,0.93539 -0.0253,0.294019 -0.05159,0.587027 -0.07889,0.879041 0.275236,0.196346 0.549461,0.391685 0.822692,0.586027 0.04984,0.02354 0.09867,0.04608 0.146507,0.06762 0.132483,-0.21313 0.263961,-0.427251 0.394441,-0.642376 0.06111,-0.198103 0.121211,-0.397198 0.180317,-0.597297 -0.104187,-0.209373 -0.209369,-0.419738 -0.315554,-0.631107 -0.190589,-0.198103 -0.382171,-0.397198 -0.574757,-0.597297 z" />
        <path
           style="opacity:0.70015;fill:#ead6d3;fill-opacity:1;stroke:none;stroke-width:1px;stroke-linecap:butt;stroke-linejoin:miter;stroke-opacity:1"
           d="m 73.298773,105.52989 c 1.983758,-0.72136 5.950712,-2.16389 10.26355,-2.82494 4.312838,-0.66104 8.970814,-0.54084 13.486402,0.10546 4.515585,0.64629 8.888155,1.81832 11.081405,2.1342 2.19325,0.31588 2.20828,-0.22507 1.78794,-1.11906 -0.42033,-0.89399 -1.27682,-2.14115 -3.39537,-3.17841 -2.11856,-1.037256 -5.49942,-1.863688 -8.842932,-2.164387 -3.343518,-0.300699 -6.649247,-0.07531 -9.436568,-0.09775 -2.787321,-0.02245 -5.056253,-0.292914 -7.430736,0.07507 -2.374484,0.367986 -4.853781,1.374729 -6.454452,2.780067 -1.60067,1.40535 -2.321921,3.20848 -2.682449,4.1098 -0.360528,0.90132 -0.360548,0.90132 1.62321,0.17995 z"
           id="path147614"
           inkscape:path-effect="#path-effect147616"
           inkscape:original-d="m 71.315015,106.25126 c 3.967954,-1.44153 7.934908,-2.88406 11.900862,-4.32759 4.659259,0.12122 9.317235,0.24142 13.974497,0.36063 4.373756,1.17308 8.746326,2.34511 13.117996,3.51617 0.016,-0.53995 0.0311,-1.0809 0.0451,-1.62285 -0.85552,-1.24621 -1.712,-2.49337 -2.56951,-3.74156 -3.37999,-0.825462 -6.76085,-1.651894 -10.142776,-2.479343 -3.304861,0.2264 -6.61059,0.451791 -9.917385,0.676186 -2.268023,-0.26948 -4.536955,-0.539949 -6.806932,-0.811423 -2.478396,1.007785 -4.957693,2.01453 -7.438039,3.02029 -0.720279,1.8042 -1.441529,3.60733 -2.163793,5.40949 z"
           sodipodi:nodetypes="ccccccccccsc" />
      </g>
    </g>
  </g>
</svg>
