<?xml version="1.0" encoding="UTF-8" standalone="no"?>
<!-- Created with Inkscape (http://www.inkscape.org/) -->

<svg
   version="1.1"
   id="svg2"
   width="260"
   height="260"
   viewBox="0 0 259.99999 260"
   sodipodi:docname="6.svg"
   inkscape:version="1.1 (c68e22c387, 2021-05-23)"
   xmlns:inkscape="http://www.inkscape.org/namespaces/inkscape"
   xmlns:sodipodi="http://sodipodi.sourceforge.net/DTD/sodipodi-0.dtd"
   xmlns="http://www.w3.org/2000/svg"
   xmlns:svg="http://www.w3.org/2000/svg">
  <defs
     id="defs6">
    <inkscape:path-effect
       effect="bspline"
       id="path-effect147616"
       is_visible="true"
       lpeversion="1"
       weight="33.333333"
       steps="2"
       helper_size="0"
       apply_no_weight="true"
       apply_with_weight="true"
       only_selected="false" />
    <inkscape:path-effect
       effect="bspline"
       id="path-effect136808"
       is_visible="true"
       lpeversion="1"
       weight="33.333333"
       steps="2"
       helper_size="0"
       apply_no_weight="true"
       apply_with_weight="true"
       only_selected="false" />
    <inkscape:path-effect
       effect="bspline"
       id="path-effect131522"
       is_visible="true"
       lpeversion="1"
       weight="33.333333"
       steps="2"
       helper_size="0"
       apply_no_weight="true"
       apply_with_weight="true"
       only_selected="false" />
    <inkscape:path-effect
       effect="bspline"
       id="path-effect125381"
       is_visible="true"
       lpeversion="1"
       weight="33.333333"
       steps="2"
       helper_size="0"
       apply_no_weight="true"
       apply_with_weight="true"
       only_selected="false" />
    <inkscape:path-effect
       effect="bspline"
       id="path-effect116547"
       is_visible="true"
       lpeversion="1"
       weight="33.333333"
       steps="2"
       helper_size="0"
       apply_no_weight="true"
       apply_with_weight="true"
       only_selected="false" />
    <inkscape:path-effect
       effect="bspline"
       id="path-effect112205"
       is_visible="true"
       lpeversion="1"
       weight="33.333333"
       steps="2"
       helper_size="0"
       apply_no_weight="true"
       apply_with_weight="true"
       only_selected="false" />
    <inkscape:path-effect
       effect="bspline"
       id="path-effect109555"
       is_visible="true"
       lpeversion="1"
       weight="33.333333"
       steps="2"
       helper_size="0"
       apply_no_weight="true"
       apply_with_weight="true"
       only_selected="false" />
    <inkscape:path-effect
       effect="bspline"
       id="path-effect103521"
       is_visible="true"
       lpeversion="1"
       weight="33.333333"
       steps="2"
       helper_size="0"
       apply_no_weight="true"
       apply_with_weight="true"
       only_selected="false" />
    <inkscape:path-effect
       effect="bspline"
       id="path-effect98960"
       is_visible="true"
       lpeversion="1"
       weight="33.333333"
       steps="2"
       helper_size="0"
       apply_no_weight="true"
       apply_with_weight="true"
       only_selected="false" />
    <inkscape:path-effect
       effect="bspline"
       id="path-effect89645"
       is_visible="true"
       lpeversion="1"
       weight="33.333333"
       steps="2"
       helper_size="0"
       apply_no_weight="true"
       apply_with_weight="true"
       only_selected="false" />
    <inkscape:path-effect
       effect="bspline"
       id="path-effect85825"
       is_visible="true"
       lpeversion="1"
       weight="33.333333"
       steps="2"
       helper_size="0"
       apply_no_weight="true"
       apply_with_weight="true"
       only_selected="false" />
    <inkscape:path-effect
       effect="bspline"
       id="path-effect82473"
       is_visible="true"
       lpeversion="1"
       weight="33.333333"
       steps="2"
       helper_size="0"
       apply_no_weight="true"
       apply_with_weight="true"
       only_selected="false" />
    <inkscape:path-effect
       effect="bspline"
       id="path-effect79199"
       is_visible="true"
       lpeversion="1"
       weight="33.333333"
       steps="2"
       helper_size="0"
       apply_no_weight="true"
       apply_with_weight="true"
       only_selected="false" />
    <inkscape:path-effect
       effect="bspline"
       id="path-effect76001"
       is_visible="true"
       lpeversion="1"
       weight="33.333333"
       steps="2"
       helper_size="0"
       apply_no_weight="true"
       apply_with_weight="true"
       only_selected="false" />
    <inkscape:path-effect
       effect="bspline"
       id="path-effect72532"
       is_visible="true"
       lpeversion="1"
       weight="33.333333"
       steps="2"
       helper_size="0"
       apply_no_weight="true"
       apply_with_weight="true"
       only_selected="false" />
    <inkscape:path-effect
       effect="bspline"
       id="path-effect69375"
       is_visible="true"
       lpeversion="1"
       weight="33.333333"
       steps="2"
       helper_size="0"
       apply_no_weight="true"
       apply_with_weight="true"
       only_selected="false" />
    <inkscape:path-effect
       effect="bspline"
       id="path-effect62880"
       is_visible="true"
       lpeversion="1"
       weight="33.333333"
       steps="2"
       helper_size="0"
       apply_no_weight="true"
       apply_with_weight="true"
       only_selected="false" />
    <inkscape:path-effect
       effect="bspline"
       id="path-effect62876"
       is_visible="true"
       lpeversion="1"
       weight="33.333333"
       steps="2"
       helper_size="0"
       apply_no_weight="true"
       apply_with_weight="true"
       only_selected="false" />
    <inkscape:path-effect
       effect="bspline"
       id="path-effect59057"
       is_visible="true"
       lpeversion="1"
       weight="33.333333"
       steps="2"
       helper_size="0"
       apply_no_weight="true"
       apply_with_weight="true"
       only_selected="false" />
    <inkscape:path-effect
       effect="bspline"
       id="path-effect41107"
       is_visible="true"
       lpeversion="1"
       weight="33.333333"
       steps="2"
       helper_size="0"
       apply_no_weight="true"
       apply_with_weight="true"
       only_selected="false" />
    <inkscape:path-effect
       effect="bspline"
       id="path-effect41103"
       is_visible="true"
       lpeversion="1"
       weight="33.333333"
       steps="2"
       helper_size="0"
       apply_no_weight="true"
       apply_with_weight="true"
       only_selected="false" />
    <inkscape:path-effect
       effect="bspline"
       id="path-effect41099"
       is_visible="true"
       lpeversion="1"
       weight="33.333333"
       steps="2"
       helper_size="0"
       apply_no_weight="true"
       apply_with_weight="true"
       only_selected="false" />
    <inkscape:path-effect
       effect="bspline"
       id="path-effect30418"
       is_visible="true"
       lpeversion="1"
       weight="33.333333"
       steps="2"
       helper_size="0"
       apply_no_weight="true"
       apply_with_weight="true"
       only_selected="false" />
    <inkscape:path-effect
       effect="bspline"
       id="path-effect21007"
       is_visible="true"
       lpeversion="1"
       weight="33.333333"
       steps="2"
       helper_size="0"
       apply_no_weight="true"
       apply_with_weight="true"
       only_selected="false" />
    <inkscape:path-effect
       effect="bspline"
       id="path-effect13498"
       is_visible="true"
       lpeversion="1"
       weight="33.333333"
       steps="2"
       helper_size="0"
       apply_no_weight="true"
       apply_with_weight="true"
       only_selected="false" />
    <inkscape:path-effect
       effect="bspline"
       id="path-effect11257"
       is_visible="true"
       lpeversion="1"
       weight="33.333333"
       steps="2"
       helper_size="0"
       apply_no_weight="true"
       apply_with_weight="true"
       only_selected="false" />
    <inkscape:path-effect
       effect="bspline"
       id="path-effect11187"
       is_visible="true"
       lpeversion="1"
       weight="33.333333"
       steps="2"
       helper_size="0"
       apply_no_weight="true"
       apply_with_weight="true"
       only_selected="false" />
    <inkscape:path-effect
       effect="bspline"
       id="path-effect862"
       is_visible="true"
       lpeversion="1"
       weight="33.333333"
       steps="2"
       helper_size="0"
       apply_no_weight="true"
       apply_with_weight="true"
       only_selected="false" />
  </defs>
  <sodipodi:namedview
     id="namedview4"
     pagecolor="#ffffff"
     bordercolor="#666666"
     borderopacity="1.0"
     inkscape:pageshadow="2"
     inkscape:pageopacity="0.0"
     inkscape:pagecheckerboard="true"
     showgrid="false"
     inkscape:zoom="5.48289"
     inkscape:cx="71.2215"
     inkscape:cy="82.9854"
     inkscape:window-width="1920"
     inkscape:window-height="1047"
     inkscape:window-x="-9"
     inkscape:window-y="-9"
     inkscape:window-maximized="1"
     inkscape:current-layer="g907"
     fit-margin-top="8"
     lock-margins="true"
     fit-margin-left="8"
     fit-margin-right="8"
     fit-margin-bottom="0" />
  <g
     inkscape:groupmode="layer"
     inkscape:label="Image"
     id="g8"
     transform="translate(2.99358,-21.4617)">
    <g
       id="g907"
       transform="translate(4.79363,10.3563)">
      <g
         id="g1803"
         transform="translate(9.39398,-4.78263)">
        <path
           style="fill:#fcfafc;fill-opacity:1;stroke:none;stroke-width:1px;stroke-linecap:butt;stroke-linejoin:miter;stroke-opacity:1"
           d="m 0.217362,275.878 c 0.06047,0.06 0.18038,0.17 1.216208,-9.165 1.03583,-9.334 2.99255,-28.153 4.81699,-40.076 1.82445,-11.922 3.52445,-17.022 4.62954,-21.527 1.1051,-4.505 1.6151,-8.415 3.5701,-12.878 1.9551,-4.463 5.3551,-9.478 11.433,-14.621 6.078,-5.143 14.833,-10.413 23.4183,-15.173 8.5853,-4.76 16.9999,-9.01 25.4151,-13.26 0,0 10.7102,81.602 10.7102,81.602 0,0 51.7662,-105.062 51.7662,-105.062 -2.72,0.34 -5.439,0.68 -6.842,0.51 -1.403,-0.169 -1.488,-0.849 -0.298,-1.487 1.191,-0.639 3.656,-1.234 5.313,-1.233 1.658,0 2.508,0.595 3.825,2.508 1.318,1.913 3.103,5.143 5.398,8.033 2.295,2.89 5.1,5.44 8.883,7.607 3.783,2.168 8.543,3.953 14.535,6.63 5.993,2.678 13.218,6.248 18.956,9.351 5.737,3.102 9.987,5.737 14.11,9.435 4.122,3.698 8.117,8.458 10.497,11.688 2.38,3.23 3.145,4.93 4.718,9.648 1.572,4.717 3.952,12.452 5.609,27.527 1.658,15.074 2.593,37.486 3.528,59.899 -75.089,0 -150.1776,0 -187.7229,-0.01 -37.545209,0 -37.545209,0 -37.484738,0.06 z"
           id="path860"
           sodipodi:nodetypes="cccccccccccccccccccccccc" />
        <path
           style="fill:#f2f2f2;fill-opacity:1;stroke:none;stroke-width:1px;stroke-linecap:butt;stroke-linejoin:miter;stroke-opacity:1"
           d="m 85.4268,230.78 c 0,0 69.1042,-69.217 69.1042,-69.217 0,0 -23.622,-23.802 -23.622,-23.802 0,0 -45.4822,93.019 -45.4822,93.019 z"
           id="path11185"
           inkscape:path-effect="#path-effect11187"
           inkscape:original-d="m 85.4268,230.78 c 0,0 69.1042,-69.217 69.1042,-69.217 0,0 -23.622,-23.802 -23.622,-23.802 0,0 -45.4822,93.019 -45.4822,93.019 z" />
        <path
           style="fill:#f2f2f2;stroke:none;stroke-width:1px;stroke-linecap:butt;stroke-linejoin:miter;stroke-opacity:1"
           d="m 85.4268,230.78 c 0,0 -10.7102,-81.602 -10.7102,-81.602 0,0 -21.8182,12.803 -21.8182,12.803 0,0 32.5284,68.799 32.5284,68.799 z"
           id="path11255"
           inkscape:path-effect="#path-effect11257"
           inkscape:original-d="M 85.4268,230.78 74.7166,149.178 52.8984,161.981 Z"
           sodipodi:nodetypes="cccc" />
        <path
           style="fill:#8958d3;fill-opacity:1;stroke:none;stroke-width:1px;stroke-linecap:butt;stroke-linejoin:miter;stroke-opacity:1"
           d="m 85.4268,230.78 c 0,0 29.3252,-60.309 29.3252,-60.309 -1.402,1.573 -2.805,3.145 -5.63,4.314 -2.826,1.169 -7.076,1.934 -11.3901,2.231 -4.314,0.298 -8.6915,0.128 -11.6453,-0.445 -2.9538,-0.574 -4.4836,-1.552 -5.4404,-3.358 -0.9568,-1.806 -1.3393,-4.441 -2.083,-7.331 -0.7436,-2.89 -1.8491,-6.036 -2.9541,-9.181 0,0 9.8177,74.079 9.8177,74.079 z"
           id="path13496"
           inkscape:path-effect="#path-effect13498"
           inkscape:original-d="m 85.4268,230.78 c 0,0 29.3252,-60.309 29.3252,-60.309 0,0 -2.804,3.146 -4.207,4.718 -4.249,0.766 -8.499,1.531 -12.7504,2.295 -4.3767,-0.169 -8.7542,-0.339 -13.1328,-0.51 -1.529,-0.977 -3.0591,-1.954 -4.5901,-2.933 -0.3815,-2.634 -0.764,-5.269 -1.1475,-7.905 -1.1041,-3.144 -3.3151,-9.435 -3.3151,-9.435 0,0 9.8177,74.079 9.8177,74.079 z" />
        <g
           id="g40540"
           style="opacity:1"
           transform="translate(0.255005,-0.127503)">
          <path
             style="opacity:1;fill:#f3b8b0;fill-opacity:1;stroke:none;stroke-width:1px;stroke-linecap:butt;stroke-linejoin:miter;stroke-opacity:1"
             d="m 98.6879,177.144 c 3.8251,-0.425 8.1601,-1.318 10.8791,-2.486 2.72,-1.169 3.825,-2.614 6.248,-6.949 2.423,-4.336 6.163,-11.561 9.945,-19.041 3.783,-7.48 7.608,-15.215 8.118,-18.912 0.511,-3.698 -2.294,-3.358 -3.909,-4.675 -1.616,-1.317 -2.041,-4.292 -2.168,-8.5 -0.128,-4.208 0.04,-9.648 0.467,-12.411 0.425,-2.763 1.106,-2.848 1.998,-2.805 0.893,0.04 1.998,0.212 3.698,-0.723 1.699,-0.935 3.994,-2.975 5.651,-6.3747 1.658,-3.3996 2.678,-8.1597 2.848,-12.3246 0.17,-4.165 -0.51,-7.735 -1.657,-10.4551 -1.147,-2.7201 -2.762,-4.5901 -4.59,-4.8882 -1.828,-0.2981 -3.868,0.9769 -4.718,1.2746 -0.85,0.2978 -0.51,-0.3822 -0.468,-2.6769 0.04,-2.2947 -0.212,-6.2047 -0.934,-10.9223 -0.723,-4.7176 -1.913,-10.2427 -4.377,-14.6204 -2.465,-4.3776 -6.205,-7.6075 -10.753,-11.0078 -4.548,-3.4003 -9.903,-6.9704 -16.363,-8.5433 -6.4603,-1.5729 -14.0253,-1.148 -21.4634,2.3797 -7.4382,3.5277 -14.7482,10.1577 -19.0834,15.6832 -4.3353,5.5254 -5.6953,9.9454 -6.1201,15.2584 -0.4249,5.3129 0.085,11.5179 0.4256,14.6627 0.3406,3.1448 0.5106,3.2298 -0.892,3.0171 -1.4026,-0.2127 -4.3776,-0.7227 -5.7806,0.9353 -1.4031,1.658 -1.2331,5.483 -0.723,10.2007 0.5101,4.7177 1.3601,10.3277 2.6354,14.2377 1.2754,3.9099 2.9754,6.1199 4.4632,7.2669 1.4878,1.147 2.7626,1.232 3.442,1.02 0.6794,-0.212 0.7644,-0.722 0.6794,0.468 -0.085,1.19 -0.34,4.08 1.6582,8.755 1.9981,4.676 6.248,11.136 9.4353,17.299 3.1874,6.162 5.3124,12.027 6.7042,17.308 1.3918,5.281 2.0505,9.977 2.9218,14.535 0.8713,4.558 1.955,8.978 3.8786,11.347 1.9236,2.37 4.6862,2.688 7.725,2.869 3.0388,0.18 6.3539,0.223 10.1787,-0.202 z"
             id="path21005"
             inkscape:path-effect="#path-effect21007"
             inkscape:original-d="m 98.1771,177.611 c 4.3359,-0.891 8.6709,-1.784 13.0049,-2.677 1.106,-1.444 2.211,-2.889 3.315,-4.335 3.742,-7.225 7.482,-14.45 11.221,-21.676 3.826,-7.734 7.651,-15.469 11.475,-23.205 -2.804,0.341 -5.609,0.681 -8.415,1.02 -0.424,-2.974 -0.849,-5.949 -1.275,-8.925 0.171,-5.44 0.341,-10.88 0.51,-16.321 0.681,-0.08 1.361,-0.169 2.04,-0.255 1.106,0.171 2.211,0.341 3.315,0.51 2.296,-2.0389 4.591,-4.0789 6.885,-6.12 1.021,-4.7591 2.041,-9.5192 3.06,-14.2803 -0.679,-3.5691 -1.359,-7.1391 -2.04,-10.7102 -1.614,-1.8691 -3.229,-3.7391 -4.845,-5.6101 -2.039,1.276 -4.079,2.551 -6.12,3.8251 0.341,-0.6791 0.681,-1.3591 1.02,-2.0401 -0.254,-3.9091 -0.509,-7.8191 -0.765,-11.7302 -1.189,-5.5242 -2.379,-11.0493 -3.57,-16.5754 -3.739,-3.2291 -7.479,-6.4591 -11.221,-9.6902 -5.354,-3.5691 -10.709,-7.1391 -16.0649,-10.7102 -7.5643,0.426 -15.1293,0.851 -22.6954,1.275 -7.3094,6.6313 -14.6194,13.2613 -21.9305,19.8904 -1.3591,4.4212 -2.7191,8.8412 -4.0801,13.2603 0.511,6.2063 1.021,12.4113 1.53,18.6154 0.171,0.086 0.341,0.171 0.51,0.255 -2.9741,-0.509 -5.9491,-1.019 -8.9252,-1.53 0.1711,3.8262 0.3411,7.6512 0.5101,11.4752 0.851,5.6113 1.701,11.2213 2.55,16.8304 1.7011,2.2109 3.4011,4.4209 5.1001,6.6299 1.2761,0.09 2.5511,0.171 3.8251,0.255 0.086,-0.509 0.171,-1.019 0.255,-1.53 -0.254,2.891 -0.509,5.781 -0.765,8.67 4.2512,6.462 8.5012,12.922 12.7503,19.381 2.1261,5.866 4.2511,11.731 6.3751,17.595 0.6598,4.698 1.3185,9.394 1.9763,14.089 1.0848,4.421 2.1685,8.841 3.2513,13.261 2.7636,0.319 5.5261,0.638 8.2877,0.956 3.3161,0.04 6.6311,0.09 9.9452,0.127 z"
             sodipodi:nodetypes="cccccccccccccccccccccccccccccccccccccc" />
          <path
             style="opacity:0.661169;fill:#e6e6e6;stroke:none;stroke-width:1px;stroke-linecap:butt;stroke-linejoin:miter;stroke-opacity:1"
             d="m 126.334,109.143 c -1.296,4.589 -3.634,9.691 -8.309,15.449 -4.675,5.758 -11.688,12.176 -17.361,15.555 -5.6737,3.379 -10.0087,3.719 -12.8561,3.698 -2.8475,-0.02 -4.2073,-0.404 -6.1625,-1.87 -1.9552,-1.466 -4.5052,-4.016 -7.5866,-7.076 -3.0813,-3.06 -6.6939,-6.63 -9.6905,-10.498 -2.9966,-3.868 -5.3765,-8.033 -6.5668,-11.773 -1.1903,-3.74 -1.1903,-7.056 -1.1903,-10.371 2.2526,3.443 4.5057,6.886 7.5449,9.67 3.0391,2.784 6.8641,4.909 11.0716,5.928 4.2075,1.02 8.7976,0.935 12.7501,0.616 3.9525,-0.318 7.2676,-0.871 11.6451,-2.443 4.3781,-1.573 9.8181,-4.166 13.8971,-6.928 4.08,-2.763 6.8,-5.695 9.01,-7.842 2.21,-2.146 3.91,-3.5059 5.61,-4.8659 -0.255,4.0799 -0.51,8.1609 -1.806,12.7509 z"
             id="path30416"
             inkscape:path-effect="#path-effect30418"
             inkscape:original-d="m 127.375,108.632 c -2.336,5.101 -4.674,10.202 -7.012,15.301 -7.012,6.418 -14.025,12.836 -21.0384,19.253 -4.3342,0.341 -8.6692,0.681 -13.0053,1.02 -1.359,-0.382 -2.719,-0.764 -4.08,-1.148 -2.5491,-2.549 -5.0991,-5.099 -7.6502,-7.65 -3.6117,-3.569 -7.2242,-7.139 -10.8377,-10.71 -2.3791,-4.165 -4.7591,-8.33 -7.1402,-12.496 0,-3.314 0,-9.945 0,-9.945 0,0 4.5061,6.886 6.7577,10.328 3.8261,2.126 7.6511,4.251 11.4752,6.375 4.5912,-0.08 9.1812,-0.169 13.7703,-0.255 3.3161,-0.551 6.6311,-1.104 9.9452,-1.657 5.4414,-2.592 10.8814,-5.185 16.3204,-7.778 2.721,-2.932 5.441,-5.864 8.16,-8.798 1.701,-1.3589 5.1,-4.0799 5.1,-4.0799 0,0 -0.509,8.1609 -0.765,12.2399 z" />
        </g>
        <path
           style="opacity:0.421289;fill:#eb9f98;fill-opacity:1;stroke:none;stroke-width:1px;stroke-linecap:butt;stroke-linejoin:miter;stroke-opacity:1"
           d="m 128.851,72.2171 c -0.07,2.7052 -0.226,8.1147 -0.357,12.5948 -0.131,4.48 -0.242,8.0306 -0.212,10.6452 0.03,2.6147 0.202,4.2932 1.085,5.0119 0.882,0.719 2.475,0.478 4.218,-0.453 1.742,-0.932 3.636,-2.5553 5.138,-5.1545 1.503,-2.5992 2.615,-6.1754 3.111,-9.1504 0.496,-2.9751 0.375,-5.3492 0.24,-7.558 -0.135,-2.2089 -0.286,-4.2525 -0.961,-6.1458 -0.676,-1.8932 -1.878,-3.6363 -3.441,-4.4934 -1.562,-0.8571 -3.486,-0.8271 -5.004,-0.3463 -1.518,0.4807 -2.63,1.4124 -3.186,1.8782 -0.556,0.4659 -0.556,0.4661 -0.631,3.1713 z"
           id="path41097"
           inkscape:original-d="m 128.926,69.5119 c -0.149,5.4104 -0.3,10.8199 -0.451,16.2284 -0.11,3.5517 -0.222,7.1022 -0.335,10.6518 0.173,1.6796 0.345,3.3581 0.516,5.0359 1.593,-0.24 3.186,-0.48 4.778,-0.721 1.894,-1.6223 3.788,-3.2452 5.68,-4.869 1.113,-3.5753 2.225,-7.1515 3.336,-10.7288 -0.12,-2.3732 -0.24,-4.7473 -0.361,-7.1225 -0.149,-2.0426 -0.299,-4.0862 -0.451,-6.1307 -1.201,-1.7421 -2.403,-3.4851 -3.606,-5.2292 -1.922,0.031 -3.846,0.061 -5.77,0.09 -1.111,0.9326 -2.223,1.8642 -3.336,2.7949 z"
           inkscape:path-effect="#path-effect41099" />
        <path
           style="opacity:0.73913;fill:#bc6f75;fill-opacity:1;stroke:none;stroke-width:1px;stroke-linecap:butt;stroke-linejoin:miter;stroke-opacity:1"
           d="m 132.217,74.2756 c 0.255,-1.2776 2.088,-2.6599 3.396,-3.1707 1.308,-0.5107 2.089,-0.1502 2.585,0.7518 0.495,0.902 0.706,2.3446 1.021,4.1177 0.316,1.7731 0.737,3.8767 0.662,4.763 -0.07,0.8864 -0.646,0.5558 -1.607,-0.1202 -0.962,-0.6761 -2.315,-1.6982 -3.652,-2.7949 -1.337,-1.0967 -2.66,-2.2691 -2.405,-3.5467 z"
           id="path41101"
           inkscape:path-effect="#path-effect41103"
           inkscape:original-d="m 130.639,74.3804 c 1.834,-1.3814 3.667,-2.7639 5.5,-4.1473 0.782,0.3617 1.563,0.7223 2.344,1.0819 0.211,1.4436 0.422,2.8861 0.631,4.3276 0.422,2.1047 0.842,4.2084 1.262,6.3111 -0.57,-0.3296 -1.141,-0.6602 -1.713,-0.9918 -1.351,-1.0208 -2.704,-2.0426 -4.057,-3.0653 -1.321,-1.1711 -2.644,-2.3432 -3.967,-3.5162 z" />
        <path
           style="opacity:0.683658;fill:#b66d69;fill-opacity:1;stroke:none;stroke-width:1px;stroke-linecap:butt;stroke-linejoin:miter;stroke-opacity:1"
           d="m 130.083,81.1427 c 0.376,-0.842 1.187,-1.7733 2.27,-1.9385 1.082,-0.1652 2.434,0.4357 3.456,1.0822 1.022,0.6465 1.713,1.3377 1.742,2.4043 0.03,1.0667 -0.601,2.5092 -1.337,3.7864 -0.737,1.2773 -1.578,2.389 -2.344,2.6296 -0.766,0.2405 -1.457,-0.3904 -2.118,-1.4721 -0.662,-1.0817 -1.293,-2.6144 -1.638,-3.7565 -0.346,-1.1421 -0.407,-1.8934 -0.03,-2.7354 z"
           id="path41105"
           inkscape:path-effect="#path-effect41107"
           inkscape:original-d="m 129.647,81.2324 c 0.813,-0.9306 1.624,-1.8623 2.435,-2.7949 1.353,0.6021 2.705,1.2031 4.057,1.8032 0.692,0.6922 1.383,1.3834 2.073,2.0736 -0.63,1.4436 -1.261,2.8861 -1.893,4.3276 -0.841,1.113 -1.682,2.2249 -2.524,3.3358 -0.691,-0.6301 -1.382,-1.2612 -2.074,-1.8933 -0.63,-1.5317 -1.261,-3.0644 -1.893,-4.598 -0.06,-0.7504 -0.12,-1.5017 -0.181,-2.254 z" />
        <path
           style="opacity:0.421;fill:#eda79d;fill-opacity:1;stroke:none;stroke-width:1px;stroke-linecap:butt;stroke-linejoin:miter;stroke-opacity:1"
           d="m 56.0933,102.224 c 0.015,-2.178 0.045,-6.5353 -0.1053,-11.5992 -0.1502,-5.0638 -0.4808,-10.8338 -0.9013,-14.1246 -0.4204,-3.2907 -0.9313,-4.1021 -2.043,-4.6135 -1.1118,-0.5114 -2.8248,-0.7218 -4.1624,-0.6769 -1.3376,0.045 -2.2992,0.3455 -3.0058,1.3376 -0.7067,0.9922 -1.1575,2.6752 -1.2926,4.6288 -0.1351,1.9537 0.045,4.1775 0.481,7.0626 0.4359,2.8852 1.1271,6.4313 1.7733,9.3013 0.6461,2.8701 1.2471,5.0639 2.3895,6.8519 1.1423,1.788 2.8256,3.171 4.0575,3.771 1.2319,0.601 2.0133,0.42 2.4036,0.33 0.3903,-0.09 0.3905,-0.09 0.4055,-2.269 z"
           id="path59055"
           inkscape:path-effect="#path-effect59057"
           inkscape:original-d="m 56.0783,104.403 c 0.031,-4.357 0.061,-8.7143 0.09,-13.0729 -0.3296,-5.7692 -0.6602,-11.5392 -0.9918,-17.3103 -0.5099,-0.8105 -1.0208,-1.6219 -1.5327,-2.4343 -1.712,-0.2094 -3.425,-0.4197 -5.139,-0.6311 -0.9607,0.3015 -1.9223,0.602 -2.885,0.9016 -0.4498,1.6839 -0.9006,3.3669 -1.3524,5.0488 0.1813,2.225 0.3616,4.4488 0.5409,6.6717 0.6923,3.5473 1.3835,7.0934 2.0737,10.6387 0.6021,2.1948 1.2031,4.3886 1.8031,6.5818 1.684,1.383 3.3669,2.766 5.0489,4.147 0.7824,-0.179 1.5637,-0.36 2.3441,-0.541 z" />
        <path
           style="fill:#ca7f81;fill-opacity:1;stroke:none;stroke-width:1px;stroke-linecap:butt;stroke-linejoin:miter;stroke-opacity:1"
           d="m 48.13,76.9056 c -0.5867,1.1722 -0.737,3.9671 -0.6168,4.9736 0.1201,1.0065 0.5108,0.2251 1.0969,-0.9469 0.586,-1.1721 1.3673,-2.7348 1.2478,-3.7415 -0.1195,-1.0067 -1.1413,-1.4575 -1.7279,-0.2852 z"
           id="path62874"
           inkscape:path-effect="#path-effect62876"
           inkscape:original-d="m 47.6936,75.282 c -0.1493,2.7959 -0.2995,5.5908 -0.4508,8.3847 0.3917,-0.7804 0.7824,-1.5618 1.1721,-2.3441 0.7824,-1.5618 1.5637,-3.1245 2.3441,-4.6883 -1.0208,-0.4498 -2.0426,-0.9005 -3.0654,-1.3523 z" />
        <path
           style="fill:#c37a75;fill-opacity:1;stroke:none;stroke-width:1px;stroke-linecap:butt;stroke-linejoin:miter;stroke-opacity:1"
           d="m 49.2113,86.5222 c -0.2553,1.383 0.015,3.3665 0.8722,4.7487 0.857,1.3821 2.2995,2.1635 2.9601,2.0285 0.6607,-0.135 0.5405,-1.1868 0.18,-2.494 -0.3605,-1.3073 -0.9615,-2.8701 -1.3673,-4.1173 -0.4058,-1.2471 -0.6162,-2.1788 -1.1122,-2.2545 -0.496,-0.076 -1.2774,0.7056 -1.5328,2.0886 z"
           id="path62878"
           inkscape:path-effect="#path-effect62880"
           inkscape:original-d="m 48.6853,85.9206 c 0.2715,1.9845 0.542,3.968 0.8115,5.9504 1.4435,0.7824 2.886,1.5638 4.3276,2.3442 -0.1193,-1.0509 -0.2395,-2.1027 -0.3607,-3.1556 -0.6,-1.5617 -1.2011,-3.1245 -1.8031,-4.6882 -0.2094,-0.9306 -0.4198,-1.8623 -0.6311,-2.7949 -0.7804,0.7824 -1.5618,1.5637 -2.3442,2.3441 z" />
        <path
           style="fill:#ab635c;fill-opacity:0.707921;stroke:none;stroke-width:1px;stroke-linecap:butt;stroke-linejoin:miter;stroke-opacity:1"
           d="m 102.511,88.5509 c 0.3,0.6463 3.215,2.8401 5.439,4.7787 2.224,1.9385 3.757,3.6214 4.703,5.2295 0.947,1.6079 1.307,3.1399 1.563,3.9509 0.256,0.812 0.406,0.902 0.511,0.241 0.104,-0.661 0.165,-2.074 -0.376,-3.7117 -0.541,-1.6377 -1.683,-3.5008 -3.035,-5.0935 -1.352,-1.5927 -2.915,-2.9151 -4.853,-4.0274 -1.939,-1.1122 -4.253,-2.0139 -3.952,-1.3675 z"
           id="path69373"
           inkscape:path-effect="#path-effect69375"
           inkscape:original-d="m 99.8951,87.0025 c 2.9159,2.1949 5.8309,4.3887 8.7449,6.5816 1.534,1.6839 3.067,3.3669 4.599,5.0488 0.361,1.5341 0.722,3.0661 1.081,4.5981 0.152,0.09 0.302,0.181 0.451,0.27 0.06,-1.411 0.121,-2.824 0.181,-4.237 -1.142,-1.8623 -2.284,-3.7255 -3.427,-5.5898 -1.561,-1.3213 -3.124,-2.6436 -4.688,-3.9669 -2.313,-0.9006 -4.627,-1.8022 -6.9419,-2.7048 z" />
        <path
           style="fill:#ab635c;fill-opacity:0.707921;stroke:none;stroke-width:1px;stroke-linecap:butt;stroke-linejoin:miter;stroke-opacity:1"
           d="m 68.6103,108.551 c 0.2704,-0.09 0.3606,-2.795 0.8264,-5.199 0.4657,-2.404 1.3072,-4.5082 2.6446,-6.522 1.3374,-2.0138 3.1706,-3.9371 4.3726,-5.4546 1.202,-1.5175 1.773,-2.6294 1.7887,-3.2756 0.016,-0.6461 -0.5252,-0.8264 -1.3971,-0.6013 -0.8719,0.2251 -2.074,0.8562 -3.3515,2.2238 -1.2775,1.3677 -2.6299,3.4714 -3.6517,5.9059 -1.0218,2.4345 -1.713,5.1998 -1.8331,7.8438 -0.1201,2.645 0.3307,5.169 0.6011,5.079 z"
           id="path72530"
           inkscape:path-effect="#path-effect72532"
           inkscape:original-d="m 68.7906,111.165 c 0.091,-2.704 0.1813,-5.409 0.2705,-8.114 0.8425,-2.103 1.6839,-4.2067 2.5244,-6.3114 1.8342,-1.9224 3.6674,-3.8458 5.4996,-5.7701 0.572,-1.111 1.143,-2.2229 1.713,-3.3359 -0.5399,-0.1793 -1.0809,-0.3596 -1.6228,-0.5409 -1.2011,0.6321 -2.4032,1.2632 -3.6063,1.8933 -1.3514,2.1047 -2.7038,4.2084 -4.0571,6.3111 -0.6903,2.7659 -1.3815,5.5309 -2.0737,8.2949 0.4518,2.525 0.9026,5.049 1.3524,7.573 z" />
        <path
           style="fill:#e39b98;fill-opacity:1;stroke:none;stroke-width:1px;stroke-linecap:butt;stroke-linejoin:miter;stroke-opacity:1"
           d="m 86.9724,68.9413 c -0.7514,2.8855 -1.3524,7.6338 -2.209,11.1197 -0.8565,3.4859 -1.9685,5.7098 -3.1254,7.4226 -1.1569,1.7128 -2.359,2.9149 -2.5388,3.8921 -0.1798,0.9772 0.6617,1.7284 1.4578,1.9833 0.7962,0.2549 1.5475,0.015 2.4042,0.3156 0.8568,0.3011 1.8184,1.1425 3.0657,1.7884 1.2473,0.6459 2.78,1.0967 4.0416,0.856 1.2617,-0.2406 2.2534,-1.1722 3.3053,-1.9837 1.052,-0.8115 2.164,-1.5028 3.3214,-1.8784 1.1573,-0.3755 2.3593,-0.4356 3.1859,-0.5259 0.8269,-0.09 1.2769,-0.2103 1.1119,-0.7806 -0.165,-0.5703 -0.947,-1.5924 -1.9222,-2.7479 -0.9752,-1.1555 -2.15,-2.4508 -3.127,-5.0503 -0.9771,-2.5995 -1.7585,-6.5063 -2.3445,-9.5417 -0.5861,-3.0354 -0.9767,-5.1991 -1.6225,-6.6868 -0.6457,-1.4877 -1.5473,-2.2991 -2.4494,-2.1944 -0.9021,0.1048 -1.8037,1.1265 -2.555,4.012 z"
           id="path75999"
           inkscape:path-effect="#path-effect76001"
           inkscape:original-d="m 86.8222,67.0776 c -0.6001,4.7493 -1.2011,9.4976 -1.8032,14.245 -1.1109,2.2249 -2.2229,4.4488 -3.3358,6.6717 -1.2011,1.2031 -2.4032,2.4052 -3.6063,3.6063 0.8425,0.7523 1.6839,1.5036 2.5244,2.2539 0.7523,-0.2394 1.5036,-0.4798 2.2539,-0.7212 0.9627,0.8425 1.9244,1.6839 2.8851,2.5244 1.5337,0.4518 3.0664,0.9026 4.5981,1.3524 0.9927,-0.9307 1.9844,-1.8623 2.9752,-2.7949 1.1129,-0.6903 2.2249,-1.3815 3.3358,-2.0737 1.2032,-0.059 2.4052,-0.1192 3.6066,-0.1803 0.452,-0.1192 0.902,-0.2394 1.352,-0.3606 -0.78,-1.0208 -1.562,-2.0426 -2.344,-3.0654 -1.2312,-1.2312 -2.3431,-2.5835 -3.5162,-3.8768 -0.7803,-3.9059 -1.5617,-7.8127 -2.3441,-11.7205 -0.3897,-2.1629 -0.7803,-4.3266 -1.172,-6.4914 -0.9006,-0.8105 -1.8022,-1.6219 -2.7048,-2.4343 -0.9006,1.0228 -1.8021,2.0446 -2.7047,3.0654 z" />
        <path
           style="fill:#ae6864;fill-opacity:1;stroke:none;stroke-width:1px;stroke-linecap:butt;stroke-linejoin:miter;stroke-opacity:1"
           d="m 75.341,108.859 c 0.7534,-0.01 2.6466,-0.07 5.2312,-0.02 2.5847,0.06 5.8604,0.231 9.0759,-0.05 3.2154,-0.285 6.371,-1.028 9.226,-1.414 2.8549,-0.387 5.4099,-0.417 6.8219,-0.597 1.412,-0.18 1.682,-0.511 1.367,-0.976 -0.315,-0.465 -1.216,-1.066 -3.047,-1.12 -1.83,-0.05 -4.5873,0.441 -7.1558,0.811 -2.5685,0.371 -4.947,0.619 -7.8927,0.659 -2.9457,0.04 -6.4584,-0.124 -8.8211,0.28 -2.3627,0.404 -3.5739,1.377 -4.3726,1.885 -0.7986,0.509 -1.1863,0.551 -0.4328,0.542 z"
           id="path79197"
           inkscape:path-effect="#path-effect79199"
           inkscape:original-d="m 74.2001,108.911 c 1.8944,-0.06 3.7875,-0.123 5.6799,-0.186 3.2769,0.175 6.5525,0.35 9.8273,0.523 3.1566,-0.742 6.312,-1.486 9.4666,-2.23 2.5551,-0.03 5.1101,-0.06 7.6631,-0.09 0.272,-0.329 0.542,-0.66 0.812,-0.991 -0.901,-0.6 -1.802,-1.201 -2.705,-1.803 -2.758,0.495 -5.515,0.99 -8.2742,1.483 -2.3779,0.249 -4.7565,0.496 -7.1363,0.742 -3.5118,-0.164 -7.0245,-0.33 -10.5383,-0.497 -1.2105,0.975 -2.422,1.948 -3.6344,2.921 -0.3859,0.04 -0.7728,0.09 -1.1607,0.128 z"
           sodipodi:nodetypes="scccccccccss" />
        <path
           style="fill:#ec9e9a;fill-opacity:1;stroke:none;stroke-width:1px;stroke-linecap:butt;stroke-linejoin:miter;stroke-opacity:1"
           d="m 76.4473,108.731 c 1.3003,-0.02 3.8998,-0.04 6.5668,-0.06 2.667,-0.02 5.4019,-0.02 8.2096,-0.251 2.8077,-0.237 5.6886,-0.709 8.3784,-1.042 2.6899,-0.333 5.1869,-0.527 7.6859,-0.72 0,0 0,0.361 -0.391,0.691 -0.39,0.331 -1.172,0.992 -2.74,1.719 -1.567,0.726 -3.922,1.518 -6.0762,2.065 -2.1541,0.547 -4.1073,0.847 -6.4665,0.998 -2.3591,0.15 -5.1238,0.15 -7.6579,-0.02 -2.5341,-0.171 -4.8373,-0.512 -6.267,-1.101 -1.4297,-0.588 -1.9858,-1.425 -2.2641,-1.843 -0.2782,-0.419 -0.2782,-0.42 1.022,-0.435 z"
           id="path82471"
           inkscape:path-effect="#path-effect82473"
           inkscape:original-d="m 75.1471,108.746 c 2.6005,-0.03 5.2,-0.06 7.7983,-0.09 2.7357,0 5.4706,0 8.2044,0 2.8819,-0.471 5.7627,-0.944 8.6426,-1.418 2.4996,-0.192 7.4956,-0.58 7.4956,-0.58 v 0.361 c -0.78,0.662 -1.562,1.323 -2.344,1.983 -2.354,0.793 -4.709,1.585 -7.0646,2.377 -1.9526,0.301 -3.9058,0.602 -5.8602,0.902 -2.764,0 -5.5287,0 -8.2946,0 -2.3024,-0.341 -4.6057,-0.682 -6.9099,-1.025 -0.5549,-0.835 -1.1107,-1.672 -1.6676,-2.509 z"
           sodipodi:nodetypes="cccccccccccc" />
        <path
           style="fill:#bb8075;fill-opacity:1;stroke:none;stroke-width:1px;stroke-linecap:butt;stroke-linejoin:miter;stroke-opacity:1"
           d="m 96.0183,68.0242 c 0.6763,-0.6311 2.0286,-1.8933 4.7927,-2.8327 2.765,-0.9393 6.941,-1.5557 10.38,-1.1185 3.439,0.4372 6.14,1.9267 6.215,1.3332 0.07,-0.5935 -2.475,-3.2693 -5.907,-4.4206 -3.431,-1.1513 -7.742,-0.7754 -10.582,0.7577 -2.8403,1.5332 -4.2077,4.2228 -4.8913,5.5675 -0.6836,1.3447 -0.6836,1.3446 -0.01,0.7134 z"
           id="path85823"
           inkscape:path-effect="#path-effect85825"
           inkscape:original-d="m 95.3421,68.6554 c 1.3534,-1.2613 2.7058,-2.5235 4.0571,-3.7867 4.1768,-0.6154 8.3528,-1.2318 12.5278,-1.8492 2.703,1.4909 5.404,2.9805 8.105,4.4696 -2.551,-2.6763 -5.101,-5.3524 -7.654,-8.0307 -4.31,0.377 -8.621,0.7529 -12.9337,1.1279 -1.3664,2.6908 -2.7338,5.3804 -4.1022,8.0692 z"
           sodipodi:nodetypes="scccccss" />
        <path
           style="fill:#af756a;fill-opacity:1;stroke:none;stroke-width:1px;stroke-linecap:butt;stroke-linejoin:miter;stroke-opacity:1"
           d="m 62.6385,67.3684 c 1.5316,0.1107 6.5469,-1.5101 9.979,-1.9295 3.432,-0.4194 5.2803,0.362 6.6475,1.4517 1.3671,1.0898 2.2536,2.4872 2.6365,2.4796 0.3829,-0.01 0.2626,-1.42 -0.3038,-2.7411 -0.5663,-1.3211 -1.5796,-2.5507 -3.1219,-3.2786 -1.5423,-0.7279 -3.6135,-0.953 -5.9457,-0.8323 -2.3321,0.1207 -4.9244,0.5875 -7.1975,1.7422 -2.2731,1.1548 -4.2257,2.9973 -2.6941,3.108 z"
           id="path89643"
           inkscape:path-effect="#path-effect89645"
           inkscape:original-d="m 59.1542,69.1002 c 5.0163,-1.6198 10.0316,-3.2407 15.0459,-4.8626 1.8492,0.7824 3.6975,1.5637 5.5447,2.3441 0.8876,1.3985 1.7741,2.7959 2.6597,4.1924 -0.1193,-1.4115 -0.2395,-2.824 -0.3607,-4.2375 -1.0123,-1.2287 -2.0256,-2.4583 -3.04,-3.689 -2.0704,-0.2241 -4.1416,-0.4492 -6.214,-0.6753 -2.5916,0.4678 -5.1839,0.9345 -7.7775,1.4003 -1.9518,1.8436 -3.9044,3.6861 -5.8581,5.5276 z"
           sodipodi:nodetypes="ccccccccc" />
        <path
           style="opacity:0.6;fill:#b07167;fill-opacity:1;stroke:none;stroke-width:1px;stroke-linecap:butt;stroke-linejoin:miter;stroke-opacity:1"
           d="m 97.2588,70.1732 c 0.6381,-0.6465 2.5615,-1.6684 4.6202,-2.2769 2.059,-0.6084 4.253,-0.8037 6.064,-0.8112 1.81,-0.01 3.238,0.173 4.598,0.6166 1.36,0.4437 2.652,1.1498 3.35,1.6909 0.699,0.5411 0.804,0.917 0.346,1.3069 -0.458,0.3899 -1.48,0.7956 -3.471,0.9685 -1.991,0.1729 -4.951,0.1128 -7.588,0.023 -2.637,-0.09 -4.951,-0.2103 -6.4311,-0.4054 -1.4802,-0.1952 -2.1263,-0.4656 -1.4881,-1.1121 z"
           id="path98958"
           inkscape:path-effect="#path-effect98960"
           inkscape:original-d="m 95.9732,70.5487 c 1.9244,-1.0208 3.8478,-2.0426 5.7698,-3.0654 2.195,-0.1943 4.389,-0.3897 6.582,-0.586 1.428,0.1813 2.856,0.3616 4.282,0.5409 1.294,0.7073 2.586,1.4135 3.877,2.1187 0.106,0.3767 0.212,0.7524 0.316,1.127 -1.021,0.4067 -2.043,0.8124 -3.066,1.2171 -2.959,-0.059 -5.919,-0.1192 -8.88,-0.1803 -2.313,-0.1192 -4.627,-0.2394 -6.9424,-0.3606 -0.6451,-0.2695 -1.2912,-0.54 -1.9384,-0.8114 z" />
        <path
           style="opacity:0.6;fill:#97615c;fill-opacity:1;stroke:none;stroke-width:1px;stroke-linecap:butt;stroke-linejoin:miter;stroke-opacity:1"
           d="m 65.17,72.3744 c 0.045,-0.6689 1.8778,-1.7658 3.4333,-2.4645 1.5554,-0.6987 2.8326,-0.9992 4.3354,-1.2096 1.5027,-0.2103 3.2307,-0.3305 4.523,0.1284 1.2923,0.4589 2.1488,1.4957 2.3362,2.2088 0.1874,0.7132 -0.2934,1.1039 -1.3524,1.3518 -1.059,0.2479 -2.6968,0.3531 -4.4324,0.5184 -1.7355,0.1653 -3.5687,0.3907 -5.3568,0.3833 -1.788,-0.01 -3.531,-0.2478 -3.4863,-0.9166 z"
           id="path103519"
           inkscape:path-effect="#path-effect103521"
           inkscape:original-d="m 63.3811,72.8026 c 1.8342,-1.0959 3.6674,-2.1928 5.4996,-3.2907 1.2783,-0.2996 2.5555,-0.6001 3.8318,-0.9016 1.729,-0.1192 3.457,-0.2394 5.1841,-0.3607 0.8575,1.0379 1.714,2.0747 2.5695,3.1105 -0.4799,0.3917 -0.9607,0.7824 -1.4426,1.172 -1.6369,0.1062 -3.2747,0.2114 -4.9136,0.3156 -1.8322,0.2264 -3.6654,0.4518 -5.4996,0.6762 -1.7421,-0.2394 -3.4851,-0.4799 -5.2292,-0.7213 z" />
        <path
           style="fill:#e3a195;fill-opacity:1;stroke:none;stroke-width:1px;stroke-linecap:butt;stroke-linejoin:miter;stroke-opacity:1"
           d="m 97.763,73.6335 c -0.4147,-0.7019 -0.4147,-0.7019 0.6059,-0.2553 1.0207,0.4465 3.0601,1.3389 5.3771,1.8062 2.316,0.4672 4.909,0.5097 6.938,0.6904 2.029,0.1808 3.496,0.4997 4.069,0.712 0.574,0.2123 0.255,0.3186 -1.031,0.5205 -1.285,0.2018 -3.537,0.4992 -6.013,0.5206 -2.476,0.021 -5.175,-0.2336 -6.939,-1.0619 -1.7635,-0.8282 -2.5922,-2.2307 -3.007,-2.9325 z"
           id="path109553"
           inkscape:path-effect="#path-effect109555"
           inkscape:original-d="m 97.3483,72.9316 c 0,10e-4 0,10e-4 0,0 2.0411,0.8935 4.0807,1.786 6.1197,2.6775 2.594,0.044 5.187,0.086 7.778,0.1275 1.467,0.3198 2.934,0.6385 4.399,0.9563 -0.318,0.1072 -0.637,0.2135 -0.956,0.3188 -2.252,0.2985 -4.504,0.596 -6.758,0.8925 -2.698,-0.254 -5.397,-0.509 -8.0964,-0.765 -0.8277,-1.4016 -1.6565,-2.8041 -2.4863,-4.2076 z" />
        <path
           style="fill:#cc928c;fill-opacity:1;stroke:none;stroke-width:1px;stroke-linecap:butt;stroke-linejoin:miter;stroke-opacity:1"
           d="m 66.7593,77.3945 c 0.8604,-0.4042 3.3255,-0.7442 5.6629,-1.3711 2.3374,-0.627 4.5474,-1.5407 5.8755,-2.1357 1.3281,-0.5951 1.7743,-0.8713 2.0611,-0.6688 0.2869,0.2025 0.4144,0.8825 -0.9029,1.6788 -1.3174,0.7963 -4.0799,1.71 -6.3324,2.3688 -2.2526,0.6588 -3.9951,1.0625 -5.238,1.0311 -1.2429,-0.032 -1.9866,-0.499 -1.1262,-0.9031 z"
           id="path112203"
           inkscape:path-effect="#path-effect112205"
           inkscape:original-d="m 65.1539,77.3304 c 2.466,-0.339 4.9311,-0.679 7.3952,-1.02 2.211,-0.9128 4.421,-1.8265 6.6301,-2.7413 0.4473,-0.2753 0.8935,-0.5515 1.3388,-0.8288 0.1285,0.681 0.256,1.361 0.3825,2.0401 -2.7616,0.9147 -5.5241,1.8285 -8.2877,2.7413 -1.7416,0.4047 -3.4841,0.8085 -5.2276,1.2112 -0.7428,-0.4665 -1.4865,-0.934 -2.2313,-1.4025 z"
           sodipodi:nodetypes="cccccccc" />
        <path
           style="opacity:1;fill:#e5cbc5;fill-opacity:1;stroke:none;stroke-width:1px;stroke-linecap:butt;stroke-linejoin:miter;stroke-opacity:1"
           d="m 104.651,68.6481 c -0.113,0.2858 -0.338,0.8566 -0.12,1.3979 0.219,0.5414 0.88,1.0521 1.56,1.2619 0.68,0.2098 1.378,0.1198 1.986,-0.1696 0.609,-0.2894 1.127,-0.7777 1.322,-1.2728 0.196,-0.4951 0.07,-0.9985 -0.221,-1.2622 -0.289,-0.2636 -0.739,-0.2863 -1.333,-0.2413 -0.594,0.045 -1.33,0.1576 -1.867,0.1691 -0.537,0.011 -0.875,-0.079 -1.044,-0.124 -0.17,-0.045 -0.17,-0.045 -0.283,0.241 z"
           id="path116545"
           inkscape:path-effect="#path-effect116547"
           inkscape:original-d="m 104.764,68.3623 c -0.225,0.572 -0.45,1.143 -0.677,1.713 0.663,0.5119 1.324,1.0228 1.984,1.5327 0.7,-0.089 1.398,-0.1793 2.096,-0.2704 0.52,-0.4874 1.038,-0.9758 1.555,-1.4651 -0.126,-0.5024 -0.254,-1.0058 -0.383,-1.5102 -0.45,-0.022 -0.9,-0.044 -1.352,-0.068 -0.736,0.1137 -1.472,0.2264 -2.209,0.3381 -0.337,-0.089 -0.675,-0.1793 -1.014,-0.2705 z" />
        <path
           style="opacity:1;fill:#e5cbc5;fill-opacity:1;stroke:none;stroke-width:1px;stroke-linecap:butt;stroke-linejoin:miter;stroke-opacity:1"
           d="m 69.7386,70.3261 c -0.053,0.2474 -0.1594,0.7415 -0.074,1.1001 0.086,0.3587 0.3619,0.5819 0.8904,0.693 0.5286,0.1111 1.3095,0.1111 2.0213,0.061 0.7118,-0.051 1.3546,-0.1515 1.6916,-0.4511 0.337,-0.2997 0.369,-0.7991 0.3216,-1.1708 -0.047,-0.3718 -0.1749,-0.6161 -0.3898,-0.7548 -0.2149,-0.1388 -0.5178,-0.1708 -1.267,-0.1072 -0.7491,0.064 -1.9445,0.2229 -2.5426,0.3027 -0.5981,0.08 -0.5985,0.08 -0.6517,0.3275 z"
           id="path125379"
           inkscape:path-effect="#path-effect125381"
           inkscape:original-d="m 69.7918,70.0787 c -0.1052,0.4951 -0.2115,0.9891 -0.3187,1.4822 0.2772,0.2241 0.5535,0.4473 0.8287,0.6694 0.782,0 1.5629,0 2.3429,0 0.6438,-0.1 1.2866,-0.2009 1.9285,-0.3028 0.033,-0.4984 0.065,-0.9978 0.096,-1.4982 -0.1265,-0.2434 -0.254,-0.4877 -0.3825,-0.7331 -0.3018,-0.031 -0.6047,-0.063 -0.9085,-0.096 -1.1943,0.1603 -2.3897,0.3197 -3.586,0.4781 z" />
        <path
           style="fill:#613029;fill-opacity:1;stroke:none;stroke-width:1px;stroke-linecap:butt;stroke-linejoin:miter;stroke-opacity:1"
           d="m 107.088,68.7405 c -0.196,0.1915 -0.334,0.6536 -0.29,1.043 0.05,0.3893 0.271,0.7054 0.461,0.883 0.19,0.1775 0.344,0.2174 0.486,0.065 0.141,-0.1527 0.271,-0.498 0.276,-0.8668 0,-0.3689 -0.113,-0.7622 -0.299,-0.9991 -0.186,-0.2369 -0.438,-0.3164 -0.634,-0.1249 z"
           id="path131520"
           inkscape:path-effect="#path-effect131522"
           inkscape:original-d="m 107.031,68.469 c -0.138,0.4632 -0.276,0.9254 -0.415,1.3866 0.227,0.3171 0.453,0.6332 0.678,0.9483 0.155,0.041 0.309,0.081 0.462,0.1195 0.131,-0.3443 0.261,-0.6896 0.39,-1.036 -0.118,-0.3921 -0.238,-0.7852 -0.358,-1.1794 -0.252,-0.079 -0.504,-0.1583 -0.757,-0.239 z" />
        <path
           style="fill:#341312;fill-opacity:1;stroke:none;stroke-width:1px;stroke-linecap:butt;stroke-linejoin:miter;stroke-opacity:1"
           d="m 72.2221,69.8256 c -0.096,0.1561 -0.2874,0.4679 -0.3963,0.7706 -0.1089,0.3027 -0.1352,0.5957 -0.011,0.8399 0.1245,0.2441 0.3987,0.4394 0.5603,0.5483 0.1615,0.1089 0.2106,0.1317 0.3,0.036 0.089,-0.096 0.2208,-0.31 0.3166,-0.5165 0.096,-0.2064 0.1559,-0.4056 0.1338,-0.61 -0.022,-0.2044 -0.1273,-0.4148 -0.2755,-0.6196 -0.1482,-0.2049 -0.3398,-0.404 -0.4361,-0.504 -0.096,-0.1001 -0.096,-0.1005 -0.1921,0.055 z"
           id="path136806"
           inkscape:path-effect="#path-effect136808"
           inkscape:original-d="m 72.318,69.6696 c -0.1906,0.3128 -0.3821,0.6246 -0.5747,0.9354 -0.025,0.294 -0.052,0.587 -0.079,0.8791 0.2752,0.1963 0.5494,0.3916 0.8227,0.586 0.05,0.023 0.099,0.046 0.1465,0.068 0.1325,-0.2131 0.2639,-0.4272 0.3944,-0.6424 0.061,-0.1981 0.1212,-0.3972 0.1803,-0.5973 C 73.104,70.6891 72.9989,70.4787 72.8927,70.2673 72.7021,70.0692 72.5105,69.8701 72.3179,69.67 Z" />
        <path
           style="opacity:0.70015;fill:#ead6d3;fill-opacity:1;stroke:none;stroke-width:1px;stroke-linecap:butt;stroke-linejoin:miter;stroke-opacity:1"
           d="m 73.2987,105.53 c 1.9838,-0.722 5.9509,-2.164 10.2636,-2.825 4.3128,-0.661 8.9708,-0.541 13.4864,0.105 4.5153,0.646 8.8883,1.818 11.0803,2.135 2.192,0.316 2.206,-0.225 1.784,-1.119 -0.421,-0.894 -1.277,-2.142 -3.395,-3.179 -2.119,-1.0372 -5.5,-1.8636 -8.8433,-2.1643 -3.3435,-0.3007 -6.6492,-0.075 -9.4365,-0.098 -2.7873,-0.022 -5.0563,-0.2929 -7.4307,0.075 -2.3745,0.368 -4.8537,1.3748 -6.4545,2.7803 -1.6007,1.406 -2.3219,3.209 -2.6825,4.11 -0.3605,0.901 -0.3555,0.901 1.6282,0.18 z"
           id="path147614"
           inkscape:path-effect="#path-effect147616"
           inkscape:original-d="m 71.315,106.251 c 3.968,-1.441 7.9349,-2.884 11.9009,-4.327 4.6592,0.121 9.3172,0.241 13.9745,0.36 4.3736,1.173 8.7466,2.345 13.1176,3.516 0.02,-0.539 0.03,-1.08 0.04,-1.622 -0.855,-1.247 -1.712,-2.494 -2.569,-3.742 -3.38,-0.8254 -6.761,-1.6518 -10.1428,-2.4793 -3.3049,0.2264 -6.6106,0.4518 -9.9174,0.6762 -2.268,-0.2695 -4.537,-0.5399 -6.8069,-0.8114 -2.4784,1.0078 -4.9577,2.0145 -7.4381,3.0205 -0.7203,1.804 -1.4415,3.607 -2.1638,5.409 z"
           sodipodi:nodetypes="ccccccccccsc" />
      </g>
    </g>
  </g>
</svg>
