<?xml version="1.0" encoding="UTF-8" standalone="no"?>
<svg
   viewBox="0 0 180 180"
   version="1.1"
   id="svg88"
   sodipodi:docname="1.svg"
   inkscape:version="1.1 (c68e22c387, 2021-05-23)"
   xmlns:inkscape="http://www.inkscape.org/namespaces/inkscape"
   xmlns:sodipodi="http://sodipodi.sourceforge.net/DTD/sodipodi-0.dtd"
   xmlns="http://www.w3.org/2000/svg"
   xmlns:svg="http://www.w3.org/2000/svg">
  <defs
     id="defs92">
    <inkscape:path-effect
       effect="bspline"
       id="path-effect1972"
       is_visible="true"
       lpeversion="1"
       weight="33.3333"
       steps="2"
       helper_size="0"
       apply_no_weight="true"
       apply_with_weight="true"
       only_selected="false" />
    <clipPath
       clipPathUnits="userSpaceOnUse"
       id="clipPath4747">
      <path
         fill="#d7acaa"
         d="m 102.551,51.8207 c 0.29,-0.86 -0.52,-1.54 -1.14,-1.98 -1.8999,-1.39 -4.3299,-1.63 -6.5999,-1.85 -2.78,-0.21 -5.64,-0.1 -8.31,0.77 -0.6,0.3 -1.94,0.87 -1.46,1.68 0.54,0.53 1.37,0.37 2.05,0.51 4.43,0.224 8.8365,0.5352 13.3099,1.3 0.74,0.01 1.5,-0.07 2.15,-0.43 z"
         id="path4749"
         sodipodi:nodetypes="cccccccc" />
    </clipPath>
  </defs>
  <sodipodi:namedview
     id="namedview90"
     pagecolor="#ffffff"
     bordercolor="#666666"
     borderopacity="1.0"
     inkscape:pageshadow="2"
     inkscape:pageopacity="0.0"
     inkscape:pagecheckerboard="0"
     showgrid="false"
     inkscape:zoom="21.2446"
     inkscape:cx="97.2246"
     inkscape:cy="49.5184"
     inkscape:window-width="1920"
     inkscape:window-height="1047"
     inkscape:window-x="-9"
     inkscape:window-y="-9"
     inkscape:window-maximized="1"
     inkscape:current-layer="svg88" />
  <path
     fill="#edc2be"
     d="M91.1 78.43a25.6 25.6 0 0 0 3.16-.35 5.7 5.7 0 0 0 2.95-1.54c1.11-.98 2.55-2.59 3.71-3.93a34.22 34.22 0 0 0 2.74-3.45 7.85 7.85 0 0 0 1.38-3.74c.19-1.66.08-3.97.03-5.19-.06-1.21-.06-1.34-.33-1.11-.27.22-.81.8-1.8 1.57-.98.77-2.4 1.75-3.98 2.36-1.57.61-3.29.86-5 .85-1.73-.02-3.45-.3-5-.76a10.49 10.49 0 0 1-4.4-2.46 21.76 21.76 0 0 1-4.17-5.66 44.22 44.22 0 0 1-2.56-6.16c-.44-1.3-.41-1.37-.29-.42.13.96.34 2.92.47 4.56.12 1.63.15 2.93.15 4.84 0 1.9-.03 4.41 0 5.82.03 1.4.13 1.7.32 2.24.2.54.49 1.33 1.44 2.62a38.8 38.8 0 0 0 4.43 4.84 88.1 88.1 0 0 0 5.02 4.27c1.05.85 1.05.85 1.74.8z"
     id="path2" />
  <path
     fill="#414864"
     d="M69.57 77.15c-6.53.4-13.6 4.67-18.24 9.6-4.65 4.93-6.88 10.5-8.43 15.86-1.55 5.37-2.42 10.5-2.42 18.16s.87 17.82 4.12 24.54c3.26 6.73 8.9 10.01 16.37 14.17 7.46 4.15 16.76 9.17 24.72 11.65 7.97 2.47 14.6 2.41 20.08-.1 5.49-2.5 9.82-7.47 13.64-12.67 3.8-5.2 7.1-10.66 10.9-15.25 3.81-4.58 8.15-8.3 10.32-13.04 2.17-4.74 2.17-10.5 1.24-15.74a41.55 41.55 0 0 0-5.2-14 38.78 38.78 0 0 0-8.56-10.08c-3.16-2.6-6.5-4.4-10.78-5.64a56.33 56.33 0 0 0-14.52-1.98c-5.03-.05-9.9.51-15.32-.94-5.42-1.46-11.4-4.94-17.92-4.54z"
     id="path4" />
  <path
     fill="#719ac1"
     d="M86.2 78.97c1.14-1 2.47-.73 4.55-.8 2.09-.07 4.92-.49 7-.48 2.09.01 3.42.44 4.84 1.24s2.92 1.96 3.41 3.97c.5 2-.01 4.86-.82 7.66-.8 2.8-1.9 5.56-2.89 7.7-.98 2.14-1.85 3.66-3.77 4.2-1.92.53-4.9.08-8.09-.2-3.19-.28-6.6-.39-8.2-2.02-1.59-1.64-1.37-4.8-.91-7.67a47.89 47.89 0 0 1 1.97-7.87c.82-2.43 1.77-4.72 2.9-5.73z"
     id="path6" />
  <path
     fill="#32394b"
     d="M49.89 168.45c-.33 1.19-.98 3.57-1.44 5.7-.47 2.12-.75 3.98-1.03 5.84l87.48-.28a25.58 25.58 0 0 1-2.14-4.72c-.45-1.56-.52-3.1-.6-4.8-.07-1.69-.16-3.51-.24-5.02-.07-1.5-.13-2.69-.15-3.38-.03-.7-.03-.92-1.73-3.2-1.69-2.28-5.08-6.63-7.42-8.8-2.35-2.17-3.65-2.17-5.51-2.28-1.86-.1-4.28-.32-6.31-.4-2.04-.08-3.7-.01-5.61-.09-1.9-.07-4.06-.28-6.22-.49.42.62.84 1.23.94 1.95.1.73-.12 1.56-.27 2.33-.16.76-.26 1.44-.79 2.02-.52.59-1.48 1.06-9.24 3.46s-22.33 6.73-30.02 8.88c-7.7 2.14-8.54 2.11-8.96 2.1-.42-.02-.42-.02-.74 1.18z"
     id="path8" />
  <path
     fill="#eedbcc"
     d="M66.71 139.96c1.5-.83 1.94-2.9 2.86-5.44a86.48 86.48 0 0 1 3.07-7.1c.75-1.57.85-1.7.43-1.79-.42-.08-1.36-.11-2.34-.21a14.1 14.1 0 0 1-3.21-.67c-1.23-.41-2.67-1.07-3.88-1.4-1.2-.33-2.17-.33-3.08-.36-.92-.02-1.78-.08-2.37.09-.59.17-.9.56-1.35.82-.45.26-1.05.38-1.4.8-.34.42-.43 1.15-.33 1.73.1.58.38 1.02.4 1.38.01.36-.24.64-.59 1.06-.35.42-.8.96-.94 1.55-.14.58.02 1.19.26 1.72.23.53.54.98.47 1.57-.06.58-.5 1.3-.47 2.04.02.74.52 1.48 1.57 2.19 1.06.7 2.68 1.37 4.77 1.9 2.09.54 4.64.95 6.13.12z"
     id="path10" />
  <path
     fill="#d3e5f6"
     d="M73.26 126.15c.6-.5 1.38-.76 2.24-.9a9.44 9.44 0 0 1 2.4-.05c.62.08.95.23.77 1.41-.17 1.19-.85 3.4-1.27 6.9-.42 3.51-.57 8.31-.83 10.7-.26 2.4-.64 2.4-1.5 1.95a25.6 25.6 0 0 1-3.4-2.32c-1.2-.95-2.2-1.91-3-2.56-.81-.65-1.42-1-1.26-2.02.15-1.03 1.06-2.75 1.93-4.72.87-1.97 1.7-4.18 2.32-5.66.61-1.48 1-2.22 1.6-2.73z"
     id="path12" />
  <path
     fill="#dceafb"
     d="M76.96 66.02c-.17 1.35.07 3.87.7 6.07.64 2.2 1.67 4.09 2.73 6.74 1.07 2.65 2.16 6.07 3.55 10.52 1.4 4.46 3.08 9.96 3.95 11.98.86 2.01.9.55.9-.84 0-1.4-.04-2.71-.42-4.87-.39-2.16-1.1-5.16-1.32-7.3-.2-2.13.1-3.4.53-4.62a7.47 7.47 0 0 1 1.78-3.1c.82-.72 1.89-1 2.27-1.31.39-.31.08-.64-.76-1.35-.85-.71-2.23-1.8-3.38-2.88-1.15-1.08-2.07-2.13-3.22-3.21-1.15-1.09-2.53-2.2-3.56-3.18a9.54 9.54 0 0 1-2.05-2.5c-.34-.7-.34-1.28-.63-1.48-.3-.2-.9-.02-1.07 1.33zM94.56 78.21c.24-.41 1.33-1.33 2.57-2.46a86.3 86.3 0 0 0 3.81-3.7c1.2-1.24 2.2-2.38 2.87-3.65.67-1.27 1-2.68 1.43-3.21.43-.54.95-.21 1.25.1.3.3.36.59.06 1.8-.3 1.2-.95 3.32-1.73 5.6s-1.68 4.71-2.4 6.9c-.72 2.19-1.27 4.13-1.62 5.39-.36 1.26-.54 1.83-.81 1.23-.28-.6-.65-2.37-1.11-3.73-.47-1.35-1.01-2.3-1.58-2.9a2.93 2.93 0 0 0-1.77-.95c-.6-.09-1.21 0-.97-.42z"
     id="path14" />
  <path
     fill="#ed4974"
     d="m88.05 83.71.09-.51c.09-.52.26-1.55.6-2.14.34-.6.84-.74 1.58-.88.73-.13 1.7-.24 2.76-.4 1.06-.14 2.22-.34 3.02-.24.8.1 1.24.5 1.65 1.16.4.67.77 1.61.69 2.37-.1.75-.64 1.32-1.08 1.98a6 6 0 0 0-.93 2.31c-.16.91-.16 1.98.11 2.84.28.85.82 1.49 1.09 1.94.26.45.24.7.1 1.75-.13 1.04-.37 2.86-.93 8.27-.57 5.42-1.46 14.43-1.94 19.24-.48 4.81-.54 5.43-1.24 5.75-.7.31-2.04.33-3.07.23-1.03-.11-1.75-.36-2.28-.98a6.85 6.85 0 0 1-1.1-2.55c-.23-.92-.39-1.75-.1-6.44.27-4.68.99-13.2 1.31-17.85.33-4.65.26-5.42.23-6-.03-.6-.03-1.02.61-1.58.65-.56 1.94-1.26 2.53-2.06.6-.8.49-1.7-.25-2.75a19.28 19.28 0 0 0-2.77-2.86l-.68-.6z"
     id="path16" />
  <path
     fill="#464d6a"
     d="M44.77 83.08c4.8-2.03 9.58-4.06 13.23-6.08 3.65-2.03 6.16-4.04 9.02-6.07 2.87-2.03 6.1-4.08 7.72-5.05 1.63-.98 1.66-.88 1.81.3.16 1.17.44 3.43 1.29 6.15.85 2.7 2.28 5.87 3.8 10.11 1.51 4.25 3.12 9.58 4.73 14.77 1.62 5.19 3.23 10.24 3.57 15.01.34 4.77-.6 9.27-1.07 11.53-.48 2.26-.51 2.29-2 2.24-1.49-.04-4.43-.17-6.54-.37-2.1-.2-3.37-.48-4.21-.43-.84.04-1.24.42-2.54.5-1.3.1-3.5-.08-5.4-.61-1.88-.53-3.46-1.4-5.15-1.7-1.7-.32-3.49-.07-4.43-.31-.95-.25-1.04-1-1.14-2.39-.09-1.4-.18-3.44-.34-5.56a35.79 35.79 0 0 0-1.05-6.9 67.33 67.33 0 0 0-2.76-7.77c-.93-2.27-1.64-3.85-2.35-5.43"
     id="path18" />
  <path
     fill="#3f4663"
     d="M182.17 123.6c-1.8 4.87-2.7 6.54-1.4 7.97 1.3 1.43 4.81 2.6 9.26 1.84 4.44-.76 9.83-3.45 13.83-7.4s6.6-9.16 9.05-13.65c2.45-4.5 4.74-8.28 7.05-12.37a353 353 0 0 0 6.01-11.17c1.38-2.68 3.7-3.17 2.78-4.13-.91-.96-5.06-2.39-7.52-3.47-2.46-1.09-5.13-2.3-7.7-3.31a64.09 64.09 0 0 0-7.1-2.37c-2.04-.52-3.6-.76-4.39.26-.78 1.02-.78 3.28-1.53 6.76a45.47 45.47 0 0 1-4.2 11.75c-2 3.55-4.47 5.93-7.06 11.15-2.59 5.23-5.28 13.28-7.08 18.15z"
     color="#000"
     style="-inkscape-stroke:none"
     transform="translate(-87 -3.52)"
     id="path20" />
  <path
     fill="#3c3f5b"
     d="M174.12 129.13c-1 .1-1.99.18-2.95-.47-.96-.65-1.89-2.05-3.14-4.4-1.26-2.36-2.84-5.67-4.7-9.13-1.86-3.45-4-7.05-6.29-10.6-2.3-3.54-4.74-7.04-6.26-9.42-1.52-2.37-2.1-3.6-.97-4.77 1.13-1.16 6.21-1.78 7.15-3.42.49-.85-5.58-1.43-6.65-4.05-.96-2.37-1.66-5.01-.8-5.31 1.8-.62 13.31-10.42 13.85-8.28 1.87 7.55 6.42 19.78 7.53 22.88 1.12 3.1 2.17 6.41 4.27 10.4 2.1 3.98 5.25 8.63 5.25 13.17 0 4.54-3.15 8.97-6.3 13.4"
     color="#000"
     style="-inkscape-stroke:none"
     transform="translate(-87 -3.52)"
     id="path22" />
  <path
     fill="#373d59"
     d="M104.04 75.23c.84-1.68 2.86-8.99 2.86-8.99 1.09.07 10.92 3.52 12.06 5.49 0 0 1.96 5.6 1.64 7.44-2.24 2.04-4.02 1.95-4.2 3.1-.17 1.15 1.46 1.9 2.32 3.18.4.6 2.36 1.18 2.46 1.95.12.86-.91 2.4-1.54 3.26-.96 1.63-1.3 2.97-3.08 5.43-1.78 2.46-4.63 5.72-7.1 9.15-2.46 3.43-4.54 7.02-6.34 10.05-1.8 3.02-3.3 5.47-4.34 7.24-1.05 1.76-1.62 2.83-2.72 3.36-1.1.53-2.75.5-4.03.43-1.28-.08-2.2-.21-2.96-.34-.76-.12-1.35-.24-1.22-1.34.13-1.1.99-3.16 1.85-5.81.87-2.65 1.75-5.87 2.78-8.4 1.03-2.55 2.2-4.41 3.27-7.52 1.06-3.12 2-7.48 3.08-11.5 1.07-4.04 2.28-7.74 3.03-10.1.75-2.36 1.04-3.39 1.19-3.9.14-.5.14-.5.99-2.18z"
     id="path24" />
  <path
     fill="#49506c"
     d="M57.14 123.65c-.45-5.54-.9-11.09-2.31-16.96a93.99 93.99 0 0 0-5.62-16.04 38.34 38.34 0 0 0-4.44-7.57c-.82 1.19-1.64 2.38-2.51 4.75-.88 2.36-1.8 5.9-3.02 9.58-1.2 3.69-2.7 7.53-3.92 12.47-1.22 4.94-2.18 10.99-3.27 17.5-1.08 6.53-2.29 13.53-2.41 18.52-.13 5 .83 7.97 2.09 10.94 1.25 2.98 2.8 5.95 5.02 7.78 2.22 1.83 5.1 2.5 10.5 2.97a272 272 0 0 0 21.17.72c7.82 0 15.54-.25 21.12-.52 5.57-.26 9.01-.54 10.67-.68 1.66-.14 1.53-.14.85-.62s-1.92-1.44-2.3-2.7c-.38-1.26.1-2.81.58-4.37-6.99-.98-13.97-1.97-17.84-2.75-3.86-.79-4.6-1.38-5.06-3.07-.45-1.69-.6-4.48-.76-7.26a25.74 25.74 0 0 1-5.16-2.56 21.85 21.85 0 0 1-3.87-3.83c-.96.45-1.91.9-3.8.61-1.88-.3-4.7-1.35-6.42-2.23-1.72-.89-2.34-1.6-2.5-2.39-.15-.79.16-1.66.13-2.45-.04-.79-.4-1.5-.24-2.37.17-.86.88-1.88 1.14-3.04.26-1.17.07-2.48.36-3.24.28-.76 1.05-.97 1.82-1.19"
     id="path26" />
  <path
     fill="#1c1f30"
     d="M57.79 120.56a67.14 67.14 0 0 0-1.2-10.3c-.66-3.3-1.5-5.34-2.64-8.05-1.15-2.7-2.6-6.09-3.4-7.78-.79-1.7-.91-1.72-1.03-1.73.62 1.69 1.24 3.38 2.16 5.72.92 2.34 2.14 5.33 3 8.11a44.1 44.1 0 0 1 1.64 8.2c.32 2.8.48 5.84.77 7.2.3 1.37.73 1.06.7-1.37z"
     id="path28" />
  <path
     fill="#414164"
     d="M101.96 166.73c.41-.09 1.23-.26 1.7-1.29s.59-2.92.46-4.01c-.13-1.1-.5-1.39-.87-1.68l-3.9-.33c-.26.62-.5 1.24-.62 2.02s-.1 1.72.12 2.44c.23.72.66 1.24 1.15 1.69.48.45 1.02.85 1.28 1.04.27.2.27.2.68.12z"
     id="path30" />
  <path
     fill="#192037"
     d="M52.92 133.07c.47.6.58 1.63.69 2.67-1.18-.25-2.36-.5-4.16-.11-1.8.39-4.21 1.41-6.27 2.35a45.42 45.42 0 0 0-5.17 2.66c-1.4.88-2.5 1.78-2.33 1.23.17-.54 1.61-2.52 3.5-4.16a24.18 24.18 0 0 1 6.21-3.8 18.11 18.11 0 0 1 4.99-1.42c1.26-.14 2.08 0 2.54.58z"
     id="path32" />
  <path
     fill="#22283c"
     d="M49.04 125.71c.97-.4 2.9-1.2 4.42-1.61 1.51-.42 2.6-.43 3.1-.81.5-.38.42-1.12-.52-1.3-.95-.2-2.76.18-4.23.96-1.47.78-2.6 1.97-3.17 2.57-.57.6-.57.6.4.2z"
     id="path34" />
  <path
     fill="#2d3142"
     d="M52.06 161.26c.97.09 5.1-.98 7.95-2.4a14.11 14.11 0 0 0 5.23-4.25c.78-1.07.73-1.44.29-1.5-.44-.07-1.28.18-2.6.95-1.33.77-3.14 2.05-4.47 2.91-1.34.86-2.19 1.3-3.7 2.13-1.51.84-3.68 2.08-2.7 2.16z"
     id="path36" />
  <path
     fill="#3b415d"
     d="m41.75 140.23-1.92 1.69c-.7.64-1.3 1.2-1.56 1.7-.25.49-.15.9.17 1.13.32.22.85.25 1.35-.13.5-.38.96-1.17 1.35-2.03.39-.85.7-1.78.85-2.25.16-.46.16-.46-.24-.11z"
     id="path38" />
  <path
     fill="#282f47"
     d="M44.35 141.28c-.1-.24-.63.78-1.28 1.75a9.6 9.6 0 0 1-2.47 2.64c-1.06.74-2.42 1.3-2.88 1.76-.47.46-.04.8.7.73.74-.06 1.8-.52 2.74-1.2a7.2 7.2 0 0 0 2.4-2.73c.58-1.2.9-2.7.8-2.95z"
     id="path40" />
  <path
     fill="#3c445f"
     d="M165.29 132.41s-.3.62-.58 2.6c-.28 1.98-.62 3.9-.87 5.7-.25 1.8-.4 3.47-.57 4.97-.17 1.5-.36 2.84-.34 4.93.01 2.1.23 4.94.8 6.62.58 1.67 1.5 2.17 3.63 2.72 2.12.56 5.44 1.18 9.46 1.74 4.02.56 8.75 1.07 14.01 1.52 5.27.45 11.08.84 15.61 1.04 4.53.2 7.79.2 10.89-.05 3.1-.25 6.04-.75 8.13-2.1 2.1-1.34 3.33-3.54 5.1-6.4 1.76-2.84 4.06-6.34 5.34-9.02 1.29-2.68 1.57-4.54 1.44-6.1-.12-1.54-.65-2.78-1.08-5.14-.44-2.35-.78-5.82-1.1-9.26-.33-3.44-.64-6.85-1.1-10.86a572.36 572.36 0 0 0-3.1-22.34c-.47-2.78-.6-5.53-1.13-7-.53-1.48-1.44-1.66-2.37-1.28-.93.39-2.2 1.72-3.49 4-1.28 2.28-5.7 3.96-6.95 6.57-1.24 2.62-2.41 4.64-3.47 6.7-1.05 2.06-3.85 5.58-4.32 6.59-.46 1 4.53 1.04 5.32 1.3.8.27-2.55 24.1-5.93 23.7-3.38-.41-7.44-1.12-10.75-1.68a90.78 90.78 0 0 0-9.36-1.2c-3.47-.26-7.84-.35-11.84-.61-4-.27-9.07-1.03-10.99-.95z"
     color="#000"
     style="-inkscape-stroke:none"
     transform="translate(-87 -3.52)"
     id="path42" />
  <path
     fill="#38383b"
     d="M117.24 113.63a3.22 3.22 0 0 1-.09-1.91c.21-.7.75-1.44 1.46-2.44.7-1 1.57-2.26 2.2-3.1.63-.85 1.01-1.27 1.46-1.4.45-.13.95.04 3.17 1.03 2.23 1 6.17 2.8 9.06 4.21 2.9 1.41 4.74 2.4 5.71 3.1.98.69 1.09 1.07 1.01 1.44-.07.37-.32.74-.61.8-.3.06-.62-.18-1.45-.6-.83-.4-2.16-.98-3.4-1.5a7.45 7.45 0 0 0-4.74-.6c-2.36.37-5.92 1.57-8.32 2.1-2.4.55-3.63.43-4.35.15-.73-.28-.94-.73-1.11-1.28z"
     id="path44" />
  <path
     fill="#333"
     d="M117.7 113.21c1.35-1.86 3.12-4.63 4.17-5.96 1.05-1.32 1.4-1.2 2.25-.86.85.35 2.21.9 4.44 2.01a280.5 280.5 0 0 1 10.91 5.84c.73.43 1.29.78 1.3 1.2 0 .42-.54.9-1.32 1.73-.79.83-1.8 2-3 3.53-1.18 1.53-2.53 3.4-3.46 4.76-.93 1.35-1.44 2.2-2.97 2.45-1.53.25-4.09-.07-6.58-.44-2.48-.38-4.9-.8-7.29-1.26-2.38-.46-4.74-.98-5.76-1.87-1.02-.9-.71-2.19.2-3.48.9-1.3 2.4-2.6 3.62-3.72a23.45 23.45 0 0 0 3.5-3.93z"
     id="path46" />
  <path
     fill="#eedbcc"
     d="M101.6 126.54c.01-.5.03-1.48.46-2.37.43-.89 1.26-1.68 2.32-2.6 1.07-.92 2.36-1.97 3.39-2.82a17.8 17.8 0 0 0 2.42-2.27c.63-.76 1.1-1.61 1.52-2.5.42-.89.77-1.8 1.3-2.3.52-.5 1.22-.56 1.91-.6.7-.02 1.37-.02 1.77.44.4.46.5 1.38.53 2.24a5.7 5.7 0 0 1-.39 2.59c-.38.9-1.1 1.92-1.74 2.85-.64.93-1.19 1.78-2.03 2.55-.84.77-1.98 1.44-2.21 1.9-.23.47.45.7 1.16.64.71-.07 1.46-.44 2.39-.84.93-.4 2.05-.85 2.9-1.4.86-.56 1.45-1.24 2.27-1.93a33.3 33.3 0 0 1 2.83-2.03c.95-.64 1.8-1.2 3.03-1.83a49.6 49.6 0 0 1 4.2-1.84c1.39-.54 2.55-.93 3.48-1.13.93-.2 1.63-.2 2.17.03.54.24.9.7 1.12 1.24.2.55.25 1.19-.38 1.87-.62.67-1.91 1.4-3.76 2.4-1.86 1-4.27 2.26-6.18 3.55a18.5 18.5 0 0 0-3.73 3.14c-.38.52.28.26 1.17-.21a70.57 70.57 0 0 0 6.33-3.88c1.17-.86 2.53-2 3.47-2.6.94-.6 1.47-.67 1.95-.55s.92.42 1.17.79c.25.36.32.77.07 1.45a26.64 26.64 0 0 1-3.26 5.07c-.61.72-1.18 1.24-1.4 1.58-.22.34-.09.5.15.9s.6 1.06.6 1.52c0 .46-.36.73-1.24.87-.89.14-2.31.16-3.56.17-1.25.01-2.33.01-3.96-.16a88.2 88.2 0 0 1-5.48-.82c-1.65-.3-2.77-.54-4.38-.82-1.6-.29-3.71-.62-5.86-.92-2.15-.31-4.34-.6-5.43-.74-1.1-.14-1.1-.14-1.09-.63z"
     id="path48" />
  <path
     fill="#363d58"
     d="M135.14 128.92c.72.15 2.91-.12 4.88.16 1.98.27 3.73 1.08 4.88 1.47 1.15.38 1.7.34 1.28-.08-.42-.42-1.8-1.2-2.98-1.73a10.66 10.66 0 0 0-3.35-.92 10.79 10.79 0 0 0-3.63.14c-1.06.27-1.8.82-1.08.96z"
     id="path50" />
  <path
     fill="#31364f"
     d="M110.94 136.93c-.17.33.14 1.95 1.1 3.62a17.5 17.5 0 0 0 3.75 4.36c1.2.99 2.02 1.25 2.1.97.1-.27-.54-1.08-1.29-1.9-.74-.82-1.6-1.66-2.32-2.56-.73-.91-1.32-1.9-1.93-2.88-.61-.97-1.25-1.93-1.41-1.6z"
     id="path52" />
  <path
     fill="#363d58"
     d="M133.3 132.16c.41-.07 1.25-.2 2.23-.28.99-.07 2.13-.1 2.88.19.76.29 1.13.88 1.64 1.72.5.84 1.13 1.94 1.44 2.73.3.79.29 1.27.06 1.55-.23.29-.67.38-1.15.03-.49-.35-1.01-1.14-1.44-1.76a7.48 7.48 0 0 0-1.2-1.43 9.25 9.25 0 0 0-1.81-1.15c-.83-.44-1.95-.99-2.51-1.26-.56-.28-.56-.28-.14-.34z"
     id="path54" />
  <path
     fill="#29304a"
     d="M124.93 104.54c-.22-1.13.21-2.73.82-4.44.6-1.7 1.37-3.53 2.14-5.14a25.9 25.9 0 0 1 2.61-4.4c1.04-1.4 2.34-2.77 2.8-2.77.48 0 .13 1.38-.46 2.65-.6 1.27-1.43 2.43-2.1 3.79a34.9 34.9 0 0 0-1.76 4.57 77 77 0 0 0-1.47 4.79c-.35 1.38-.48 2.38-.98 2.56-.5.17-1.38-.48-1.6-1.61z"
     id="path56" />
  <path
     fill="#373f58"
     d="M136.32 109.18c.33-.49 1.47-1.6 2.6-2.53a19.9 19.9 0 0 1 3.17-2.13c.93-.5 1.68-.76 2.09-.65.4.11.47.6 0 1.1-.45.5-1.44 1.02-2.46 1.56s-2.07 1.09-2.87 1.57c-.8.48-1.35.9-1.86 1.17-.52.27-1 .4-.67-.09z"
     id="path58" />
  <path
     fill="#f2bdbd"
     d="M78.1 45.18c.25-1.27-.39-3.7-.63-5.56-.24-1.86-.08-3.16 0-4.15.07-1 .07-1.68-.26-2.3-.33-.63-1-1.2-1.56-1.65a7.3 7.3 0 0 0-1.44-.95c-.45-.2-.88-.3-1.18-.05-.3.24-.48.8-.67 1.62-.2.8-.41 1.84-.52 3.48-.1 1.64-.1 3.89.13 5.55a7.21 7.21 0 0 0 1.36 3.55c.64.82 1.43 1.39 2.4 1.62.96.23 2.1.11 2.36-1.16z"
     id="path60" />
  <path
     fill="#e9b0b0"
     d="M110.74 49.48c.1-.83.3-2.49.4-3.92.09-1.43.07-2.64.18-4.04.1-1.4.34-3 .6-4 .27-1.02.56-1.43 1.21-1.67.65-.25 1.66-.3 2.38-.2.72.11 1.15.39 1.47.94.32.55.52 1.37.47 2.44a13.72 13.72 0 0 1-.84 3.71 30.95 30.95 0 0 1-1.73 3.84 9.65 9.65 0 0 1-1.93 2.82c-.7.6-1.5.75-1.91.83-.4.08-.4.08-.3-.75z"
     id="path62" />
  <path
     fill="#3b2c2b"
     d="M77.28 32.13c-.12-.9-.36-2.7-.46-4.91-.1-2.23-.05-4.88.44-7.25a15.8 15.8 0 0 1 2.67-6.13 16.18 16.18 0 0 1 4.63-4.14c1.85-1.16 4.02-2.2 5.33-2.87 1.31-.68 1.77-1 2.73-1.26.96-.25 2.43-.43 4.06-.51 1.64-.1 3.43-.1 4.63.1 1.2.2 1.79.6 2.62 1.16.84.57 1.91 1.32 3.18 2.15 1.27.83 2.74 1.75 4.13 2.96 1.4 1.2 2.7 2.7 3.45 4.04.75 1.35.92 2.55 1.2 4.3.27 1.76.64 4.06.2 6.87a36.7 36.7 0 0 1-2.43 7.78c-.72 1.67-.9 1.69-1.04 1.72-.15.03-.26.07-.8-2.82-.52-2.9-1.46-8.73-5.88-12.52-4.42-3.79-12.3-5.53-17.64-3.15C82.96 20.02 77.42 32.98 77.4 33l-.13-.87z"
     id="path64" />
  <path
     fill="#f0cecd"
     d="M77.26 45.48c.04.78.12 2.34.82 4.53.7 2.19 2.04 5 3.54 7.26a16.91 16.91 0 0 0 4.77 4.92c1.6 1 3.12 1.35 4.84 1.57 1.73.23 3.67.34 5.34.09s3.08-.85 4.44-1.7a20.15 20.15 0 0 0 3.68-2.98c1.02-1.05 1.76-2.08 2.7-3.36.95-1.29 2.1-2.84 2.84-4.48.75-1.64 1.09-3.38 1.46-5.84.37-2.46.77-5.65.91-7.93.14-2.28.02-3.64.35-5.6.32-1.95 1.1-4.49 1.3-6.6.2-2.1-.17-3.78-.98-5.54a15.34 15.34 0 0 0-3.48-4.91 8.74 8.74 0 0 0-5-2.22c-1.93-.22-4.13.06-6.1-.2-1.97-.26-3.7-1.07-5.48-1.55a9.9 9.9 0 0 0-5.81.05 14.3 14.3 0 0 0-6.59 4.41 16.37 16.37 0 0 0-3.24 7.44c-.37 2.3-.06 4.01 0 5.7.07 1.69-.12 3.36-.22 6.05-.1 2.7-.11 6.4-.12 8.26 0 1.85 0 1.85.03 2.63z"
     id="path66" />
  <path
     d="m 100.606,31.258 c -0.7843,0.4703 -1.2913,1.0491 -1.539,1.4648 -0.2391,0.4124 -0.2061,0.6673 0.2517,0.6318 0.454,-0.045 1.3413,-0.3834 2.1513,-0.6175 0.801,-0.2305 1.529,-0.3693 2.326,-0.4698 0.789,-0.1193 1.656,-0.2038 2.471,-0.2261 0.82,-0.013 1.585,0.059 2.227,0.1136 0.625,0.04 1.117,0.066 1.335,-0.092 0.215,-0.1675 0.161,-0.5323 -0.126,-0.8081 -0.447,-0.3495 -0.963,-0.6012 -1.513,-0.7392 -0.693,-0.2172 -1.545,-0.4593 -2.35,-0.5483 -0.839,-0.084 -1.687,-0.014 -2.501,0.2052 -0.912,0.2194 -1.965,0.6 -2.736,1.0761 z"
     style="fill:#a98680"
     id="path1421" />
  <path
     fill="#e2a6a8"
     d="M73.16 34.82c-.2 0-.2-.29-.06-.76.13-.48.39-1.15.7-1.42.32-.27.68-.13.74.2.07.35-.16.9-.47 1.3-.32.41-.71.69-.9.68z"
     opacity=".18"
     id="path68" />
  <path
     fill="#dca09d"
     d="M74.1 39.8c-.31.2-.31.2-.14-.34.17-.53.5-1.6.87-2.29.36-.68.74-.96 1.13-1.07.4-.11.78-.04.98.19.2.23.2.62-.04 1.08a5.1 5.1 0 0 1-1.28 1.41c-.56.45-1.2.84-1.52 1.03z"
     opacity=".18"
     id="path70" />
  <path
     fill="#a47677"
     d="M113.5 38.59c.18.23.53.69.74 1.05.21.37.29.65.33.92.05.28.06.57.23.49.17-.09.5-.54.7-.95.21-.4.3-.78.33-1.07.03-.3 0-.52-.16-.7-.15-.17-.43-.3-.84-.3-.41.02-.96.17-1.23.25-.28.08-.28.08-.1.3z"
     opacity=".06"
     id="path72" />
  <path
     fill="#bf837d"
     d="M112.67 41.57c-.19.2-.15.86-.17 1.39-.02.52-.1.92 0 .97.12.05.44-.25.67-.65.23-.4.37-.9.24-1.28-.14-.38-.56-.63-.74-.43z"
     opacity=".14"
     id="path74" />
  <path
     fill="#a98680"
     d="m 80.0473,30.2505 c 0.4522,-0.066 1.3637,-0.1844 2.2256,-0.2337 0.8567,-0.03 1.6664,-10e-5 2.4941,0.1175 0.8181,0.1149 1.6541,0.3175 2.5861,0.5871 0.9249,0.2573 1.9432,0.5913 2.7451,0.9607 0.8089,0.3816 1.3917,0.796 1.6745,0.706 0.2951,-0.097 0.2901,-0.6988 -0.028,-1.2497 -0.3142,-0.529 -0.935,-0.9949 -1.9777,-1.47 -1.1961,-0.5314 -2.45,-0.9219 -3.7363,-1.1634 -1.0957,-0.2274 -2.2316,-0.1668 -3.2969,0.1753 -1.034,0.3449 -2.0971,0.9926 -2.626,1.3067 -0.5193,0.3168 -0.5193,0.3168 -0.07,0.2609 z"
     id="path76"
     sodipodi:nodetypes="ccscccccccccc" />
  <path
     fill="#d7acaa"
     d="m 102.551,51.8207 c 0.29,-0.86 -0.52,-1.54 -1.14,-1.98 -1.8999,-1.39 -4.3299,-1.63 -6.5999,-1.85 -2.78,-0.21 -5.64,-0.1 -8.31,0.77 -0.6,0.3 -1.94,0.87 -1.46,1.68 0.54,0.53 1.37,0.37 2.05,0.51 4.43,0.224 8.8365,0.5352 13.3099,1.3 0.74,0.01 1.5,-0.07 2.15,-0.43 z"
     id="path78"
     sodipodi:nodetypes="cccccccc" />
  <path
     fill="#efc8c3"
     d="M95.08 31.75c-.37 1.31-.74 2.63-1.06 3.59A8.52 8.52 0 0 1 93 37.57a14.8 14.8 0 0 1-1.63 1.97c-.56.58-1.05 1-1.46 1.51-.4.52-.72 1.13-.56 1.5.17.39.82.53 1.41.6.6.07 1.15.07 1.57.17.43.1.74.32 1.18.48.44.17 1 .29 1.56.29s1.11-.12 1.51-.32c.41-.19.67-.45 1.09-.54.42-.09.99 0 1.54.02.56.01 1.11-.04 1.25-.35.15-.31-.12-.88-.44-1.33-.32-.45-.7-.78-1.15-1.12-.43-.33-.93-.67-1.3-1.22a5.37 5.37 0 0 1-.74-1.97c-.13-.67-.11-1.25-.15-1.93-.04-.68-.13-1.45-.22-2.08-.1-.63-.2-1.12-.38-1.38a.72.72 0 0 0-.66-.29.47.47 0 0 0-.34.17z"
     id="path82" />
  <path
     fill="#976b65"
     d="m98.96 34.77.57-.13c.57-.13 1.7-.38 2.86-.45 1.17-.06 2.35.05 3.17.22.82.17 1.27.4 1.71.69.44.28.86.61.96.83.1.23-.1.34-.65.39-.55.05-1.43.04-2.26.01-.83-.02-1.6-.07-2.22-.19-.6-.11-1.05-.3-1.6-.47-.55-.17-1.21-.33-1.65-.48-.45-.15-.67-.28-.78-.35l-.1-.07z"
     id="path84" />
  <path
     fill="#976c66"
     d="M82.19 32.91c.42-.12 1.25-.36 1.95-.52a14.2 14.2 0 0 1 3.7-.3c.54.03.97.1 1.32.22.36.1.64.25.85.37.2.11.32.2.36.34.04.13 0 .32-.37.44-.36.12-1.04.17-1.75.2-.7.03-1.44.03-2.14.03-.7 0-1.37 0-1.89-.03a5.46 5.46 0 0 1-2.25-.55c-.2-.08-.2-.08.22-.2z"
     id="path86" />
  <path
     style="fill:#d7a3a0;stroke:none;stroke-width:1px;stroke-linecap:butt;stroke-linejoin:miter;stroke-opacity:1;fill-opacity:1"
     d="m 84.1981,50.244 c 0.7183,-0.1452 2.1539,-0.4355 4.0565,-0.5413 1.9026,-0.1058 4.2717,-0.027 6.5861,0.2041 2.3145,0.2315 4.5738,0.6159 6.3623,1.1222 1.789,0.5062 3.107,1.1338 3.781,1.6557 0.673,0.5219 0.703,0.9377 -1.714,1.7648 -2.416,0.827 -7.2804,2.0666 -11.3675,1.9022 -4.0871,-0.1644 -7.3977,-1.7334 -8.6731,-2.9614 -1.2755,-1.228 -0.5146,-2.1145 -0.134,-2.5578 0.3805,-0.4433 0.3845,-0.4433 1.1027,-0.5885 z"
     id="path1970"
     inkscape:path-effect="#path-effect1972"
     inkscape:original-d="m 83.4799,50.3892 c 1.4367,-0.2893 2.8723,-0.5795 4.307,-0.8708 2.3703,0.079 4.7394,0.1579 7.1077,0.2353 2.2604,0.3855 4.5198,0.7699 6.7784,1.1533 1.319,0.6286 2.637,1.2562 3.954,1.8828 0.03,0.4168 0.06,0.8326 0.09,1.2474 -4.863,1.2405 -9.7271,2.48 -14.5921,3.7186 -3.3097,-1.5681 -6.6203,-3.1371 -9.9319,-4.7071 0.762,-0.8855 1.5229,-1.772 2.2829,-2.6595 z"
     clip-path="url(#clipPath4747)" />
</svg>
