<?xml version="1.0" encoding="UTF-8" standalone="no"?>
<!-- Created with Inkscape (http://www.inkscape.org/) -->

<svg
   width="173.653mm"
   height="173.653mm"
   viewBox="0 0 173.653 173.653"
   version="1.1"
   id="svg4081"
   inkscape:version="1.1 (c68e22c387, 2021-05-23)"
   sodipodi:docname="steak.svg"
   xmlns:inkscape="http://www.inkscape.org/namespaces/inkscape"
   xmlns:sodipodi="http://sodipodi.sourceforge.net/DTD/sodipodi-0.dtd"
   xmlns="http://www.w3.org/2000/svg"
   xmlns:svg="http://www.w3.org/2000/svg">
  <sodipodi:namedview
     id="namedview4083"
     pagecolor="#ffffff"
     bordercolor="#666666"
     borderopacity="1.0"
     inkscape:pageshadow="2"
     inkscape:pageopacity="0.0"
     inkscape:pagecheckerboard="0"
     inkscape:document-units="mm"
     showgrid="false"
     fit-margin-top="0"
     fit-margin-left="0"
     fit-margin-right="0"
     fit-margin-bottom="0"
     inkscape:zoom="0.866206"
     inkscape:cx="423.11"
     inkscape:cy="323.249"
     inkscape:window-width="1920"
     inkscape:window-height="1047"
     inkscape:window-x="-9"
     inkscape:window-y="-9"
     inkscape:window-maximized="1"
     inkscape:current-layer="layer1"
     lock-margins="true" />
  <defs
     id="defs4078" />
  <g
     inkscape:label="Layer 1"
     inkscape:groupmode="layer"
     id="layer1"
     transform="translate(-19.4385,-80.7789)">
    <g
       id="g905"
       transform="translate(0,39.4596)">
      <ellipse
         style="fill:#e6e6e6;stroke-width:1.71751;stroke-linecap:round;stroke-linejoin:round"
         id="ellipse4246"
         cx="106.265"
         cy="137.799"
         rx="78.108"
         ry="37.7138" />
      <ellipse
         style="fill:#ececec;stroke-width:2;stroke-linecap:round;stroke-linejoin:round"
         id="path4164"
         cx="106.265"
         cy="126.784"
         rx="86.8265"
         ry="46.0051" />
      <ellipse
         style="fill:#f9f9f9;stroke-width:1.69154;stroke-linecap:round;stroke-linejoin:round"
         id="ellipse4266"
         cx="106.265"
         cy="126.784"
         rx="73.4354"
         ry="38.9098" />
      <g
         id="g883"
         transform="matrix(3.25428,0,0,3.25428,-233.825,-251.995)"
         inkscape:label="Cooked Steak"
         style="display:inline">
        <path
           style="color:#000000;fill:#6e1700;fill-opacity:1;-inkscape-stroke:none"
           d="m 87.5938,112.307 v 5.357 c -1e-4,1.025 0.1742,2.121 1.0585,3.051 0.8844,0.93 2.3209,1.699 4.4864,2.238 4.331,1.078 11.5873,1.25 16.7113,0.481 5.123,-0.77 8.045,-2.509 9.652,-3.866 1.607,-1.357 1.983,-2.478 1.937,-3.359 -0.02,-0.44 0,-5.359 0,-5.359 0,0 -21.4964,6.431 -33.8452,1.457 z"
           id="path875"
           sodipodi:nodetypes="csssssscc" />
        <path
           style="color:#000000;fill:#8d371c;fill-opacity:1;-inkscape-stroke:none"
           d="m 92.3458,108.015 c 2.4596,-0.926 5.7928,-1.133 8.5602,-0.582 2.766,0.55 4.967,1.857 8.093,2.239 3.126,0.382 7.178,-0.162 9.372,-0.142 2.194,0.02 2.53,0.602 2.569,1.346 0.04,0.744 -0.22,1.65 -1.76,2.951 -1.541,1.301 -4.363,2.997 -9.405,3.754 -5.041,0.757 -12.303,0.576 -16.5165,-0.472 -4.2135,-1.049 -5.3785,-2.965 -5.1682,-4.745 0.2103,-1.78 1.7959,-3.424 4.2555,-4.349 z"
           id="path877" />
        <path
           style="color:#000000;fill:#801700;fill-opacity:1;-inkscape-stroke:none"
           d="m 96.4785,106.668 c -1.5281,0.101 -3.0206,0.394 -4.3086,0.879 -2.5759,0.969 -4.3357,2.724 -4.5761,4.76 -0.1203,1.017 0.1742,2.118 1.0585,3.048 0.8844,0.93 2.3209,1.7 4.4864,2.239 4.331,1.077 11.5873,1.252 16.7113,0.482 5.123,-0.769 8.045,-2.51 9.652,-3.867 1.607,-1.357 1.983,-2.479 1.937,-3.359 -0.02,-0.441 -0.193,-1 -0.699,-1.336 -0.506,-0.336 -1.224,-0.475 -2.365,-0.485 -2.282,-0.02 -6.297,0.515 -9.314,0.147 -3.018,-0.369 -5.191,-1.665 -8.057,-2.235 -1.433,-0.285 -2.9974,-0.374 -4.5255,-0.273 z m 0.065,1.006 c 1.4451,-0.1 2.9316,-0.02 4.2665,0.25 2.668,0.53 4.894,1.849 8.129,2.244 3.234,0.395 7.323,-0.158 9.429,-0.139 1.053,0 1.6,0.172 1.821,0.319 0.22,0.146 0.238,0.251 0.253,0.554 0.03,0.608 -0.11,1.299 -1.584,2.543 -1.474,1.245 -4.196,2.896 -9.157,3.641 -4.959,0.745 -12.2257,0.556 -16.3216,-0.463 -2.048,-0.51 -3.303,-1.222 -4.0019,-1.957 -0.699,-0.735 -0.8811,-1.48 -0.7911,-2.242 0.1802,-1.525 1.5924,-3.06 3.9356,-3.942 1.1716,-0.44 2.5764,-0.712 4.0215,-0.808 z"
           id="path879" />
        <path
           id="path881"
           style="opacity:1;fill:#fffff0;fill-opacity:1;stroke-width:0.352566;stroke-linecap:round;stroke-linejoin:round"
           d="m 99.7048,110.62 a 3.0068,1.05718 0 0 1 -3.0068,1.057 3.0068,1.05718 0 0 1 -3.0068,-1.057 3.0068,1.05718 0 0 1 3.0068,-1.057 3.0068,1.05718 0 0 1 3.0068,1.057 z" />
      </g>
    </g>
  </g>
</svg>
