<svg xmlns="http://www.w3.org/2000/svg" xmlns:xlink="http://www.w3.org/1999/xlink" width="342.977" height="266.863" viewBox="0 0 90.746 70.608"><defs><linearGradient id="b"><stop offset="0" stop-color="#e9ddc1"/><stop offset="1" stop-color="#e9ddb3"/></linearGradient><linearGradient id="a"><stop offset="0" stop-color="#decd87"/><stop offset="1" stop-color="#e9ddaf"/></linearGradient><linearGradient id="d" x1="764.139" x2="775.838" y1="287.07" y2="199.327" gradientUnits="userSpaceOnUse" xlink:href="#a"/><linearGradient id="g" x1="203.403" x2="204.19" y1="96.669" y2="84.677" gradientUnits="userSpaceOnUse" xlink:href="#a"/><linearGradient id="h" x1="202.271" x2="202.174" y1="81.713" y2="88.326" gradientUnits="userSpaceOnUse" xlink:href="#b"/><clipPath id="c" clipPathUnits="userSpaceOnUse"><path fill="none" stroke="#000" stroke-width=".265" d="M189.856 227.5H329.76v160H189.856Zm17.99 147.5H311.77V240H207.846Z" class="powerclip" display="block"/></clipPath></defs><g transform="translate(-157.277 -40.5)"><path fill="url(#d)" d="M765.922 198.426c-127.654-.001-147.293 90.708-108.015 90.708h216.029c39.278 0 19.639-90.709-108.014-90.708z" transform="scale(.26458)"/><path id="e" fill="#c8ab37" fill-opacity="1" stroke="#c8ab37" stroke-dasharray="none" stroke-linecap="round" stroke-linejoin="round" stroke-miterlimit="4" stroke-opacity="1" stroke-width=".265" d="M193.833 61.698c.02-.158.06-.313.117-.462.09-.159.224-.298.374-.405.104-.075.219-.135.336-.187.114-.05.232-.094.352-.13h.145a3.697 3.697 0 0 1-1.062 1.45l-.276.103v0c0-.123 0-.246.01-.369z"/><use id="f" width="100%" height="100%" x="0" y="0" transform="rotate(-5.816 178.245 169.889)" xlink:href="#e"/><use width="100%" height="100%" transform="rotate(26.905 208.817 65.23)" xlink:href="#e"/><use width="100%" height="100%" transform="rotate(13.688 223.745 88.807)" xlink:href="#e"/><use width="100%" height="100%" transform="rotate(8.603 217.948 124.151)" xlink:href="#e"/><use width="100%" height="100%" transform="rotate(3.529 190.515 298.847)" xlink:href="#e"/><use width="100%" height="100%" transform="rotate(-11.6 193.934 -36.711)" xlink:href="#e"/><use width="100%" height="100%" transform="rotate(-13.23 200.555 -42.944)" xlink:href="#e"/><use width="100%" height="100%" transform="rotate(24.652 206.726 120.902)" xlink:href="#e"/><use width="100%" height="100%" transform="rotate(10.49 188.693 219.727)" xlink:href="#e"/><use width="100%" height="100%" transform="rotate(-21.673 224.732 -12.395)" xlink:href="#e"/><use width="100%" height="100%" transform="rotate(8.927 154.224 245.217)" xlink:href="#e"/><use width="100%" height="100%" transform="rotate(27.127 185.929 118.517)" xlink:href="#e"/><use width="100%" height="100%" transform="rotate(18.74 185.324 132.091)" xlink:href="#e"/><use width="100%" height="100%" transform="rotate(2.491 2 442.211)" xlink:href="#e"/><use width="100%" height="100%" transform="rotate(30.048 190.991 85.519)" xlink:href="#e"/><use width="100%" height="100%" transform="rotate(-7.998 232.357 -9.245)" xlink:href="#e"/><use width="100%" height="100%" transform="rotate(-23.19 205.388 39.708)" xlink:href="#e"/><use width="100%" height="100%" transform="rotate(34.952 167.083 52.116)" xlink:href="#f"/><use width="100%" height="100%" transform="rotate(59.407 185.898 64.468)" xlink:href="#f"/><use width="100%" height="100%" transform="rotate(75.783 184.911 63.002)" xlink:href="#f"/><use width="100%" height="100%" transform="rotate(24.797 187.835 76.222)" xlink:href="#f"/><use width="100%" height="100%" transform="rotate(7.531 164 123.848)" xlink:href="#f"/><use width="100%" height="100%" transform="rotate(45.601 183.372 76.713)" xlink:href="#f"/><use width="100%" height="100%" transform="rotate(29.877 180.111 90.477)" xlink:href="#f"/><use width="100%" height="100%" transform="rotate(-50.006 198.114 49.028)" xlink:href="#f"/><use width="100%" height="100%" transform="rotate(-100.44 193.732 58.606)" xlink:href="#f"/><use width="100%" height="100%" transform="rotate(-104.66 188.877 61.07)" xlink:href="#f"/><use width="100%" height="100%" transform="rotate(79.062 180.661 64.003)" xlink:href="#f"/><use width="100%" height="100%" transform="rotate(-7.088 216.935 66.295)" xlink:href="#f"/><use width="100%" height="100%" transform="rotate(-100.51 183.346 59.52)" xlink:href="#f"/><use width="100%" height="100%" transform="rotate(4.243 197.566 218.626)" xlink:href="#f"/><use width="100%" height="100%" transform="rotate(-106.718 193.65 52.071)" xlink:href="#f"/><use width="100%" height="100%" transform="rotate(67.468 198.994 79.972)" xlink:href="#f"/><use width="100%" height="100%" transform="rotate(46.804 200.617 95.895)" xlink:href="#f"/><use width="100%" height="100%" transform="rotate(-44.76 203.968 20.125)" xlink:href="#f"/><use width="100%" height="100%" transform="rotate(38.133 194.112 115.929)" xlink:href="#f"/><use width="100%" height="100%" transform="rotate(-80.55 204.705 41.78)" xlink:href="#f"/><use width="100%" height="100%" transform="rotate(22.347 179.906 134.079)" xlink:href="#f"/><use width="100%" height="100%" transform="rotate(-7.097 256.92 -75.652)" xlink:href="#f"/><use width="100%" height="100%" transform="rotate(-32.276 203.87 47.103)" xlink:href="#f"/><use width="100%" height="100%" transform="rotate(18.78 159.719 62.572)" xlink:href="#f"/><use width="100%" height="100%" transform="rotate(-64.683 189.466 66.22)" xlink:href="#f"/><use width="100%" height="100%" transform="rotate(48.258 181.124 66.13)" xlink:href="#f"/><use width="100%" height="100%" transform="rotate(25.136 184.189 96.035)" xlink:href="#f"/><use width="100%" height="100%" transform="rotate(61.24 191.855 72.574)" xlink:href="#f"/><use width="100%" height="100%" transform="rotate(-77.594 193.119 47.87)" xlink:href="#f"/></g><path fill="url(#g)" d="M184.463 97.5c-12.762-1.468-18.186-12-12.99-13.5 0 0 10.315 4.319 31.854 3.805 21.54-.513 30.5-3.805 30.5-3.805 4.817 1.39.5 11.016-12.991 13.5-17.54 2.656-24.168 1.563-36.373 0z" transform="translate(-157.277 -40.5)"/><path fill="url(#h)" d="M202.271 81.713c-4.646-.01-9.293.122-13.926.473-5.666.4-11.331 1.004-16.932 1.914.08.209.504.18.682.3 6.323 1.984 12.946 2.816 19.538 3.265 4.559.287 9.131.227 13.695.142 8.277-.317 16.584-.929 24.697-2.67 1.261-.314 2.57-.525 3.779-1.001-.399-.215-.959-.179-1.411-.283-9.97-1.443-20.044-2.22-30.122-2.14z" transform="translate(-157.277 -40.5)"/></svg>