<svg xmlns="http://www.w3.org/2000/svg" xmlns:xlink="http://www.w3.org/1999/xlink" viewBox="0 0 153.904 189"><defs><linearGradient id="b"><stop offset="0" stop-color="#e9ddc1"/><stop offset="1" stop-color="#e9ddb3"/></linearGradient><linearGradient id="a"><stop offset="0" stop-color="#decd87"/><stop offset="1" stop-color="#e9ddaf"/></linearGradient><linearGradient id="d" x1="764.139" x2="775.838" y1="287.07" y2="199.327" gradientUnits="userSpaceOnUse" xlink:href="#a"/><linearGradient id="e" x1="203.403" x2="204.19" y1="96.669" y2="84.677" gradientUnits="userSpaceOnUse" xlink:href="#a"/><linearGradient id="f" x1="202.271" x2="202.174" y1="81.713" y2="88.326" gradientUnits="userSpaceOnUse" xlink:href="#b"/><clipPath id="c" clipPathUnits="userSpaceOnUse"><path fill="none" stroke="#000" stroke-width=".265" d="M189.856 227.5H329.76v160H189.856Zm17.99 147.5H311.77V240H207.846Z" class="powerclip" display="block"/></clipPath></defs><path fill="#b3b3b3" d="M12 12v150h129.904V12Z"/><path fill="#999" d="M24.99 19.5h103.923v135H24.99Z"/><path fill="#ccc" d="M37.98 57h77.943v105H37.981V57"/><path fill="gray" d="M12 162v15h129.904v-15Z"/><path fill="#e6e6e6" d="M24.99 19.5 37.98 57h77.943l12.99-37.5H24.99"/><path fill="#b3b3b3" d="M24.99 154.5h103.923l-2.598 7.5H27.588l-2.598-7.5"/><g transform="translate(-257.994 56.18)"><g id="g" stroke-linecap="round" stroke-linejoin="round"><path fill="url(#d)" stroke-width="1.89" d="M765.922 198.426c-127.654 0-147.293 90.708-108.015 90.708h216.029c39.278 0 19.639-90.709-108.014-90.708z" transform="matrix(.26458 0 0 .26458 131.679 -36.944)"/><path fill="#c8ab37" stroke="#c8ab37" stroke-width=".265" d="M325.512 24.754c.02-.158.06-.313.117-.462a1.36 1.36 0 0 1 .373-.406c.105-.074.22-.134.337-.186.114-.05.232-.094.352-.13l.145-.001a3.677 3.677 0 0 1-1.062 1.449l-.276.104h0a1.997 1.997 0 0 1 .014-.368zM314.468 23.732a1.99 1.99 0 0 1 .07-.472 1.36 1.36 0 0 1 .33-.441c.096-.085.204-.156.316-.22.109-.062.221-.117.337-.165l.144-.016a3.677 3.677 0 0 1-.91 1.55l-.263.13h0a2.012 2.012 0 0 1-.024-.366zM328.731 18.356c.09-.132.196-.252.314-.36a1.36 1.36 0 0 1 .517-.192c.127-.02.256-.02.384-.014.125.007.25.022.373.044l.13.064a3.677 3.677 0 0 1-1.603.812l-.293-.032h0c.05-.113.11-.22.178-.322zM332.776 18.446a2.01 2.01 0 0 1 .223-.421 1.36 1.36 0 0 1 .459-.306c.12-.048.245-.079.371-.102.123-.022.248-.036.373-.042l.14.032a3.677 3.677 0 0 1-1.374 1.157l-.292.036h0c.022-.121.056-.24.1-.354zM335.125 21.85a2.01 2.01 0 0 1 .184-.44 1.36 1.36 0 0 1 .43-.345c.115-.058.237-.1.361-.134.121-.033.244-.058.368-.076l.143.02a3.677 3.677 0 0 1-1.266 1.274l-.289.062h0c.012-.122.035-.243.069-.361zM340.1 25.408c.03-.156.08-.31.146-.454a1.36 1.36 0 0 1 .398-.382c.109-.068.227-.12.347-.165.118-.044.238-.08.36-.108l.144.007a3.677 3.677 0 0 1-1.149 1.381l-.281.087h0c0-.123.013-.245.036-.366zM345.301 22.765a2.031 2.031 0 0 1 .022-.477 1.36 1.36 0 0 1 .284-.472c.088-.094.188-.176.293-.25.102-.073.208-.139.318-.198l.142-.03a3.677 3.677 0 0 1-.749 1.632l-.25.157h0a2.006 2.006 0 0 1-.06-.362zM349.64 23.515a2.017 2.017 0 0 1 .008-.477 1.36 1.36 0 0 1 .27-.48c.085-.097.183-.181.286-.259.1-.075.204-.144.312-.206l.141-.035a3.676 3.676 0 0 1-.702 1.653l-.245.165h0a2.014 2.014 0 0 1-.07-.361zM351.38 24.773c.085-.135.186-.26.3-.372a1.36 1.36 0 0 1 .509-.212c.126-.025.255-.031.383-.03.125.002.25.012.374.03l.132.058a3.677 3.677 0 0 1-1.569.874l-.294-.02h0c.045-.114.1-.224.166-.328zM354.195 28.33c.049-.15.116-.297.2-.432a1.36 1.36 0 0 1 .44-.331c.117-.055.24-.093.366-.122.121-.029.245-.05.37-.064l.142.025a3.677 3.677 0 0 1-1.308 1.232l-.29.052h0c.016-.122.042-.242.08-.36zM355.06 30.927a2.01 2.01 0 0 1-.063-.472c.03-.183.098-.36.198-.515.069-.108.154-.206.244-.298.087-.089.18-.173.279-.25l.134-.055a3.691 3.691 0 0 1-.452 1.738l-.218.199h0a2.005 2.005 0 0 1-.123-.347zM353.51 33.124c.045-.153.108-.3.188-.438a1.36 1.36 0 0 1 .432-.343c.115-.058.237-.099.361-.132.121-.032.244-.057.368-.074l.143.021a3.678 3.678 0 0 1-1.273 1.267l-.289.06h0c.012-.122.036-.243.07-.36zM350.55 34.609a2.01 2.01 0 0 1 .314-.358 1.36 1.36 0 0 1 .518-.191c.127-.02.256-.02.384-.012.125.007.25.022.373.044l.13.065a3.678 3.678 0 0 1-1.606.806l-.293-.034h0c.05-.112.11-.22.18-.32zM347.677 31.22c.07-.143.157-.278.259-.4.141-.12.307-.21.484-.264.123-.037.25-.057.379-.068.124-.012.25-.015.375-.01l.137.045a3.677 3.677 0 0 1-1.47 1.03l-.295.01h0c.033-.118.077-.233.13-.343zM341.87 33.452c.027-.157.073-.31.137-.457a1.36 1.36 0 0 1 .39-.389c.108-.07.225-.124.345-.171.116-.046.236-.084.357-.115l.145.005a3.677 3.677 0 0 1-1.124 1.402l-.28.092h0a2.083 2.083 0 0 1 .03-.367zM337.057 29.379c.097-.127.21-.242.333-.342.162-.09.342-.146.527-.164.127-.012.257-.007.384.007.125.014.248.035.37.064l.126.071a3.677 3.677 0 0 1-1.645.723l-.29-.048h0c.055-.11.12-.214.195-.311zM335.758 29.425c-.002-.16.016-.32.052-.474.072-.17.179-.326.313-.454.093-.089.198-.164.308-.231.106-.066.216-.126.33-.178l.143-.022a3.677 3.677 0 0 1-.85 1.583l-.258.141h0a2.014 2.014 0 0 1-.038-.365zM335.105 27.528a2.008 2.008 0 0 1-.075-.471 1.36 1.36 0 0 1 .184-.52c.066-.11.148-.21.236-.304.085-.092.176-.178.272-.258l.133-.058a3.69 3.69 0 0 1-.406 1.75l-.212.204h0a1.998 1.998 0 0 1-.132-.343zM306.731 31.186c.095-.128.205-.245.328-.347.16-.092.34-.151.523-.172.128-.015.257-.01.385.001.125.012.248.031.37.058l.128.07a3.677 3.677 0 0 1-1.633.748l-.292-.044h0c.054-.11.118-.215.191-.314zM319.258 22.918c.14-.077.288-.138.442-.18a1.36 1.36 0 0 1 .548.06c.122.04.238.096.35.16.108.062.213.131.313.206l.087.116a3.677 3.677 0 0 1-1.796.005l-.247-.16h0c.094-.078.196-.148.303-.207zM318.324 23.43c.155-.035.315-.051.474-.048.182.035.356.107.509.212.106.072.201.16.29.252.087.09.168.186.243.286l.05.136a3.677 3.677 0 0 1-1.724-.501l-.192-.224h0c.112-.048.23-.086.35-.113zM321.453 23.049a2.01 2.01 0 0 1 .261-.4 1.36 1.36 0 0 1 .485-.261c.124-.037.251-.056.38-.067.124-.01.25-.013.374-.008l.138.045a3.677 3.677 0 0 1-1.475 1.025l-.295.009h0c.033-.118.078-.233.132-.343zM322.586 26.74c.025-.158.069-.312.13-.46.1-.155.232-.29.386-.393.107-.072.223-.128.342-.177.116-.047.235-.087.356-.119l.144.003a3.677 3.677 0 0 1-1.104 1.416l-.279.096h0a1.993 1.993 0 0 1 .025-.367zM326.102 28.132c.116-.108.246-.203.385-.28a1.36 1.36 0 0 1 .547-.073c.128.01.254.037.378.072.12.035.238.077.353.126l.112.091a3.678 3.678 0 0 1-1.743.434l-.278-.096h0a2.01 2.01 0 0 1 .246-.274zM328.957 29.027c.083-.136.182-.262.295-.375a1.36 1.36 0 0 1 .507-.218c.126-.025.255-.033.383-.033.125 0 .25.01.374.025l.133.058a3.678 3.678 0 0 1-1.56.89l-.294-.017h0c.044-.115.098-.226.162-.33zM328.867 31.31a2.009 2.009 0 0 1-.317-.356 1.362 1.362 0 0 1-.126-.537 1.89 1.89 0 0 1 .035-.383c.023-.123.053-.245.09-.364l.08-.12a3.677 3.677 0 0 1 .603 1.691l-.069.287h0a2.008 2.008 0 0 1-.296-.218z"/><path fill="#c8ab37" stroke="#c8ab37" stroke-width=".265" d="M329.429 32.049c-.158.024-.318.03-.477.017a1.36 1.36 0 0 1-.494-.245 1.874 1.874 0 0 1-.273-.271 3.027 3.027 0 0 1-.223-.302l-.042-.138a3.677 3.677 0 0 1 1.688.613l.177.236h0c-.116.04-.235.07-.356.09zM321.715 30.114a2.008 2.008 0 0 1-.473.052 1.36 1.36 0 0 1-.511-.208 1.873 1.873 0 0 1-.292-.25 3.017 3.017 0 0 1-.245-.284l-.052-.136a3.678 3.678 0 0 1 1.729.488l.193.222h0c-.112.05-.229.088-.349.116zM316.01 28.517c.157-.026.317-.033.476-.021.18.045.35.128.496.24.102.08.192.172.276.27.081.094.156.194.225.299l.044.138a3.677 3.677 0 0 1-1.694-.599l-.179-.234h0c.115-.042.235-.073.356-.093zM314.035 27.988a2.006 2.006 0 0 1 .011-.477 1.36 1.36 0 0 1 .274-.479c.085-.096.183-.18.286-.257.1-.075.206-.143.314-.205l.141-.034a3.678 3.678 0 0 1-.711 1.65l-.246.163h0a2.007 2.007 0 0 1-.069-.361zM316.262 22.912c-.157.025-.318.03-.476.018a1.36 1.36 0 0 1-.495-.245 1.873 1.873 0 0 1-.273-.27 3.03 3.03 0 0 1-.224-.302l-.042-.138a3.677 3.677 0 0 1 1.69.611l.176.236h0c-.115.04-.235.071-.356.09zM326.194 23.071c.016-.158.051-.315.104-.465a1.36 1.36 0 0 1 .362-.416c.103-.077.216-.14.332-.195.113-.054.23-.1.348-.14l.145-.005a3.677 3.677 0 0 1-1.022 1.477l-.273.112h0a1.955 1.955 0 0 1 .004-.368zM336.693 23.053a2.008 2.008 0 0 1-.471.07 1.36 1.36 0 0 1-.518-.19 1.874 1.874 0 0 1-.301-.24 3.025 3.025 0 0 1-.255-.275l-.057-.133a3.677 3.677 0 0 1 1.745.425l.202.215h0c-.11.053-.226.096-.345.128zM342.286 20.666c.149-.057.304-.096.462-.116.185.008.368.055.535.136.115.056.222.129.323.208.1.076.193.16.282.247l.07.127a3.678 3.678 0 0 1-1.78-.246l-.222-.194h0c.105-.064.215-.118.33-.162zM345.768 21.847c.12-.106.251-.198.392-.273a1.36 1.36 0 0 1 .548-.06c.128.011.253.041.376.08.12.036.237.08.351.132l.11.094a3.677 3.677 0 0 1-1.751.397l-.277-.102h0c.075-.097.16-.187.251-.268zM349.162 26.887a2.008 2.008 0 0 1-.283-.384 1.36 1.36 0 0 1-.076-.546c.01-.128.035-.255.07-.379.034-.12.075-.238.123-.354l.09-.113a3.679 3.679 0 0 1 .446 1.74l-.095.28h0a2.008 2.008 0 0 1-.275-.244zM351.002 28.532c.102-.123.218-.233.346-.328a1.36 1.36 0 0 1 .533-.143c.128-.008.257.003.384.022.124.019.246.045.367.079l.123.076a3.677 3.677 0 0 1-1.672.657l-.289-.06h0c.06-.107.13-.209.208-.303z"/><path fill="#c8ab37" stroke="#c8ab37" stroke-width=".265" d="M351.425 29.557c-.157-.03-.31-.08-.454-.146a1.36 1.36 0 0 1-.381-.399 1.872 1.872 0 0 1-.165-.348 3.018 3.018 0 0 1-.107-.359l.008-.145a3.677 3.677 0 0 1 1.378 1.152l.087.282h0a2.011 2.011 0 0 1-.366-.037zM342.16 30.34c.065-.145.147-.283.244-.409a1.36 1.36 0 0 1 .474-.282c.121-.042.248-.067.376-.083.124-.016.249-.024.374-.025l.139.04a3.677 3.677 0 0 1-1.43 1.087l-.294.021h0c.028-.12.068-.236.117-.348zM331.88 31.846a2.006 2.006 0 0 1 .01-.477c.057-.176.15-.34.273-.478.086-.097.184-.18.287-.257.1-.075.205-.144.314-.206l.14-.033a3.677 3.677 0 0 1-.71 1.65l-.246.162h0a2.007 2.007 0 0 1-.069-.361zM324.973 32.892a2.006 2.006 0 0 1-.193-.436 1.363 1.363 0 0 1 .044-.55c.036-.123.09-.241.15-.354.059-.11.124-.217.197-.32l.113-.09a3.677 3.677 0 0 1 .058 1.795l-.153.252h0a2.006 2.006 0 0 1-.216-.297zM313.85 31.26c.056-.15.129-.293.218-.425a1.36 1.36 0 0 1 .455-.311c.119-.05.244-.082.37-.106.123-.024.247-.04.372-.048l.141.031a3.677 3.677 0 0 1-1.36 1.174l-.291.04h0a2 2 0 0 1 .095-.356zM313.277 32.941a2.007 2.007 0 0 1-.397-.265 1.36 1.36 0 0 1-.257-.487 1.874 1.874 0 0 1-.064-.38 3.107 3.107 0 0 1-.005-.375l.047-.137a3.677 3.677 0 0 1 1.012 1.485l.006.294h0a2.007 2.007 0 0 1-.342-.135zM317.982 26.797c.121-.103.255-.19.398-.262a1.36 1.36 0 0 1 .55-.047c.127.015.252.048.373.09.119.04.235.087.348.141l.108.097a3.677 3.677 0 0 1-1.762.353l-.274-.11h0a2.01 2.01 0 0 1 .259-.262zM329.62 26.486c.072-.143.16-.276.264-.398a1.36 1.36 0 0 1 .486-.259c.124-.036.252-.054.38-.064.124-.01.25-.012.375-.007l.137.047a3.677 3.677 0 0 1-1.481 1.016l-.295.007h0c.034-.118.08-.233.134-.342zM329.602 21.958c.142-.073.293-.13.447-.166a1.36 1.36 0 0 1 .546.077c.121.044.235.104.345.171.106.066.209.138.306.216l.084.119a3.677 3.677 0 0 1-1.796-.052l-.242-.168h0c.097-.075.201-.141.31-.197zM335.084 23.765a2.008 2.008 0 0 1-.445-.169 1.36 1.36 0 0 1-.36-.417 1.87 1.87 0 0 1-.147-.356 3.02 3.02 0 0 1-.088-.365l.015-.144a3.678 3.678 0 0 1 1.317 1.221l.072.286h0a2.008 2.008 0 0 1-.364-.056z"/></g><g id="h" stroke-linecap="round" stroke-linejoin="round"><path fill="url(#e)" stroke-width=".5" d="M184.463 97.5c-12.762-1.468-18.186-12-12.99-13.5 0 0 10.315 4.319 31.854 3.805 21.54-.513 30.5-3.805 30.5-3.805 4.817 1.39.5 11.016-12.99 13.5-17.54 2.656-24.169 1.563-36.374 0z" transform="translate(131.679 -36.944)"/><path fill="url(#f)" stroke-width=".147" d="M202.271 81.713c-4.646-.009-9.293.122-13.926.473-5.666.4-11.331 1.004-16.932 1.914.085.209.504.18.682.3 6.323 1.984 12.946 2.816 19.538 3.265 4.559.287 9.131.227 13.695.142 8.277-.317 16.584-.929 24.697-2.67 1.26-.315 2.57-.526 3.779-1.001-.399-.215-.959-.179-1.41-.283-9.971-1.443-20.045-2.22-30.123-2.14z" transform="translate(131.679 -36.944)"/></g><use width="100%" height="100%" transform="rotate(50.381 341.678 22.084)" xlink:href="#g"/><use width="100%" height="100%" transform="rotate(13.937 536.143 44.094)" xlink:href="#h"/><use width="100%" height="100%" transform="rotate(-52.674 336.78 41.31)" xlink:href="#h"/><use width="100%" height="100%" transform="rotate(-96.484 330.74 52.962)" xlink:href="#h"/><use width="100%" height="100%" transform="rotate(-96.823 348.989 40.04)" xlink:href="#g"/><use width="100%" height="100%" transform="rotate(-4.821 237.728 216.142)" xlink:href="#h"/><use width="100%" height="100%" transform="rotate(88.292 314.299 28.122)" xlink:href="#g"/><use width="100%" height="100%" transform="rotate(92.365 331.138 20.666)" xlink:href="#g"/><use width="100%" height="100%" transform="rotate(91.113 343.12 17.9)" xlink:href="#g"/><use width="100%" height="100%" transform="rotate(-11.878 151.675 52.808)" xlink:href="#h"/><use width="100%" height="100%" transform="rotate(33.045 389.08 25.417)" xlink:href="#g"/><use width="100%" height="100%" transform="rotate(33.663 421.394 46.512)" xlink:href="#h"/><use width="100%" height="100%" transform="rotate(-26.398 269.392 -33.655)" xlink:href="#g"/><use width="100%" height="100%" transform="rotate(107.835 364.028 30.826)" xlink:href="#h"/><use width="100%" height="100%" transform="rotate(2.486 598.512 579.763)" xlink:href="#g"/><use width="100%" height="100%" transform="rotate(-28.865 370.637 -26.017)" xlink:href="#g"/><use width="100%" height="100%" transform="rotate(54.345 354.252 68.561)" xlink:href="#h"/><use width="100%" height="100%" transform="rotate(-58.69 378.175 16.14)" xlink:href="#g"/><use width="100%" height="100%" transform="rotate(-93.419 347.858 41.76)" xlink:href="#h"/><use width="100%" height="100%" transform="rotate(-67.18 355.786 35.136)" xlink:href="#g"/><use width="100%" height="100%" transform="rotate(17.275 340.83 151.956)" xlink:href="#h"/><use width="100%" height="100%" transform="rotate(26.002 251.06 81.36)" xlink:href="#g"/><use width="100%" height="100%" transform="rotate(-.39 760.844 414.961)" xlink:href="#h"/><use width="100%" height="100%" transform="rotate(25.804 226.297 15.531)" xlink:href="#g"/><use width="100%" height="100%" transform="rotate(-87.304 327.968 68.882)" xlink:href="#h"/><use width="100%" height="100%" transform="rotate(-36.755 343.037 85.81)" xlink:href="#g"/><use width="100%" height="100%" transform="rotate(93.265 331.64 39.534)" xlink:href="#h"/><use width="100%" height="100%" transform="rotate(62.227 329.42 8.425)" xlink:href="#g"/><use width="100%" height="100%" transform="rotate(-70.697 299.174 42.645)" xlink:href="#g"/><use width="100%" height="100%" transform="rotate(82.906 352.256 18.411)" xlink:href="#h"/><use width="100%" height="100%" transform="rotate(46.352 343.838 -21.237)" xlink:href="#g"/><use width="100%" height="100%" transform="rotate(59.461 372.027 .536)" xlink:href="#h"/><use width="100%" height="100%" transform="rotate(-19.177 233.486 5.866)" xlink:href="#g"/></g></svg>