<?xml version="1.0" encoding="UTF-8" standalone="no"?>
<!-- Created with Inkscape (http://www.inkscape.org/) -->

<svg
   width="45.874931mm"
   height="29.279802mm"
   viewBox="0 0 45.874931 29.279802"
   version="1.1"
   id="svg4094"
   inkscape:version="1.1 (c68e22c387, 2021-05-23)"
   sodipodi:docname="cooked-steak.svg"
   xmlns:inkscape="http://www.inkscape.org/namespaces/inkscape"
   xmlns:sodipodi="http://sodipodi.sourceforge.net/DTD/sodipodi-0.dtd"
   xmlns="http://www.w3.org/2000/svg"
   xmlns:svg="http://www.w3.org/2000/svg">
  <sodipodi:namedview
     id="namedview4096"
     pagecolor="#ffffff"
     bordercolor="#666666"
     borderopacity="1.0"
     inkscape:pageshadow="2"
     inkscape:pageopacity="0.0"
     inkscape:pagecheckerboard="0"
     inkscape:document-units="mm"
     showgrid="false"
     fit-margin-top="6"
     lock-margins="true"
     fit-margin-left="6"
     fit-margin-right="6"
     fit-margin-bottom="6"
     inkscape:zoom="0.62003367"
     inkscape:cx="39.513983"
     inkscape:cy="101.60739"
     inkscape:window-width="1920"
     inkscape:window-height="1047"
     inkscape:window-x="-9"
     inkscape:window-y="-9"
     inkscape:window-maximized="1"
     inkscape:current-layer="layer1" />
  <defs
     id="defs4091" />
  <g
     inkscape:label="Layer 1"
     inkscape:groupmode="layer"
     id="layer1"
     transform="translate(-94.838397,-121.4851)">
    <g
       id="g883"
       transform="translate(13.270272,20.857323)"
       inkscape:label="Cooked Steak"
       style="display:inline">
      <path
         style="color:#000000;fill:#6e1700;fill-opacity:1;-inkscape-stroke:none"
         d="m 87.5938,112.307 -5e-5,5.35701 c -1e-5,1.02467 0.174225,2.12079 1.058594,3.05079 0.884369,0.92999 2.320824,1.69947 4.486328,2.23828 4.330987,1.07761 11.587778,1.24995 16.710938,0.48047 5.12314,-0.7695 8.04566,-2.5084 9.65234,-3.86524 1.60671,-1.35686 1.9833,-2.47865 1.9375,-3.35937 -0.0229,-0.44043 -4.5e-4,-5.35894 -4.5e-4,-5.35894 0,0 -21.496383,6.431 -33.8452,1.457 z"
         id="path875"
         sodipodi:nodetypes="csssssscc" />
      <path
         style="color:#000000;fill:#8d371c;fill-opacity:1;-inkscape-stroke:none"
         d="m 92.345808,108.01493 c 2.45957,-0.92554 5.792764,-1.13265 8.559692,-0.58239 2.76694,0.55025 4.96744,1.85761 8.09353,2.23936 3.12608,0.38175 7.17761,-0.1619 9.37167,-0.14231 2.19407,0.0196 2.53062,0.60208 2.56933,1.34633 0.0387,0.74424 -0.22016,1.65033 -1.76052,2.95116 -1.54035,1.30082 -4.36219,2.99651 -9.40402,3.75379 -5.04184,0.75727 -12.303533,0.57605 -16.517002,-0.47232 -4.213469,-1.04836 -5.378447,-2.9641 -5.168182,-4.74413 0.210265,-1.78003 1.795932,-3.42395 4.255502,-4.34949 z"
         id="path877" />
      <path
         style="color:#000000;fill:#801700;fill-opacity:1;-inkscape-stroke:none"
         d="m 96.478516,106.66797 c -1.528111,0.10128 -3.020635,0.39424 -4.308594,0.87891 -2.575924,0.96932 -4.33576,2.72452 -4.576172,4.75976 -0.120204,1.0176 0.174225,2.11884 1.058594,3.04883 0.884369,0.92999 2.320824,1.69948 4.486328,2.23828 4.330987,1.07761 11.587778,1.25191 16.710938,0.48242 5.12314,-0.76949 8.04566,-2.51035 9.65234,-3.86719 1.60671,-1.35685 1.9833,-2.47864 1.9375,-3.35937 -0.0229,-0.44043 -0.19299,-0.99993 -0.69922,-1.33594 -0.50622,-0.33601 -1.22418,-0.47418 -2.36523,-0.48437 -2.28214,-0.0204 -6.29667,0.51501 -9.31445,0.14648 -3.01777,-0.36852 -5.19085,-1.66446 -8.05664,-2.23437 -1.432908,-0.28497 -2.997284,-0.37472 -4.525394,-0.27344 z m 0.06445,1.00586 c 1.445108,-0.0961 2.931604,-0.0153 4.265624,0.25 2.66808,0.53059 4.89451,1.84916 8.12891,2.24414 3.23437,0.39497 7.32371,-0.15748 9.42969,-0.13867 1.05302,0.009 1.60006,0.17217 1.82031,0.31836 0.22025,0.14619 0.2381,0.25086 0.25391,0.55468 0.0316,0.60776 -0.10998,1.29817 -1.58399,2.54297 -1.47401,1.2448 -4.19574,2.89556 -9.15625,3.64063 -4.96051,0.74505 -12.226324,0.55623 -16.322267,-0.46289 -2.047961,-0.50956 -3.303033,-1.22206 -4.001953,-1.95703 -0.698919,-0.73498 -0.881077,-1.47976 -0.791016,-2.24219 0.180119,-1.52482 1.592336,-3.05965 3.935547,-3.94141 1.171609,-0.44088 2.576376,-0.7125 4.021485,-0.80859 z"
         id="path879" />
      <path
         id="path881"
         style="opacity:1;fill:#fffff0;fill-opacity:1;stroke-width:0.352566;stroke-linecap:round;stroke-linejoin:round"
         d="m 99.704792,110.61986 a 3.0067952,1.057184 0 0 1 -3.006795,1.05718 3.0067952,1.057184 0 0 1 -3.006795,-1.05718 3.0067952,1.057184 0 0 1 3.006795,-1.05719 3.0067952,1.057184 0 0 1 3.006795,1.05719 z" />
    </g>
  </g>
</svg>
