<svg xmlns="http://www.w3.org/2000/svg" viewBox="0 0 45.875 29.28"><path fill="#6e1700" d="M87.594 112.307v5.357c0 1.025.174 2.121 1.058 3.051.885.93 2.321 1.699 4.487 2.238 4.33 1.078 11.587 1.25 16.711.481 5.123-.77 8.045-2.509 9.652-3.866 1.607-1.357 1.983-2.478 1.937-3.359-.02-.44 0-5.359 0-5.359s-21.496 6.431-33.845 1.457z" color="#000" style="-inkscape-stroke:none" transform="translate(-81.958 -101.058) scale(1.00373)"/><path fill="#8d371c" d="M92.346 108.015c2.46-.926 5.793-1.133 8.56-.582 2.766.55 4.967 1.857 8.093 2.239 3.126.382 7.178-.162 9.372-.142 2.194.02 2.53.602 2.569 1.346.04.744-.22 1.65-1.76 2.951-1.541 1.301-4.363 2.997-9.405 3.754-5.041.757-12.303.576-16.517-.472-4.213-1.049-5.378-2.965-5.168-4.745.21-1.78 1.796-3.424 4.256-4.349z" color="#000" style="-inkscape-stroke:none" transform="translate(-81.958 -101.058) scale(1.00373)"/><path fill="#801700" d="M96.478 106.668c-1.528.101-3.02.394-4.308.879-2.576.969-4.336 2.724-4.576 4.76-.12 1.017.174 2.118 1.058 3.048.885.93 2.321 1.7 4.487 2.239 4.33 1.077 11.587 1.252 16.711.482 5.123-.769 8.045-2.51 9.652-3.867 1.607-1.357 1.983-2.479 1.937-3.359-.02-.441-.193-1-.699-1.336-.506-.336-1.224-.475-2.365-.485-2.282-.02-6.297.515-9.314.147-3.018-.369-5.191-1.665-8.057-2.235a17.593 17.593 0 0 0-4.526-.273zm.066 1.006c1.445-.1 2.931-.02 4.266.25 2.668.53 4.894 1.849 8.129 2.244 3.234.395 7.323-.158 9.429-.139 1.053 0 1.6.172 1.821.319.22.146.238.251.253.554.03.608-.11 1.299-1.584 2.543-1.474 1.245-4.196 2.896-9.157 3.641-4.959.745-12.226.556-16.322-.463-2.048-.51-3.303-1.222-4.002-1.957-.699-.735-.88-1.48-.79-2.242.18-1.525 1.592-3.06 3.935-3.942 1.172-.44 2.576-.712 4.021-.808z" color="#000" style="-inkscape-stroke:none" transform="translate(-81.958 -101.058) scale(1.00373)"/><path fill="ivory" d="M18.12 9.975a3.018 1.061 0 0 1-3.019 1.06 3.018 1.061 0 0 1-3.018-1.06 3.018 1.061 0 0 1 3.018-1.061 3.018 1.061 0 0 1 3.018 1.06z"/></svg>