<svg xmlns="http://www.w3.org/2000/svg" viewBox="0 0 153.9 189"><path d="M194.86 232.5v150h129.9v-150z" style="fill:#b3b3b3;fill-opacity:1;stroke:none;stroke-width:.264583px;stroke-linecap:butt;stroke-linejoin:miter;stroke-opacity:1" transform="translate(-182.86 -220.5)"/><path d="M207.85 240h103.92v135H207.85Z" style="fill:#999;fill-opacity:1;stroke:none;stroke-width:.264583px;stroke-linecap:butt;stroke-linejoin:miter;stroke-opacity:1" transform="translate(-182.86 -220.5)"/><path d="M220.84 277.5h77.94v105h-77.94v-105" style="fill:#ccc;stroke:none;stroke-width:.264583px;stroke-linecap:butt;stroke-linejoin:miter;stroke-opacity:1" transform="translate(-182.86 -220.5)"/><path d="M194.86 382.5v15h129.9v-15z" style="fill:gray;fill-opacity:1;stroke:none;stroke-width:.264583px;stroke-linecap:butt;stroke-linejoin:miter;stroke-opacity:1" transform="translate(-182.86 -220.5)"/><path d="m207.85 240 12.99 37.5h77.94l12.99-37.5H207.85" style="fill:#e6e6e6;fill-opacity:1;stroke:none;stroke-width:.264583px;stroke-linecap:butt;stroke-linejoin:miter;stroke-opacity:1" transform="translate(-182.86 -220.5)"/><path d="M207.85 375h103.92l-2.6 7.5h-98.73l-2.6-7.5" style="fill:#b3b3b3;fill-opacity:1;stroke:none;stroke-width:.264583px;stroke-linecap:butt;stroke-linejoin:miter;stroke-opacity:1" transform="translate(-182.86 -220.5)"/><g style="display:inline"><path d="M87.6 112.3v5.36c0 1.03.17 2.13 1.05 3.06.89.93 2.32 1.7 4.49 2.23 4.33 1.08 11.59 1.25 16.71.48 5.12-.77 8.04-2.5 9.65-3.86 1.6-1.36 1.98-2.48 1.94-3.36-.02-.44 0-5.36 0-5.36s-21.5 6.43-33.85 1.46z" style="color:#000;fill:#750000;fill-opacity:1;-inkscape-stroke:none" transform="scale(-2.01793) rotate(79.69 135.16 -50.44)"/><path d="M92.35 108.02a16.7 16.7 0 0 1 8.56-.59c2.76.55 4.96 1.86 8.09 2.24 3.12.38 7.18-.16 9.37-.14 2.2.02 2.53.6 2.57 1.35.04.74-.22 1.65-1.76 2.95-1.54 1.3-4.36 3-9.4 3.75-5.05.76-12.3.58-16.52-.47-4.22-1.05-5.38-2.97-5.17-4.75.21-1.78 1.8-3.42 4.26-4.34z" style="color:#000;fill:#a00;-inkscape-stroke:none" transform="scale(-2.01793) rotate(79.69 135.16 -50.44)"/><path d="M96.48 106.67c-1.53.1-3.02.4-4.31.88-2.58.97-4.34 2.72-4.58 4.76a3.72 3.72 0 0 0 1.06 3.05c.89.93 2.32 1.7 4.49 2.23 4.33 1.08 11.59 1.26 16.71.49 5.12-.77 8.04-2.51 9.65-3.87 1.6-1.36 1.98-2.48 1.94-3.36-.02-.44-.2-1-.7-1.34-.5-.33-1.22-.47-2.37-.48-2.28-.02-6.3.51-9.3.15-3.03-.37-5.2-1.67-8.07-2.24-1.43-.28-3-.37-4.52-.27zm.06 1c1.45-.1 2.94-.02 4.27.25 2.67.53 4.9 1.85 8.13 2.25 3.23.4 7.32-.16 9.43-.14 1.05 0 1.6.17 1.82.32.22.14.24.25.25.55.03.61-.1 1.3-1.58 2.55-1.48 1.24-4.2 2.9-9.16 3.64-4.96.74-12.22.55-16.32-.47-2.05-.5-3.3-1.22-4-1.95a2.63 2.63 0 0 1-.8-2.25c.19-1.52 1.6-3.06 3.94-3.94a14.4 14.4 0 0 1 4.02-.8z" style="color:#000;fill:maroon;-inkscape-stroke:none" transform="scale(-2.01793) rotate(79.69 135.16 -50.44)"/><path d="M99.7 110.62a3 1.06 0 0 1-3 1.06 3 1.06 0 0 1-3-1.06 3 1.06 0 0 1 3-1.06 3 1.06 0 0 1 3 1.06z" style="opacity:1;fill:#fff;fill-opacity:1;stroke-width:.352566;stroke-linecap:round;stroke-linejoin:round" transform="scale(-2.01793) rotate(79.69 135.16 -50.44)"/></g><g style="display:inline"><path d="M87.6 112.3v5.36c0 1.03.17 2.13 1.05 3.06.89.93 2.32 1.7 4.49 2.23 4.33 1.08 11.59 1.25 16.71.48 5.12-.77 8.04-2.5 9.65-3.86 1.6-1.36 1.98-2.48 1.94-3.36-.02-.44 0-5.36 0-5.36s-21.5 6.43-33.85 1.46z" style="color:#000;fill:#750000;fill-opacity:1;-inkscape-stroke:none" transform="scale(2.01792) rotate(45.24 135.77 -11.98)"/><path d="M92.35 108.02a16.7 16.7 0 0 1 8.56-.59c2.76.55 4.96 1.86 8.09 2.24 3.12.38 7.18-.16 9.37-.14 2.2.02 2.53.6 2.57 1.35.04.74-.22 1.65-1.76 2.95-1.54 1.3-4.36 3-9.4 3.75-5.05.76-12.3.58-16.52-.47-4.22-1.05-5.38-2.97-5.17-4.75.21-1.78 1.8-3.42 4.26-4.34z" style="color:#000;fill:#a00;-inkscape-stroke:none" transform="scale(2.01792) rotate(45.24 135.77 -11.98)"/><path d="M96.48 106.67c-1.53.1-3.02.4-4.31.88-2.58.97-4.34 2.72-4.58 4.76a3.72 3.72 0 0 0 1.06 3.05c.89.93 2.32 1.7 4.49 2.23 4.33 1.08 11.59 1.26 16.71.49 5.12-.77 8.04-2.51 9.65-3.87 1.6-1.36 1.98-2.48 1.94-3.36-.02-.44-.2-1-.7-1.34-.5-.33-1.22-.47-2.37-.48-2.28-.02-6.3.51-9.3.15-3.03-.37-5.2-1.67-8.07-2.24-1.43-.28-3-.37-4.52-.27zm.06 1c1.45-.1 2.94-.02 4.27.25 2.67.53 4.9 1.85 8.13 2.25 3.23.4 7.32-.16 9.43-.14 1.05 0 1.6.17 1.82.32.22.14.24.25.25.55.03.61-.1 1.3-1.58 2.55-1.48 1.24-4.2 2.9-9.16 3.64-4.96.74-12.22.55-16.32-.47-2.05-.5-3.3-1.22-4-1.95a2.63 2.63 0 0 1-.8-2.25c.19-1.52 1.6-3.06 3.94-3.94a14.4 14.4 0 0 1 4.02-.8z" style="color:#000;fill:maroon;-inkscape-stroke:none" transform="scale(2.01792) rotate(45.24 135.77 -11.98)"/><path d="M99.7 110.62a3 1.06 0 0 1-3 1.06 3 1.06 0 0 1-3-1.06 3 1.06 0 0 1 3-1.06 3 1.06 0 0 1 3 1.06z" style="opacity:1;fill:#fff;fill-opacity:1;stroke-width:.352566;stroke-linecap:round;stroke-linejoin:round" transform="scale(2.01792) rotate(45.24 135.77 -11.98)"/></g><g style="display:inline"><path d="M87.6 112.3v5.36c0 1.03.17 2.13 1.05 3.06.89.93 2.32 1.7 4.49 2.23 4.33 1.08 11.59 1.25 16.71.48 5.12-.77 8.04-2.5 9.65-3.86 1.6-1.36 1.98-2.48 1.94-3.36-.02-.44 0-5.36 0-5.36s-21.5 6.43-33.85 1.46z" style="color:#000;fill:#750000;fill-opacity:1;-inkscape-stroke:none" transform="scale(2.01793) rotate(-43.92 14.65 152.03)"/><path d="M92.35 108.02a16.7 16.7 0 0 1 8.56-.59c2.76.55 4.96 1.86 8.09 2.24 3.12.38 7.18-.16 9.37-.14 2.2.02 2.53.6 2.57 1.35.04.74-.22 1.65-1.76 2.95-1.54 1.3-4.36 3-9.4 3.75-5.05.76-12.3.58-16.52-.47-4.22-1.05-5.38-2.97-5.17-4.75.21-1.78 1.8-3.42 4.26-4.34z" style="color:#000;fill:#a00;-inkscape-stroke:none" transform="scale(2.01793) rotate(-43.92 14.65 152.03)"/><path d="M96.48 106.67c-1.53.1-3.02.4-4.31.88-2.58.97-4.34 2.72-4.58 4.76a3.72 3.72 0 0 0 1.06 3.05c.89.93 2.32 1.7 4.49 2.23 4.33 1.08 11.59 1.26 16.71.49 5.12-.77 8.04-2.51 9.65-3.87 1.6-1.36 1.98-2.48 1.94-3.36-.02-.44-.2-1-.7-1.34-.5-.33-1.22-.47-2.37-.48-2.28-.02-6.3.51-9.3.15-3.03-.37-5.2-1.67-8.07-2.24-1.43-.28-3-.37-4.52-.27zm.06 1c1.45-.1 2.94-.02 4.27.25 2.67.53 4.9 1.85 8.13 2.25 3.23.4 7.32-.16 9.43-.14 1.05 0 1.6.17 1.82.32.22.14.24.25.25.55.03.61-.1 1.3-1.58 2.55-1.48 1.24-4.2 2.9-9.16 3.64-4.96.74-12.22.55-16.32-.47-2.05-.5-3.3-1.22-4-1.95a2.63 2.63 0 0 1-.8-2.25c.19-1.52 1.6-3.06 3.94-3.94a14.4 14.4 0 0 1 4.02-.8z" style="color:#000;fill:maroon;-inkscape-stroke:none" transform="scale(2.01793) rotate(-43.92 14.65 152.03)"/><path d="M99.7 110.62a3 1.06 0 0 1-3 1.06 3 1.06 0 0 1-3-1.06 3 1.06 0 0 1 3-1.06 3 1.06 0 0 1 3 1.06z" style="opacity:1;fill:#fff;fill-opacity:1;stroke-width:.352566;stroke-linecap:round;stroke-linejoin:round" transform="scale(2.01793) rotate(-43.92 14.65 152.03)"/></g><g style="display:inline"><path d="M87.6 112.3v5.36c0 1.03.17 2.13 1.05 3.06.89.93 2.32 1.7 4.49 2.23 4.33 1.08 11.59 1.25 16.71.48 5.12-.77 8.04-2.5 9.65-3.86 1.6-1.36 1.98-2.48 1.94-3.36-.02-.44 0-5.36 0-5.36s-21.5 6.43-33.85 1.46z" style="color:#000;fill:#750000;fill-opacity:1;-inkscape-stroke:none" transform="scale(-2.01792) rotate(-82.97 -67.37 107.68)"/><path d="M92.35 108.02a16.7 16.7 0 0 1 8.56-.59c2.76.55 4.96 1.86 8.09 2.24 3.12.38 7.18-.16 9.37-.14 2.2.02 2.53.6 2.57 1.35.04.74-.22 1.65-1.76 2.95-1.54 1.3-4.36 3-9.4 3.75-5.05.76-12.3.58-16.52-.47-4.22-1.05-5.38-2.97-5.17-4.75.21-1.78 1.8-3.42 4.26-4.34z" style="color:#000;fill:#a00;-inkscape-stroke:none" transform="scale(-2.01792) rotate(-82.97 -67.37 107.68)"/><path d="M96.48 106.67c-1.53.1-3.02.4-4.31.88-2.58.97-4.34 2.72-4.58 4.76a3.72 3.72 0 0 0 1.06 3.05c.89.93 2.32 1.7 4.49 2.23 4.33 1.08 11.59 1.26 16.71.49 5.12-.77 8.04-2.51 9.65-3.87 1.6-1.36 1.98-2.48 1.94-3.36-.02-.44-.2-1-.7-1.34-.5-.33-1.22-.47-2.37-.48-2.28-.02-6.3.51-9.3.15-3.03-.37-5.2-1.67-8.07-2.24-1.43-.28-3-.37-4.52-.27zm.06 1c1.45-.1 2.94-.02 4.27.25 2.67.53 4.9 1.85 8.13 2.25 3.23.4 7.32-.16 9.43-.14 1.05 0 1.6.17 1.82.32.22.14.24.25.25.55.03.61-.1 1.3-1.58 2.55-1.48 1.24-4.2 2.9-9.16 3.64-4.96.74-12.22.55-16.32-.47-2.05-.5-3.3-1.22-4-1.95a2.63 2.63 0 0 1-.8-2.25c.19-1.52 1.6-3.06 3.94-3.94a14.4 14.4 0 0 1 4.02-.8z" style="color:#000;fill:maroon;-inkscape-stroke:none" transform="scale(-2.01792) rotate(-82.97 -67.37 107.68)"/><path d="M99.7 110.62a3 1.06 0 0 1-3 1.06 3 1.06 0 0 1-3-1.06 3 1.06 0 0 1 3-1.06 3 1.06 0 0 1 3 1.06z" style="opacity:1;fill:#fff;fill-opacity:1;stroke-width:.352566;stroke-linecap:round;stroke-linejoin:round" transform="scale(-2.01792) rotate(-82.97 -67.37 107.68)"/></g><g style="display:inline"><path d="M87.6 112.3v5.36c0 1.03.17 2.13 1.05 3.06.89.93 2.32 1.7 4.49 2.23 4.33 1.08 11.59 1.25 16.71.48 5.12-.77 8.04-2.5 9.65-3.86 1.6-1.36 1.98-2.48 1.94-3.36-.02-.44 0-5.36 0-5.36s-21.5 6.43-33.85 1.46z" style="color:#000;fill:#750000;fill-opacity:1;-inkscape-stroke:none" transform="scale(2.01792) rotate(-89.62 34.41 110.9)"/><path d="M92.35 108.02a16.7 16.7 0 0 1 8.56-.59c2.76.55 4.96 1.86 8.09 2.24 3.12.38 7.18-.16 9.37-.14 2.2.02 2.53.6 2.57 1.35.04.74-.22 1.65-1.76 2.95-1.54 1.3-4.36 3-9.4 3.75-5.05.76-12.3.58-16.52-.47-4.22-1.05-5.38-2.97-5.17-4.75.21-1.78 1.8-3.42 4.26-4.34z" style="color:#000;fill:#a00;-inkscape-stroke:none" transform="scale(2.01792) rotate(-89.62 34.41 110.9)"/><path d="M96.48 106.67c-1.53.1-3.02.4-4.31.88-2.58.97-4.34 2.72-4.58 4.76a3.72 3.72 0 0 0 1.06 3.05c.89.93 2.32 1.7 4.49 2.23 4.33 1.08 11.59 1.26 16.71.49 5.12-.77 8.04-2.51 9.65-3.87 1.6-1.36 1.98-2.48 1.94-3.36-.02-.44-.2-1-.7-1.34-.5-.33-1.22-.47-2.37-.48-2.28-.02-6.3.51-9.3.15-3.03-.37-5.2-1.67-8.07-2.24-1.43-.28-3-.37-4.52-.27zm.06 1c1.45-.1 2.94-.02 4.27.25 2.67.53 4.9 1.85 8.13 2.25 3.23.4 7.32-.16 9.43-.14 1.05 0 1.6.17 1.82.32.22.14.24.25.25.55.03.61-.1 1.3-1.58 2.55-1.48 1.24-4.2 2.9-9.16 3.64-4.96.74-12.22.55-16.32-.47-2.05-.5-3.3-1.22-4-1.95a2.63 2.63 0 0 1-.8-2.25c.19-1.52 1.6-3.06 3.94-3.94a14.4 14.4 0 0 1 4.02-.8z" style="color:#000;fill:maroon;-inkscape-stroke:none" transform="scale(2.01792) rotate(-89.62 34.41 110.9)"/><path d="M99.7 110.62a3 1.06 0 0 1-3 1.06 3 1.06 0 0 1-3-1.06 3 1.06 0 0 1 3-1.06 3 1.06 0 0 1 3 1.06z" style="opacity:1;fill:#fff;fill-opacity:1;stroke-width:.352566;stroke-linecap:round;stroke-linejoin:round" transform="scale(2.01792) rotate(-89.62 34.41 110.9)"/></g><g style="display:inline"><path d="M87.6 112.3v5.36c0 1.03.17 2.13 1.05 3.06.89.93 2.32 1.7 4.49 2.23 4.33 1.08 11.59 1.25 16.71.48 5.12-.77 8.04-2.5 9.65-3.86 1.6-1.36 1.98-2.48 1.94-3.36-.02-.44 0-5.36 0-5.36s-21.5 6.43-33.85 1.46z" style="color:#000;fill:#750000;fill-opacity:1;-inkscape-stroke:none" transform="scale(2.01793) rotate(19.32 346.24 -101.38)"/><path d="M92.35 108.02a16.7 16.7 0 0 1 8.56-.59c2.76.55 4.96 1.86 8.09 2.24 3.12.38 7.18-.16 9.37-.14 2.2.02 2.53.6 2.57 1.35.04.74-.22 1.65-1.76 2.95-1.54 1.3-4.36 3-9.4 3.75-5.05.76-12.3.58-16.52-.47-4.22-1.05-5.38-2.97-5.17-4.75.21-1.78 1.8-3.42 4.26-4.34z" style="color:#000;fill:#a00;-inkscape-stroke:none" transform="scale(2.01793) rotate(19.32 346.24 -101.38)"/><path d="M96.48 106.67c-1.53.1-3.02.4-4.31.88-2.58.97-4.34 2.72-4.58 4.76a3.72 3.72 0 0 0 1.06 3.05c.89.93 2.32 1.7 4.49 2.23 4.33 1.08 11.59 1.26 16.71.49 5.12-.77 8.04-2.51 9.65-3.87 1.6-1.36 1.98-2.48 1.94-3.36-.02-.44-.2-1-.7-1.34-.5-.33-1.22-.47-2.37-.48-2.28-.02-6.3.51-9.3.15-3.03-.37-5.2-1.67-8.07-2.24-1.43-.28-3-.37-4.52-.27zm.06 1c1.45-.1 2.94-.02 4.27.25 2.67.53 4.9 1.85 8.13 2.25 3.23.4 7.32-.16 9.43-.14 1.05 0 1.6.17 1.82.32.22.14.24.25.25.55.03.61-.1 1.3-1.58 2.55-1.48 1.24-4.2 2.9-9.16 3.64-4.96.74-12.22.55-16.32-.47-2.05-.5-3.3-1.22-4-1.95a2.63 2.63 0 0 1-.8-2.25c.19-1.52 1.6-3.06 3.94-3.94a14.4 14.4 0 0 1 4.02-.8z" style="color:#000;fill:maroon;-inkscape-stroke:none" transform="scale(2.01793) rotate(19.32 346.24 -101.38)"/><path d="M99.7 110.62a3 1.06 0 0 1-3 1.06 3 1.06 0 0 1-3-1.06 3 1.06 0 0 1 3-1.06 3 1.06 0 0 1 3 1.06z" style="opacity:1;fill:#fff;fill-opacity:1;stroke-width:.352566;stroke-linecap:round;stroke-linejoin:round" transform="scale(2.01793) rotate(19.32 346.24 -101.38)"/></g><g style="display:inline"><path d="M87.6 112.3v5.36c0 1.03.17 2.13 1.05 3.06.89.93 2.32 1.7 4.49 2.23 4.33 1.08 11.59 1.25 16.71.48 5.12-.77 8.04-2.5 9.65-3.86 1.6-1.36 1.98-2.48 1.94-3.36-.02-.44 0-5.36 0-5.36s-21.5 6.43-33.85 1.46z" style="color:#000;fill:#750000;fill-opacity:1;-inkscape-stroke:none" transform="scale(2.01793) rotate(-32.27 -84.36 210.35)"/><path d="M92.35 108.02a16.7 16.7 0 0 1 8.56-.59c2.76.55 4.96 1.86 8.09 2.24 3.12.38 7.18-.16 9.37-.14 2.2.02 2.53.6 2.57 1.35.04.74-.22 1.65-1.76 2.95-1.54 1.3-4.36 3-9.4 3.75-5.05.76-12.3.58-16.52-.47-4.22-1.05-5.38-2.97-5.17-4.75.21-1.78 1.8-3.42 4.26-4.34z" style="color:#000;fill:#a00;-inkscape-stroke:none" transform="scale(2.01793) rotate(-32.27 -84.36 210.35)"/><path d="M96.48 106.67c-1.53.1-3.02.4-4.31.88-2.58.97-4.34 2.72-4.58 4.76a3.72 3.72 0 0 0 1.06 3.05c.89.93 2.32 1.7 4.49 2.23 4.33 1.08 11.59 1.26 16.71.49 5.12-.77 8.04-2.51 9.65-3.87 1.6-1.36 1.98-2.48 1.94-3.36-.02-.44-.2-1-.7-1.34-.5-.33-1.22-.47-2.37-.48-2.28-.02-6.3.51-9.3.15-3.03-.37-5.2-1.67-8.07-2.24-1.43-.28-3-.37-4.52-.27zm.06 1c1.45-.1 2.94-.02 4.27.25 2.67.53 4.9 1.85 8.13 2.25 3.23.4 7.32-.16 9.43-.14 1.05 0 1.6.17 1.82.32.22.14.24.25.25.55.03.61-.1 1.3-1.58 2.55-1.48 1.24-4.2 2.9-9.16 3.64-4.96.74-12.22.55-16.32-.47-2.05-.5-3.3-1.22-4-1.95a2.63 2.63 0 0 1-.8-2.25c.19-1.52 1.6-3.06 3.94-3.94a14.4 14.4 0 0 1 4.02-.8z" style="color:#000;fill:maroon;-inkscape-stroke:none" transform="scale(2.01793) rotate(-32.27 -84.36 210.35)"/><path d="M99.7 110.62a3 1.06 0 0 1-3 1.06 3 1.06 0 0 1-3-1.06 3 1.06 0 0 1 3-1.06 3 1.06 0 0 1 3 1.06z" style="opacity:1;fill:#fff;fill-opacity:1;stroke-width:.352566;stroke-linecap:round;stroke-linejoin:round" transform="scale(2.01793) rotate(-32.27 -84.36 210.35)"/></g><g style="display:inline"><path d="M87.6 112.3v5.36c0 1.03.17 2.13 1.05 3.06.89.93 2.32 1.7 4.49 2.23 4.33 1.08 11.59 1.25 16.71.48 5.12-.77 8.04-2.5 9.65-3.86 1.6-1.36 1.98-2.48 1.94-3.36-.02-.44 0-5.36 0-5.36s-21.5 6.43-33.85 1.46z" style="color:#000;fill:#750000;fill-opacity:1;-inkscape-stroke:none" transform="rotate(-14.72 -488.17 725.24) scale(2.01792)"/><path d="M92.35 108.02a16.7 16.7 0 0 1 8.56-.59c2.76.55 4.96 1.86 8.09 2.24 3.12.38 7.18-.16 9.37-.14 2.2.02 2.53.6 2.57 1.35.04.74-.22 1.65-1.76 2.95-1.54 1.3-4.36 3-9.4 3.75-5.05.76-12.3.58-16.52-.47-4.22-1.05-5.38-2.97-5.17-4.75.21-1.78 1.8-3.42 4.26-4.34z" style="color:#000;fill:#a00;-inkscape-stroke:none" transform="rotate(-14.72 -488.17 725.24) scale(2.01792)"/><path d="M96.48 106.67c-1.53.1-3.02.4-4.31.88-2.58.97-4.34 2.72-4.58 4.76a3.72 3.72 0 0 0 1.06 3.05c.89.93 2.32 1.7 4.49 2.23 4.33 1.08 11.59 1.26 16.71.49 5.12-.77 8.04-2.51 9.65-3.87 1.6-1.36 1.98-2.48 1.94-3.36-.02-.44-.2-1-.7-1.34-.5-.33-1.22-.47-2.37-.48-2.28-.02-6.3.51-9.3.15-3.03-.37-5.2-1.67-8.07-2.24-1.43-.28-3-.37-4.52-.27zm.06 1c1.45-.1 2.94-.02 4.27.25 2.67.53 4.9 1.85 8.13 2.25 3.23.4 7.32-.16 9.43-.14 1.05 0 1.6.17 1.82.32.22.14.24.25.25.55.03.61-.1 1.3-1.58 2.55-1.48 1.24-4.2 2.9-9.16 3.64-4.96.74-12.22.55-16.32-.47-2.05-.5-3.3-1.22-4-1.95a2.63 2.63 0 0 1-.8-2.25c.19-1.52 1.6-3.06 3.94-3.94a14.4 14.4 0 0 1 4.02-.8z" style="color:#000;fill:maroon;-inkscape-stroke:none" transform="rotate(-14.72 -488.17 725.24) scale(2.01792)"/><path d="M99.7 110.62a3 1.06 0 0 1-3 1.06 3 1.06 0 0 1-3-1.06 3 1.06 0 0 1 3-1.06 3 1.06 0 0 1 3 1.06z" style="opacity:1;fill:#fff;fill-opacity:1;stroke-width:.352566;stroke-linecap:round;stroke-linejoin:round" transform="rotate(-14.72 -488.17 725.24) scale(2.01792)"/></g><g style="display:inline"><path d="M87.6 112.3v5.36c0 1.03.17 2.13 1.05 3.06.89.93 2.32 1.7 4.49 2.23 4.33 1.08 11.59 1.25 16.71.48 5.12-.77 8.04-2.5 9.65-3.86 1.6-1.36 1.98-2.48 1.94-3.36-.02-.44 0-5.36 0-5.36s-21.5 6.43-33.85 1.46z" style="color:#000;fill:#750000;fill-opacity:1;-inkscape-stroke:none" transform="rotate(-102.72 71.33 201.97) scale(2.01793)"/><path d="M92.35 108.02a16.7 16.7 0 0 1 8.56-.59c2.76.55 4.96 1.86 8.09 2.24 3.12.38 7.18-.16 9.37-.14 2.2.02 2.53.6 2.57 1.35.04.74-.22 1.65-1.76 2.95-1.54 1.3-4.36 3-9.4 3.75-5.05.76-12.3.58-16.52-.47-4.22-1.05-5.38-2.97-5.17-4.75.21-1.78 1.8-3.42 4.26-4.34z" style="color:#000;fill:#a00;-inkscape-stroke:none" transform="rotate(-102.72 71.33 201.97) scale(2.01793)"/><path d="M96.48 106.67c-1.53.1-3.02.4-4.31.88-2.58.97-4.34 2.72-4.58 4.76a3.72 3.72 0 0 0 1.06 3.05c.89.93 2.32 1.7 4.49 2.23 4.33 1.08 11.59 1.26 16.71.49 5.12-.77 8.04-2.51 9.65-3.87 1.6-1.36 1.98-2.48 1.94-3.36-.02-.44-.2-1-.7-1.34-.5-.33-1.22-.47-2.37-.48-2.28-.02-6.3.51-9.3.15-3.03-.37-5.2-1.67-8.07-2.24-1.43-.28-3-.37-4.52-.27zm.06 1c1.45-.1 2.94-.02 4.27.25 2.67.53 4.9 1.85 8.13 2.25 3.23.4 7.32-.16 9.43-.14 1.05 0 1.6.17 1.82.32.22.14.24.25.25.55.03.61-.1 1.3-1.58 2.55-1.48 1.24-4.2 2.9-9.16 3.64-4.96.74-12.22.55-16.32-.47-2.05-.5-3.3-1.22-4-1.95a2.63 2.63 0 0 1-.8-2.25c.19-1.52 1.6-3.06 3.94-3.94a14.4 14.4 0 0 1 4.02-.8z" style="color:#000;fill:maroon;-inkscape-stroke:none" transform="rotate(-102.72 71.33 201.97) scale(2.01793)"/><path d="M99.7 110.62a3 1.06 0 0 1-3 1.06 3 1.06 0 0 1-3-1.06 3 1.06 0 0 1 3-1.06 3 1.06 0 0 1 3 1.06z" style="opacity:1;fill:#fff;fill-opacity:1;stroke-width:.352566;stroke-linecap:round;stroke-linejoin:round" transform="rotate(-102.72 71.33 201.97) scale(2.01793)"/></g><g style="display:inline"><path d="M87.6 112.3v5.36c0 1.03.17 2.13 1.05 3.06.89.93 2.32 1.7 4.49 2.23 4.33 1.08 11.59 1.25 16.71.48 5.12-.77 8.04-2.5 9.65-3.86 1.6-1.36 1.98-2.48 1.94-3.36-.02-.44 0-5.36 0-5.36s-21.5 6.43-33.85 1.46z" style="color:#000;fill:#750000;fill-opacity:1;-inkscape-stroke:none" transform="scale(-2.01792) rotate(-75.55 -74.77 111.1)"/><path d="M92.35 108.02a16.7 16.7 0 0 1 8.56-.59c2.76.55 4.96 1.86 8.09 2.24 3.12.38 7.18-.16 9.37-.14 2.2.02 2.53.6 2.57 1.35.04.74-.22 1.65-1.76 2.95-1.54 1.3-4.36 3-9.4 3.75-5.05.76-12.3.58-16.52-.47-4.22-1.05-5.38-2.97-5.17-4.75.21-1.78 1.8-3.42 4.26-4.34z" style="color:#000;fill:#a00;-inkscape-stroke:none" transform="scale(-2.01792) rotate(-75.55 -74.77 111.1)"/><path d="M96.48 106.67c-1.53.1-3.02.4-4.31.88-2.58.97-4.34 2.72-4.58 4.76a3.72 3.72 0 0 0 1.06 3.05c.89.93 2.32 1.7 4.49 2.23 4.33 1.08 11.59 1.26 16.71.49 5.12-.77 8.04-2.51 9.65-3.87 1.6-1.36 1.98-2.48 1.94-3.36-.02-.44-.2-1-.7-1.34-.5-.33-1.22-.47-2.37-.48-2.28-.02-6.3.51-9.3.15-3.03-.37-5.2-1.67-8.07-2.24-1.43-.28-3-.37-4.52-.27zm.06 1c1.45-.1 2.94-.02 4.27.25 2.67.53 4.9 1.85 8.13 2.25 3.23.4 7.32-.16 9.43-.14 1.05 0 1.6.17 1.82.32.22.14.24.25.25.55.03.61-.1 1.3-1.58 2.55-1.48 1.24-4.2 2.9-9.16 3.64-4.96.74-12.22.55-16.32-.47-2.05-.5-3.3-1.22-4-1.95a2.63 2.63 0 0 1-.8-2.25c.19-1.52 1.6-3.06 3.94-3.94a14.4 14.4 0 0 1 4.02-.8z" style="color:#000;fill:maroon;-inkscape-stroke:none" transform="scale(-2.01792) rotate(-75.55 -74.77 111.1)"/><path d="M99.7 110.62a3 1.06 0 0 1-3 1.06 3 1.06 0 0 1-3-1.06 3 1.06 0 0 1 3-1.06 3 1.06 0 0 1 3 1.06z" style="opacity:1;fill:#fff;fill-opacity:1;stroke-width:.352566;stroke-linecap:round;stroke-linejoin:round" transform="scale(-2.01792) rotate(-75.55 -74.77 111.1)"/></g><g style="display:inline"><path d="M87.6 112.3v5.36c0 1.03.17 2.13 1.05 3.06.89.93 2.32 1.7 4.49 2.23 4.33 1.08 11.59 1.25 16.71.48 5.12-.77 8.04-2.5 9.65-3.86 1.6-1.36 1.98-2.48 1.94-3.36-.02-.44 0-5.36 0-5.36s-21.5 6.43-33.85 1.46z" style="color:#000;fill:#750000;fill-opacity:1;-inkscape-stroke:none" transform="scale(2.01792) rotate(73.44 124.44 46.79)"/><path d="M92.35 108.02a16.7 16.7 0 0 1 8.56-.59c2.76.55 4.96 1.86 8.09 2.24 3.12.38 7.18-.16 9.37-.14 2.2.02 2.53.6 2.57 1.35.04.74-.22 1.65-1.76 2.95-1.54 1.3-4.36 3-9.4 3.75-5.05.76-12.3.58-16.52-.47-4.22-1.05-5.38-2.97-5.17-4.75.21-1.78 1.8-3.42 4.26-4.34z" style="color:#000;fill:#a00;-inkscape-stroke:none" transform="scale(2.01792) rotate(73.44 124.44 46.79)"/><path d="M96.48 106.67c-1.53.1-3.02.4-4.31.88-2.58.97-4.34 2.72-4.58 4.76a3.72 3.72 0 0 0 1.06 3.05c.89.93 2.32 1.7 4.49 2.23 4.33 1.08 11.59 1.26 16.71.49 5.12-.77 8.04-2.51 9.65-3.87 1.6-1.36 1.98-2.48 1.94-3.36-.02-.44-.2-1-.7-1.34-.5-.33-1.22-.47-2.37-.48-2.28-.02-6.3.51-9.3.15-3.03-.37-5.2-1.67-8.07-2.24-1.43-.28-3-.37-4.52-.27zm.06 1c1.45-.1 2.94-.02 4.27.25 2.67.53 4.9 1.85 8.13 2.25 3.23.4 7.32-.16 9.43-.14 1.05 0 1.6.17 1.82.32.22.14.24.25.25.55.03.61-.1 1.3-1.58 2.55-1.48 1.24-4.2 2.9-9.16 3.64-4.96.74-12.22.55-16.32-.47-2.05-.5-3.3-1.22-4-1.95a2.63 2.63 0 0 1-.8-2.25c.19-1.52 1.6-3.06 3.94-3.94a14.4 14.4 0 0 1 4.02-.8z" style="color:#000;fill:maroon;-inkscape-stroke:none" transform="scale(2.01792) rotate(73.44 124.44 46.79)"/><path d="M99.7 110.62a3 1.06 0 0 1-3 1.06 3 1.06 0 0 1-3-1.06 3 1.06 0 0 1 3-1.06 3 1.06 0 0 1 3 1.06z" style="opacity:1;fill:#fff;fill-opacity:1;stroke-width:.352566;stroke-linecap:round;stroke-linejoin:round" transform="scale(2.01792) rotate(73.44 124.44 46.79)"/></g></svg>