<?xml version="1.0" encoding="UTF-8" standalone="no"?>
<!-- Created with Inkscape (http://www.inkscape.org/) -->

<svg
   width="153.90382mm"
   height="188.99998mm"
   viewBox="0 0 153.90382 188.99998"
   version="1.1"
   id="svg7701"
   inkscape:version="1.1 (c68e22c387, 2021-05-23)"
   sodipodi:docname="raw-steak-storage.svg"
   xmlns:inkscape="http://www.inkscape.org/namespaces/inkscape"
   xmlns:sodipodi="http://sodipodi.sourceforge.net/DTD/sodipodi-0.dtd"
   xmlns="http://www.w3.org/2000/svg"
   xmlns:svg="http://www.w3.org/2000/svg">
  <sodipodi:namedview
     id="namedview7703"
     pagecolor="#ffffff"
     bordercolor="#666666"
     borderopacity="1.0"
     inkscape:pageshadow="2"
     inkscape:pageopacity="0.0"
     inkscape:pagecheckerboard="0"
     inkscape:document-units="mm"
     showgrid="false"
     fit-margin-top="12"
     fit-margin-left="12"
     fit-margin-right="12"
     fit-margin-bottom="12"
     inkscape:zoom="0.62003367"
     inkscape:cx="278.2107"
     inkscape:cy="459.65246"
     inkscape:window-width="1920"
     inkscape:window-height="1047"
     inkscape:window-x="-9"
     inkscape:window-y="-9"
     inkscape:window-maximized="1"
     inkscape:current-layer="layer1" />
  <defs
     id="defs7698" />
  <g
     inkscape:label="Layer 1"
     inkscape:groupmode="layer"
     id="layer1"
     transform="translate(-189.32395,12.56896)">
    <g
       id="g7088"
       inkscape:label="Raw Steak Storage"
       transform="translate(396.17968,-8.06896)"
       sodipodi:insensitive="true">
      <g
         id="g7074"
         transform="translate(-389.71144,-225)"
         inkscape:label="Food Storage">
        <path
           style="fill:#b3b3b3;fill-opacity:1;stroke:none;stroke-width:0.264583px;stroke-linecap:butt;stroke-linejoin:miter;stroke-opacity:1"
           d="M 194.85572,232.5 V 382.49999 H 324.75953 V 232.5 Z"
           id="path7062" />
        <path
           style="fill:#999999;fill-opacity:1;stroke:none;stroke-width:0.264583px;stroke-linecap:butt;stroke-linejoin:miter;stroke-opacity:1"
           d="M 207.84609,240 H 311.76915 V 374.99999 H 207.84609 Z"
           id="path7064" />
        <path
           style="fill:#cccccc;stroke:none;stroke-width:0.264583px;stroke-linecap:butt;stroke-linejoin:miter;stroke-opacity:1"
           d="m 220.83647,277.5 v 0 h 77.9423 v 105 h -77.9423 v -105"
           id="path7066" />
        <path
           style="fill:#808080;fill-opacity:1;stroke:none;stroke-width:0.264583px;stroke-linecap:butt;stroke-linejoin:miter;stroke-opacity:1"
           d="m 194.85571,382.5 v 14.99999 H 324.75953 V 382.5 Z"
           id="path7068" />
        <path
           style="fill:#e6e6e6;fill-opacity:1;stroke:none;stroke-width:0.264583px;stroke-linecap:butt;stroke-linejoin:miter;stroke-opacity:1"
           d="m 207.84609,240 12.99038,37.5 h 77.9423 L 311.76915,240 H 207.84609"
           id="path7070" />
        <path
           style="fill:#b3b3b3;fill-opacity:1;stroke:none;stroke-width:0.264583px;stroke-linecap:butt;stroke-linejoin:miter;stroke-opacity:1"
           d="M 207.84609,374.99999 H 311.76915 L 309.17107,382.5 h -98.7269 l -2.59808,-7.50001"
           id="path7072" />
      </g>
      <g
         id="use17822"
         transform="matrix(-0.36106957,-1.9853582,1.9853582,-0.36106957,-330.66351,347.40803)"
         inkscape:label="Steak"
         style="display:inline">
        <path
           style="color:#000000;fill:#750000;fill-opacity:1;-inkscape-stroke:none"
           d="m 87.5938,112.307 -5e-5,5.35701 c -1e-5,1.02467 0.174225,2.12079 1.058594,3.05079 0.884369,0.92999 2.320824,1.69947 4.486328,2.23828 4.330987,1.07761 11.587778,1.24995 16.710938,0.48047 5.12314,-0.7695 8.04566,-2.5084 9.65234,-3.86524 1.60671,-1.35686 1.9833,-2.47865 1.9375,-3.35937 -0.0229,-0.44043 -4.5e-4,-5.35894 -4.5e-4,-5.35894 0,0 -21.496383,6.431 -33.8452,1.457 z"
           id="path27227"
           sodipodi:nodetypes="csssssscc" />
        <path
           style="color:#000000;fill:#aa0000;-inkscape-stroke:none"
           d="m 92.345808,108.01493 c 2.45957,-0.92554 5.792764,-1.13265 8.559692,-0.58239 2.76694,0.55025 4.96744,1.85761 8.09353,2.23936 3.12608,0.38175 7.17761,-0.1619 9.37167,-0.14231 2.19407,0.0196 2.53062,0.60208 2.56933,1.34633 0.0387,0.74424 -0.22016,1.65033 -1.76052,2.95116 -1.54035,1.30082 -4.36219,2.99651 -9.40402,3.75379 -5.04184,0.75727 -12.303533,0.57605 -16.517002,-0.47232 -4.213469,-1.04836 -5.378447,-2.9641 -5.168182,-4.74413 0.210265,-1.78003 1.795932,-3.42395 4.255502,-4.34949 z"
           id="path27229" />
        <path
           style="color:#000000;fill:#800000;-inkscape-stroke:none"
           d="m 96.478516,106.66797 c -1.528111,0.10128 -3.020635,0.39424 -4.308594,0.87891 -2.575924,0.96932 -4.33576,2.72452 -4.576172,4.75976 -0.120204,1.0176 0.174225,2.11884 1.058594,3.04883 0.884369,0.92999 2.320824,1.69948 4.486328,2.23828 4.330987,1.07761 11.587778,1.25191 16.710938,0.48242 5.12314,-0.76949 8.04566,-2.51035 9.65234,-3.86719 1.60671,-1.35685 1.9833,-2.47864 1.9375,-3.35937 -0.0229,-0.44043 -0.19299,-0.99993 -0.69922,-1.33594 -0.50622,-0.33601 -1.22418,-0.47418 -2.36523,-0.48437 -2.28214,-0.0204 -6.29667,0.51501 -9.31445,0.14648 -3.01777,-0.36852 -5.19085,-1.66446 -8.05664,-2.23437 -1.432908,-0.28497 -2.997284,-0.37472 -4.525394,-0.27344 z m 0.06445,1.00586 c 1.445108,-0.0961 2.931604,-0.0153 4.265624,0.25 2.66808,0.53059 4.89451,1.84916 8.12891,2.24414 3.23437,0.39497 7.32371,-0.15748 9.42969,-0.13867 1.05302,0.009 1.60006,0.17217 1.82031,0.31836 0.22025,0.14619 0.2381,0.25086 0.25391,0.55468 0.0316,0.60776 -0.10998,1.29817 -1.58399,2.54297 -1.47401,1.2448 -4.19574,2.89556 -9.15625,3.64063 -4.96051,0.74505 -12.226324,0.55623 -16.322267,-0.46289 -2.047961,-0.50956 -3.303033,-1.22206 -4.001953,-1.95703 -0.698919,-0.73498 -0.881077,-1.47976 -0.791016,-2.24219 0.180119,-1.52482 1.592336,-3.05965 3.935547,-3.94141 1.171609,-0.44088 2.576376,-0.7125 4.021485,-0.80859 z"
           id="path27231" />
        <path
           id="path27233"
           style="opacity:1;fill:#ffffff;fill-opacity:1;stroke-width:0.352566;stroke-linecap:round;stroke-linejoin:round"
           d="m 99.704792,110.61986 a 3.0067952,1.057184 0 0 1 -3.006795,1.05718 3.0067952,1.057184 0 0 1 -3.006795,-1.05718 3.0067952,1.057184 0 0 1 3.006795,-1.05719 3.0067952,1.057184 0 0 1 3.006795,1.05719 z" />
      </g>
      <g
         id="use17824"
         transform="matrix(1.4208098,1.4329403,-1.4329403,1.4208098,-142.95571,-206.20724)"
         inkscape:label="Steak"
         style="display:inline">
        <path
           style="color:#000000;fill:#750000;fill-opacity:1;-inkscape-stroke:none"
           d="m 87.5938,112.307 -5e-5,5.35701 c -1e-5,1.02467 0.174225,2.12079 1.058594,3.05079 0.884369,0.92999 2.320824,1.69947 4.486328,2.23828 4.330987,1.07761 11.587778,1.24995 16.710938,0.48047 5.12314,-0.7695 8.04566,-2.5084 9.65234,-3.86524 1.60671,-1.35686 1.9833,-2.47865 1.9375,-3.35937 -0.0229,-0.44043 -4.5e-4,-5.35894 -4.5e-4,-5.35894 0,0 -21.496383,6.431 -33.8452,1.457 z"
           id="path27237"
           sodipodi:nodetypes="csssssscc" />
        <path
           style="color:#000000;fill:#aa0000;-inkscape-stroke:none"
           d="m 92.345808,108.01493 c 2.45957,-0.92554 5.792764,-1.13265 8.559692,-0.58239 2.76694,0.55025 4.96744,1.85761 8.09353,2.23936 3.12608,0.38175 7.17761,-0.1619 9.37167,-0.14231 2.19407,0.0196 2.53062,0.60208 2.56933,1.34633 0.0387,0.74424 -0.22016,1.65033 -1.76052,2.95116 -1.54035,1.30082 -4.36219,2.99651 -9.40402,3.75379 -5.04184,0.75727 -12.303533,0.57605 -16.517002,-0.47232 -4.213469,-1.04836 -5.378447,-2.9641 -5.168182,-4.74413 0.210265,-1.78003 1.795932,-3.42395 4.255502,-4.34949 z"
           id="path27239" />
        <path
           style="color:#000000;fill:#800000;-inkscape-stroke:none"
           d="m 96.478516,106.66797 c -1.528111,0.10128 -3.020635,0.39424 -4.308594,0.87891 -2.575924,0.96932 -4.33576,2.72452 -4.576172,4.75976 -0.120204,1.0176 0.174225,2.11884 1.058594,3.04883 0.884369,0.92999 2.320824,1.69948 4.486328,2.23828 4.330987,1.07761 11.587778,1.25191 16.710938,0.48242 5.12314,-0.76949 8.04566,-2.51035 9.65234,-3.86719 1.60671,-1.35685 1.9833,-2.47864 1.9375,-3.35937 -0.0229,-0.44043 -0.19299,-0.99993 -0.69922,-1.33594 -0.50622,-0.33601 -1.22418,-0.47418 -2.36523,-0.48437 -2.28214,-0.0204 -6.29667,0.51501 -9.31445,0.14648 -3.01777,-0.36852 -5.19085,-1.66446 -8.05664,-2.23437 -1.432908,-0.28497 -2.997284,-0.37472 -4.525394,-0.27344 z m 0.06445,1.00586 c 1.445108,-0.0961 2.931604,-0.0153 4.265624,0.25 2.66808,0.53059 4.89451,1.84916 8.12891,2.24414 3.23437,0.39497 7.32371,-0.15748 9.42969,-0.13867 1.05302,0.009 1.60006,0.17217 1.82031,0.31836 0.22025,0.14619 0.2381,0.25086 0.25391,0.55468 0.0316,0.60776 -0.10998,1.29817 -1.58399,2.54297 -1.47401,1.2448 -4.19574,2.89556 -9.15625,3.64063 -4.96051,0.74505 -12.226324,0.55623 -16.322267,-0.46289 -2.047961,-0.50956 -3.303033,-1.22206 -4.001953,-1.95703 -0.698919,-0.73498 -0.881077,-1.47976 -0.791016,-2.24219 0.180119,-1.52482 1.592336,-3.05965 3.935547,-3.94141 1.171609,-0.44088 2.576376,-0.7125 4.021485,-0.80859 z"
           id="path27241" />
        <path
           id="path27243"
           style="opacity:1;fill:#ffffff;fill-opacity:1;stroke-width:0.352566;stroke-linecap:round;stroke-linejoin:round"
           d="m 99.704792,110.61986 a 3.0067952,1.057184 0 0 1 -3.006795,1.05718 3.0067952,1.057184 0 0 1 -3.006795,-1.05718 3.0067952,1.057184 0 0 1 3.006795,-1.05719 3.0067952,1.057184 0 0 1 3.006795,1.05719 z" />
      </g>
      <g
         id="use17826"
         transform="matrix(1.4535655,-1.399702,1.399702,1.4535655,-411.39095,101.80615)"
         inkscape:label="Steak"
         style="display:inline">
        <path
           style="color:#000000;fill:#750000;fill-opacity:1;-inkscape-stroke:none"
           d="m 87.5938,112.307 -5e-5,5.35701 c -1e-5,1.02467 0.174225,2.12079 1.058594,3.05079 0.884369,0.92999 2.320824,1.69947 4.486328,2.23828 4.330987,1.07761 11.587778,1.24995 16.710938,0.48047 5.12314,-0.7695 8.04566,-2.5084 9.65234,-3.86524 1.60671,-1.35686 1.9833,-2.47865 1.9375,-3.35937 -0.0229,-0.44043 -4.5e-4,-5.35894 -4.5e-4,-5.35894 0,0 -21.496383,6.431 -33.8452,1.457 z"
           id="path27247"
           sodipodi:nodetypes="csssssscc" />
        <path
           style="color:#000000;fill:#aa0000;-inkscape-stroke:none"
           d="m 92.345808,108.01493 c 2.45957,-0.92554 5.792764,-1.13265 8.559692,-0.58239 2.76694,0.55025 4.96744,1.85761 8.09353,2.23936 3.12608,0.38175 7.17761,-0.1619 9.37167,-0.14231 2.19407,0.0196 2.53062,0.60208 2.56933,1.34633 0.0387,0.74424 -0.22016,1.65033 -1.76052,2.95116 -1.54035,1.30082 -4.36219,2.99651 -9.40402,3.75379 -5.04184,0.75727 -12.303533,0.57605 -16.517002,-0.47232 -4.213469,-1.04836 -5.378447,-2.9641 -5.168182,-4.74413 0.210265,-1.78003 1.795932,-3.42395 4.255502,-4.34949 z"
           id="path27249" />
        <path
           style="color:#000000;fill:#800000;-inkscape-stroke:none"
           d="m 96.478516,106.66797 c -1.528111,0.10128 -3.020635,0.39424 -4.308594,0.87891 -2.575924,0.96932 -4.33576,2.72452 -4.576172,4.75976 -0.120204,1.0176 0.174225,2.11884 1.058594,3.04883 0.884369,0.92999 2.320824,1.69948 4.486328,2.23828 4.330987,1.07761 11.587778,1.25191 16.710938,0.48242 5.12314,-0.76949 8.04566,-2.51035 9.65234,-3.86719 1.60671,-1.35685 1.9833,-2.47864 1.9375,-3.35937 -0.0229,-0.44043 -0.19299,-0.99993 -0.69922,-1.33594 -0.50622,-0.33601 -1.22418,-0.47418 -2.36523,-0.48437 -2.28214,-0.0204 -6.29667,0.51501 -9.31445,0.14648 -3.01777,-0.36852 -5.19085,-1.66446 -8.05664,-2.23437 -1.432908,-0.28497 -2.997284,-0.37472 -4.525394,-0.27344 z m 0.06445,1.00586 c 1.445108,-0.0961 2.931604,-0.0153 4.265624,0.25 2.66808,0.53059 4.89451,1.84916 8.12891,2.24414 3.23437,0.39497 7.32371,-0.15748 9.42969,-0.13867 1.05302,0.009 1.60006,0.17217 1.82031,0.31836 0.22025,0.14619 0.2381,0.25086 0.25391,0.55468 0.0316,0.60776 -0.10998,1.29817 -1.58399,2.54297 -1.47401,1.2448 -4.19574,2.89556 -9.15625,3.64063 -4.96051,0.74505 -12.226324,0.55623 -16.322267,-0.46289 -2.047961,-0.50956 -3.303033,-1.22206 -4.001953,-1.95703 -0.698919,-0.73498 -0.881077,-1.47976 -0.791016,-2.24219 0.180119,-1.52482 1.592336,-3.05965 3.935547,-3.94141 1.171609,-0.44088 2.576376,-0.7125 4.021485,-0.80859 z"
           id="path27251" />
        <path
           id="path27253"
           style="opacity:1;fill:#ffffff;fill-opacity:1;stroke-width:0.352566;stroke-linecap:round;stroke-linejoin:round"
           d="m 99.704792,110.61986 a 3.0067952,1.057184 0 0 1 -3.006795,1.05718 3.0067952,1.057184 0 0 1 -3.006795,-1.05718 3.0067952,1.057184 0 0 1 3.006795,-1.05719 3.0067952,1.057184 0 0 1 3.006795,1.05719 z" />
      </g>
      <g
         id="use17828"
         transform="matrix(-0.24684399,2.0027697,-2.0027697,-0.24684399,128.11447,-60.270075)"
         inkscape:label="Steak"
         style="display:inline">
        <path
           style="color:#000000;fill:#750000;fill-opacity:1;-inkscape-stroke:none"
           d="m 87.5938,112.307 -5e-5,5.35701 c -1e-5,1.02467 0.174225,2.12079 1.058594,3.05079 0.884369,0.92999 2.320824,1.69947 4.486328,2.23828 4.330987,1.07761 11.587778,1.24995 16.710938,0.48047 5.12314,-0.7695 8.04566,-2.5084 9.65234,-3.86524 1.60671,-1.35686 1.9833,-2.47865 1.9375,-3.35937 -0.0229,-0.44043 -4.5e-4,-5.35894 -4.5e-4,-5.35894 0,0 -21.496383,6.431 -33.8452,1.457 z"
           id="path27257"
           sodipodi:nodetypes="csssssscc" />
        <path
           style="color:#000000;fill:#aa0000;-inkscape-stroke:none"
           d="m 92.345808,108.01493 c 2.45957,-0.92554 5.792764,-1.13265 8.559692,-0.58239 2.76694,0.55025 4.96744,1.85761 8.09353,2.23936 3.12608,0.38175 7.17761,-0.1619 9.37167,-0.14231 2.19407,0.0196 2.53062,0.60208 2.56933,1.34633 0.0387,0.74424 -0.22016,1.65033 -1.76052,2.95116 -1.54035,1.30082 -4.36219,2.99651 -9.40402,3.75379 -5.04184,0.75727 -12.303533,0.57605 -16.517002,-0.47232 -4.213469,-1.04836 -5.378447,-2.9641 -5.168182,-4.74413 0.210265,-1.78003 1.795932,-3.42395 4.255502,-4.34949 z"
           id="path27259" />
        <path
           style="color:#000000;fill:#800000;-inkscape-stroke:none"
           d="m 96.478516,106.66797 c -1.528111,0.10128 -3.020635,0.39424 -4.308594,0.87891 -2.575924,0.96932 -4.33576,2.72452 -4.576172,4.75976 -0.120204,1.0176 0.174225,2.11884 1.058594,3.04883 0.884369,0.92999 2.320824,1.69948 4.486328,2.23828 4.330987,1.07761 11.587778,1.25191 16.710938,0.48242 5.12314,-0.76949 8.04566,-2.51035 9.65234,-3.86719 1.60671,-1.35685 1.9833,-2.47864 1.9375,-3.35937 -0.0229,-0.44043 -0.19299,-0.99993 -0.69922,-1.33594 -0.50622,-0.33601 -1.22418,-0.47418 -2.36523,-0.48437 -2.28214,-0.0204 -6.29667,0.51501 -9.31445,0.14648 -3.01777,-0.36852 -5.19085,-1.66446 -8.05664,-2.23437 -1.432908,-0.28497 -2.997284,-0.37472 -4.525394,-0.27344 z m 0.06445,1.00586 c 1.445108,-0.0961 2.931604,-0.0153 4.265624,0.25 2.66808,0.53059 4.89451,1.84916 8.12891,2.24414 3.23437,0.39497 7.32371,-0.15748 9.42969,-0.13867 1.05302,0.009 1.60006,0.17217 1.82031,0.31836 0.22025,0.14619 0.2381,0.25086 0.25391,0.55468 0.0316,0.60776 -0.10998,1.29817 -1.58399,2.54297 -1.47401,1.2448 -4.19574,2.89556 -9.15625,3.64063 -4.96051,0.74505 -12.226324,0.55623 -16.322267,-0.46289 -2.047961,-0.50956 -3.303033,-1.22206 -4.001953,-1.95703 -0.698919,-0.73498 -0.881077,-1.47976 -0.791016,-2.24219 0.180119,-1.52482 1.592336,-3.05965 3.935547,-3.94141 1.171609,-0.44088 2.576376,-0.7125 4.021485,-0.80859 z"
           id="path27261" />
        <path
           id="path27263"
           style="opacity:1;fill:#ffffff;fill-opacity:1;stroke-width:0.352566;stroke-linecap:round;stroke-linejoin:round"
           d="m 99.704792,110.61986 a 3.0067952,1.057184 0 0 1 -3.006795,1.05718 3.0067952,1.057184 0 0 1 -3.006795,-1.05718 3.0067952,1.057184 0 0 1 3.006795,-1.05719 3.0067952,1.057184 0 0 1 3.006795,1.05719 z" />
      </g>
      <g
         id="use17830"
         transform="matrix(0.01344027,-2.0178795,2.0178795,0.01344027,-361.661,287.24106)"
         inkscape:label="Steak"
         style="display:inline">
        <path
           style="color:#000000;fill:#750000;fill-opacity:1;-inkscape-stroke:none"
           d="m 87.5938,112.307 -5e-5,5.35701 c -1e-5,1.02467 0.174225,2.12079 1.058594,3.05079 0.884369,0.92999 2.320824,1.69947 4.486328,2.23828 4.330987,1.07761 11.587778,1.24995 16.710938,0.48047 5.12314,-0.7695 8.04566,-2.5084 9.65234,-3.86524 1.60671,-1.35686 1.9833,-2.47865 1.9375,-3.35937 -0.0229,-0.44043 -4.5e-4,-5.35894 -4.5e-4,-5.35894 0,0 -21.496383,6.431 -33.8452,1.457 z"
           id="path27267"
           sodipodi:nodetypes="csssssscc" />
        <path
           style="color:#000000;fill:#aa0000;-inkscape-stroke:none"
           d="m 92.345808,108.01493 c 2.45957,-0.92554 5.792764,-1.13265 8.559692,-0.58239 2.76694,0.55025 4.96744,1.85761 8.09353,2.23936 3.12608,0.38175 7.17761,-0.1619 9.37167,-0.14231 2.19407,0.0196 2.53062,0.60208 2.56933,1.34633 0.0387,0.74424 -0.22016,1.65033 -1.76052,2.95116 -1.54035,1.30082 -4.36219,2.99651 -9.40402,3.75379 -5.04184,0.75727 -12.303533,0.57605 -16.517002,-0.47232 -4.213469,-1.04836 -5.378447,-2.9641 -5.168182,-4.74413 0.210265,-1.78003 1.795932,-3.42395 4.255502,-4.34949 z"
           id="path27269" />
        <path
           style="color:#000000;fill:#800000;-inkscape-stroke:none"
           d="m 96.478516,106.66797 c -1.528111,0.10128 -3.020635,0.39424 -4.308594,0.87891 -2.575924,0.96932 -4.33576,2.72452 -4.576172,4.75976 -0.120204,1.0176 0.174225,2.11884 1.058594,3.04883 0.884369,0.92999 2.320824,1.69948 4.486328,2.23828 4.330987,1.07761 11.587778,1.25191 16.710938,0.48242 5.12314,-0.76949 8.04566,-2.51035 9.65234,-3.86719 1.60671,-1.35685 1.9833,-2.47864 1.9375,-3.35937 -0.0229,-0.44043 -0.19299,-0.99993 -0.69922,-1.33594 -0.50622,-0.33601 -1.22418,-0.47418 -2.36523,-0.48437 -2.28214,-0.0204 -6.29667,0.51501 -9.31445,0.14648 -3.01777,-0.36852 -5.19085,-1.66446 -8.05664,-2.23437 -1.432908,-0.28497 -2.997284,-0.37472 -4.525394,-0.27344 z m 0.06445,1.00586 c 1.445108,-0.0961 2.931604,-0.0153 4.265624,0.25 2.66808,0.53059 4.89451,1.84916 8.12891,2.24414 3.23437,0.39497 7.32371,-0.15748 9.42969,-0.13867 1.05302,0.009 1.60006,0.17217 1.82031,0.31836 0.22025,0.14619 0.2381,0.25086 0.25391,0.55468 0.0316,0.60776 -0.10998,1.29817 -1.58399,2.54297 -1.47401,1.2448 -4.19574,2.89556 -9.15625,3.64063 -4.96051,0.74505 -12.226324,0.55623 -16.322267,-0.46289 -2.047961,-0.50956 -3.303033,-1.22206 -4.001953,-1.95703 -0.698919,-0.73498 -0.881077,-1.47976 -0.791016,-2.24219 0.180119,-1.52482 1.592336,-3.05965 3.935547,-3.94141 1.171609,-0.44088 2.576376,-0.7125 4.021485,-0.80859 z"
           id="path27271" />
        <path
           id="path27273"
           style="opacity:1;fill:#ffffff;fill-opacity:1;stroke-width:0.352566;stroke-linecap:round;stroke-linejoin:round"
           d="m 99.704792,110.61986 a 3.0067952,1.057184 0 0 1 -3.006795,1.05718 3.0067952,1.057184 0 0 1 -3.006795,-1.05718 3.0067952,1.057184 0 0 1 3.006795,-1.05719 3.0067952,1.057184 0 0 1 3.006795,1.05719 z" />
      </g>
      <g
         id="use17832"
         transform="matrix(1.9042978,0.66758412,-0.66758412,1.9042978,-235.1966,-247.16215)"
         inkscape:label="Steak"
         style="display:inline">
        <path
           style="color:#000000;fill:#750000;fill-opacity:1;-inkscape-stroke:none"
           d="m 87.5938,112.307 -5e-5,5.35701 c -1e-5,1.02467 0.174225,2.12079 1.058594,3.05079 0.884369,0.92999 2.320824,1.69947 4.486328,2.23828 4.330987,1.07761 11.587778,1.24995 16.710938,0.48047 5.12314,-0.7695 8.04566,-2.5084 9.65234,-3.86524 1.60671,-1.35686 1.9833,-2.47865 1.9375,-3.35937 -0.0229,-0.44043 -4.5e-4,-5.35894 -4.5e-4,-5.35894 0,0 -21.496383,6.431 -33.8452,1.457 z"
           id="path27277"
           sodipodi:nodetypes="csssssscc" />
        <path
           style="color:#000000;fill:#aa0000;-inkscape-stroke:none"
           d="m 92.345808,108.01493 c 2.45957,-0.92554 5.792764,-1.13265 8.559692,-0.58239 2.76694,0.55025 4.96744,1.85761 8.09353,2.23936 3.12608,0.38175 7.17761,-0.1619 9.37167,-0.14231 2.19407,0.0196 2.53062,0.60208 2.56933,1.34633 0.0387,0.74424 -0.22016,1.65033 -1.76052,2.95116 -1.54035,1.30082 -4.36219,2.99651 -9.40402,3.75379 -5.04184,0.75727 -12.303533,0.57605 -16.517002,-0.47232 -4.213469,-1.04836 -5.378447,-2.9641 -5.168182,-4.74413 0.210265,-1.78003 1.795932,-3.42395 4.255502,-4.34949 z"
           id="path27279" />
        <path
           style="color:#000000;fill:#800000;-inkscape-stroke:none"
           d="m 96.478516,106.66797 c -1.528111,0.10128 -3.020635,0.39424 -4.308594,0.87891 -2.575924,0.96932 -4.33576,2.72452 -4.576172,4.75976 -0.120204,1.0176 0.174225,2.11884 1.058594,3.04883 0.884369,0.92999 2.320824,1.69948 4.486328,2.23828 4.330987,1.07761 11.587778,1.25191 16.710938,0.48242 5.12314,-0.76949 8.04566,-2.51035 9.65234,-3.86719 1.60671,-1.35685 1.9833,-2.47864 1.9375,-3.35937 -0.0229,-0.44043 -0.19299,-0.99993 -0.69922,-1.33594 -0.50622,-0.33601 -1.22418,-0.47418 -2.36523,-0.48437 -2.28214,-0.0204 -6.29667,0.51501 -9.31445,0.14648 -3.01777,-0.36852 -5.19085,-1.66446 -8.05664,-2.23437 -1.432908,-0.28497 -2.997284,-0.37472 -4.525394,-0.27344 z m 0.06445,1.00586 c 1.445108,-0.0961 2.931604,-0.0153 4.265624,0.25 2.66808,0.53059 4.89451,1.84916 8.12891,2.24414 3.23437,0.39497 7.32371,-0.15748 9.42969,-0.13867 1.05302,0.009 1.60006,0.17217 1.82031,0.31836 0.22025,0.14619 0.2381,0.25086 0.25391,0.55468 0.0316,0.60776 -0.10998,1.29817 -1.58399,2.54297 -1.47401,1.2448 -4.19574,2.89556 -9.15625,3.64063 -4.96051,0.74505 -12.226324,0.55623 -16.322267,-0.46289 -2.047961,-0.50956 -3.303033,-1.22206 -4.001953,-1.95703 -0.698919,-0.73498 -0.881077,-1.47976 -0.791016,-2.24219 0.180119,-1.52482 1.592336,-3.05965 3.935547,-3.94141 1.171609,-0.44088 2.576376,-0.7125 4.021485,-0.80859 z"
           id="path27281" />
        <path
           id="path27283"
           style="opacity:1;fill:#ffffff;fill-opacity:1;stroke-width:0.352566;stroke-linecap:round;stroke-linejoin:round"
           d="m 99.704792,110.61986 a 3.0067952,1.057184 0 0 1 -3.006795,1.05718 3.0067952,1.057184 0 0 1 -3.006795,-1.05718 3.0067952,1.057184 0 0 1 3.006795,-1.05719 3.0067952,1.057184 0 0 1 3.006795,1.05719 z" />
      </g>
      <g
         id="use17834"
         transform="matrix(1.7062413,-1.0773854,1.0773854,1.7062413,-459.77952,-29.822369)"
         inkscape:label="Steak"
         style="display:inline">
        <path
           style="color:#000000;fill:#750000;fill-opacity:1;-inkscape-stroke:none"
           d="m 87.5938,112.307 -5e-5,5.35701 c -1e-5,1.02467 0.174225,2.12079 1.058594,3.05079 0.884369,0.92999 2.320824,1.69947 4.486328,2.23828 4.330987,1.07761 11.587778,1.24995 16.710938,0.48047 5.12314,-0.7695 8.04566,-2.5084 9.65234,-3.86524 1.60671,-1.35686 1.9833,-2.47865 1.9375,-3.35937 -0.0229,-0.44043 -4.5e-4,-5.35894 -4.5e-4,-5.35894 0,0 -21.496383,6.431 -33.8452,1.457 z"
           id="path27287"
           sodipodi:nodetypes="csssssscc" />
        <path
           style="color:#000000;fill:#aa0000;-inkscape-stroke:none"
           d="m 92.345808,108.01493 c 2.45957,-0.92554 5.792764,-1.13265 8.559692,-0.58239 2.76694,0.55025 4.96744,1.85761 8.09353,2.23936 3.12608,0.38175 7.17761,-0.1619 9.37167,-0.14231 2.19407,0.0196 2.53062,0.60208 2.56933,1.34633 0.0387,0.74424 -0.22016,1.65033 -1.76052,2.95116 -1.54035,1.30082 -4.36219,2.99651 -9.40402,3.75379 -5.04184,0.75727 -12.303533,0.57605 -16.517002,-0.47232 -4.213469,-1.04836 -5.378447,-2.9641 -5.168182,-4.74413 0.210265,-1.78003 1.795932,-3.42395 4.255502,-4.34949 z"
           id="path27289" />
        <path
           style="color:#000000;fill:#800000;-inkscape-stroke:none"
           d="m 96.478516,106.66797 c -1.528111,0.10128 -3.020635,0.39424 -4.308594,0.87891 -2.575924,0.96932 -4.33576,2.72452 -4.576172,4.75976 -0.120204,1.0176 0.174225,2.11884 1.058594,3.04883 0.884369,0.92999 2.320824,1.69948 4.486328,2.23828 4.330987,1.07761 11.587778,1.25191 16.710938,0.48242 5.12314,-0.76949 8.04566,-2.51035 9.65234,-3.86719 1.60671,-1.35685 1.9833,-2.47864 1.9375,-3.35937 -0.0229,-0.44043 -0.19299,-0.99993 -0.69922,-1.33594 -0.50622,-0.33601 -1.22418,-0.47418 -2.36523,-0.48437 -2.28214,-0.0204 -6.29667,0.51501 -9.31445,0.14648 -3.01777,-0.36852 -5.19085,-1.66446 -8.05664,-2.23437 -1.432908,-0.28497 -2.997284,-0.37472 -4.525394,-0.27344 z m 0.06445,1.00586 c 1.445108,-0.0961 2.931604,-0.0153 4.265624,0.25 2.66808,0.53059 4.89451,1.84916 8.12891,2.24414 3.23437,0.39497 7.32371,-0.15748 9.42969,-0.13867 1.05302,0.009 1.60006,0.17217 1.82031,0.31836 0.22025,0.14619 0.2381,0.25086 0.25391,0.55468 0.0316,0.60776 -0.10998,1.29817 -1.58399,2.54297 -1.47401,1.2448 -4.19574,2.89556 -9.15625,3.64063 -4.96051,0.74505 -12.226324,0.55623 -16.322267,-0.46289 -2.047961,-0.50956 -3.303033,-1.22206 -4.001953,-1.95703 -0.698919,-0.73498 -0.881077,-1.47976 -0.791016,-2.24219 0.180119,-1.52482 1.592336,-3.05965 3.935547,-3.94141 1.171609,-0.44088 2.576376,-0.7125 4.021485,-0.80859 z"
           id="path27291" />
        <path
           id="path27293"
           style="opacity:1;fill:#ffffff;fill-opacity:1;stroke-width:0.352566;stroke-linecap:round;stroke-linejoin:round"
           d="m 99.704792,110.61986 a 3.0067952,1.057184 0 0 1 -3.006795,1.05718 3.0067952,1.057184 0 0 1 -3.006795,-1.05718 3.0067952,1.057184 0 0 1 3.006795,-1.05719 3.0067952,1.057184 0 0 1 3.006795,1.05719 z" />
      </g>
      <g
         id="use17836"
         transform="matrix(1.9516628,-0.51286542,0.51286542,1.9516628,-407.2078,-104.75752)"
         inkscape:label="Steak"
         style="display:inline">
        <path
           style="color:#000000;fill:#750000;fill-opacity:1;-inkscape-stroke:none"
           d="m 87.5938,112.307 -5e-5,5.35701 c -1e-5,1.02467 0.174225,2.12079 1.058594,3.05079 0.884369,0.92999 2.320824,1.69947 4.486328,2.23828 4.330987,1.07761 11.587778,1.24995 16.710938,0.48047 5.12314,-0.7695 8.04566,-2.5084 9.65234,-3.86524 1.60671,-1.35686 1.9833,-2.47865 1.9375,-3.35937 -0.0229,-0.44043 -4.5e-4,-5.35894 -4.5e-4,-5.35894 0,0 -21.496383,6.431 -33.8452,1.457 z"
           id="path27297"
           sodipodi:nodetypes="csssssscc" />
        <path
           style="color:#000000;fill:#aa0000;-inkscape-stroke:none"
           d="m 92.345808,108.01493 c 2.45957,-0.92554 5.792764,-1.13265 8.559692,-0.58239 2.76694,0.55025 4.96744,1.85761 8.09353,2.23936 3.12608,0.38175 7.17761,-0.1619 9.37167,-0.14231 2.19407,0.0196 2.53062,0.60208 2.56933,1.34633 0.0387,0.74424 -0.22016,1.65033 -1.76052,2.95116 -1.54035,1.30082 -4.36219,2.99651 -9.40402,3.75379 -5.04184,0.75727 -12.303533,0.57605 -16.517002,-0.47232 -4.213469,-1.04836 -5.378447,-2.9641 -5.168182,-4.74413 0.210265,-1.78003 1.795932,-3.42395 4.255502,-4.34949 z"
           id="path27299" />
        <path
           style="color:#000000;fill:#800000;-inkscape-stroke:none"
           d="m 96.478516,106.66797 c -1.528111,0.10128 -3.020635,0.39424 -4.308594,0.87891 -2.575924,0.96932 -4.33576,2.72452 -4.576172,4.75976 -0.120204,1.0176 0.174225,2.11884 1.058594,3.04883 0.884369,0.92999 2.320824,1.69948 4.486328,2.23828 4.330987,1.07761 11.587778,1.25191 16.710938,0.48242 5.12314,-0.76949 8.04566,-2.51035 9.65234,-3.86719 1.60671,-1.35685 1.9833,-2.47864 1.9375,-3.35937 -0.0229,-0.44043 -0.19299,-0.99993 -0.69922,-1.33594 -0.50622,-0.33601 -1.22418,-0.47418 -2.36523,-0.48437 -2.28214,-0.0204 -6.29667,0.51501 -9.31445,0.14648 -3.01777,-0.36852 -5.19085,-1.66446 -8.05664,-2.23437 -1.432908,-0.28497 -2.997284,-0.37472 -4.525394,-0.27344 z m 0.06445,1.00586 c 1.445108,-0.0961 2.931604,-0.0153 4.265624,0.25 2.66808,0.53059 4.89451,1.84916 8.12891,2.24414 3.23437,0.39497 7.32371,-0.15748 9.42969,-0.13867 1.05302,0.009 1.60006,0.17217 1.82031,0.31836 0.22025,0.14619 0.2381,0.25086 0.25391,0.55468 0.0316,0.60776 -0.10998,1.29817 -1.58399,2.54297 -1.47401,1.2448 -4.19574,2.89556 -9.15625,3.64063 -4.96051,0.74505 -12.226324,0.55623 -16.322267,-0.46289 -2.047961,-0.50956 -3.303033,-1.22206 -4.001953,-1.95703 -0.698919,-0.73498 -0.881077,-1.47976 -0.791016,-2.24219 0.180119,-1.52482 1.592336,-3.05965 3.935547,-3.94141 1.171609,-0.44088 2.576376,-0.7125 4.021485,-0.80859 z"
           id="path27301" />
        <path
           id="path27303"
           style="opacity:1;fill:#ffffff;fill-opacity:1;stroke-width:0.352566;stroke-linecap:round;stroke-linejoin:round"
           d="m 99.704792,110.61986 a 3.0067952,1.057184 0 0 1 -3.006795,1.05718 3.0067952,1.057184 0 0 1 -3.006795,-1.05718 3.0067952,1.057184 0 0 1 3.006795,-1.05719 3.0067952,1.057184 0 0 1 3.006795,1.05719 z" />
      </g>
      <g
         id="use17838"
         transform="matrix(-0.44442525,-1.9683762,1.9683762,-0.44442525,-316.32436,312.9188)"
         inkscape:label="Steak"
         style="display:inline">
        <path
           style="color:#000000;fill:#750000;fill-opacity:1;-inkscape-stroke:none"
           d="m 87.5938,112.307 -5e-5,5.35701 c -1e-5,1.02467 0.174225,2.12079 1.058594,3.05079 0.884369,0.92999 2.320824,1.69947 4.486328,2.23828 4.330987,1.07761 11.587778,1.24995 16.710938,0.48047 5.12314,-0.7695 8.04566,-2.5084 9.65234,-3.86524 1.60671,-1.35686 1.9833,-2.47865 1.9375,-3.35937 -0.0229,-0.44043 -4.5e-4,-5.35894 -4.5e-4,-5.35894 0,0 -21.496383,6.431 -33.8452,1.457 z"
           id="path27307"
           sodipodi:nodetypes="csssssscc" />
        <path
           style="color:#000000;fill:#aa0000;-inkscape-stroke:none"
           d="m 92.345808,108.01493 c 2.45957,-0.92554 5.792764,-1.13265 8.559692,-0.58239 2.76694,0.55025 4.96744,1.85761 8.09353,2.23936 3.12608,0.38175 7.17761,-0.1619 9.37167,-0.14231 2.19407,0.0196 2.53062,0.60208 2.56933,1.34633 0.0387,0.74424 -0.22016,1.65033 -1.76052,2.95116 -1.54035,1.30082 -4.36219,2.99651 -9.40402,3.75379 -5.04184,0.75727 -12.303533,0.57605 -16.517002,-0.47232 -4.213469,-1.04836 -5.378447,-2.9641 -5.168182,-4.74413 0.210265,-1.78003 1.795932,-3.42395 4.255502,-4.34949 z"
           id="path27309" />
        <path
           style="color:#000000;fill:#800000;-inkscape-stroke:none"
           d="m 96.478516,106.66797 c -1.528111,0.10128 -3.020635,0.39424 -4.308594,0.87891 -2.575924,0.96932 -4.33576,2.72452 -4.576172,4.75976 -0.120204,1.0176 0.174225,2.11884 1.058594,3.04883 0.884369,0.92999 2.320824,1.69948 4.486328,2.23828 4.330987,1.07761 11.587778,1.25191 16.710938,0.48242 5.12314,-0.76949 8.04566,-2.51035 9.65234,-3.86719 1.60671,-1.35685 1.9833,-2.47864 1.9375,-3.35937 -0.0229,-0.44043 -0.19299,-0.99993 -0.69922,-1.33594 -0.50622,-0.33601 -1.22418,-0.47418 -2.36523,-0.48437 -2.28214,-0.0204 -6.29667,0.51501 -9.31445,0.14648 -3.01777,-0.36852 -5.19085,-1.66446 -8.05664,-2.23437 -1.432908,-0.28497 -2.997284,-0.37472 -4.525394,-0.27344 z m 0.06445,1.00586 c 1.445108,-0.0961 2.931604,-0.0153 4.265624,0.25 2.66808,0.53059 4.89451,1.84916 8.12891,2.24414 3.23437,0.39497 7.32371,-0.15748 9.42969,-0.13867 1.05302,0.009 1.60006,0.17217 1.82031,0.31836 0.22025,0.14619 0.2381,0.25086 0.25391,0.55468 0.0316,0.60776 -0.10998,1.29817 -1.58399,2.54297 -1.47401,1.2448 -4.19574,2.89556 -9.15625,3.64063 -4.96051,0.74505 -12.226324,0.55623 -16.322267,-0.46289 -2.047961,-0.50956 -3.303033,-1.22206 -4.001953,-1.95703 -0.698919,-0.73498 -0.881077,-1.47976 -0.791016,-2.24219 0.180119,-1.52482 1.592336,-3.05965 3.935547,-3.94141 1.171609,-0.44088 2.576376,-0.7125 4.021485,-0.80859 z"
           id="path27311" />
        <path
           id="path27313"
           style="opacity:1;fill:#ffffff;fill-opacity:1;stroke-width:0.352566;stroke-linecap:round;stroke-linejoin:round"
           d="m 99.704792,110.61986 a 3.0067952,1.057184 0 0 1 -3.006795,1.05718 3.0067952,1.057184 0 0 1 -3.006795,-1.05718 3.0067952,1.057184 0 0 1 3.006795,-1.05719 3.0067952,1.057184 0 0 1 3.006795,1.05719 z" />
      </g>
      <g
         id="use17840"
         transform="matrix(-0.50353805,1.95409,-1.95409,-0.50353805,123.47213,-26.630837)"
         inkscape:label="Steak"
         style="display:inline">
        <path
           style="color:#000000;fill:#750000;fill-opacity:1;-inkscape-stroke:none"
           d="m 87.5938,112.307 -5e-5,5.35701 c -1e-5,1.02467 0.174225,2.12079 1.058594,3.05079 0.884369,0.92999 2.320824,1.69947 4.486328,2.23828 4.330987,1.07761 11.587778,1.24995 16.710938,0.48047 5.12314,-0.7695 8.04566,-2.5084 9.65234,-3.86524 1.60671,-1.35686 1.9833,-2.47865 1.9375,-3.35937 -0.0229,-0.44043 -4.5e-4,-5.35894 -4.5e-4,-5.35894 0,0 -21.496383,6.431 -33.8452,1.457 z"
           id="path27317"
           sodipodi:nodetypes="csssssscc" />
        <path
           style="color:#000000;fill:#aa0000;-inkscape-stroke:none"
           d="m 92.345808,108.01493 c 2.45957,-0.92554 5.792764,-1.13265 8.559692,-0.58239 2.76694,0.55025 4.96744,1.85761 8.09353,2.23936 3.12608,0.38175 7.17761,-0.1619 9.37167,-0.14231 2.19407,0.0196 2.53062,0.60208 2.56933,1.34633 0.0387,0.74424 -0.22016,1.65033 -1.76052,2.95116 -1.54035,1.30082 -4.36219,2.99651 -9.40402,3.75379 -5.04184,0.75727 -12.303533,0.57605 -16.517002,-0.47232 -4.213469,-1.04836 -5.378447,-2.9641 -5.168182,-4.74413 0.210265,-1.78003 1.795932,-3.42395 4.255502,-4.34949 z"
           id="path27319" />
        <path
           style="color:#000000;fill:#800000;-inkscape-stroke:none"
           d="m 96.478516,106.66797 c -1.528111,0.10128 -3.020635,0.39424 -4.308594,0.87891 -2.575924,0.96932 -4.33576,2.72452 -4.576172,4.75976 -0.120204,1.0176 0.174225,2.11884 1.058594,3.04883 0.884369,0.92999 2.320824,1.69948 4.486328,2.23828 4.330987,1.07761 11.587778,1.25191 16.710938,0.48242 5.12314,-0.76949 8.04566,-2.51035 9.65234,-3.86719 1.60671,-1.35685 1.9833,-2.47864 1.9375,-3.35937 -0.0229,-0.44043 -0.19299,-0.99993 -0.69922,-1.33594 -0.50622,-0.33601 -1.22418,-0.47418 -2.36523,-0.48437 -2.28214,-0.0204 -6.29667,0.51501 -9.31445,0.14648 -3.01777,-0.36852 -5.19085,-1.66446 -8.05664,-2.23437 -1.432908,-0.28497 -2.997284,-0.37472 -4.525394,-0.27344 z m 0.06445,1.00586 c 1.445108,-0.0961 2.931604,-0.0153 4.265624,0.25 2.66808,0.53059 4.89451,1.84916 8.12891,2.24414 3.23437,0.39497 7.32371,-0.15748 9.42969,-0.13867 1.05302,0.009 1.60006,0.17217 1.82031,0.31836 0.22025,0.14619 0.2381,0.25086 0.25391,0.55468 0.0316,0.60776 -0.10998,1.29817 -1.58399,2.54297 -1.47401,1.2448 -4.19574,2.89556 -9.15625,3.64063 -4.96051,0.74505 -12.226324,0.55623 -16.322267,-0.46289 -2.047961,-0.50956 -3.303033,-1.22206 -4.001953,-1.95703 -0.698919,-0.73498 -0.881077,-1.47976 -0.791016,-2.24219 0.180119,-1.52482 1.592336,-3.05965 3.935547,-3.94141 1.171609,-0.44088 2.576376,-0.7125 4.021485,-0.80859 z"
           id="path27321" />
        <path
           id="path27323"
           style="opacity:1;fill:#ffffff;fill-opacity:1;stroke-width:0.352566;stroke-linecap:round;stroke-linejoin:round"
           d="m 99.704792,110.61986 a 3.0067952,1.057184 0 0 1 -3.006795,1.05718 3.0067952,1.057184 0 0 1 -3.006795,-1.05718 3.0067952,1.057184 0 0 1 3.006795,-1.05719 3.0067952,1.057184 0 0 1 3.006795,1.05719 z" />
      </g>
      <g
         id="use17842"
         transform="matrix(-0.33356245,1.9901645,-1.9901645,-0.33356245,162.47682,-79.030301)"
         inkscape:label="Steak"
         style="display:inline">
        <path
           style="color:#000000;fill:#750000;fill-opacity:1;-inkscape-stroke:none"
           d="m 87.5938,112.307 -5e-5,5.35701 c -1e-5,1.02467 0.174225,2.12079 1.058594,3.05079 0.884369,0.92999 2.320824,1.69947 4.486328,2.23828 4.330987,1.07761 11.587778,1.24995 16.710938,0.48047 5.12314,-0.7695 8.04566,-2.5084 9.65234,-3.86524 1.60671,-1.35686 1.9833,-2.47865 1.9375,-3.35937 -0.0229,-0.44043 -4.5e-4,-5.35894 -4.5e-4,-5.35894 0,0 -21.496383,6.431 -33.8452,1.457 z"
           id="path27327"
           sodipodi:nodetypes="csssssscc" />
        <path
           style="color:#000000;fill:#aa0000;-inkscape-stroke:none"
           d="m 92.345808,108.01493 c 2.45957,-0.92554 5.792764,-1.13265 8.559692,-0.58239 2.76694,0.55025 4.96744,1.85761 8.09353,2.23936 3.12608,0.38175 7.17761,-0.1619 9.37167,-0.14231 2.19407,0.0196 2.53062,0.60208 2.56933,1.34633 0.0387,0.74424 -0.22016,1.65033 -1.76052,2.95116 -1.54035,1.30082 -4.36219,2.99651 -9.40402,3.75379 -5.04184,0.75727 -12.303533,0.57605 -16.517002,-0.47232 -4.213469,-1.04836 -5.378447,-2.9641 -5.168182,-4.74413 0.210265,-1.78003 1.795932,-3.42395 4.255502,-4.34949 z"
           id="path27329" />
        <path
           style="color:#000000;fill:#800000;-inkscape-stroke:none"
           d="m 96.478516,106.66797 c -1.528111,0.10128 -3.020635,0.39424 -4.308594,0.87891 -2.575924,0.96932 -4.33576,2.72452 -4.576172,4.75976 -0.120204,1.0176 0.174225,2.11884 1.058594,3.04883 0.884369,0.92999 2.320824,1.69948 4.486328,2.23828 4.330987,1.07761 11.587778,1.25191 16.710938,0.48242 5.12314,-0.76949 8.04566,-2.51035 9.65234,-3.86719 1.60671,-1.35685 1.9833,-2.47864 1.9375,-3.35937 -0.0229,-0.44043 -0.19299,-0.99993 -0.69922,-1.33594 -0.50622,-0.33601 -1.22418,-0.47418 -2.36523,-0.48437 -2.28214,-0.0204 -6.29667,0.51501 -9.31445,0.14648 -3.01777,-0.36852 -5.19085,-1.66446 -8.05664,-2.23437 -1.432908,-0.28497 -2.997284,-0.37472 -4.525394,-0.27344 z m 0.06445,1.00586 c 1.445108,-0.0961 2.931604,-0.0153 4.265624,0.25 2.66808,0.53059 4.89451,1.84916 8.12891,2.24414 3.23437,0.39497 7.32371,-0.15748 9.42969,-0.13867 1.05302,0.009 1.60006,0.17217 1.82031,0.31836 0.22025,0.14619 0.2381,0.25086 0.25391,0.55468 0.0316,0.60776 -0.10998,1.29817 -1.58399,2.54297 -1.47401,1.2448 -4.19574,2.89556 -9.15625,3.64063 -4.96051,0.74505 -12.226324,0.55623 -16.322267,-0.46289 -2.047961,-0.50956 -3.303033,-1.22206 -4.001953,-1.95703 -0.698919,-0.73498 -0.881077,-1.47976 -0.791016,-2.24219 0.180119,-1.52482 1.592336,-3.05965 3.935547,-3.94141 1.171609,-0.44088 2.576376,-0.7125 4.021485,-0.80859 z"
           id="path27331" />
        <path
           id="path27333"
           style="opacity:1;fill:#ffffff;fill-opacity:1;stroke-width:0.352566;stroke-linecap:round;stroke-linejoin:round"
           d="m 99.704792,110.61986 a 3.0067952,1.057184 0 0 1 -3.006795,1.05718 3.0067952,1.057184 0 0 1 -3.006795,-1.05718 3.0067952,1.057184 0 0 1 3.006795,-1.05719 3.0067952,1.057184 0 0 1 3.006795,1.05719 z" />
      </g>
    </g>
  </g>
</svg>
