<?xml version="1.0" encoding="UTF-8" standalone="no"?>
<!-- Created with Inkscape (http://www.inkscape.org/) -->

<svg
   width="45.874931mm"
   height="29.279802mm"
   viewBox="0 0 45.874931 29.279802"
   version="1.1"
   id="svg4094"
   inkscape:version="1.1 (c68e22c387, 2021-05-23)"
   sodipodi:docname="steak-ketchup.svg"
   xmlns:inkscape="http://www.inkscape.org/namespaces/inkscape"
   xmlns:sodipodi="http://sodipodi.sourceforge.net/DTD/sodipodi-0.dtd"
   xmlns="http://www.w3.org/2000/svg"
   xmlns:svg="http://www.w3.org/2000/svg">
  <sodipodi:namedview
     id="namedview4096"
     pagecolor="#ffffff"
     bordercolor="#666666"
     borderopacity="1.0"
     inkscape:pageshadow="2"
     inkscape:pageopacity="0.0"
     inkscape:pagecheckerboard="0"
     inkscape:document-units="mm"
     showgrid="false"
     fit-margin-top="6"
     lock-margins="true"
     fit-margin-left="6"
     fit-margin-right="6"
     fit-margin-bottom="6"
     inkscape:zoom="3.50744"
     inkscape:cx="121.028"
     inkscape:cy="78.6899"
     inkscape:window-width="1920"
     inkscape:window-height="1047"
     inkscape:window-x="-9"
     inkscape:window-y="-9"
     inkscape:window-maximized="1"
     inkscape:current-layer="layer1" />
  <defs
     id="defs4091">
    <clipPath
       clipPathUnits="userSpaceOnUse"
       id="clipPath8723">
      <g
         id="g8733"
         transform="translate(13.2703,20.8573)"
         inkscape:label="Cooked Steak"
         style="display:inline">
        <path
           style="color:#000000;fill:#6e1700;fill-opacity:1;-inkscape-stroke:none"
           d="m 87.5938,112.307 v 5.357 c -1e-4,1.025 0.1742,2.121 1.0585,3.051 0.8844,0.93 2.3209,1.699 4.4864,2.238 4.331,1.078 11.5873,1.25 16.7113,0.481 5.123,-0.77 8.045,-2.509 9.652,-3.866 1.607,-1.357 1.983,-2.478 1.937,-3.359 -0.02,-0.44 0,-5.359 0,-5.359 0,0 -21.4964,6.431 -33.8452,1.457 z"
           id="path8725"
           sodipodi:nodetypes="csssssscc" />
        <path
           style="color:#000000;fill:#8d371c;fill-opacity:1;-inkscape-stroke:none"
           d="m 92.3458,108.015 c 2.4596,-0.926 5.7928,-1.133 8.5602,-0.582 2.766,0.55 4.967,1.857 8.093,2.239 3.126,0.382 7.178,-0.162 9.372,-0.142 2.194,0.02 2.53,0.602 2.569,1.346 0.04,0.744 -0.22,1.65 -1.76,2.951 -1.541,1.301 -4.363,2.997 -9.405,3.754 -5.041,0.757 -12.303,0.576 -16.5165,-0.472 -4.2135,-1.049 -5.3785,-2.965 -5.1682,-4.745 0.2103,-1.78 1.7959,-3.424 4.2555,-4.349 z"
           id="path8727" />
        <path
           style="color:#000000;fill:#801700;fill-opacity:1;-inkscape-stroke:none"
           d="m 96.4785,106.668 c -1.5281,0.101 -3.0206,0.394 -4.3086,0.879 -2.5759,0.969 -4.3357,2.724 -4.5761,4.76 -0.1203,1.017 0.1742,2.118 1.0585,3.048 0.8844,0.93 2.3209,1.7 4.4864,2.239 4.331,1.077 11.5873,1.252 16.7113,0.482 5.123,-0.769 8.045,-2.51 9.652,-3.867 1.607,-1.357 1.983,-2.479 1.937,-3.359 -0.02,-0.441 -0.193,-1 -0.699,-1.336 -0.506,-0.336 -1.224,-0.475 -2.365,-0.485 -2.282,-0.02 -6.297,0.515 -9.314,0.147 -3.018,-0.369 -5.191,-1.665 -8.057,-2.235 -1.433,-0.285 -2.9974,-0.374 -4.5255,-0.273 z m 0.065,1.006 c 1.4451,-0.1 2.9316,-0.02 4.2665,0.25 2.668,0.53 4.894,1.849 8.129,2.244 3.234,0.395 7.323,-0.158 9.429,-0.139 1.053,0 1.6,0.172 1.821,0.319 0.22,0.146 0.238,0.251 0.253,0.554 0.03,0.608 -0.11,1.299 -1.584,2.543 -1.474,1.245 -4.196,2.896 -9.157,3.641 -4.959,0.745 -12.2257,0.556 -16.3216,-0.463 -2.048,-0.51 -3.303,-1.222 -4.0019,-1.957 -0.699,-0.735 -0.8811,-1.48 -0.7911,-2.242 0.1802,-1.525 1.5924,-3.06 3.9356,-3.942 1.1716,-0.44 2.5764,-0.712 4.0215,-0.808 z"
           id="path8729" />
        <path
           id="path8731"
           style="opacity:1;fill:#fffff0;fill-opacity:1;stroke-width:0.352566;stroke-linecap:round;stroke-linejoin:round"
           d="m 99.7048,110.62 a 3.0068,1.05718 0 0 1 -3.0068,1.057 3.0068,1.05718 0 0 1 -3.0068,-1.057 3.0068,1.05718 0 0 1 3.0068,-1.057 3.0068,1.05718 0 0 1 3.0068,1.057 z" />
      </g>
    </clipPath>
  </defs>
  <g
     inkscape:label="Layer 1"
     inkscape:groupmode="layer"
     id="layer1"
     transform="translate(-94.8384,-121.485)">
    <g
       id="g883"
       transform="translate(13.2703,20.8573)"
       inkscape:label="Cooked Steak"
       style="display:inline">
      <path
         style="color:#000000;fill:#6e1700;fill-opacity:1;-inkscape-stroke:none"
         d="m 87.5938,112.307 v 5.357 c -1e-4,1.025 0.1742,2.121 1.0585,3.051 0.8844,0.93 2.3209,1.699 4.4864,2.238 4.331,1.078 11.5873,1.25 16.7113,0.481 5.123,-0.77 8.045,-2.509 9.652,-3.866 1.607,-1.357 1.983,-2.478 1.937,-3.359 -0.02,-0.44 0,-5.359 0,-5.359 0,0 -21.4964,6.431 -33.8452,1.457 z"
         id="path875"
         sodipodi:nodetypes="csssssscc" />
      <path
         style="color:#000000;fill:#8d371c;fill-opacity:1;-inkscape-stroke:none"
         d="m 92.3458,108.015 c 2.4596,-0.926 5.7928,-1.133 8.5602,-0.582 2.766,0.55 4.967,1.857 8.093,2.239 3.126,0.382 7.178,-0.162 9.372,-0.142 2.194,0.02 2.53,0.602 2.569,1.346 0.04,0.744 -0.22,1.65 -1.76,2.951 -1.541,1.301 -4.363,2.997 -9.405,3.754 -5.041,0.757 -12.303,0.576 -16.5165,-0.472 -4.2135,-1.049 -5.3785,-2.965 -5.1682,-4.745 0.2103,-1.78 1.7959,-3.424 4.2555,-4.349 z"
         id="path877" />
      <path
         style="color:#000000;fill:#801700;fill-opacity:1;-inkscape-stroke:none"
         d="m 96.4785,106.668 c -1.5281,0.101 -3.0206,0.394 -4.3086,0.879 -2.5759,0.969 -4.3357,2.724 -4.5761,4.76 -0.1203,1.017 0.1742,2.118 1.0585,3.048 0.8844,0.93 2.3209,1.7 4.4864,2.239 4.331,1.077 11.5873,1.252 16.7113,0.482 5.123,-0.769 8.045,-2.51 9.652,-3.867 1.607,-1.357 1.983,-2.479 1.937,-3.359 -0.02,-0.441 -0.193,-1 -0.699,-1.336 -0.506,-0.336 -1.224,-0.475 -2.365,-0.485 -2.282,-0.02 -6.297,0.515 -9.314,0.147 -3.018,-0.369 -5.191,-1.665 -8.057,-2.235 -1.433,-0.285 -2.9974,-0.374 -4.5255,-0.273 z m 0.065,1.006 c 1.4451,-0.1 2.9316,-0.02 4.2665,0.25 2.668,0.53 4.894,1.849 8.129,2.244 3.234,0.395 7.323,-0.158 9.429,-0.139 1.053,0 1.6,0.172 1.821,0.319 0.22,0.146 0.238,0.251 0.253,0.554 0.03,0.608 -0.11,1.299 -1.584,2.543 -1.474,1.245 -4.196,2.896 -9.157,3.641 -4.959,0.745 -12.2257,0.556 -16.3216,-0.463 -2.048,-0.51 -3.303,-1.222 -4.0019,-1.957 -0.699,-0.735 -0.8811,-1.48 -0.7911,-2.242 0.1802,-1.525 1.5924,-3.06 3.9356,-3.942 1.1716,-0.44 2.5764,-0.712 4.0215,-0.808 z"
         id="path879" />
      <path
         id="path881"
         style="opacity:1;fill:#fffff0;fill-opacity:1;stroke-width:0.352566;stroke-linecap:round;stroke-linejoin:round"
         d="m 99.7048,110.62 a 3.0068,1.05718 0 0 1 -3.0068,1.057 3.0068,1.05718 0 0 1 -3.0068,-1.057 3.0068,1.05718 0 0 1 3.0068,-1.057 3.0068,1.05718 0 0 1 3.0068,1.057 z" />
    </g>
    <path
       style="fill:none;stroke:#db3834;stroke-width:1.5;stroke-linecap:round;stroke-linejoin:round;stroke-miterlimit:4;stroke-dasharray:none;stroke-opacity:1"
       d="m 102.151,139.303 c 0,0 -0.08,-1.398 0.09,-3.295 1.694,-2.498 8.855,-7.676 10.45,-9.362 2.175,-2.3 3.305,-0.93 0.574,2.166 -2.602,2.949 -8.763,8.124 -8.649,8.764 0.317,1.795 0.462,4.834 0.513,4.693 0.921,-2.551 0.507,-2.311 1.437,-3.955 1.292,-1.358 3.909,-3.382 5.362,-4.915 1.19,-0.989 4.876,-5.13 6.139,-6.167 0.701,-1.575 3.27,-0.536 4.421,-0.239 0.935,-0.239 -0.616,0.299 -2.674,2.544 -0.04,0.04 -2.034,2.677 -10.194,9.04 0.17,1.843 0.498,2.179 0.915,3.538 0.587,-0.947 0.425,-1.295 1.35,-3.134 2.081,-1.242 5.739,-3.903 9.821,-8.073 1.424,-1.117 3.826,-3.688 5.988,-3.761 1.336,-0.06 -1.146,1.908 -1.827,2.766 0.03,0.598 -5.607,6.044 -9.895,9.259 0.513,1.67 0.706,3.622 1.557,4.718 0.912,-0.769 1.03,-2.387 1.515,-4.728 1.932,-1.233 7.953,-6.13 9.888,-8.777 1.715,-1.874 0.633,-1.951 2.341,-2.239 1.697,0.296 1.507,-0.764 -0.314,3.224 -0.944,2.077 -6.402,5.426 -7.145,7.147 0.145,1.662 0.327,2.595 1.069,3.865 1.107,-1.285 0.655,-1.426 1.908,-4.344 2.466,-2.089 5.568,-3.842 6.44,-5.455 1.533,-2.429 0.669,-1.686 1.355,-3.026 0.127,-0.309 0.237,-0.626 0.316,-0.951"
       id="path19268"
       sodipodi:nodetypes="ccssssccccscccccccccccccccccc"
       clip-path="url(#clipPath8723)" />
  </g>
</svg>
