<?xml version="1.0" encoding="UTF-8" standalone="no"?>
<!-- Created with Inkscape (http://www.inkscape.org/) -->

<svg
   width="743.228mm"
   height="923.276mm"
   viewBox="0 0 743.228 923.276"
   version="1.1"
   id="svg5"
   inkscape:version="1.1 (c68e22c387, 2021-05-23)"
   sodipodi:docname="trshcn.svg"
   xmlns:inkscape="http://www.inkscape.org/namespaces/inkscape"
   xmlns:sodipodi="http://sodipodi.sourceforge.net/DTD/sodipodi-0.dtd"
   xmlns="http://www.w3.org/2000/svg"
   xmlns:svg="http://www.w3.org/2000/svg">
  <sodipodi:namedview
     id="namedview7"
     pagecolor="#ffffff"
     bordercolor="#666666"
     borderopacity="1.0"
     inkscape:pageshadow="2"
     inkscape:pageopacity="0.0"
     inkscape:pagecheckerboard="0"
     inkscape:document-units="mm"
     showgrid="false"
     width="1200mm"
     fit-margin-top="5"
     lock-margins="true"
     fit-margin-left="5"
     fit-margin-right="5"
     fit-margin-bottom="5"
     inkscape:zoom="0.266055"
     inkscape:cx="1441.43"
     inkscape:cy="1977.03"
     inkscape:window-width="1920"
     inkscape:window-height="1047"
     inkscape:window-x="-9"
     inkscape:window-y="-9"
     inkscape:window-maximized="1"
     inkscape:current-layer="layer1">
    <inkscape:grid
       type="axonomgrid"
       id="grid824"
       units="px"
       spacingy="26.458333"
       originx="-888.63"
       originy="-497.708" />
  </sodipodi:namedview>
  <defs
     id="defs2">
    <inkscape:path-effect
       effect="bspline"
       id="path-effect13639"
       is_visible="true"
       lpeversion="1"
       weight="33.3333"
       steps="2"
       helper_size="0"
       apply_no_weight="true"
       apply_with_weight="true"
       only_selected="false" />
    <inkscape:path-effect
       effect="bspline"
       id="path-effect13635"
       is_visible="true"
       lpeversion="1"
       weight="33.3333"
       steps="2"
       helper_size="0"
       apply_no_weight="true"
       apply_with_weight="true"
       only_selected="false" />
    <inkscape:path-effect
       effect="bspline"
       id="path-effect13617"
       is_visible="true"
       lpeversion="1"
       weight="33.3333"
       steps="2"
       helper_size="0"
       apply_no_weight="true"
       apply_with_weight="true"
       only_selected="false" />
    <inkscape:path-effect
       effect="bspline"
       id="path-effect13611"
       is_visible="true"
       lpeversion="1"
       weight="33.3333"
       steps="2"
       helper_size="0"
       apply_no_weight="true"
       apply_with_weight="true"
       only_selected="false" />
    <inkscape:path-effect
       effect="bspline"
       id="path-effect13458"
       is_visible="true"
       lpeversion="1"
       weight="33.3333"
       steps="2"
       helper_size="0"
       apply_no_weight="true"
       apply_with_weight="true"
       only_selected="false" />
    <inkscape:path-effect
       effect="bspline"
       id="path-effect13454"
       is_visible="true"
       lpeversion="1"
       weight="33.3333"
       steps="2"
       helper_size="0"
       apply_no_weight="true"
       apply_with_weight="true"
       only_selected="false" />
    <inkscape:path-effect
       effect="powerclip"
       id="path-effect11820"
       is_visible="true"
       lpeversion="1"
       inverse="true"
       flatten="false"
       hide_clip="false"
       message="Use fill-rule evenodd on &lt;b&gt;fill and stroke&lt;/b&gt; dialog if no flatten result after convert clip to paths." />
    <inkscape:path-effect
       effect="bspline"
       id="path-effect11707"
       is_visible="true"
       lpeversion="1"
       weight="33.3333"
       steps="2"
       helper_size="0"
       apply_no_weight="true"
       apply_with_weight="true"
       only_selected="false" />
    <inkscape:path-effect
       effect="powerclip"
       id="path-effect11521"
       is_visible="true"
       lpeversion="1"
       inverse="true"
       flatten="false"
       hide_clip="false"
       message="Use fill-rule evenodd on &lt;b&gt;fill and stroke&lt;/b&gt; dialog if no flatten result after convert clip to paths." />
    <inkscape:path-effect
       effect="bspline"
       id="path-effect11435"
       is_visible="true"
       lpeversion="1"
       weight="33.3333"
       steps="2"
       helper_size="0"
       apply_no_weight="true"
       apply_with_weight="true"
       only_selected="false" />
    <inkscape:path-effect
       effect="bspline"
       id="path-effect8167"
       is_visible="true"
       lpeversion="1"
       weight="33.3333"
       steps="2"
       helper_size="0"
       apply_no_weight="true"
       apply_with_weight="true"
       only_selected="false" />
    <inkscape:path-effect
       effect="bspline"
       id="path-effect8103"
       is_visible="true"
       lpeversion="1"
       weight="33.3333"
       steps="2"
       helper_size="0"
       apply_no_weight="true"
       apply_with_weight="true"
       only_selected="false" />
    <inkscape:path-effect
       effect="bspline"
       id="path-effect894"
       is_visible="true"
       lpeversion="1"
       weight="33.3333"
       steps="2"
       helper_size="0"
       apply_no_weight="true"
       apply_with_weight="true"
       only_selected="false" />
    <inkscape:path-effect
       effect="bspline"
       id="path-effect32278"
       is_visible="true"
       lpeversion="1"
       weight="33.3333"
       steps="2"
       helper_size="0"
       apply_no_weight="true"
       apply_with_weight="true"
       only_selected="false" />
    <inkscape:path-effect
       effect="bspline"
       id="path-effect27089"
       is_visible="true"
       lpeversion="1"
       weight="33.3333"
       steps="2"
       helper_size="0"
       apply_no_weight="true"
       apply_with_weight="true"
       only_selected="false" />
    <inkscape:path-effect
       effect="bspline"
       id="path-effect19887"
       is_visible="true"
       lpeversion="1"
       weight="33.3333"
       steps="2"
       helper_size="0"
       apply_no_weight="true"
       apply_with_weight="true"
       only_selected="false" />
    <inkscape:path-effect
       effect="bspline"
       id="path-effect19811"
       is_visible="true"
       lpeversion="1"
       weight="33.3333"
       steps="2"
       helper_size="0"
       apply_no_weight="true"
       apply_with_weight="true"
       only_selected="false" />
    <inkscape:path-effect
       effect="bspline"
       id="path-effect19755"
       is_visible="true"
       lpeversion="1"
       weight="33.3333"
       steps="2"
       helper_size="0"
       apply_no_weight="true"
       apply_with_weight="true"
       only_selected="false" />
    <inkscape:path-effect
       effect="bspline"
       id="path-effect11789"
       is_visible="true"
       lpeversion="1"
       weight="33.3333"
       steps="2"
       helper_size="0"
       apply_no_weight="true"
       apply_with_weight="true"
       only_selected="false" />
    <inkscape:path-effect
       effect="bspline"
       id="path-effect3477"
       is_visible="true"
       lpeversion="1"
       weight="33.3333"
       steps="2"
       helper_size="0"
       apply_no_weight="true"
       apply_with_weight="true"
       only_selected="false" />
    <inkscape:path-effect
       effect="bspline"
       id="path-effect3198"
       is_visible="true"
       lpeversion="1"
       weight="33.3333"
       steps="2"
       helper_size="0"
       apply_no_weight="true"
       apply_with_weight="true"
       only_selected="false" />
    <inkscape:path-effect
       effect="bspline"
       id="path-effect1092"
       is_visible="true"
       lpeversion="1"
       weight="33.3333"
       steps="2"
       helper_size="0"
       apply_no_weight="true"
       apply_with_weight="true"
       only_selected="false" />
    <inkscape:path-effect
       effect="bspline"
       id="path-effect982"
       is_visible="true"
       lpeversion="1"
       weight="33.3333"
       steps="2"
       helper_size="0"
       apply_no_weight="true"
       apply_with_weight="true"
       only_selected="false" />
    <clipPath
       clipPathUnits="userSpaceOnUse"
       id="clipPath11517">
      <path
         style="display:none;fill:none;stroke:#000000;stroke-width:1px;stroke-linecap:butt;stroke-linejoin:miter;stroke-opacity:1"
         d="m 692.83,1700.58 c 0,0 2251.65,0 2251.65,0 0,0 -259.81,-250 -259.81,-250 0,0 -1732.039,0 -1732.039,0 0,0 -259.801,250 -259.801,250 z"
         id="path11519"
         inkscape:path-effect="#path-effect11435"
         inkscape:original-d="m 692.83,1700.58 c 0,0 2251.65,0 2251.65,0 0,0 -259.81,-250 -259.81,-250 0,0 -1732.039,0 -1732.039,0 0,0 -259.801,250 -259.801,250 z" />
      <path
         id="lpe_path-effect11521"
         style="fill:none;stroke:#000000;stroke-width:1px;stroke-linecap:butt;stroke-linejoin:miter;stroke-opacity:1"
         class="powerclip"
         d="m 428.02,1495.58 h 2781.26 v 1160 H 428.02 Z m 264.81,205 c 0,0 2251.65,0 2251.65,0 0,0 -259.81,-250 -259.81,-250 0,0 -1732.039,0 -1732.039,0 0,0 -259.801,250 -259.801,250 z" />
    </clipPath>
    <clipPath
       clipPathUnits="userSpaceOnUse"
       id="clipPath11816">
      <path
         style="display:none;fill:none;stroke:#000000;stroke-width:0.264583px;stroke-linecap:butt;stroke-linejoin:miter;stroke-opacity:1"
         d="m 824.889,767.292 c 0,0 870.711,0 870.711,0 0,0 0,52.916 0,52.916 0,0 -870.711,0 -870.711,0 0,0 0,-52.916 0,-52.916 z"
         id="path11818"
         inkscape:original-d="m 824.889,767.292 c 0,0 870.711,0 870.711,0 0,0 0,52.916 0,52.916 0,0 -870.711,0 -870.711,0 0,0 0,-52.916 0,-52.916 z"
         inkscape:path-effect="#path-effect11707" />
      <path
         id="lpe_path-effect11820"
         style="fill:none;stroke:#000000;stroke-width:0.264583px;stroke-linecap:butt;stroke-linejoin:miter;stroke-opacity:1"
         class="powerclip"
         d="m 888.63,497.708 h 743.23 v 314.27 H 888.63 Z m -63.741,269.584 c 0,0 0,52.916 0,52.916 0,0 870.711,0 870.711,0 0,0 0,-52.916 0,-52.916 0,0 -870.711,0 -870.711,0 z" />
    </clipPath>
  </defs>
  <g
     inkscape:label="Layer 1"
     inkscape:groupmode="layer"
     id="layer1"
     transform="translate(-888.63,-497.708)">
    <path
       style="fill:#2b7c3f;fill-opacity:1;stroke:none;stroke-width:0.264583px;stroke-linecap:butt;stroke-linejoin:miter;stroke-opacity:1"
       d="m 916.543,793.749 c 0,0 0,-26.458 0,-26.458 0,0 114.567,-198.437 114.567,-198.437 0,0 0,26.458 0,26.458 0,0 -114.567,198.437 -114.567,198.437 z"
       id="path3196"
       inkscape:path-effect="#path-effect3198"
       inkscape:original-d="m 916.543,793.749 c 0,0 0,-26.458 0,-26.458 0,0 114.567,-198.437 114.567,-198.437 0,0 0,26.458 0,26.458 0,0 -114.567,198.437 -114.567,198.437 z" />
    <path
       style="fill:#26863e;fill-opacity:1;stroke:none;stroke-width:0.264583px;stroke-linecap:butt;stroke-linejoin:miter;stroke-opacity:1"
       d="m 1489.38,595.312 c 0,-8.819 0,-17.639 0,-26.458 0,0 114.57,198.437 114.57,198.437 0,0 0,26.458 0,26.458 0,0 -114.57,-198.437 -114.57,-198.437"
       id="path27087"
       inkscape:path-effect="#path-effect27089"
       inkscape:original-d="m 1489.38,595.312 c 0,-8.819 0,-26.458 0,-26.458 0,0 114.57,198.437 114.57,198.437 0,0 0,26.458 0,26.458 0,0 -114.57,-198.437 -114.57,-198.437" />
    <path
       style="fill:#193620;fill-opacity:1;stroke:none;stroke-width:0.264583px;stroke-linecap:butt;stroke-linejoin:miter;stroke-opacity:1"
       d="m 916.544,793.749 c 0,0 687.406,0 687.406,0 0,0 -114.57,-206.02 -114.57,-206.02 0,0 -458.27,0 -458.27,0 0,0 -114.566,206.02 -114.566,206.02 z"
       id="path1090"
       inkscape:path-effect="#path-effect1092"
       inkscape:original-d="M 916.544,793.749 H 1603.95 L 1489.38,587.729 H 1031.11 Z"
       sodipodi:nodetypes="ccccc" />
    <g
       id="g11670"
       clip-path="url(#clipPath11816)"
       inkscape:path-effect="#path-effect11820">
      <path
         id="path11787"
         style="fill:#2f9f4b;fill-opacity:1;stroke:none;stroke-width:0.999999px;stroke-linecap:butt;stroke-linejoin:miter;stroke-opacity:1"
         d="m 2598.09,1500.58 v 100 l 606.19,1049.99 v -99.99 z m 0,100 H 1039.26 l -86.629,150 H 2684.67 Z m -1558.87,-100 -606.2,1050 v 100 l 606.2,-1050 z m -518.675,950 -0.924,150 H 3117.7 l -6.05,-150 z"
         transform="matrix(0.264583,0,0,0.264583,779.06,105.68)"
         clip-path="url(#clipPath11517)"
         inkscape:path-effect="#path-effect11521"
         inkscape:original-d="m 2598.09,1500.58 v 100 l 606.19,1049.99 v -99.99 z m 0,100 H 1039.26 l -86.629,150 H 2684.67 Z m -1558.87,-100 -606.2,1050 v 100 l 606.2,-1050 z m -518.675,950 -0.924,150 H 3117.7 l -6.05,-150 z"
         sodipodi:nodetypes="cccccccccccccccccccc" />
    </g>
    <path
       style="fill:#2b8a43;fill-opacity:1;stroke:none;stroke-width:0.264583px;stroke-linecap:butt;stroke-linejoin:miter;stroke-opacity:1"
       d="m 902.671,767.291 c 0,0 715.599,10e-4 715.599,10e-4 0,0 0,26.458 0,26.458 0,0 -715.599,-10e-4 -715.599,-10e-4 0,0 0,-26.458 0,-26.458 z"
       id="path3475"
       inkscape:path-effect="#path-effect3477"
       inkscape:original-d="m 902.671,767.291 715.599,10e-4 v 26.458 l -715.599,-10e-4 z"
       sodipodi:nodetypes="ccccc" />
    <path
       style="fill:#2d7f42;fill-opacity:1;stroke:none;stroke-width:65.0198;stroke-linecap:round;stroke-linejoin:round"
       d="m 610.396,2599.6 c 4.179,130.35 18.534,261.23 26.723,391.76 48.504,650.79 95.596,1301.68 139.404,1952.81 15.521,12.89 42.21,1.72 61.613,5.81 672.194,2.74 1344.434,3.76 2016.614,-0.67 14.13,-16.29 4.52,-47.33 9.98,-68.95 51.81,-755.76 107.11,-1511.25 163.11,-2266.71 0.1,-32.63 -51.81,-8.8 -73.81,-16.06 -779.88,0 -1559.75,0 -2339.631,0 z"
       id="path20182"
       transform="matrix(0.264583,0,0,0.264583,779.06,105.68)" />
    <path
       style="fill:#217837;fill-opacity:1;stroke:none;stroke-width:0.264583px;stroke-linecap:butt;stroke-linejoin:miter;stroke-opacity:1"
       d="m 1031.11,568.854 c 0,0 458.27,0 458.27,0 0,0 0,18.875 0,18.875 0,0 -458.27,0 -458.27,0 0,0 0,-18.875 0,-18.875 z"
       id="path8165"
       inkscape:path-effect="#path-effect8167"
       inkscape:original-d="m 1031.11,568.854 h 458.27 v 18.875 h -458.27 z"
       sodipodi:nodetypes="ccccc" />
    <text
       xml:space="preserve"
       style="font-size:55.614px;line-height:1.25;font-family:GoodFont3;-inkscape-font-specification:GoodFont3;text-align:center;text-anchor:middle;fill:#ffffff;stroke-width:0.196193"
       x="1255.28"
       y="1080.42"
       id="text8857"><tspan
         sodipodi:role="line"
         id="tspan8855"
         style="font-size:55.614px;text-align:center;text-anchor:middle;fill:#ffffff;stroke-width:0.196193"
         x="1255.28"
         y="1080.42">Trsh</tspan><tspan
         sodipodi:role="line"
         style="font-size:55.614px;text-align:center;text-anchor:middle;fill:#ffffff;stroke-width:0.196193"
         x="1255.28"
         y="1149.94"
         id="tspan11642">Cn</tspan></text>
    <g
       id="g13625"
       transform="matrix(0.807994,-0.087584,0.087584,0.807994,106.438,285.471)">
      <path
         style="fill:#ffffff;stroke:none;stroke-width:0.264583px;stroke-linecap:butt;stroke-linejoin:miter;stroke-opacity:1"
         d="m 1135.48,1111.07 c 11.2,18.15 33.6,51.61 46.22,67.35 12.62,15.74 15.46,13.75 23.26,-7.66 7.79,-21.41 20.55,-62.24 24.81,-83.36 4.25,-21.13 0,-22.55 -19,-19.29 -19,3.26 -52.75,11.2 -69.62,16.59 -16.87,5.39 -16.87,8.22 -5.67,26.37 z"
         id="path13452"
         inkscape:path-effect="#path-effect13454"
         inkscape:original-d="m 1124.28,1095.76 c 22.4,33.46 44.8,66.92 67.2,100.39 2.84,-1.99 5.68,-3.98 8.51,-5.96 12.76,-40.84 25.52,-81.67 38.28,-122.5 -4.25,-1.42 -8.5,-2.84 -12.76,-4.26 -33.74,7.94 -67.49,15.88 -101.23,23.82 0,2.84 0,5.67 0,8.51 z" />
      <path
         style="fill:#ffffff;stroke:none;stroke-width:0.264583px;stroke-linecap:butt;stroke-linejoin:miter;stroke-opacity:1"
         d="m 1162,1172.75 c -2.55,11.21 -14.18,22.84 -18.3,35.17 -4.11,12.33 -0.71,25.37 13.35,33.74 14.06,8.37 38.69,12.05 51.16,16.31 12.47,4.25 12.77,9.63 13.19,18.71 0.43,9.08 0.99,22.12 -6.66,28.07 -7.66,5.96 -23.54,4.82 -42.82,0.15 -19.28,-4.68 -41.97,-12.91 -55.58,-26.23 -13.62,-13.33 -18.15,-31.77 -18.86,-47.93 -0.71,-16.16 2.41,-30.06 9.5,-45.37 7.09,-15.31 18.15,-32.04 25.38,-41.54 7.23,-9.5 10.63,-11.77 13.18,-11.2 2.56,0.56 4.26,3.97 8.37,11.06 4.11,7.09 10.64,17.86 8.09,29.06 z"
         id="path13456"
         inkscape:path-effect="#path-effect13458"
         inkscape:original-d="m 1171.07,1172.33 c -11.63,11.62 -23.26,23.25 -34.88,34.88 3.4,13.04 6.8,26.08 10.21,39.13 24.67,3.97 49.34,7.37 74.01,11.06 0.28,4.82 0.57,10.2 0.85,15.31 0.57,13.05 1.13,26.09 1.7,39.13 -15.88,-1.13 -31.76,-2.27 -47.64,-3.4 -22.68,-8.22 -45.37,-16.45 -68.06,-24.67 -4.53,-18.43 -9.07,-36.87 -13.61,-55.3 3.12,-13.89 6.24,-27.79 9.36,-41.68 11.06,-16.73 22.12,-33.46 33.18,-50.2 3.4,-2.26 6.8,-4.53 10.21,-6.8 1.7,3.4 3.4,6.81 5.1,10.21 6.52,10.78 13.05,21.55 19.57,32.33 z" />
    </g>
    <g
       id="g13621"
       transform="matrix(-0.601843,-0.546177,0.546177,-0.601843,1503.78,2609.59)">
      <path
         style="fill:#ffffff;stroke:none;stroke-width:0.264583px;stroke-linecap:butt;stroke-linejoin:miter;stroke-opacity:1"
         d="m 1297.12,1102.56 c 11.2,18.15 33.6,51.61 46.22,67.35 12.62,15.74 15.46,13.75 23.26,-7.66 7.79,-21.41 20.55,-62.24 24.81,-83.36 4.25,-21.13 0,-22.55 -19,-19.29 -19,3.26 -52.75,11.2 -69.62,16.59 -16.87,5.39 -16.87,8.22 -5.67,26.37 z"
         id="path13607"
         inkscape:path-effect="#path-effect13611"
         inkscape:original-d="m 1285.92,1087.25 c 22.4,33.46 44.8,66.92 67.2,100.39 2.84,-1.99 5.68,-3.98 8.51,-5.96 12.76,-40.84 25.52,-81.67 38.28,-122.5 -4.25,-1.42 -8.5,-2.84 -12.76,-4.26 -33.74,7.94 -67.49,15.88 -101.23,23.82 0,2.84 0,5.67 0,8.51 z" />
      <path
         style="fill:#ffffff;stroke:none;stroke-width:0.264583px;stroke-linecap:butt;stroke-linejoin:miter;stroke-opacity:1"
         d="m 1323.64,1164.24 c -2.55,11.21 -14.18,22.84 -18.3,35.17 -4.11,12.33 -0.71,25.37 13.35,33.74 14.06,8.37 38.69,12.05 51.16,16.31 12.47,4.25 12.77,9.63 13.19,18.71 0.43,9.08 0.99,22.12 -6.66,28.07 -7.66,5.96 -23.54,4.82 -42.82,0.15 -19.28,-4.68 -41.97,-12.91 -55.58,-26.23 -13.62,-13.33 -18.15,-31.77 -18.86,-47.93 -0.71,-16.16 2.41,-30.06 9.5,-45.37 7.09,-15.31 18.15,-32.04 25.38,-41.54 7.23,-9.5 10.63,-11.77 13.18,-11.2 2.56,0.56 4.26,3.97 8.37,11.06 4.11,7.09 10.64,17.86 8.09,29.06 z"
         id="path13613"
         inkscape:path-effect="#path-effect13617"
         inkscape:original-d="m 1332.71,1163.82 c -11.63,11.62 -23.26,23.25 -34.88,34.88 3.4,13.04 6.8,26.08 10.21,39.13 24.67,3.97 49.34,7.37 74.01,11.06 0.28,4.82 0.57,10.2 0.85,15.31 0.57,13.05 1.13,26.09 1.7,39.13 -15.88,-1.13 -31.76,-2.27 -47.64,-3.4 -22.68,-8.22 -45.37,-16.45 -68.06,-24.67 -4.53,-18.43 -9.07,-36.87 -13.61,-55.3 3.12,-13.89 6.24,-27.79 9.36,-41.68 11.06,-16.73 22.12,-33.46 33.18,-50.2 3.4,-2.26 6.8,-4.53 10.21,-6.8 1.7,3.4 3.4,6.81 5.1,10.21 6.52,10.78 13.05,21.55 19.57,32.33 z" />
    </g>
    <g
       id="g13631"
       transform="matrix(-0.283759,0.761581,-0.761581,-0.283759,2560.31,316.975)">
      <path
         style="fill:#ffffff;stroke:none;stroke-width:0.264583px;stroke-linecap:butt;stroke-linejoin:miter;stroke-opacity:1"
         d="m 1297.12,1102.56 c 11.2,18.15 33.6,51.61 46.22,67.35 12.62,15.74 15.46,13.75 23.26,-7.66 7.79,-21.41 20.55,-62.24 24.81,-83.36 4.25,-21.13 0,-22.55 -19,-19.29 -19,3.26 -52.75,11.2 -69.62,16.59 -16.87,5.39 -16.87,8.22 -5.67,26.37 z"
         id="path13627"
         inkscape:path-effect="#path-effect13635"
         inkscape:original-d="m 1285.92,1087.25 c 22.4,33.46 44.8,66.92 67.2,100.39 2.84,-1.99 5.68,-3.98 8.51,-5.96 12.76,-40.84 25.52,-81.67 38.28,-122.5 -4.25,-1.42 -8.5,-2.84 -12.76,-4.26 -33.74,7.94 -67.49,15.88 -101.23,23.82 0,2.84 0,5.67 0,8.51 z" />
      <path
         style="fill:#ffffff;stroke:none;stroke-width:0.264583px;stroke-linecap:butt;stroke-linejoin:miter;stroke-opacity:1"
         d="m 1323.64,1164.24 c -2.55,11.21 -14.18,22.84 -18.3,35.17 -4.11,12.33 -0.71,25.37 13.35,33.74 14.06,8.37 38.69,12.05 51.16,16.31 12.47,4.25 12.77,9.63 13.19,18.71 0.43,9.08 0.99,22.12 -6.66,28.07 -7.66,5.96 -23.54,4.82 -42.82,0.15 -19.28,-4.68 -41.97,-12.91 -55.58,-26.23 -13.62,-13.33 -18.15,-31.77 -18.86,-47.93 -0.71,-16.16 2.41,-30.06 9.5,-45.37 7.09,-15.31 18.15,-32.04 25.38,-41.54 7.23,-9.5 10.63,-11.77 13.18,-11.2 2.56,0.56 4.26,3.97 8.37,11.06 4.11,7.09 10.64,17.86 8.09,29.06 z"
         id="path13629"
         inkscape:path-effect="#path-effect13639"
         inkscape:original-d="m 1332.71,1163.82 c -11.63,11.62 -23.26,23.25 -34.88,34.88 3.4,13.04 6.8,26.08 10.21,39.13 24.67,3.97 49.34,7.37 74.01,11.06 0.28,4.82 0.57,10.2 0.85,15.31 0.57,13.05 1.13,26.09 1.7,39.13 -15.88,-1.13 -31.76,-2.27 -47.64,-3.4 -22.68,-8.22 -45.37,-16.45 -68.06,-24.67 -4.53,-18.43 -9.07,-36.87 -13.61,-55.3 3.12,-13.89 6.24,-27.79 9.36,-41.68 11.06,-16.73 22.12,-33.46 33.18,-50.2 3.4,-2.26 6.8,-4.53 10.21,-6.8 1.7,3.4 3.4,6.81 5.1,10.21 6.52,10.78 13.05,21.55 19.57,32.33 z" />
    </g>
  </g>
</svg>
